<?xml version="1.0" encoding="UTF-8" standalone="no"?>
<svg
   xmlns:dc="http://purl.org/dc/elements/1.1/"
   xmlns:cc="http://creativecommons.org/ns#"
   xmlns:rdf="http://www.w3.org/1999/02/22-rdf-syntax-ns#"
   xmlns:svg="http://www.w3.org/2000/svg"
   xmlns="http://www.w3.org/2000/svg"
   xmlns:sodipodi="http://sodipodi.sourceforge.net/DTD/sodipodi-0.dtd"
   xmlns:inkscape="http://www.inkscape.org/namespaces/inkscape"
   width="25.020933in"
   height="29.34828in"
   viewBox="0 0 1801.5072 2113.08"
   version="1.1"
   id="svg3"
   sodipodi:docname="oas3_about.svg"
   inkscape:version="0.92.3 (2405546, 2018-03-11)"
   inkscape:export-filename="C:\Users\jongw\Pictures\Logos\oas3\oas3-about.png"
   inkscape:export-xdpi="10.536276"
   inkscape:export-ydpi="10.536276">
  <metadata
     id="metadata9">
    <rdf:RDF>
      <cc:Work
         rdf:about="">
        <dc:format>image/svg+xml</dc:format>
        <dc:type
           rdf:resource="http://purl.org/dc/dcmitype/StillImage" />
        <dc:title></dc:title>
      </cc:Work>
    </rdf:RDF>
  </metadata>
  <defs
     id="defs7" />
  <sodipodi:namedview
     pagecolor="#ffffff"
     bordercolor="#666666"
     borderopacity="1"
     objecttolerance="10"
     gridtolerance="10"
     guidetolerance="10"
     inkscape:pageopacity="0"
     inkscape:pageshadow="2"
     inkscape:window-width="1600"
     inkscape:window-height="847"
     id="namedview5"
     showgrid="true"
     inkscape:zoom="0.11313708"
     inkscape:cx="-2121.5788"
     inkscape:cy="571.19672"
     inkscape:window-x="-8"
     inkscape:window-y="-8"
     inkscape:window-maximized="1"
     inkscape:current-layer="svg3" />
  <text
     xml:space="preserve"
     style="font-style:normal;font-variant:normal;font-weight:normal;font-stretch:normal;font-size:823.8102417px;line-height:1.25;font-family:'Bodoni MT';-inkscape-font-specification:'Bodoni MT';letter-spacing:0px;word-spacing:0px;writing-mode:lr-tb;fill:#a29f51;fill-opacity:1;stroke:#000000;stroke-width:4.29067755;stroke-opacity:1"
     x="-168.73264"
     y="1171.3199"
     id="text4517"
     transform="scale(1.0902031,0.91726027)"><tspan
       sodipodi:role="line"
       id="tspan4515"
       x="-168.73264"
       y="1171.3199"
       style="font-style:normal;font-variant:normal;font-weight:normal;font-stretch:normal;font-size:1716.2713623px;font-family:'Bodoni MT';-inkscape-font-specification:'Bodoni MT';letter-spacing:-48.13500977px;writing-mode:lr-tb;fill:#a29f51;fill-opacity:1;stroke:#000000;stroke-width:4.29067755;stroke-opacity:1"><tspan
         style="font-style:normal;font-variant:normal;font-weight:normal;font-stretch:normal;font-family:'Bodoni MT';-inkscape-font-specification:'Bodoni MT';letter-spacing:-48.13500977px;stroke:#000000;stroke-width:4.29067755;stroke-opacity:1"
         id="tspan4529"
         dx="0">{ }</tspan></tspan></text>
  <flowRoot
     xml:space="preserve"
     id="flowRoot4519"
     style="font-style:normal;font-variant:normal;font-weight:normal;font-stretch:normal;font-size:192px;line-height:1.25;font-family:'Berthold Akzidenz Grotesk';-inkscape-font-specification:'Berthold Akzidenz Grotesk';letter-spacing:0px;word-spacing:0px;writing-mode:tb-rl;fill:#000000;fill-opacity:1;stroke:none"
     transform="matrix(0.7500013,0,0,0.7500013,5.8834489,-179.0806)"><flowRegion
       id="flowRegion4521"><rect
         id="rect4523"
         width="548.00775"
         height="724.78442"
         x="-2218.5476"
         y="-287.3103" /></flowRegion><flowPara
       id="flowPara4525" /></flowRoot>  <g
     id="g900"
     transform="translate(-14.002467,-128.95137)"
     style="fill:#fffffc;fill-opacity:1">
    <text
       transform="scale(1.1530663,0.8672528)"
       id="text4517-8-8"
       y="1382.896"
       x="342.59"
       style="font-style:normal;font-variant:normal;font-weight:normal;font-stretch:normal;font-size:908.01861572px;line-height:1.25;font-family:'Berthold Akzidenz Grotesk';-inkscape-font-specification:'Berthold Akzidenz Grotesk';letter-spacing:0px;word-spacing:0px;writing-mode:lr-tb;fill:#fffffc;fill-opacity:1;stroke:none;stroke-width:4.72926235"
       xml:space="preserve"><tspan
         style="font-style:normal;font-variant:normal;font-weight:normal;font-stretch:normal;font-size:1891.70532227px;font-family:Papyrus;-inkscape-font-specification:Papyrus;letter-spacing:-53.05528259px;writing-mode:lr-tb;fill:#fffffc;fill-opacity:1;stroke-width:4.72926235"
         y="1382.896"
         x="342.59"
         id="tspan4515-5-3"
         sodipodi:role="line"><tspan
           id="tspan4529-0-8"
           style="font-style:normal;font-variant:normal;font-weight:normal;font-stretch:normal;font-family:'Matura MT Script Capitals';-inkscape-font-specification:'Matura MT Script Capitals';letter-spacing:-53.05528259px;fill:#fffffc;fill-opacity:1;stroke-width:4.72926235"><tspan
             id="tspan4537-0-3"
             style="font-style:normal;font-variant:normal;font-weight:normal;font-stretch:normal;font-size:1891.70532227px;line-height:1.25;font-family:Papyrus;-inkscape-font-specification:Papyrus;font-variant-ligatures:normal;font-variant-position:normal;font-variant-caps:normal;font-variant-numeric:normal;font-variant-alternates:normal;font-feature-settings:normal;text-indent:0;text-align:start;text-decoration:none;text-decoration-line:none;text-decoration-style:solid;text-decoration-color:#000000;letter-spacing:-53.05528259px;word-spacing:0px;text-transform:none;writing-mode:lr-tb;direction:ltr;text-orientation:mixed;dominant-baseline:auto;baseline-shift:baseline;text-anchor:start;white-space:normal;shape-padding:0;opacity:1;vector-effect:none;fill:#fffffc;fill-opacity:1;stroke:none;stroke-width:4.72926235;stroke-linecap:butt;stroke-linejoin:miter;stroke-miterlimit:4;stroke-dasharray:none;stroke-dashoffset:0;stroke-opacity:1">3</tspan></tspan></tspan></text>
    <text
       transform="scale(1.1580758,0.86350136)"
       id="text4517-8-8-0"
       y="1374.0079"
       x="278.21555"
       style="font-style:normal;font-variant:normal;font-weight:normal;font-stretch:normal;font-size:838.23303223px;line-height:1.25;font-family:'Berthold Akzidenz Grotesk';-inkscape-font-specification:'Berthold Akzidenz Grotesk';letter-spacing:0px;word-spacing:0px;writing-mode:lr-tb;fill:#fffffc;fill-opacity:1;stroke:none;stroke-width:4.36579561"
       xml:space="preserve"><tspan
         style="font-style:normal;font-variant:normal;font-weight:normal;font-stretch:normal;font-size:1746.31872559px;font-family:Papyrus;-inkscape-font-specification:Papyrus;letter-spacing:-48.97773361px;writing-mode:lr-tb;fill:#fffffc;fill-opacity:1;stroke-width:4.36579561"
         y="1374.0079"
         x="278.21555"
         id="tspan4515-5-3-4"
         sodipodi:role="line"><tspan
           id="tspan4529-0-8-0"
           style="font-style:normal;font-variant:normal;font-weight:normal;font-stretch:normal;font-family:'Matura MT Script Capitals';-inkscape-font-specification:'Matura MT Script Capitals';letter-spacing:-48.97773361px;fill:#fffffc;fill-opacity:1;stroke-width:4.36579561"><tspan
             id="tspan4537-0-3-0"
             style="font-style:normal;font-variant:normal;font-weight:normal;font-stretch:normal;font-size:1746.31872559px;line-height:1.25;font-family:Papyrus;-inkscape-font-specification:Papyrus;font-variant-ligatures:normal;font-variant-position:normal;font-variant-caps:normal;font-variant-numeric:normal;font-variant-alternates:normal;font-feature-settings:normal;text-indent:0;text-align:start;text-decoration:none;text-decoration-line:none;text-decoration-style:solid;text-decoration-color:#000000;letter-spacing:-48.97773361px;word-spacing:0px;text-transform:none;writing-mode:lr-tb;direction:ltr;text-orientation:mixed;dominant-baseline:auto;baseline-shift:baseline;text-anchor:start;white-space:normal;shape-padding:0;opacity:1;vector-effect:none;fill:#fffffc;fill-opacity:1;stroke:none;stroke-width:4.36579561;stroke-linecap:butt;stroke-linejoin:miter;stroke-miterlimit:4;stroke-dasharray:none;stroke-dashoffset:0;stroke-opacity:1">3</tspan></tspan></tspan></text>
  </g>
  <text
     xml:space="preserve"
     style="font-style:normal;font-variant:normal;font-weight:normal;font-stretch:normal;font-size:845.17773438px;line-height:1.25;font-family:'Berthold Akzidenz Grotesk';-inkscape-font-specification:'Berthold Akzidenz Grotesk';letter-spacing:0px;word-spacing:0px;writing-mode:lr-tb;fill:#000600;fill-opacity:1;stroke:none;stroke-width:4.40196657"
     x="359.97275"
     y="1181.6135"
     id="text4517-8"
     transform="scale(1.1184801,0.89407044)"><tspan
       sodipodi:role="line"
       id="tspan4515-5"
       x="359.97275"
       y="1181.6135"
       style="font-style:normal;font-variant:normal;font-weight:normal;font-stretch:normal;font-size:1760.7869873px;font-family:Papyrus;-inkscape-font-specification:Papyrus;letter-spacing:-49.38351059px;writing-mode:lr-tb;fill:#000600;fill-opacity:1;stroke-width:4.40196657"><tspan
         style="font-style:normal;font-variant:normal;font-weight:normal;font-stretch:normal;font-family:'Matura MT Script Capitals';-inkscape-font-specification:'Matura MT Script Capitals';letter-spacing:-49.38351059px;fill:#000600;fill-opacity:1;stroke-width:4.40196657"
         id="tspan4529-0"><tspan
           style="font-style:normal;font-variant:normal;font-weight:normal;font-stretch:normal;font-size:1760.7869873px;line-height:1.25;font-family:Papyrus;-inkscape-font-specification:Papyrus;font-variant-ligatures:normal;font-variant-position:normal;font-variant-caps:normal;font-variant-numeric:normal;font-variant-alternates:normal;font-feature-settings:normal;text-indent:0;text-align:start;text-decoration:none;text-decoration-line:none;text-decoration-style:solid;text-decoration-color:#000000;letter-spacing:-49.38351059px;word-spacing:0px;text-transform:none;writing-mode:lr-tb;direction:ltr;text-orientation:mixed;dominant-baseline:auto;baseline-shift:baseline;text-anchor:start;white-space:normal;shape-padding:0;opacity:1;vector-effect:none;fill:#000600;fill-opacity:1;stroke:none;stroke-width:4.40196657;stroke-linecap:butt;stroke-linejoin:miter;stroke-miterlimit:4;stroke-dasharray:none;stroke-dashoffset:0;stroke-opacity:1"
           id="tspan4537-0">3</tspan></tspan></tspan></text>
  <path
     d="m 103.95977,1589.8818 c 0,0 0,226.4757 0,226.4757 0,0 81.21892,0 81.21892,0 0,0 0,-81.2189 0,-81.2189 0,0 29.6761,0 29.6761,0 5.5447,0.016 10.43339,-0.656 14.6662,3.608 2.6553,2.6709 10.043,15.8221 12.3234,19.8206 0,0 20.52339,35.9237 20.52339,35.9237 10.85531,18.6959 9.7151,21.8354 25.8963,21.8666 0,0 74.9713,0 74.9713,0 0,0 -16.11881,-28.1142 -16.11881,-28.1142 0,0 -38.54769,-62.4761 -38.54769,-62.4761 62.28859,-5.6228 67.38039,-97.6657 18.7427,-125.4519 -20.6326,-11.7767 -54.6978,-10.4335 -78.0949,-10.4335 0,0 -145.25691,0 -145.25691,0 z m 295.1994,0 c 0,0 0,226.4757 0,226.4757 0,0 240.53278,0 240.53278,0 0,0 0,-51.5427 0,-51.5427 0,0 -160.87588,0 -160.87588,0 0,0 0,-35.9238 0,-35.9238 0,0 145.25678,0 145.25678,0 0,0 0,-49.9808 0,-49.9808 0,0 -145.25678,0 -145.25678,0 0,0 0,-39.0475 0,-39.0475 0,0 157.75218,0 157.75218,0 0,0 0,-49.9809 0,-49.9809 0,0 -237.40908,0 -237.40908,0 z m 281.14217,0 c 0,0 0,226.4757 0,226.4757 0,0 78.0951,0 78.0951,0 0,0 0,-142.133 0,-142.133 0,0 18.2587,46.857 18.2587,46.857 0,0 22.42879,60.9142 22.42879,60.9142 0,0 8.21561,21.8666 8.21561,21.8666 0,0 5.2948,10.9489 5.2948,10.9489 0,0 11.40189,1.5463 11.40189,1.5463 0,0 37.4857,0 37.4857,0 0,0 11.69867,-1.5931 11.69867,-1.5931 0,0 5.1855,-9.3402 5.1855,-9.3402 0,0 8.63732,-23.4285 8.63732,-23.4285 0,0 40.07827,-109.3331 40.07827,-109.3331 0,0 1.56195,48.4189 1.56195,48.4189 0,0 0,95.276 0,95.276 0,0 78.09516,0 78.09516,0 0,0 0,-226.4757 0,-226.4757 0,0 -93.71416,0 -93.71416,0 0,0 -11.40189,1.5463 -11.40189,1.5463 0,0 -14.2444,32.8155 -14.2444,32.8155 0,0 -43.07742,112.4569 -43.07742,112.4569 0,0 -17.8369,-43.7332 -17.8369,-43.7332 0,0 -25.9743,-67.1617 -25.9743,-67.1617 0,0 -8.99659,-23.4286 -8.99659,-23.4286 0,0 -5.9976,-10.9489 -5.9976,-10.9489 0,0 -11.48,-1.5463 -11.48,-1.5463 0,0 -93.7142,0 -93.7142,0 z m 346.74216,226.4757 c 0,0 89.0283,0 89.0283,0 0,0 10.9333,-37.4856 10.9333,-37.4856 0,0 73.4095,0 73.4095,0 0,0 13.2604,2.499 13.2604,2.499 0,0 14.3852,33.4403 14.3852,33.4403 0,0 11.4018,1.5463 11.4018,1.5463 0,0 74.9713,0 74.9713,0 0,0 -15.8376,-37.4856 -15.8376,-37.4856 0,0 -20.3047,-46.8571 -20.3047,-46.8571 0,0 -39.1882,-90.5902 -39.1882,-90.5902 0,0 -15.494,-35.9237 -15.494,-35.9237 0,0 -8.1844,-14.0259 -8.1844,-14.0259 0,0 -11.8861,-1.5932 -11.8861,-1.5932 0,0 -67.1618,0 -67.1618,0 0,0 -11.4018,1.5463 -11.4018,1.5463 0,0 -7.9969,15.6347 -7.9969,15.6347 0,0 -14.7444,34.3618 -14.7444,34.3618 0,0 -49.2936,114.0188 -49.2936,114.0188 0,0 -25.8963,60.9141 -25.8963,60.9141 z m 307.6945,-226.4757 c 0,0 0,226.4757 0,226.4757 0,0 79.6571,0 79.6571,0 0,0 0,-226.4757 0,-226.4757 0,0 -79.6571,0 -79.6571,0 z m 129.6379,0 c 0,0 0,226.4757 0,226.4757 0,0 79.6569,0 79.6569,0 0,0 0,-120.2664 0,-120.2664 0,0 26.8022,29.6761 26.8022,29.6761 0,0 52.6206,59.3523 52.6206,59.3523 5.9508,6.763 22.7567,27.6613 29.9103,30.3009 3.03,1.1245 7.6689,0.9371 10.9333,0.9371 0,0 54.6665,0 54.6665,0 0,0 0,-226.4757 0,-226.4757 0,0 -79.657,0 -79.657,0 0,0 0,118.7045 0,118.7045 0,0 -82.7494,-90.5903 -82.7494,-90.5903 0,0 -26.7242,-27.1771 -26.7242,-27.1771 0,0 -10.7926,-0.9371 -10.7926,-0.9371 0,0 -54.6666,0 -54.6666,0 z m -1279.19721,95.276 c 0,0 0,-43.7332 0,-43.7332 0,0 70.28559,0 70.28559,0 13.7759,0.1873 25.9587,8.1531 24.1157,23.4285 -1.5463,12.9481 -11.027,17.5245 -22.5538,19.3832 0,0 -71.84749,0.9215 -71.84749,0.9215 z m 985.55971,-31.238 c 0,0 12.4952,32.7999 12.4952,32.7999 0,0 14.0571,42.1713 14.0571,42.1713 0,0 -51.5427,0 -51.5427,0 0,0 13.5416,-43.7332 13.5416,-43.7332 0,0 11.4488,-31.238 11.4488,-31.238 z"
     id="Selection-5"
     inkscape:connector-curvature="0"
     style="fill:#a29f51;fill-opacity:1;stroke:#a29f51;stroke-width:1.56190133;stroke-opacity:1" />
  <path
     d="m 402.32188,1923.7877 c -11.6085,-21.6373 -45.3743,-28.7265 -67.99149,-28.9964 -11.1786,-0.13 -24.107,1.0798 -34.9957,3.6495 -9.7088,2.2997 -20.09749,6.5992 -26.6667,14.3582 -12.49839,14.7582 -10.89859,38.8552 5.6693,49.8838 9.36891,6.2292 21.1074,7.0991 31.9961,8.259 0,0 25.99669,2.6697 25.99669,2.6697 0,0 23.99711,2.5896 23.99711,2.5896 10.54859,1.9198 23.04709,7.2991 23.897,19.5776 0.91989,13.0984 -9.7588,21.7173 -20.8974,25.9368 -18.9277,7.1591 -50.5337,4.4694 -68.9915,-3.3696 -5.1193,-2.1697 -9.64879,-4.5294 -13.99819,-8.039 -4.0995,-3.2896 -6.2792,-7.0591 -11.9985,-5.4093 -2.51971,0.7299 -10.4687,3.8195 -11.36861,6.2692 -0.8199,2.2297 0.80991,4.8594 2.0897,6.5692 2.9597,3.9695 9.9488,9.0189 14.2783,11.5885 14.8681,8.8189 32.196,11.0087 48.9939,12.6185 0,0 8.9989,0.8299 8.9989,0.8299 17.4578,0.1999 41.5148,-2.4197 55.99299,-12.7884 19.0976,-13.6683 23.997,-44.0046 4.9994,-59.8726 -11.5386,-9.6288 -27.6066,-11.3686 -41.99479,-12.4184 0,0 -46.9942,-4.9994 -46.9942,-4.9994 -11.6585,-2.2097 -23.3671,-10.6187 -17.6378,-23.9071 3.7296,-8.6289 13.0184,-12.7584 21.6373,-14.8681 16.298,-3.9795 39.4251,-3.9195 54.9932,2.7397 4.46949,1.9197 8.99889,4.3994 12.9984,7.1691 2.5297,1.7497 6.0292,4.9094 8.99889,5.4293 3.53951,0.6099 13.5383,-4.2695 17.9977,-5.4693 z m 88.98899,-28.3665 c 0,0 -9.9988,0.8099 -9.9988,0.8099 -19.11759,2.9896 -36.50539,10.1687 -49.90379,24.5569 -24.307,26.1068 -24.4169,76.0006 1.9498,100.8175 16.4179,15.4581 41.8348,21.9073 63.95199,22.1672 19.0477,0.22 40.755,-3.6795 56.993,-14.0882 36.63539,-23.4971 41.35479,-77.3604 12.70839,-108.8565 -14.76819,-16.2479 -36.58549,-22.9471 -57.70279,-25.4068 -6.99919,-0.5399 -10.8087,-1.0799 -17.9978,0 z m 110.98619,2.3697 c 0,0 0,141.9823 0,141.9823 0,0 19.9975,0 19.9975,0 0,0 0,-62.9921 0,-62.9921 0,0 101.98739,0 101.98739,0 0,0 0,-15.998 0,-15.998 0,0 -101.98739,0 -101.98739,0 0,0 0,-45.9943 0,-45.9943 0,0 105.98689,0 105.98689,0 0,0 0,-16.9979 0,-16.9979 0,0 -125.98439,0 -125.98439,0 z m 134.98329,0 c 0,0 0,16.9979 0,16.9979 0,0 57.9928,0 57.9928,0 0,0 0,124.9844 0,124.9844 0,0 19.9975,0 19.9975,0 0,0 0,-124.9844 0,-124.9844 0,0 57.99282,0 57.99282,0 0,0 0,-16.9979 0,-16.9979 0,0 -135.98312,0 -135.98312,0 z m 142.98221,0 c 0,0 12.66835,40.9949 12.66835,40.9949 0,0 22.65723,68.9914 22.65723,68.9914 0,0 6.99909,21.9973 6.99909,21.9973 0,0 4.17953,8.9789 4.17953,8.9789 0,0 7.48907,1.0198 7.48907,1.0198 0,0 14.99807,0 14.99807,0 0,0 8.30904,-23.997 8.30904,-23.997 0,0 22.37716,-61.9923 22.37716,-61.9923 0,0 10.3087,-29.9962 10.3087,-29.9962 0,0 19.0477,50.9936 19.0477,50.9936 0,0 22.9471,64.9919 22.9471,64.9919 0,0 22.9972,0 22.9972,0 0,0 12.6684,-38.9951 12.6684,-38.9951 0,0 20.9974,-63.992 20.9974,-63.992 0,0 12.3285,-38.9952 12.3285,-38.9952 0,0 -20.9974,0 -20.9974,0 0,0 -19.2776,62.9922 -19.2776,62.9922 0,0 -17.7178,54.9931 -17.7178,54.9931 0,0 -26.0468,-70.9911 -26.0468,-70.9911 0,0 -16.9479,-46.9942 -16.9479,-46.9942 0,0 -9.9988,0 -9.9988,0 0,0 -7.489,1.0199 -7.489,1.0199 0,0 -4.0895,7.979 -4.0895,7.979 0,0 -6.8392,18.9976 -6.8392,18.9976 0,0 -19.88747,53.9933 -19.88747,53.9933 0,0 -13.68827,36.9954 -13.68827,36.9954 0,0 -11.71855,-36.9954 -11.71855,-36.9954 0,0 -16.69795,-53.9933 -16.69795,-53.9933 0,0 -5.90926,-18.9976 -5.90926,-18.9976 0,0 -3.38956,-8.009 -3.38956,-8.009 0,0 -7.27913,-0.9899 -7.27913,-0.9899 0,0 -12.99835,0 -12.99835,0 z m 196.97544,141.9823 c 0,0 14.9982,0 14.9982,0 0,0 8.039,-1.5698 8.039,-1.5698 0,0 11.5386,-22.4272 11.5386,-22.4272 0,0 5.8092,-9.9787 5.8092,-9.9787 0,0 7.6091,-1.0199 7.6091,-1.0199 0,0 79.9901,0 79.9901,0 0,0 10.2487,22.9971 10.2487,22.9971 0,0 5.7093,10.4287 5.7093,10.4287 0,0 6.0392,1.5698 6.0392,1.5698 0,0 16.9979,0 16.9979,0 -2.4197,-8.4789 -13.3183,-27.1866 -17.7478,-35.9955 0,0 -37.9353,-73.9908 -37.9353,-73.9908 0,0 -11.0586,-21.9972 -11.0586,-21.9972 -3.2996,-6.5892 -3.3896,-9.8488 -11.2486,-9.9988 -3.0896,-0.05 -13.1684,-0.5399 -15.3681,0.9899 -1.9797,1.3898 -4.6594,7.629 -5.8893,10.0087 0,0 -11.9885,22.9972 -11.9885,22.9972 0,0 -42.9946,82.9896 -42.9946,82.9896 0,0 -12.7485,24.9969 -12.7485,24.9969 z m 178.9778,-141.9823 c 0,0 0,141.9823 0,141.9823 0,0 19.9975,0 19.9975,0 0,0 0,-56.9929 0,-56.9929 0,0 59.9926,0 59.9926,0 11.6285,0.02 13.1084,5.4393 20.2475,13.9983 0,0 24.4769,28.9964 24.4769,28.9964 2.5997,3.0496 9.3589,12.0985 12.5585,13.4283 1.6998,0.7099 4.8194,0.5699 6.7091,0.5699 0,0 17.9978,0 17.9978,0 0,0 -13.5783,-16.9978 -13.5783,-16.9978 0,0 -37.4154,-43.9946 -37.4154,-43.9946 12.5885,-0.28 25.0769,-6.1992 32.0261,-16.9978 3.6995,-5.7393 5.4893,-14.2283 5.8792,-20.9974 0.8199,-14.4382 -6.3092,-29.0264 -18.9076,-36.3155 -13.4084,-7.7491 -31.976,-6.6792 -46.9942,-6.6792 0,0 -82.9897,0 -82.9897,0 z m 173.9784,0 c 0,0 0,141.9823 0,141.9823 0,0 135.9831,0 135.9831,0 0,0 0,-16.9978 0,-16.9978 0,0 -115.9856,0 -115.9856,0 0,0 0,-47.9941 0,-47.9941 0,0 107.9865,0 107.9865,0 0,0 0,-16.9978 0,-16.9978 0,0 -107.9865,0 -107.9865,0 0,0 0,-42.9947 0,-42.9947 0,0 110.9862,0 110.9862,0 0,0 0,-16.9979 0,-16.9979 0,0 -130.9837,0 -130.9837,0 z m -939.88322,14.2782 c 18.90769,-1.7498 40.96489,1.9498 55.99309,14.1883 23.797,19.3576 25.94669,62.0122 3.9595,83.4296 -13.4184,13.0684 -33.7558,17.2978 -51.9536,17.0879 -16.89789,-0.2 -37.33529,-5.4194 -49.82379,-17.2979 -22.5372,-21.4273 -19.8475,-63.802 3.8295,-83.3596 10.9987,-9.0889 24.317,-12.0385 37.9953,-14.0483 z m 785.90232,54.7132 c 0,0 0,-51.9935 0,-51.9935 0,0 80.99,0 80.99,0 7.3391,0.01 14.2382,0.8099 19.8175,6.2092 11.4586,11.1086 9.6488,33.2859 -5.8193,41.3849 -6.1792,3.2296 -19.8575,4.3094 -26.9966,4.3994 0,0 -67.9916,0 -67.9916,0 z m -114.9857,-47.994 c 0,0 20.2475,39.995 20.2475,39.995 0,0 13.7483,29.9963 13.7483,29.9963 0,0 -69.9913,0 -69.9913,0 0,0 22.7472,-45.9943 22.7472,-45.9943 3.1096,-6.2192 8.8089,-19.5576 13.2483,-23.997 z"
     id="Selection-55"
     inkscape:connector-curvature="0"
     style="fill:#a29f51;fill-opacity:1;stroke:#a29f51;stroke-width:0.99987578;stroke-opacity:1" />
</svg>
