<?xml version="1.0" encoding="UTF-8" standalone="no"?>
<!-- Generator: Adobe Illustrator 16.0.0, SVG Export Plug-In . SVG Version: 6.00 Build 0)  -->

<svg
   xmlns:dc="http://purl.org/dc/elements/1.1/"
   xmlns:cc="http://creativecommons.org/ns#"
   xmlns:rdf="http://www.w3.org/1999/02/22-rdf-syntax-ns#"
   xmlns:svg="http://www.w3.org/2000/svg"
   xmlns="http://www.w3.org/2000/svg"
   xmlns:xlink="http://www.w3.org/1999/xlink"
   xmlns:sodipodi="http://sodipodi.sourceforge.net/DTD/sodipodi-0.dtd"
   xmlns:inkscape="http://www.inkscape.org/namespaces/inkscape"
   version="1.1"
   x="0px"
   y="0px"
   width="842.65649"
   height="709.64801"
   viewBox="0 0 842.6565 709.64801"
   enable-background="new 0 0 430 430"
   xml:space="preserve"
   id="svg794"
   sodipodi:docname="ooas3studiosplash.svg"
   inkscape:version="0.92.3 (2405546, 2018-03-11)"
   inkscape:export-filename="C:\Users\jongw\Pictures\Logos\oas3\splash.png"
   inkscape:export-xdpi="68.349998"
   inkscape:export-ydpi="68.349998"><metadata
   id="metadata800"><rdf:RDF><cc:Work
       rdf:about=""><dc:format>image/svg+xml</dc:format><dc:type
         rdf:resource="http://purl.org/dc/dcmitype/StillImage" /><dc:title /></cc:Work></rdf:RDF></metadata><defs
   id="defs798" /><sodipodi:namedview
   pagecolor="#ffffff"
   bordercolor="#666666"
   borderopacity="1"
   objecttolerance="10"
   gridtolerance="10"
   guidetolerance="10"
   inkscape:pageopacity="0"
   inkscape:pageshadow="2"
   inkscape:window-width="1920"
   inkscape:window-height="1027"
   id="namedview796"
   showgrid="false"
   showguides="false"
   inkscape:zoom="0.54883721"
   inkscape:cx="-254.45263"
   inkscape:cy="472.30951"
   inkscape:window-x="-8"
   inkscape:window-y="-8"
   inkscape:window-maximized="1"
   inkscape:current-layer="svg794" /><rect
   style="opacity:0.97000002;fill:#003f70;fill-opacity:1;fill-rule:nonzero;stroke:#fffbfc;stroke-width:1;stroke-miterlimit:4;stroke-dasharray:none;stroke-opacity:1;stroke-linejoin:round"
   id="rect1367"
   width="841.77966"
   height="708.77118"
   x="0.43842518"
   y="0.43842518"
   inkscape:export-xdpi="55.295975"
   inkscape:export-ydpi="55.295975" /><g
   style="display:none"
   display="none"
   id="Layer_2"
   transform="translate(150.78834,188.15604)"><rect
     style="display:inline;fill:#292e34"
     id="rect2"
     height="600"
     width="600"
     display="inline"
     y="-85"
     x="-85" /></g><g
   style="display:none"
   display="none"
   id="Layer_5"
   transform="translate(150.78834,188.15604)"><g
     style="display:inline"
     id="g35"
     display="inline"><linearGradient
       gradientTransform="matrix(1,0,0,-1,-97.5,210)"
       y2="-222.2124"
       x2="317.13861"
       y1="207.7881"
       x1="317.1387"
       gradientUnits="userSpaceOnUse"
       id="OuterCirc_1_"><stop
         id="stop5"
         style="stop-color:#CCE0F4"
         offset="0" /><stop
         id="stop7"
         style="stop-color:#C3DCF2"
         offset="0.0641" /><stop
         id="stop9"
         style="stop-color:#A9D2EE"
         offset="0.1706" /><stop
         id="stop11"
         style="stop-color:#80C2E7"
         offset="0.3066" /><stop
         id="stop13"
         style="stop-color:#47ACDE"
         offset="0.4649" /><stop
         id="stop15"
         style="stop-color:#1E9CD7"
         offset="0.5674" /><stop
         id="stop17"
         style="stop-color:#0075BE"
         offset="0.8652" /><stop
         id="stop19"
         style="stop-color:#005B97"
         offset="0.9944" /></linearGradient><circle
       style="fill:url(#OuterCirc_1_)"
       r="215"
       cy="217.21201"
       cx="219.63901"
       id="OuterCirc_2_" /><path
       style="fill:#ededed"
       inkscape:connector-curvature="0"
       id="path23"
       d="m 406.139,217.212 h -7 c -0.004,49.866 -20.191,94.946 -52.866,127.634 -32.688,32.674 -77.768,52.862 -127.634,52.866 C 168.773,397.708 123.692,377.52 91.006,344.846 58.331,312.158 38.142,267.078 38.139,217.212 38.142,167.346 58.331,122.265 91.006,89.579 123.692,56.904 168.773,36.715 218.639,36.712 c 49.866,0.003 94.946,20.192 127.634,52.867 32.675,32.686 52.862,77.767 52.866,127.633 h 7 7 C 413.143,163.524 391.359,114.855 356.171,79.68 320.996,44.493 272.326,22.709 218.639,22.712 164.951,22.708 116.282,44.493 81.106,79.68 45.919,114.855 24.135,163.524 24.138,217.212 24.135,270.9 45.919,319.568 81.106,354.744 c 35.175,35.188 83.844,56.971 137.533,56.968 53.688,0.003 102.356,-21.78 137.531,-56.968 35.188,-35.176 56.972,-83.846 56.968,-137.532 z" /><rect
       style="fill:#ededed"
       id="rect25"
       height="85"
       width="24"
       y="114"
       x="206.562" /><path
       style="fill:#ededed"
       inkscape:connector-curvature="0"
       id="path27"
       d="m 232.41,89.084 c 0,7.733 -6.271,14 -14,14 -7.73,0 -14,-6.268 -14,-14 0,-7.732 6.27,-14 14,-14 7.729,10e-4 14,6.269 14,14 z" /><path
       style="fill:#ededed"
       inkscape:connector-curvature="0"
       id="path29"
       d="m 91.551,217.868 c 97.561,12.014 178.543,26.091 209.564,37.469 l 0.006,0.128 L 335.562,218 h -244" /><g
       id="g33"><path
         style="fill:#ededed"
         inkscape:connector-curvature="0"
         id="path31"
         d="m 352.012,301.416 c -0.641,-1.123 -1.625,-2.114 -2.949,-2.975 -1.325,-0.858 -3.452,-1.807 -6.381,-2.842 -3.483,-1.229 -5.744,-2.197 -6.78,-2.899 -1.037,-0.703 -1.556,-1.562 -1.556,-2.578 0,-2.07 1.988,-3.104 5.963,-3.104 2.607,0 5.824,0.723 9.65,2.168 l 2.438,-5.187 c -3.719,-1.543 -7.661,-2.313 -11.829,-2.313 -4.211,0 -7.541,0.767 -9.988,2.299 -2.447,1.533 -3.67,3.688 -3.67,6.461 0,2.305 0.721,4.18 2.164,5.625 1.442,1.445 4.205,2.891 8.287,4.336 2.096,0.742 3.729,1.406 4.905,1.992 1.175,0.586 2.021,1.151 2.531,1.699 0.514,0.547 0.771,1.229 0.771,2.051 0,2.559 -2.318,3.838 -6.957,3.838 -3.591,0 -7.47,-0.879 -11.638,-2.637 v 5.946 c 2.863,1.31 6.656,1.963 11.381,1.963 4.701,0 8.314,-0.845 10.837,-2.534 2.521,-1.688 3.782,-4.115 3.782,-7.279 0,-1.564 -0.321,-2.907 -0.961,-4.03 z m -34.434,13.257 v -42.832 h -7.662 v 42.832 z M 277.184,277.7 h 5.32 c 3.484,0 6.049,0.604 7.695,1.815 1.646,1.211 2.469,3.047 2.469,5.508 0,2.656 -0.92,4.609 -2.758,5.859 -1.838,1.25 -4.723,1.875 -8.656,1.875 h -4.07 z m 18.994,-2.578 c -2.916,-2.188 -7.305,-3.281 -13.16,-3.281 H 269.52 v 42.832 h 7.664 v -16.024 h 4.873 c 5.92,0 10.482,-1.191 13.689,-3.574 3.205,-2.383 4.809,-5.811 4.809,-10.283 0,-4.26 -1.459,-7.481 -4.377,-9.67 z m -61.348,21.621 4.232,-11.162 c 1.11,-2.853 1.955,-5.479 2.533,-7.881 0.213,0.78 0.604,2.012 1.17,3.69 0.565,1.68 1.01,2.91 1.33,3.691 l 4.393,11.66 z m 28.502,17.93 -17.537,-43.008 h -8.336 l -17.537,43.008 h 8.08 l 4.584,-11.896 h 17.922 l 4.682,11.896 z m -81.017,-17.111 11.222,17.109 h 8.721 l -13.242,-18.955 c 6.07,-2.266 9.105,-6.064 9.105,-11.396 0,-4.18 -1.453,-7.305 -4.359,-9.375 -2.908,-2.069 -7.385,-3.104 -13.434,-3.104 h -13.242 v 42.832 h 7.663 v -17.108 h 7.566 z m -7.566,-19.803 h 5.065 c 3.484,0 6.092,0.527 7.822,1.582 1.732,1.056 2.598,2.793 2.598,5.216 0,2.383 -0.801,4.18 -2.404,5.391 -1.603,1.211 -4.189,1.816 -7.759,1.816 h -5.322 z m -29.752,14.824 14.651,-20.742 h -8.271 l -10.836,16.201 -10.836,-16.201 h -8.528 l 14.556,20.625 -15.549,22.207 h 8.208 l 11.83,-17.521 11.734,17.521 h 8.816 z m -26.835,22.09 v -6.006 H 98.316 v -36.826 h -7.663 v 42.832 z" /></g></g></g><g
   style="display:none"
   display="none"
   id="InnerLogo"
   transform="translate(150.78834,188.15604)"><g
     style="display:inline"
     id="g82"
     display="inline"><defs
       id="defs77"><path
         inkscape:connector-curvature="0"
         d="M 394.896,215.003 C 394.9,264.936 374.637,310.2 341.913,342.916 309.198,375.643 263.934,395.902 214,395.898 164.067,395.902 118.802,375.64 86.087,342.916 53.361,310.2 33.1,264.936 33.104,215.003 33.1,165.07 53.361,119.805 86.087,87.09 118.802,54.364 164.067,34.103 214,34.106 c 49.934,-0.003 95.198,20.257 127.913,52.983 32.726,32.716 52.987,77.981 52.983,127.914 h -6.512 -6.51 c -0.004,-46.379 -18.78,-88.306 -49.17,-118.706 -30.4,-30.39 -72.327,-49.167 -118.706,-49.17 -46.378,0.003 -88.306,18.78 -118.706,49.17 -30.39,30.4 -49.167,72.327 -49.17,118.706 0.003,46.378 18.78,88.306 49.17,118.706 30.4,30.391 72.328,49.166 118.706,49.17 46.379,-0.004 88.306,-18.779 118.706,-49.17 30.39,-30.4 49.166,-72.328 49.17,-118.706 h 6.51 z"
         id="SVGID_2_" /></defs><clipPath
       id="SVGID_3_"><use
         height="100%"
         width="100%"
         y="0"
         x="0"
         style="overflow:visible"
         id="use79"
         overflow="visible"
         xlink:href="#SVGID_2_" /></clipPath></g><g
     style="display:inline"
     id="g96"
     display="inline"><defs
       id="defs85"><path
         inkscape:connector-curvature="0"
         d="M 394.896,215.003 C 394.9,264.936 374.637,310.2 341.913,342.916 309.198,375.643 263.934,395.902 214,395.898 164.067,395.902 118.802,375.64 86.087,342.916 53.361,310.2 33.1,264.936 33.104,215.003 33.1,165.07 53.361,119.805 86.087,87.09 118.802,54.364 164.067,34.103 214,34.106 c 49.934,-0.003 95.198,20.257 127.913,52.983 32.726,32.716 52.987,77.981 52.983,127.914 h -6.512 -6.51 c -0.004,-46.379 -18.78,-88.306 -49.17,-118.706 -30.4,-30.39 -72.327,-49.167 -118.706,-49.17 -46.378,0.003 -88.306,18.78 -118.706,49.17 -30.39,30.4 -49.167,72.327 -49.17,118.706 0.003,46.378 18.78,88.306 49.17,118.706 30.4,30.391 72.328,49.166 118.706,49.17 46.379,-0.004 88.306,-18.779 118.706,-49.17 30.39,-30.4 49.166,-72.328 49.17,-118.706 h 6.51 z"
         id="SVGID_4_" /></defs><defs
       id="defs88"><rect
         height="79.055"
         width="22.320999"
         y="119.01"
         x="202.769"
         id="SVGID_5_" /></defs><clipPath
       id="SVGID_6_"><use
         height="100%"
         width="100%"
         y="0"
         x="0"
         style="overflow:visible"
         id="use90"
         overflow="visible"
         xlink:href="#SVGID_4_" /></clipPath><clipPath
       clip-path="url(#SVGID_6_)"
       id="SVGID_7_"><use
         height="100%"
         width="100%"
         y="0"
         x="0"
         style="overflow:visible"
         id="use93"
         overflow="visible"
         xlink:href="#SVGID_5_" /></clipPath></g><g
     style="display:inline"
     id="g116"
     display="inline"><defs
       id="defs99"><path
         inkscape:connector-curvature="0"
         d="M 394.896,215.003 C 394.9,264.936 374.637,310.2 341.913,342.916 309.198,375.643 263.934,395.902 214,395.898 164.067,395.902 118.802,375.64 86.087,342.916 53.361,310.2 33.1,264.936 33.104,215.003 33.1,165.07 53.361,119.805 86.087,87.09 118.802,54.364 164.067,34.103 214,34.106 c 49.934,-0.003 95.198,20.257 127.913,52.983 32.726,32.716 52.987,77.981 52.983,127.914 h -6.512 -6.51 c -0.004,-46.379 -18.78,-88.306 -49.17,-118.706 -30.4,-30.39 -72.327,-49.167 -118.706,-49.17 -46.378,0.003 -88.306,18.78 -118.706,49.17 -30.39,30.4 -49.167,72.327 -49.17,118.706 0.003,46.378 18.78,88.306 49.17,118.706 30.4,30.391 72.328,49.166 118.706,49.17 46.379,-0.004 88.306,-18.779 118.706,-49.17 30.39,-30.4 49.166,-72.328 49.17,-118.706 h 6.51 z"
         id="SVGID_8_" /></defs><defs
       id="defs102"><rect
         height="79.055"
         width="22.320999"
         y="119.01"
         x="202.769"
         id="SVGID_9_" /></defs><defs
       id="defs105"><path
         inkscape:connector-curvature="0"
         d="m 213.788,82.816 c -7.19,0 -13.021,5.829 -13.021,13.02 0,7.192 5.831,13.021 13.021,13.021 7.187,0 13.021,-5.829 13.021,-13.021 0,-7.19 -5.834,-13.02 -13.021,-13.02 z"
         id="SVGID_10_" /></defs><clipPath
       id="SVGID_11_"><use
         height="100%"
         width="100%"
         y="0"
         x="0"
         style="overflow:visible"
         id="use107"
         overflow="visible"
         xlink:href="#SVGID_8_" /></clipPath><clipPath
       clip-path="url(#SVGID_11_)"
       id="SVGID_12_"><use
         height="100%"
         width="100%"
         y="0"
         x="0"
         style="overflow:visible"
         id="use110"
         overflow="visible"
         xlink:href="#SVGID_9_" /></clipPath><clipPath
       clip-path="url(#SVGID_12_)"
       id="SVGID_13_"><use
         height="100%"
         width="100%"
         y="0"
         x="0"
         style="overflow:visible"
         id="use113"
         overflow="visible"
         xlink:href="#SVGID_10_" /></clipPath></g><g
     style="display:inline"
     id="g142"
     display="inline"><defs
       id="defs119"><path
         inkscape:connector-curvature="0"
         d="M 394.896,215.003 C 394.9,264.936 374.637,310.2 341.913,342.916 309.198,375.643 263.934,395.902 214,395.898 164.067,395.902 118.802,375.64 86.087,342.916 53.361,310.2 33.1,264.936 33.104,215.003 33.1,165.07 53.361,119.805 86.087,87.09 118.802,54.364 164.067,34.103 214,34.106 c 49.934,-0.003 95.198,20.257 127.913,52.983 32.726,32.716 52.987,77.981 52.983,127.914 h -6.512 -6.51 c -0.004,-46.379 -18.78,-88.306 -49.17,-118.706 -30.4,-30.39 -72.327,-49.167 -118.706,-49.17 -46.378,0.003 -88.306,18.78 -118.706,49.17 -30.39,30.4 -49.167,72.327 -49.17,118.706 0.003,46.378 18.78,88.306 49.17,118.706 30.4,30.391 72.328,49.166 118.706,49.17 46.379,-0.004 88.306,-18.779 118.706,-49.17 30.39,-30.4 49.166,-72.328 49.17,-118.706 h 6.51 z"
         id="SVGID_14_" /></defs><defs
       id="defs122"><rect
         height="79.055"
         width="22.320999"
         y="119.01"
         x="202.769"
         id="SVGID_15_" /></defs><defs
       id="defs125"><path
         inkscape:connector-curvature="0"
         d="m 213.788,82.816 c -7.19,0 -13.021,5.829 -13.021,13.02 0,7.192 5.831,13.021 13.021,13.021 7.187,0 13.021,-5.829 13.021,-13.021 0,-7.19 -5.834,-13.02 -13.021,-13.02 z"
         id="SVGID_16_" /></defs><defs
       id="defs128"><path
         inkscape:connector-curvature="0"
         d="m 95.801,215.613 c 90.736,11.173 166.057,24.266 194.907,34.848 l 0.006,0.119 32.032,-34.844 H 95.812"
         id="SVGID_17_" /></defs><clipPath
       id="SVGID_18_"><use
         height="100%"
         width="100%"
         y="0"
         x="0"
         style="overflow:visible"
         id="use130"
         overflow="visible"
         xlink:href="#SVGID_14_" /></clipPath><clipPath
       clip-path="url(#SVGID_18_)"
       id="SVGID_19_"><use
         height="100%"
         width="100%"
         y="0"
         x="0"
         style="overflow:visible"
         id="use133"
         overflow="visible"
         xlink:href="#SVGID_15_" /></clipPath><clipPath
       clip-path="url(#SVGID_19_)"
       id="SVGID_20_"><use
         height="100%"
         width="100%"
         y="0"
         x="0"
         style="overflow:visible"
         id="use136"
         overflow="visible"
         xlink:href="#SVGID_16_" /></clipPath><clipPath
       clip-path="url(#SVGID_20_)"
       id="SVGID_21_"><use
         height="100%"
         width="100%"
         y="0"
         x="0"
         style="overflow:visible"
         id="use139"
         overflow="visible"
         xlink:href="#SVGID_17_" /></clipPath></g><g
     style="display:inline"
     id="g174"
     display="inline"><defs
       id="defs145"><path
         inkscape:connector-curvature="0"
         d="M 394.896,215.003 C 394.9,264.936 374.637,310.2 341.913,342.916 309.198,375.643 263.934,395.902 214,395.898 164.067,395.902 118.802,375.64 86.087,342.916 53.361,310.2 33.1,264.936 33.104,215.003 33.1,165.07 53.361,119.805 86.087,87.09 118.802,54.364 164.067,34.103 214,34.106 c 49.934,-0.003 95.198,20.257 127.913,52.983 32.726,32.716 52.987,77.981 52.983,127.914 h -6.512 -6.51 c -0.004,-46.379 -18.78,-88.306 -49.17,-118.706 -30.4,-30.39 -72.327,-49.167 -118.706,-49.17 -46.378,0.003 -88.306,18.78 -118.706,49.17 -30.39,30.4 -49.167,72.327 -49.17,118.706 0.003,46.378 18.78,88.306 49.17,118.706 30.4,30.391 72.328,49.166 118.706,49.17 46.379,-0.004 88.306,-18.779 118.706,-49.17 30.39,-30.4 49.166,-72.328 49.17,-118.706 h 6.51 z"
         id="SVGID_22_" /></defs><defs
       id="defs148"><rect
         height="79.055"
         width="22.320999"
         y="119.01"
         x="202.769"
         id="SVGID_23_" /></defs><defs
       id="defs151"><path
         inkscape:connector-curvature="0"
         d="m 213.788,82.816 c -7.19,0 -13.021,5.829 -13.021,13.02 0,7.192 5.831,13.021 13.021,13.021 7.187,0 13.021,-5.829 13.021,-13.021 0,-7.19 -5.834,-13.02 -13.021,-13.02 z"
         id="SVGID_24_" /></defs><defs
       id="defs154"><path
         inkscape:connector-curvature="0"
         d="m 95.801,215.613 c 90.736,11.173 166.057,24.266 194.907,34.848 l 0.006,0.119 32.032,-34.844 H 95.812"
         id="SVGID_25_" /></defs><defs
       id="defs157"><polygon
         points="102.093,300.062 102.093,265.811 94.966,265.811 94.966,305.646 120.551,305.646 120.551,300.062 "
         id="SVGID_26_" /></defs><clipPath
       id="SVGID_27_"><use
         height="100%"
         width="100%"
         y="0"
         x="0"
         style="overflow:visible"
         id="use159"
         overflow="visible"
         xlink:href="#SVGID_22_" /></clipPath><clipPath
       clip-path="url(#SVGID_27_)"
       id="SVGID_28_"><use
         height="100%"
         width="100%"
         y="0"
         x="0"
         style="overflow:visible"
         id="use162"
         overflow="visible"
         xlink:href="#SVGID_23_" /></clipPath><clipPath
       clip-path="url(#SVGID_28_)"
       id="SVGID_29_"><use
         height="100%"
         width="100%"
         y="0"
         x="0"
         style="overflow:visible"
         id="use165"
         overflow="visible"
         xlink:href="#SVGID_24_" /></clipPath><clipPath
       clip-path="url(#SVGID_29_)"
       id="SVGID_30_"><use
         height="100%"
         width="100%"
         y="0"
         x="0"
         style="overflow:visible"
         id="use168"
         overflow="visible"
         xlink:href="#SVGID_25_" /></clipPath><clipPath
       clip-path="url(#SVGID_30_)"
       id="SVGID_31_"><use
         height="100%"
         width="100%"
         y="0"
         x="0"
         style="overflow:visible"
         id="use171"
         overflow="visible"
         xlink:href="#SVGID_26_" /></clipPath></g><g
     style="display:inline"
     id="g212"
     display="inline"><defs
       id="defs177"><path
         inkscape:connector-curvature="0"
         d="M 394.896,215.003 C 394.9,264.936 374.637,310.2 341.913,342.916 309.198,375.643 263.934,395.902 214,395.898 164.067,395.902 118.802,375.64 86.087,342.916 53.361,310.2 33.1,264.936 33.104,215.003 33.1,165.07 53.361,119.805 86.087,87.09 118.802,54.364 164.067,34.103 214,34.106 c 49.934,-0.003 95.198,20.257 127.913,52.983 32.726,32.716 52.987,77.981 52.983,127.914 h -6.512 -6.51 c -0.004,-46.379 -18.78,-88.306 -49.17,-118.706 -30.4,-30.39 -72.327,-49.167 -118.706,-49.17 -46.378,0.003 -88.306,18.78 -118.706,49.17 -30.39,30.4 -49.167,72.327 -49.17,118.706 0.003,46.378 18.78,88.306 49.17,118.706 30.4,30.391 72.328,49.166 118.706,49.17 46.379,-0.004 88.306,-18.779 118.706,-49.17 30.39,-30.4 49.166,-72.328 49.17,-118.706 h 6.51 z"
         id="SVGID_32_" /></defs><defs
       id="defs180"><rect
         height="79.055"
         width="22.320999"
         y="119.01"
         x="202.769"
         id="SVGID_33_" /></defs><defs
       id="defs183"><path
         inkscape:connector-curvature="0"
         d="m 213.788,82.816 c -7.19,0 -13.021,5.829 -13.021,13.02 0,7.192 5.831,13.021 13.021,13.021 7.187,0 13.021,-5.829 13.021,-13.021 0,-7.19 -5.834,-13.02 -13.021,-13.02 z"
         id="SVGID_34_" /></defs><defs
       id="defs186"><path
         inkscape:connector-curvature="0"
         d="m 95.801,215.613 c 90.736,11.173 166.057,24.266 194.907,34.848 l 0.006,0.119 32.032,-34.844 H 95.812"
         id="SVGID_35_" /></defs><defs
       id="defs189"><polygon
         points="102.093,300.062 102.093,265.811 94.966,265.811 94.966,305.646 120.551,305.646 120.551,300.062 "
         id="SVGID_36_" /></defs><defs
       id="defs192"><polygon
         points="130.063,305.646 141.066,289.354 151.979,305.646 160.179,305.646 145.509,285.104 159.136,265.811 151.442,265.811 141.364,280.879 131.286,265.811 123.354,265.811 136.891,284.993 122.43,305.646 "
         id="SVGID_37_" /></defs><clipPath
       id="SVGID_38_"><use
         height="100%"
         width="100%"
         y="0"
         x="0"
         style="overflow:visible"
         id="use194"
         overflow="visible"
         xlink:href="#SVGID_32_" /></clipPath><clipPath
       clip-path="url(#SVGID_38_)"
       id="SVGID_39_"><use
         height="100%"
         width="100%"
         y="0"
         x="0"
         style="overflow:visible"
         id="use197"
         overflow="visible"
         xlink:href="#SVGID_33_" /></clipPath><clipPath
       clip-path="url(#SVGID_39_)"
       id="SVGID_40_"><use
         height="100%"
         width="100%"
         y="0"
         x="0"
         style="overflow:visible"
         id="use200"
         overflow="visible"
         xlink:href="#SVGID_34_" /></clipPath><clipPath
       clip-path="url(#SVGID_40_)"
       id="SVGID_41_"><use
         height="100%"
         width="100%"
         y="0"
         x="0"
         style="overflow:visible"
         id="use203"
         overflow="visible"
         xlink:href="#SVGID_35_" /></clipPath><clipPath
       clip-path="url(#SVGID_41_)"
       id="SVGID_42_"><use
         height="100%"
         width="100%"
         y="0"
         x="0"
         style="overflow:visible"
         id="use206"
         overflow="visible"
         xlink:href="#SVGID_36_" /></clipPath><clipPath
       clip-path="url(#SVGID_42_)"
       id="SVGID_43_"><use
         height="100%"
         width="100%"
         y="0"
         x="0"
         style="overflow:visible"
         id="use209"
         overflow="visible"
         xlink:href="#SVGID_37_" /></clipPath></g><g
     style="display:inline"
     id="g256"
     display="inline"><defs
       id="defs215"><path
         inkscape:connector-curvature="0"
         d="M 394.896,215.003 C 394.9,264.936 374.637,310.2 341.913,342.916 309.198,375.643 263.934,395.902 214,395.898 164.067,395.902 118.802,375.64 86.087,342.916 53.361,310.2 33.1,264.936 33.104,215.003 33.1,165.07 53.361,119.805 86.087,87.09 118.802,54.364 164.067,34.103 214,34.106 c 49.934,-0.003 95.198,20.257 127.913,52.983 32.726,32.716 52.987,77.981 52.983,127.914 h -6.512 -6.51 c -0.004,-46.379 -18.78,-88.306 -49.17,-118.706 -30.4,-30.39 -72.327,-49.167 -118.706,-49.17 -46.378,0.003 -88.306,18.78 -118.706,49.17 -30.39,30.4 -49.167,72.327 -49.17,118.706 0.003,46.378 18.78,88.306 49.17,118.706 30.4,30.391 72.328,49.166 118.706,49.17 46.379,-0.004 88.306,-18.779 118.706,-49.17 30.39,-30.4 49.166,-72.328 49.17,-118.706 h 6.51 z"
         id="SVGID_44_" /></defs><defs
       id="defs218"><rect
         height="79.055"
         width="22.320999"
         y="119.01"
         x="202.769"
         id="SVGID_45_" /></defs><defs
       id="defs221"><path
         inkscape:connector-curvature="0"
         d="m 213.788,82.816 c -7.19,0 -13.021,5.829 -13.021,13.02 0,7.192 5.831,13.021 13.021,13.021 7.187,0 13.021,-5.829 13.021,-13.021 0,-7.19 -5.834,-13.02 -13.021,-13.02 z"
         id="SVGID_46_" /></defs><defs
       id="defs224"><path
         inkscape:connector-curvature="0"
         d="m 95.801,215.613 c 90.736,11.173 166.057,24.266 194.907,34.848 l 0.006,0.119 32.032,-34.844 H 95.812"
         id="SVGID_47_" /></defs><defs
       id="defs227"><polygon
         points="102.093,300.062 102.093,265.811 94.966,265.811 94.966,305.646 120.551,305.646 120.551,300.062 "
         id="SVGID_48_" /></defs><defs
       id="defs230"><polygon
         points="130.063,305.646 141.066,289.354 151.979,305.646 160.179,305.646 145.509,285.104 159.136,265.811 151.442,265.811 141.364,280.879 131.286,265.811 123.354,265.811 136.891,284.993 122.43,305.646 "
         id="SVGID_49_" /></defs><defs
       id="defs233"><path
         inkscape:connector-curvature="0"
         d="m 173.18,289.734 v 15.912 h -7.127 V 265.81 h 12.315 c 5.625,0 9.79,0.963 12.494,2.889 2.703,1.926 4.056,4.832 4.056,8.72 0,4.959 -2.823,8.492 -8.469,10.599 l 12.315,17.631 h -8.11 l -10.437,-15.914 h -7.037 z"
         id="SVGID_50_" /></defs><clipPath
       id="SVGID_51_"><use
         height="100%"
         width="100%"
         y="0"
         x="0"
         style="overflow:visible"
         id="use235"
         overflow="visible"
         xlink:href="#SVGID_44_" /></clipPath><clipPath
       clip-path="url(#SVGID_51_)"
       id="SVGID_52_"><use
         height="100%"
         width="100%"
         y="0"
         x="0"
         style="overflow:visible"
         id="use238"
         overflow="visible"
         xlink:href="#SVGID_45_" /></clipPath><clipPath
       clip-path="url(#SVGID_52_)"
       id="SVGID_53_"><use
         height="100%"
         width="100%"
         y="0"
         x="0"
         style="overflow:visible"
         id="use241"
         overflow="visible"
         xlink:href="#SVGID_46_" /></clipPath><clipPath
       clip-path="url(#SVGID_53_)"
       id="SVGID_54_"><use
         height="100%"
         width="100%"
         y="0"
         x="0"
         style="overflow:visible"
         id="use244"
         overflow="visible"
         xlink:href="#SVGID_47_" /></clipPath><clipPath
       clip-path="url(#SVGID_54_)"
       id="SVGID_55_"><use
         height="100%"
         width="100%"
         y="0"
         x="0"
         style="overflow:visible"
         id="use247"
         overflow="visible"
         xlink:href="#SVGID_48_" /></clipPath><clipPath
       clip-path="url(#SVGID_55_)"
       id="SVGID_56_"><use
         height="100%"
         width="100%"
         y="0"
         x="0"
         style="overflow:visible"
         id="use250"
         overflow="visible"
         xlink:href="#SVGID_49_" /></clipPath><clipPath
       clip-path="url(#SVGID_56_)"
       id="SVGID_57_"><use
         height="100%"
         width="100%"
         y="0"
         x="0"
         style="overflow:visible"
         id="use253"
         overflow="visible"
         xlink:href="#SVGID_50_" /></clipPath></g><g
     style="display:inline"
     id="g306"
     display="inline"><defs
       id="defs259"><path
         inkscape:connector-curvature="0"
         d="M 394.896,215.003 C 394.9,264.936 374.637,310.2 341.913,342.916 309.198,375.643 263.934,395.902 214,395.898 164.067,395.902 118.802,375.64 86.087,342.916 53.361,310.2 33.1,264.936 33.104,215.003 33.1,165.07 53.361,119.805 86.087,87.09 118.802,54.364 164.067,34.103 214,34.106 c 49.934,-0.003 95.198,20.257 127.913,52.983 32.726,32.716 52.987,77.981 52.983,127.914 h -6.512 -6.51 c -0.004,-46.379 -18.78,-88.306 -49.17,-118.706 -30.4,-30.39 -72.327,-49.167 -118.706,-49.17 -46.378,0.003 -88.306,18.78 -118.706,49.17 -30.39,30.4 -49.167,72.327 -49.17,118.706 0.003,46.378 18.78,88.306 49.17,118.706 30.4,30.391 72.328,49.166 118.706,49.17 46.379,-0.004 88.306,-18.779 118.706,-49.17 30.39,-30.4 49.166,-72.328 49.17,-118.706 h 6.51 z"
         id="SVGID_58_" /></defs><defs
       id="defs262"><rect
         height="79.055"
         width="22.320999"
         y="119.01"
         x="202.769"
         id="SVGID_59_" /></defs><defs
       id="defs265"><path
         inkscape:connector-curvature="0"
         d="m 213.788,82.816 c -7.19,0 -13.021,5.829 -13.021,13.02 0,7.192 5.831,13.021 13.021,13.021 7.187,0 13.021,-5.829 13.021,-13.021 0,-7.19 -5.834,-13.02 -13.021,-13.02 z"
         id="SVGID_60_" /></defs><defs
       id="defs268"><path
         inkscape:connector-curvature="0"
         d="m 95.801,215.613 c 90.736,11.173 166.057,24.266 194.907,34.848 l 0.006,0.119 32.032,-34.844 H 95.812"
         id="SVGID_61_" /></defs><defs
       id="defs271"><polygon
         points="102.093,300.062 102.093,265.811 94.966,265.811 94.966,305.646 120.551,305.646 120.551,300.062 "
         id="SVGID_62_" /></defs><defs
       id="defs274"><polygon
         points="130.063,305.646 141.066,289.354 151.979,305.646 160.179,305.646 145.509,285.104 159.136,265.811 151.442,265.811 141.364,280.879 131.286,265.811 123.354,265.811 136.891,284.993 122.43,305.646 "
         id="SVGID_63_" /></defs><defs
       id="defs277"><path
         inkscape:connector-curvature="0"
         d="m 173.18,289.734 v 15.912 h -7.127 V 265.81 h 12.315 c 5.625,0 9.79,0.963 12.494,2.889 2.703,1.926 4.056,4.832 4.056,8.72 0,4.959 -2.823,8.492 -8.469,10.599 l 12.315,17.631 h -8.11 l -10.437,-15.914 h -7.037 z"
         id="SVGID_64_" /></defs><defs
       id="defs280"><path
         inkscape:connector-curvature="0"
         d="m 173.18,284.34 h 4.95 c 3.32,0 5.726,-0.562 7.216,-1.689 1.491,-1.127 2.236,-2.797 2.236,-5.014 0,-2.253 -0.805,-3.869 -2.415,-4.851 -1.61,-0.979 -4.036,-1.472 -7.276,-1.472 h -4.711 z"
         id="SVGID_65_" /></defs><clipPath
       id="SVGID_66_"><use
         height="100%"
         width="100%"
         y="0"
         x="0"
         style="overflow:visible"
         id="use282"
         overflow="visible"
         xlink:href="#SVGID_58_" /></clipPath><clipPath
       clip-path="url(#SVGID_66_)"
       id="SVGID_67_"><use
         height="100%"
         width="100%"
         y="0"
         x="0"
         style="overflow:visible"
         id="use285"
         overflow="visible"
         xlink:href="#SVGID_59_" /></clipPath><clipPath
       clip-path="url(#SVGID_67_)"
       id="SVGID_68_"><use
         height="100%"
         width="100%"
         y="0"
         x="0"
         style="overflow:visible"
         id="use288"
         overflow="visible"
         xlink:href="#SVGID_60_" /></clipPath><clipPath
       clip-path="url(#SVGID_68_)"
       id="SVGID_69_"><use
         height="100%"
         width="100%"
         y="0"
         x="0"
         style="overflow:visible"
         id="use291"
         overflow="visible"
         xlink:href="#SVGID_61_" /></clipPath><clipPath
       clip-path="url(#SVGID_69_)"
       id="SVGID_70_"><use
         height="100%"
         width="100%"
         y="0"
         x="0"
         style="overflow:visible"
         id="use294"
         overflow="visible"
         xlink:href="#SVGID_62_" /></clipPath><clipPath
       clip-path="url(#SVGID_70_)"
       id="SVGID_71_"><use
         height="100%"
         width="100%"
         y="0"
         x="0"
         style="overflow:visible"
         id="use297"
         overflow="visible"
         xlink:href="#SVGID_63_" /></clipPath><clipPath
       clip-path="url(#SVGID_71_)"
       id="SVGID_72_"><use
         height="100%"
         width="100%"
         y="0"
         x="0"
         style="overflow:visible"
         id="use300"
         overflow="visible"
         xlink:href="#SVGID_64_" /></clipPath><clipPath
       clip-path="url(#SVGID_72_)"
       id="SVGID_73_"><use
         height="100%"
         width="100%"
         y="0"
         x="0"
         style="overflow:visible"
         id="use303"
         overflow="visible"
         xlink:href="#SVGID_65_" /></clipPath></g><g
     style="display:inline"
     id="g362"
     display="inline"><defs
       id="defs309"><path
         inkscape:connector-curvature="0"
         d="M 394.896,215.003 C 394.9,264.936 374.637,310.2 341.913,342.916 309.198,375.643 263.934,395.902 214,395.898 164.067,395.902 118.802,375.64 86.087,342.916 53.361,310.2 33.1,264.936 33.104,215.003 33.1,165.07 53.361,119.805 86.087,87.09 118.802,54.364 164.067,34.103 214,34.106 c 49.934,-0.003 95.198,20.257 127.913,52.983 32.726,32.716 52.987,77.981 52.983,127.914 h -6.512 -6.51 c -0.004,-46.379 -18.78,-88.306 -49.17,-118.706 -30.4,-30.39 -72.327,-49.167 -118.706,-49.17 -46.378,0.003 -88.306,18.78 -118.706,49.17 -30.39,30.4 -49.167,72.327 -49.17,118.706 0.003,46.378 18.78,88.306 49.17,118.706 30.4,30.391 72.328,49.166 118.706,49.17 46.379,-0.004 88.306,-18.779 118.706,-49.17 30.39,-30.4 49.166,-72.328 49.17,-118.706 h 6.51 z"
         id="SVGID_74_" /></defs><defs
       id="defs312"><rect
         height="79.055"
         width="22.320999"
         y="119.01"
         x="202.769"
         id="SVGID_75_" /></defs><defs
       id="defs315"><path
         inkscape:connector-curvature="0"
         d="m 213.788,82.816 c -7.19,0 -13.021,5.829 -13.021,13.02 0,7.192 5.831,13.021 13.021,13.021 7.187,0 13.021,-5.829 13.021,-13.021 0,-7.19 -5.834,-13.02 -13.021,-13.02 z"
         id="SVGID_76_" /></defs><defs
       id="defs318"><path
         inkscape:connector-curvature="0"
         d="m 95.801,215.613 c 90.736,11.173 166.057,24.266 194.907,34.848 l 0.006,0.119 32.032,-34.844 H 95.812"
         id="SVGID_77_" /></defs><defs
       id="defs321"><polygon
         points="102.093,300.062 102.093,265.811 94.966,265.811 94.966,305.646 120.551,305.646 120.551,300.062 "
         id="SVGID_78_" /></defs><defs
       id="defs324"><polygon
         points="130.063,305.646 141.066,289.354 151.979,305.646 160.179,305.646 145.509,285.104 159.136,265.811 151.442,265.811 141.364,280.879 131.286,265.811 123.354,265.811 136.891,284.993 122.43,305.646 "
         id="SVGID_79_" /></defs><defs
       id="defs327"><path
         inkscape:connector-curvature="0"
         d="m 173.18,289.734 v 15.912 h -7.127 V 265.81 h 12.315 c 5.625,0 9.79,0.963 12.494,2.889 2.703,1.926 4.056,4.832 4.056,8.72 0,4.959 -2.823,8.492 -8.469,10.599 l 12.315,17.631 h -8.11 l -10.437,-15.914 h -7.037 z"
         id="SVGID_80_" /></defs><defs
       id="defs330"><path
         inkscape:connector-curvature="0"
         d="m 173.18,284.34 h 4.95 c 3.32,0 5.726,-0.562 7.216,-1.689 1.491,-1.127 2.236,-2.797 2.236,-5.014 0,-2.253 -0.805,-3.869 -2.415,-4.851 -1.61,-0.979 -4.036,-1.472 -7.276,-1.472 h -4.711 z"
         id="SVGID_81_" /></defs><defs
       id="defs333"><polygon
         points="247.994,305.646 243.641,294.585 226.973,294.585 222.708,305.646 215.193,305.646 231.504,265.646 239.257,265.646 255.566,305.646 "
         id="SVGID_82_" /></defs><clipPath
       id="SVGID_83_"><use
         height="100%"
         width="100%"
         y="0"
         x="0"
         style="overflow:visible"
         id="use335"
         overflow="visible"
         xlink:href="#SVGID_74_" /></clipPath><clipPath
       clip-path="url(#SVGID_83_)"
       id="SVGID_84_"><use
         height="100%"
         width="100%"
         y="0"
         x="0"
         style="overflow:visible"
         id="use338"
         overflow="visible"
         xlink:href="#SVGID_75_" /></clipPath><clipPath
       clip-path="url(#SVGID_84_)"
       id="SVGID_85_"><use
         height="100%"
         width="100%"
         y="0"
         x="0"
         style="overflow:visible"
         id="use341"
         overflow="visible"
         xlink:href="#SVGID_76_" /></clipPath><clipPath
       clip-path="url(#SVGID_85_)"
       id="SVGID_86_"><use
         height="100%"
         width="100%"
         y="0"
         x="0"
         style="overflow:visible"
         id="use344"
         overflow="visible"
         xlink:href="#SVGID_77_" /></clipPath><clipPath
       clip-path="url(#SVGID_86_)"
       id="SVGID_87_"><use
         height="100%"
         width="100%"
         y="0"
         x="0"
         style="overflow:visible"
         id="use347"
         overflow="visible"
         xlink:href="#SVGID_78_" /></clipPath><clipPath
       clip-path="url(#SVGID_87_)"
       id="SVGID_88_"><use
         height="100%"
         width="100%"
         y="0"
         x="0"
         style="overflow:visible"
         id="use350"
         overflow="visible"
         xlink:href="#SVGID_79_" /></clipPath><clipPath
       clip-path="url(#SVGID_88_)"
       id="SVGID_89_"><use
         height="100%"
         width="100%"
         y="0"
         x="0"
         style="overflow:visible"
         id="use353"
         overflow="visible"
         xlink:href="#SVGID_80_" /></clipPath><clipPath
       clip-path="url(#SVGID_89_)"
       id="SVGID_90_"><use
         height="100%"
         width="100%"
         y="0"
         x="0"
         style="overflow:visible"
         id="use356"
         overflow="visible"
         xlink:href="#SVGID_81_" /></clipPath><clipPath
       clip-path="url(#SVGID_90_)"
       id="SVGID_91_"><use
         height="100%"
         width="100%"
         y="0"
         x="0"
         style="overflow:visible"
         id="use359"
         overflow="visible"
         xlink:href="#SVGID_82_" /></clipPath></g><g
     style="display:inline"
     id="g424"
     display="inline"><defs
       id="defs365"><path
         inkscape:connector-curvature="0"
         d="M 394.896,215.003 C 394.9,264.936 374.637,310.2 341.913,342.916 309.198,375.643 263.934,395.902 214,395.898 164.067,395.902 118.802,375.64 86.087,342.916 53.361,310.2 33.1,264.936 33.104,215.003 33.1,165.07 53.361,119.805 86.087,87.09 118.802,54.364 164.067,34.103 214,34.106 c 49.934,-0.003 95.198,20.257 127.913,52.983 32.726,32.716 52.987,77.981 52.983,127.914 h -6.512 -6.51 c -0.004,-46.379 -18.78,-88.306 -49.17,-118.706 -30.4,-30.39 -72.327,-49.167 -118.706,-49.17 -46.378,0.003 -88.306,18.78 -118.706,49.17 -30.39,30.4 -49.167,72.327 -49.17,118.706 0.003,46.378 18.78,88.306 49.17,118.706 30.4,30.391 72.328,49.166 118.706,49.17 46.379,-0.004 88.306,-18.779 118.706,-49.17 30.39,-30.4 49.166,-72.328 49.17,-118.706 h 6.51 z"
         id="SVGID_92_" /></defs><defs
       id="defs368"><rect
         height="79.055"
         width="22.320999"
         y="119.01"
         x="202.769"
         id="SVGID_93_" /></defs><defs
       id="defs371"><path
         inkscape:connector-curvature="0"
         d="m 213.788,82.816 c -7.19,0 -13.021,5.829 -13.021,13.02 0,7.192 5.831,13.021 13.021,13.021 7.187,0 13.021,-5.829 13.021,-13.021 0,-7.19 -5.834,-13.02 -13.021,-13.02 z"
         id="SVGID_94_" /></defs><defs
       id="defs374"><path
         inkscape:connector-curvature="0"
         d="m 95.801,215.613 c 90.736,11.173 166.057,24.266 194.907,34.848 l 0.006,0.119 32.032,-34.844 H 95.812"
         id="SVGID_95_" /></defs><defs
       id="defs377"><polygon
         points="102.093,300.062 102.093,265.811 94.966,265.811 94.966,305.646 120.551,305.646 120.551,300.062 "
         id="SVGID_96_" /></defs><defs
       id="defs380"><polygon
         points="130.063,305.646 141.066,289.354 151.979,305.646 160.179,305.646 145.509,285.104 159.136,265.811 151.442,265.811 141.364,280.879 131.286,265.811 123.354,265.811 136.891,284.993 122.43,305.646 "
         id="SVGID_97_" /></defs><defs
       id="defs383"><path
         inkscape:connector-curvature="0"
         d="m 173.18,289.734 v 15.912 h -7.127 V 265.81 h 12.315 c 5.625,0 9.79,0.963 12.494,2.889 2.703,1.926 4.056,4.832 4.056,8.72 0,4.959 -2.823,8.492 -8.469,10.599 l 12.315,17.631 h -8.11 l -10.437,-15.914 h -7.037 z"
         id="SVGID_98_" /></defs><defs
       id="defs386"><path
         inkscape:connector-curvature="0"
         d="m 173.18,284.34 h 4.95 c 3.32,0 5.726,-0.562 7.216,-1.689 1.491,-1.127 2.236,-2.797 2.236,-5.014 0,-2.253 -0.805,-3.869 -2.415,-4.851 -1.61,-0.979 -4.036,-1.472 -7.276,-1.472 h -4.711 z"
         id="SVGID_99_" /></defs><defs
       id="defs389"><polygon
         points="247.994,305.646 243.641,294.585 226.973,294.585 222.708,305.646 215.193,305.646 231.504,265.646 239.257,265.646 255.566,305.646 "
         id="SVGID_100_" /></defs><defs
       id="defs392"><path
         inkscape:connector-curvature="0"
         d="m 241.762,288.973 -4.085,-10.846 c -0.298,-0.727 -0.711,-1.871 -1.237,-3.434 -0.525,-1.562 -0.89,-2.707 -1.088,-3.434 -0.537,2.234 -1.322,4.678 -2.355,7.329 l -3.938,10.382 h 12.703 z"
         id="SVGID_101_" /></defs><clipPath
       id="SVGID_102_"><use
         height="100%"
         width="100%"
         y="0"
         x="0"
         style="overflow:visible"
         id="use394"
         overflow="visible"
         xlink:href="#SVGID_92_" /></clipPath><clipPath
       clip-path="url(#SVGID_102_)"
       id="SVGID_103_"><use
         height="100%"
         width="100%"
         y="0"
         x="0"
         style="overflow:visible"
         id="use397"
         overflow="visible"
         xlink:href="#SVGID_93_" /></clipPath><clipPath
       clip-path="url(#SVGID_103_)"
       id="SVGID_104_"><use
         height="100%"
         width="100%"
         y="0"
         x="0"
         style="overflow:visible"
         id="use400"
         overflow="visible"
         xlink:href="#SVGID_94_" /></clipPath><clipPath
       clip-path="url(#SVGID_104_)"
       id="SVGID_105_"><use
         height="100%"
         width="100%"
         y="0"
         x="0"
         style="overflow:visible"
         id="use403"
         overflow="visible"
         xlink:href="#SVGID_95_" /></clipPath><clipPath
       clip-path="url(#SVGID_105_)"
       id="SVGID_106_"><use
         height="100%"
         width="100%"
         y="0"
         x="0"
         style="overflow:visible"
         id="use406"
         overflow="visible"
         xlink:href="#SVGID_96_" /></clipPath><clipPath
       clip-path="url(#SVGID_106_)"
       id="SVGID_107_"><use
         height="100%"
         width="100%"
         y="0"
         x="0"
         style="overflow:visible"
         id="use409"
         overflow="visible"
         xlink:href="#SVGID_97_" /></clipPath><clipPath
       clip-path="url(#SVGID_107_)"
       id="SVGID_108_"><use
         height="100%"
         width="100%"
         y="0"
         x="0"
         style="overflow:visible"
         id="use412"
         overflow="visible"
         xlink:href="#SVGID_98_" /></clipPath><clipPath
       clip-path="url(#SVGID_108_)"
       id="SVGID_109_"><use
         height="100%"
         width="100%"
         y="0"
         x="0"
         style="overflow:visible"
         id="use415"
         overflow="visible"
         xlink:href="#SVGID_99_" /></clipPath><clipPath
       clip-path="url(#SVGID_109_)"
       id="SVGID_110_"><use
         height="100%"
         width="100%"
         y="0"
         x="0"
         style="overflow:visible"
         id="use418"
         overflow="visible"
         xlink:href="#SVGID_100_" /></clipPath><clipPath
       clip-path="url(#SVGID_110_)"
       id="SVGID_111_"><use
         height="100%"
         width="100%"
         y="0"
         x="0"
         style="overflow:visible"
         id="use421"
         overflow="visible"
         xlink:href="#SVGID_101_" /></clipPath></g><g
     style="display:inline"
     id="g492"
     display="inline"><defs
       id="defs427"><path
         inkscape:connector-curvature="0"
         d="M 394.896,215.003 C 394.9,264.936 374.637,310.2 341.913,342.916 309.198,375.643 263.934,395.902 214,395.898 164.067,395.902 118.802,375.64 86.087,342.916 53.361,310.2 33.1,264.936 33.104,215.003 33.1,165.07 53.361,119.805 86.087,87.09 118.802,54.364 164.067,34.103 214,34.106 c 49.934,-0.003 95.198,20.257 127.913,52.983 32.726,32.716 52.987,77.981 52.983,127.914 h -6.512 -6.51 c -0.004,-46.379 -18.78,-88.306 -49.17,-118.706 -30.4,-30.39 -72.327,-49.167 -118.706,-49.17 -46.378,0.003 -88.306,18.78 -118.706,49.17 -30.39,30.4 -49.167,72.327 -49.17,118.706 0.003,46.378 18.78,88.306 49.17,118.706 30.4,30.391 72.328,49.166 118.706,49.17 46.379,-0.004 88.306,-18.779 118.706,-49.17 30.39,-30.4 49.166,-72.328 49.17,-118.706 h 6.51 z"
         id="SVGID_112_" /></defs><defs
       id="defs430"><rect
         height="79.055"
         width="22.320999"
         y="119.01"
         x="202.769"
         id="SVGID_113_" /></defs><defs
       id="defs433"><path
         inkscape:connector-curvature="0"
         d="m 213.788,82.816 c -7.19,0 -13.021,5.829 -13.021,13.02 0,7.192 5.831,13.021 13.021,13.021 7.187,0 13.021,-5.829 13.021,-13.021 0,-7.19 -5.834,-13.02 -13.021,-13.02 z"
         id="SVGID_114_" /></defs><defs
       id="defs436"><path
         inkscape:connector-curvature="0"
         d="m 95.801,215.613 c 90.736,11.173 166.057,24.266 194.907,34.848 l 0.006,0.119 32.032,-34.844 H 95.812"
         id="SVGID_115_" /></defs><defs
       id="defs439"><polygon
         points="102.093,300.062 102.093,265.811 94.966,265.811 94.966,305.646 120.551,305.646 120.551,300.062 "
         id="SVGID_116_" /></defs><defs
       id="defs442"><polygon
         points="130.063,305.646 141.066,289.354 151.979,305.646 160.179,305.646 145.509,285.104 159.136,265.811 151.442,265.811 141.364,280.879 131.286,265.811 123.354,265.811 136.891,284.993 122.43,305.646 "
         id="SVGID_117_" /></defs><defs
       id="defs445"><path
         inkscape:connector-curvature="0"
         d="m 173.18,289.734 v 15.912 h -7.127 V 265.81 h 12.315 c 5.625,0 9.79,0.963 12.494,2.889 2.703,1.926 4.056,4.832 4.056,8.72 0,4.959 -2.823,8.492 -8.469,10.599 l 12.315,17.631 h -8.11 l -10.437,-15.914 h -7.037 z"
         id="SVGID_118_" /></defs><defs
       id="defs448"><path
         inkscape:connector-curvature="0"
         d="m 173.18,284.34 h 4.95 c 3.32,0 5.726,-0.562 7.216,-1.689 1.491,-1.127 2.236,-2.797 2.236,-5.014 0,-2.253 -0.805,-3.869 -2.415,-4.851 -1.61,-0.979 -4.036,-1.472 -7.276,-1.472 h -4.711 z"
         id="SVGID_119_" /></defs><defs
       id="defs451"><polygon
         points="247.994,305.646 243.641,294.585 226.973,294.585 222.708,305.646 215.193,305.646 231.504,265.646 239.257,265.646 255.566,305.646 "
         id="SVGID_120_" /></defs><defs
       id="defs454"><path
         inkscape:connector-curvature="0"
         d="m 241.762,288.973 -4.085,-10.846 c -0.298,-0.727 -0.711,-1.871 -1.237,-3.434 -0.525,-1.562 -0.89,-2.707 -1.088,-3.434 -0.537,2.234 -1.322,4.678 -2.355,7.329 l -3.938,10.382 h 12.703 z"
         id="SVGID_121_" /></defs><defs
       id="defs457"><path
         inkscape:connector-curvature="0"
         d="m 290.188,277.854 c 0,4.16 -1.492,7.349 -4.473,9.563 -2.982,2.217 -7.227,3.325 -12.732,3.325 h -4.531 v 14.904 h -7.128 v -39.838 h 12.554 c 5.446,0 9.528,1.019 12.24,3.053 2.712,2.035 4.07,5.034 4.07,8.993 z"
         id="SVGID_122_" /></defs><clipPath
       id="SVGID_123_"><use
         height="100%"
         width="100%"
         y="0"
         x="0"
         style="overflow:visible"
         id="use459"
         overflow="visible"
         xlink:href="#SVGID_112_" /></clipPath><clipPath
       clip-path="url(#SVGID_123_)"
       id="SVGID_124_"><use
         height="100%"
         width="100%"
         y="0"
         x="0"
         style="overflow:visible"
         id="use462"
         overflow="visible"
         xlink:href="#SVGID_113_" /></clipPath><clipPath
       clip-path="url(#SVGID_124_)"
       id="SVGID_125_"><use
         height="100%"
         width="100%"
         y="0"
         x="0"
         style="overflow:visible"
         id="use465"
         overflow="visible"
         xlink:href="#SVGID_114_" /></clipPath><clipPath
       clip-path="url(#SVGID_125_)"
       id="SVGID_126_"><use
         height="100%"
         width="100%"
         y="0"
         x="0"
         style="overflow:visible"
         id="use468"
         overflow="visible"
         xlink:href="#SVGID_115_" /></clipPath><clipPath
       clip-path="url(#SVGID_126_)"
       id="SVGID_127_"><use
         height="100%"
         width="100%"
         y="0"
         x="0"
         style="overflow:visible"
         id="use471"
         overflow="visible"
         xlink:href="#SVGID_116_" /></clipPath><clipPath
       clip-path="url(#SVGID_127_)"
       id="SVGID_128_"><use
         height="100%"
         width="100%"
         y="0"
         x="0"
         style="overflow:visible"
         id="use474"
         overflow="visible"
         xlink:href="#SVGID_117_" /></clipPath><clipPath
       clip-path="url(#SVGID_128_)"
       id="SVGID_129_"><use
         height="100%"
         width="100%"
         y="0"
         x="0"
         style="overflow:visible"
         id="use477"
         overflow="visible"
         xlink:href="#SVGID_118_" /></clipPath><clipPath
       clip-path="url(#SVGID_129_)"
       id="SVGID_130_"><use
         height="100%"
         width="100%"
         y="0"
         x="0"
         style="overflow:visible"
         id="use480"
         overflow="visible"
         xlink:href="#SVGID_119_" /></clipPath><clipPath
       clip-path="url(#SVGID_130_)"
       id="SVGID_131_"><use
         height="100%"
         width="100%"
         y="0"
         x="0"
         style="overflow:visible"
         id="use483"
         overflow="visible"
         xlink:href="#SVGID_120_" /></clipPath><clipPath
       clip-path="url(#SVGID_131_)"
       id="SVGID_132_"><use
         height="100%"
         width="100%"
         y="0"
         x="0"
         style="overflow:visible"
         id="use486"
         overflow="visible"
         xlink:href="#SVGID_121_" /></clipPath><clipPath
       clip-path="url(#SVGID_132_)"
       id="SVGID_133_"><use
         height="100%"
         width="100%"
         y="0"
         x="0"
         style="overflow:visible"
         id="use489"
         overflow="visible"
         xlink:href="#SVGID_122_" /></clipPath></g><g
     style="display:inline"
     id="g566"
     display="inline"><defs
       id="defs495"><path
         inkscape:connector-curvature="0"
         d="M 394.896,215.003 C 394.9,264.936 374.637,310.2 341.913,342.916 309.198,375.643 263.934,395.902 214,395.898 164.067,395.902 118.802,375.64 86.087,342.916 53.361,310.2 33.1,264.936 33.104,215.003 33.1,165.07 53.361,119.805 86.087,87.09 118.802,54.364 164.067,34.103 214,34.106 c 49.934,-0.003 95.198,20.257 127.913,52.983 32.726,32.716 52.987,77.981 52.983,127.914 h -6.512 -6.51 c -0.004,-46.379 -18.78,-88.306 -49.17,-118.706 -30.4,-30.39 -72.327,-49.167 -118.706,-49.17 -46.378,0.003 -88.306,18.78 -118.706,49.17 -30.39,30.4 -49.167,72.327 -49.17,118.706 0.003,46.378 18.78,88.306 49.17,118.706 30.4,30.391 72.328,49.166 118.706,49.17 46.379,-0.004 88.306,-18.779 118.706,-49.17 30.39,-30.4 49.166,-72.328 49.17,-118.706 h 6.51 z"
         id="SVGID_134_" /></defs><defs
       id="defs498"><rect
         height="79.055"
         width="22.320999"
         y="119.01"
         x="202.769"
         id="SVGID_135_" /></defs><defs
       id="defs501"><path
         inkscape:connector-curvature="0"
         d="m 213.788,82.816 c -7.19,0 -13.021,5.829 -13.021,13.02 0,7.192 5.831,13.021 13.021,13.021 7.187,0 13.021,-5.829 13.021,-13.021 0,-7.19 -5.834,-13.02 -13.021,-13.02 z"
         id="SVGID_136_" /></defs><defs
       id="defs504"><path
         inkscape:connector-curvature="0"
         d="m 95.801,215.613 c 90.736,11.173 166.057,24.266 194.907,34.848 l 0.006,0.119 32.032,-34.844 H 95.812"
         id="SVGID_137_" /></defs><defs
       id="defs507"><polygon
         points="102.093,300.062 102.093,265.811 94.966,265.811 94.966,305.646 120.551,305.646 120.551,300.062 "
         id="SVGID_138_" /></defs><defs
       id="defs510"><polygon
         points="130.063,305.646 141.066,289.354 151.979,305.646 160.179,305.646 145.509,285.104 159.136,265.811 151.442,265.811 141.364,280.879 131.286,265.811 123.354,265.811 136.891,284.993 122.43,305.646 "
         id="SVGID_139_" /></defs><defs
       id="defs513"><path
         inkscape:connector-curvature="0"
         d="m 173.18,289.734 v 15.912 h -7.127 V 265.81 h 12.315 c 5.625,0 9.79,0.963 12.494,2.889 2.703,1.926 4.056,4.832 4.056,8.72 0,4.959 -2.823,8.492 -8.469,10.599 l 12.315,17.631 h -8.11 l -10.437,-15.914 h -7.037 z"
         id="SVGID_140_" /></defs><defs
       id="defs516"><path
         inkscape:connector-curvature="0"
         d="m 173.18,284.34 h 4.95 c 3.32,0 5.726,-0.562 7.216,-1.689 1.491,-1.127 2.236,-2.797 2.236,-5.014 0,-2.253 -0.805,-3.869 -2.415,-4.851 -1.61,-0.979 -4.036,-1.472 -7.276,-1.472 h -4.711 z"
         id="SVGID_141_" /></defs><defs
       id="defs519"><polygon
         points="247.994,305.646 243.641,294.585 226.973,294.585 222.708,305.646 215.193,305.646 231.504,265.646 239.257,265.646 255.566,305.646 "
         id="SVGID_142_" /></defs><defs
       id="defs522"><path
         inkscape:connector-curvature="0"
         d="m 241.762,288.973 -4.085,-10.846 c -0.298,-0.727 -0.711,-1.871 -1.237,-3.434 -0.525,-1.562 -0.89,-2.707 -1.088,-3.434 -0.537,2.234 -1.322,4.678 -2.355,7.329 l -3.938,10.382 h 12.703 z"
         id="SVGID_143_" /></defs><defs
       id="defs525"><path
         inkscape:connector-curvature="0"
         d="m 290.188,277.854 c 0,4.16 -1.492,7.349 -4.473,9.563 -2.982,2.217 -7.227,3.325 -12.732,3.325 h -4.531 v 14.904 h -7.128 v -39.838 h 12.554 c 5.446,0 9.528,1.019 12.24,3.053 2.712,2.035 4.07,5.034 4.07,8.993 z"
         id="SVGID_144_" /></defs><defs
       id="defs528"><path
         inkscape:connector-curvature="0"
         d="m 268.45,285.266 h 3.786 c 3.658,0 6.341,-0.58 8.051,-1.742 1.709,-1.164 2.564,-2.979 2.564,-5.451 0,-2.288 -0.766,-3.995 -2.297,-5.121 -1.531,-1.127 -3.916,-1.689 -7.156,-1.689 h -4.948 z"
         id="SVGID_145_" /></defs><clipPath
       id="SVGID_146_"><use
         height="100%"
         width="100%"
         y="0"
         x="0"
         style="overflow:visible"
         id="use530"
         overflow="visible"
         xlink:href="#SVGID_134_" /></clipPath><clipPath
       clip-path="url(#SVGID_146_)"
       id="SVGID_147_"><use
         height="100%"
         width="100%"
         y="0"
         x="0"
         style="overflow:visible"
         id="use533"
         overflow="visible"
         xlink:href="#SVGID_135_" /></clipPath><clipPath
       clip-path="url(#SVGID_147_)"
       id="SVGID_148_"><use
         height="100%"
         width="100%"
         y="0"
         x="0"
         style="overflow:visible"
         id="use536"
         overflow="visible"
         xlink:href="#SVGID_136_" /></clipPath><clipPath
       clip-path="url(#SVGID_148_)"
       id="SVGID_149_"><use
         height="100%"
         width="100%"
         y="0"
         x="0"
         style="overflow:visible"
         id="use539"
         overflow="visible"
         xlink:href="#SVGID_137_" /></clipPath><clipPath
       clip-path="url(#SVGID_149_)"
       id="SVGID_150_"><use
         height="100%"
         width="100%"
         y="0"
         x="0"
         style="overflow:visible"
         id="use542"
         overflow="visible"
         xlink:href="#SVGID_138_" /></clipPath><clipPath
       clip-path="url(#SVGID_150_)"
       id="SVGID_151_"><use
         height="100%"
         width="100%"
         y="0"
         x="0"
         style="overflow:visible"
         id="use545"
         overflow="visible"
         xlink:href="#SVGID_139_" /></clipPath><clipPath
       clip-path="url(#SVGID_151_)"
       id="SVGID_152_"><use
         height="100%"
         width="100%"
         y="0"
         x="0"
         style="overflow:visible"
         id="use548"
         overflow="visible"
         xlink:href="#SVGID_140_" /></clipPath><clipPath
       clip-path="url(#SVGID_152_)"
       id="SVGID_153_"><use
         height="100%"
         width="100%"
         y="0"
         x="0"
         style="overflow:visible"
         id="use551"
         overflow="visible"
         xlink:href="#SVGID_141_" /></clipPath><clipPath
       clip-path="url(#SVGID_153_)"
       id="SVGID_154_"><use
         height="100%"
         width="100%"
         y="0"
         x="0"
         style="overflow:visible"
         id="use554"
         overflow="visible"
         xlink:href="#SVGID_142_" /></clipPath><clipPath
       clip-path="url(#SVGID_154_)"
       id="SVGID_155_"><use
         height="100%"
         width="100%"
         y="0"
         x="0"
         style="overflow:visible"
         id="use557"
         overflow="visible"
         xlink:href="#SVGID_143_" /></clipPath><clipPath
       clip-path="url(#SVGID_155_)"
       id="SVGID_156_"><use
         height="100%"
         width="100%"
         y="0"
         x="0"
         style="overflow:visible"
         id="use560"
         overflow="visible"
         xlink:href="#SVGID_144_" /></clipPath><clipPath
       clip-path="url(#SVGID_156_)"
       id="SVGID_157_"><use
         height="100%"
         width="100%"
         y="0"
         x="0"
         style="overflow:visible"
         id="use563"
         overflow="visible"
         xlink:href="#SVGID_145_" /></clipPath></g><g
     style="display:inline"
     id="g646"
     display="inline"><defs
       id="defs569"><path
         inkscape:connector-curvature="0"
         d="M 394.896,215.003 C 394.9,264.936 374.637,310.2 341.913,342.916 309.198,375.643 263.934,395.902 214,395.898 164.067,395.902 118.802,375.64 86.087,342.916 53.361,310.2 33.1,264.936 33.104,215.003 33.1,165.07 53.361,119.805 86.087,87.09 118.802,54.364 164.067,34.103 214,34.106 c 49.934,-0.003 95.198,20.257 127.913,52.983 32.726,32.716 52.987,77.981 52.983,127.914 h -6.512 -6.51 c -0.004,-46.379 -18.78,-88.306 -49.17,-118.706 -30.4,-30.39 -72.327,-49.167 -118.706,-49.17 -46.378,0.003 -88.306,18.78 -118.706,49.17 -30.39,30.4 -49.167,72.327 -49.17,118.706 0.003,46.378 18.78,88.306 49.17,118.706 30.4,30.391 72.328,49.166 118.706,49.17 46.379,-0.004 88.306,-18.779 118.706,-49.17 30.39,-30.4 49.166,-72.328 49.17,-118.706 h 6.51 z"
         id="SVGID_158_" /></defs><defs
       id="defs572"><rect
         height="79.055"
         width="22.320999"
         y="119.01"
         x="202.769"
         id="SVGID_159_" /></defs><defs
       id="defs575"><path
         inkscape:connector-curvature="0"
         d="m 213.788,82.816 c -7.19,0 -13.021,5.829 -13.021,13.02 0,7.192 5.831,13.021 13.021,13.021 7.187,0 13.021,-5.829 13.021,-13.021 0,-7.19 -5.834,-13.02 -13.021,-13.02 z"
         id="SVGID_160_" /></defs><defs
       id="defs578"><path
         inkscape:connector-curvature="0"
         d="m 95.801,215.613 c 90.736,11.173 166.057,24.266 194.907,34.848 l 0.006,0.119 32.032,-34.844 H 95.812"
         id="SVGID_161_" /></defs><defs
       id="defs581"><polygon
         points="102.093,300.062 102.093,265.811 94.966,265.811 94.966,305.646 120.551,305.646 120.551,300.062 "
         id="SVGID_162_" /></defs><defs
       id="defs584"><polygon
         points="130.063,305.646 141.066,289.354 151.979,305.646 160.179,305.646 145.509,285.104 159.136,265.811 151.442,265.811 141.364,280.879 131.286,265.811 123.354,265.811 136.891,284.993 122.43,305.646 "
         id="SVGID_163_" /></defs><defs
       id="defs587"><path
         inkscape:connector-curvature="0"
         d="m 173.18,289.734 v 15.912 h -7.127 V 265.81 h 12.315 c 5.625,0 9.79,0.963 12.494,2.889 2.703,1.926 4.056,4.832 4.056,8.72 0,4.959 -2.823,8.492 -8.469,10.599 l 12.315,17.631 h -8.11 l -10.437,-15.914 h -7.037 z"
         id="SVGID_164_" /></defs><defs
       id="defs590"><path
         inkscape:connector-curvature="0"
         d="m 173.18,284.34 h 4.95 c 3.32,0 5.726,-0.562 7.216,-1.689 1.491,-1.127 2.236,-2.797 2.236,-5.014 0,-2.253 -0.805,-3.869 -2.415,-4.851 -1.61,-0.979 -4.036,-1.472 -7.276,-1.472 h -4.711 z"
         id="SVGID_165_" /></defs><defs
       id="defs593"><polygon
         points="247.994,305.646 243.641,294.585 226.973,294.585 222.708,305.646 215.193,305.646 231.504,265.646 239.257,265.646 255.566,305.646 "
         id="SVGID_166_" /></defs><defs
       id="defs596"><path
         inkscape:connector-curvature="0"
         d="m 241.762,288.973 -4.085,-10.846 c -0.298,-0.727 -0.711,-1.871 -1.237,-3.434 -0.525,-1.562 -0.89,-2.707 -1.088,-3.434 -0.537,2.234 -1.322,4.678 -2.355,7.329 l -3.938,10.382 h 12.703 z"
         id="SVGID_167_" /></defs><defs
       id="defs599"><path
         inkscape:connector-curvature="0"
         d="m 290.188,277.854 c 0,4.16 -1.492,7.349 -4.473,9.563 -2.982,2.217 -7.227,3.325 -12.732,3.325 h -4.531 v 14.904 h -7.128 v -39.838 h 12.554 c 5.446,0 9.528,1.019 12.24,3.053 2.712,2.035 4.07,5.034 4.07,8.993 z"
         id="SVGID_168_" /></defs><defs
       id="defs602"><path
         inkscape:connector-curvature="0"
         d="m 268.45,285.266 h 3.786 c 3.658,0 6.341,-0.58 8.051,-1.742 1.709,-1.164 2.564,-2.979 2.564,-5.451 0,-2.288 -0.766,-3.995 -2.297,-5.121 -1.531,-1.127 -3.916,-1.689 -7.156,-1.689 h -4.948 z"
         id="SVGID_169_" /></defs><defs
       id="defs605"><rect
         height="39.838001"
         width="7.1259999"
         y="265.811"
         x="298.89401"
         id="SVGID_170_" /></defs><clipPath
       id="SVGID_171_"><use
         height="100%"
         width="100%"
         y="0"
         x="0"
         style="overflow:visible"
         id="use607"
         overflow="visible"
         xlink:href="#SVGID_158_" /></clipPath><clipPath
       clip-path="url(#SVGID_171_)"
       id="SVGID_172_"><use
         height="100%"
         width="100%"
         y="0"
         x="0"
         style="overflow:visible"
         id="use610"
         overflow="visible"
         xlink:href="#SVGID_159_" /></clipPath><clipPath
       clip-path="url(#SVGID_172_)"
       id="SVGID_173_"><use
         height="100%"
         width="100%"
         y="0"
         x="0"
         style="overflow:visible"
         id="use613"
         overflow="visible"
         xlink:href="#SVGID_160_" /></clipPath><clipPath
       clip-path="url(#SVGID_173_)"
       id="SVGID_174_"><use
         height="100%"
         width="100%"
         y="0"
         x="0"
         style="overflow:visible"
         id="use616"
         overflow="visible"
         xlink:href="#SVGID_161_" /></clipPath><clipPath
       clip-path="url(#SVGID_174_)"
       id="SVGID_175_"><use
         height="100%"
         width="100%"
         y="0"
         x="0"
         style="overflow:visible"
         id="use619"
         overflow="visible"
         xlink:href="#SVGID_162_" /></clipPath><clipPath
       clip-path="url(#SVGID_175_)"
       id="SVGID_176_"><use
         height="100%"
         width="100%"
         y="0"
         x="0"
         style="overflow:visible"
         id="use622"
         overflow="visible"
         xlink:href="#SVGID_163_" /></clipPath><clipPath
       clip-path="url(#SVGID_176_)"
       id="SVGID_177_"><use
         height="100%"
         width="100%"
         y="0"
         x="0"
         style="overflow:visible"
         id="use625"
         overflow="visible"
         xlink:href="#SVGID_164_" /></clipPath><clipPath
       clip-path="url(#SVGID_177_)"
       id="SVGID_178_"><use
         height="100%"
         width="100%"
         y="0"
         x="0"
         style="overflow:visible"
         id="use628"
         overflow="visible"
         xlink:href="#SVGID_165_" /></clipPath><clipPath
       clip-path="url(#SVGID_178_)"
       id="SVGID_179_"><use
         height="100%"
         width="100%"
         y="0"
         x="0"
         style="overflow:visible"
         id="use631"
         overflow="visible"
         xlink:href="#SVGID_166_" /></clipPath><clipPath
       clip-path="url(#SVGID_179_)"
       id="SVGID_180_"><use
         height="100%"
         width="100%"
         y="0"
         x="0"
         style="overflow:visible"
         id="use634"
         overflow="visible"
         xlink:href="#SVGID_167_" /></clipPath><clipPath
       clip-path="url(#SVGID_180_)"
       id="SVGID_181_"><use
         height="100%"
         width="100%"
         y="0"
         x="0"
         style="overflow:visible"
         id="use637"
         overflow="visible"
         xlink:href="#SVGID_168_" /></clipPath><clipPath
       clip-path="url(#SVGID_181_)"
       id="SVGID_182_"><use
         height="100%"
         width="100%"
         y="0"
         x="0"
         style="overflow:visible"
         id="use640"
         overflow="visible"
         xlink:href="#SVGID_169_" /></clipPath><clipPath
       clip-path="url(#SVGID_182_)"
       id="SVGID_183_"><use
         height="100%"
         width="100%"
         y="0"
         x="0"
         style="overflow:visible"
         id="use643"
         overflow="visible"
         xlink:href="#SVGID_170_" /></clipPath></g><g
     style="display:inline"
     id="g735"
     display="inline"><defs
       id="defs649"><path
         inkscape:connector-curvature="0"
         d="M 394.896,215.003 C 394.9,264.936 374.637,310.2 341.913,342.916 309.198,375.643 263.934,395.902 214,395.898 164.067,395.902 118.802,375.64 86.087,342.916 53.361,310.2 33.1,264.936 33.104,215.003 33.1,165.07 53.361,119.805 86.087,87.09 118.802,54.364 164.067,34.103 214,34.106 c 49.934,-0.003 95.198,20.257 127.913,52.983 32.726,32.716 52.987,77.981 52.983,127.914 h -6.512 -6.51 c -0.004,-46.379 -18.78,-88.306 -49.17,-118.706 -30.4,-30.39 -72.327,-49.167 -118.706,-49.17 -46.378,0.003 -88.306,18.78 -118.706,49.17 -30.39,30.4 -49.167,72.327 -49.17,118.706 0.003,46.378 18.78,88.306 49.17,118.706 30.4,30.391 72.328,49.166 118.706,49.17 46.379,-0.004 88.306,-18.779 118.706,-49.17 30.39,-30.4 49.166,-72.328 49.17,-118.706 h 6.51 z"
         id="SVGID_184_" /></defs><defs
       id="defs652"><rect
         height="79.055"
         width="22.320999"
         y="119.01"
         x="202.769"
         id="SVGID_185_" /></defs><defs
       id="defs655"><path
         inkscape:connector-curvature="0"
         d="m 213.788,82.816 c -7.19,0 -13.021,5.829 -13.021,13.02 0,7.192 5.831,13.021 13.021,13.021 7.187,0 13.021,-5.829 13.021,-13.021 0,-7.19 -5.834,-13.02 -13.021,-13.02 z"
         id="SVGID_186_" /></defs><defs
       id="defs658"><path
         inkscape:connector-curvature="0"
         d="m 95.801,215.613 c 90.736,11.173 166.057,24.266 194.907,34.848 l 0.006,0.119 32.032,-34.844 H 95.812"
         id="SVGID_187_" /></defs><defs
       id="defs661"><polygon
         points="102.093,300.062 102.093,265.811 94.966,265.811 94.966,305.646 120.551,305.646 120.551,300.062 "
         id="SVGID_188_" /></defs><defs
       id="defs664"><polygon
         points="130.063,305.646 141.066,289.354 151.979,305.646 160.179,305.646 145.509,285.104 159.136,265.811 151.442,265.811 141.364,280.879 131.286,265.811 123.354,265.811 136.891,284.993 122.43,305.646 "
         id="SVGID_189_" /></defs><defs
       id="defs667"><path
         inkscape:connector-curvature="0"
         d="m 173.18,289.734 v 15.912 h -7.127 V 265.81 h 12.315 c 5.625,0 9.79,0.963 12.494,2.889 2.703,1.926 4.056,4.832 4.056,8.72 0,4.959 -2.823,8.492 -8.469,10.599 l 12.315,17.631 h -8.11 l -10.437,-15.914 h -7.037 z"
         id="SVGID_190_" /></defs><defs
       id="defs670"><path
         inkscape:connector-curvature="0"
         d="m 173.18,284.34 h 4.95 c 3.32,0 5.726,-0.562 7.216,-1.689 1.491,-1.127 2.236,-2.797 2.236,-5.014 0,-2.253 -0.805,-3.869 -2.415,-4.851 -1.61,-0.979 -4.036,-1.472 -7.276,-1.472 h -4.711 z"
         id="SVGID_191_" /></defs><defs
       id="defs673"><polygon
         points="247.994,305.646 243.641,294.585 226.973,294.585 222.708,305.646 215.193,305.646 231.504,265.646 239.257,265.646 255.566,305.646 "
         id="SVGID_192_" /></defs><defs
       id="defs676"><path
         inkscape:connector-curvature="0"
         d="m 241.762,288.973 -4.085,-10.846 c -0.298,-0.727 -0.711,-1.871 -1.237,-3.434 -0.525,-1.562 -0.89,-2.707 -1.088,-3.434 -0.537,2.234 -1.322,4.678 -2.355,7.329 l -3.938,10.382 h 12.703 z"
         id="SVGID_193_" /></defs><defs
       id="defs679"><path
         inkscape:connector-curvature="0"
         d="m 290.188,277.854 c 0,4.16 -1.492,7.349 -4.473,9.563 -2.982,2.217 -7.227,3.325 -12.732,3.325 h -4.531 v 14.904 h -7.128 v -39.838 h 12.554 c 5.446,0 9.528,1.019 12.24,3.053 2.712,2.035 4.07,5.034 4.07,8.993 z"
         id="SVGID_194_" /></defs><defs
       id="defs682"><path
         inkscape:connector-curvature="0"
         d="m 268.45,285.266 h 3.786 c 3.658,0 6.341,-0.58 8.051,-1.742 1.709,-1.164 2.564,-2.979 2.564,-5.451 0,-2.288 -0.766,-3.995 -2.297,-5.121 -1.531,-1.127 -3.916,-1.689 -7.156,-1.689 h -4.948 z"
         id="SVGID_195_" /></defs><defs
       id="defs685"><rect
         height="39.838001"
         width="7.1259999"
         y="265.811"
         x="298.89401"
         id="SVGID_196_" /></defs><defs
       id="defs688"><path
         inkscape:connector-curvature="0"
         d="m 338.045,293.316 c -0.596,-1.043 -1.512,-1.965 -2.743,-2.766 -1.232,-0.799 -3.212,-1.68 -5.935,-2.643 -3.24,-1.145 -5.342,-2.045 -6.308,-2.698 -0.965,-0.653 -1.445,-1.453 -1.445,-2.397 0,-1.926 1.85,-2.888 5.546,-2.888 2.425,0 5.417,0.673 8.976,2.017 l 2.268,-4.822 c -3.458,-1.436 -7.126,-2.153 -11.002,-2.153 -3.917,0 -7.015,0.714 -9.29,2.14 -2.276,1.427 -3.413,3.43 -3.413,6.008 0,2.145 0.67,3.889 2.013,5.231 1.342,1.345 3.911,2.688 7.707,4.033 1.949,0.688 3.47,1.308 4.562,1.853 1.092,0.545 1.879,1.071 2.354,1.58 0.478,0.51 0.716,1.146 0.716,1.907 0,2.38 -2.156,3.57 -6.471,3.57 -3.339,0 -6.946,-0.818 -10.823,-2.453 v 5.531 c 2.663,1.218 6.19,1.825 10.585,1.825 4.372,0 7.733,-0.785 10.078,-2.356 2.345,-1.571 3.52,-3.828 3.52,-6.771 -0.002,-1.453 -0.299,-2.703 -0.895,-3.748 z"
         id="SVGID_197_" /></defs><clipPath
       id="SVGID_198_"><use
         height="100%"
         width="100%"
         y="0"
         x="0"
         style="overflow:visible"
         id="use690"
         overflow="visible"
         xlink:href="#SVGID_184_" /></clipPath><clipPath
       clip-path="url(#SVGID_198_)"
       id="SVGID_199_"><use
         height="100%"
         width="100%"
         y="0"
         x="0"
         style="overflow:visible"
         id="use693"
         overflow="visible"
         xlink:href="#SVGID_185_" /></clipPath><clipPath
       clip-path="url(#SVGID_199_)"
       id="SVGID_200_"><use
         height="100%"
         width="100%"
         y="0"
         x="0"
         style="overflow:visible"
         id="use696"
         overflow="visible"
         xlink:href="#SVGID_186_" /></clipPath><clipPath
       clip-path="url(#SVGID_200_)"
       id="SVGID_201_"><use
         height="100%"
         width="100%"
         y="0"
         x="0"
         style="overflow:visible"
         id="use699"
         overflow="visible"
         xlink:href="#SVGID_187_" /></clipPath><clipPath
       clip-path="url(#SVGID_201_)"
       id="SVGID_202_"><use
         height="100%"
         width="100%"
         y="0"
         x="0"
         style="overflow:visible"
         id="use702"
         overflow="visible"
         xlink:href="#SVGID_188_" /></clipPath><clipPath
       clip-path="url(#SVGID_202_)"
       id="SVGID_203_"><use
         height="100%"
         width="100%"
         y="0"
         x="0"
         style="overflow:visible"
         id="use705"
         overflow="visible"
         xlink:href="#SVGID_189_" /></clipPath><clipPath
       clip-path="url(#SVGID_203_)"
       id="SVGID_204_"><use
         height="100%"
         width="100%"
         y="0"
         x="0"
         style="overflow:visible"
         id="use708"
         overflow="visible"
         xlink:href="#SVGID_190_" /></clipPath><clipPath
       clip-path="url(#SVGID_204_)"
       id="SVGID_205_"><use
         height="100%"
         width="100%"
         y="0"
         x="0"
         style="overflow:visible"
         id="use711"
         overflow="visible"
         xlink:href="#SVGID_191_" /></clipPath><clipPath
       clip-path="url(#SVGID_205_)"
       id="SVGID_206_"><use
         height="100%"
         width="100%"
         y="0"
         x="0"
         style="overflow:visible"
         id="use714"
         overflow="visible"
         xlink:href="#SVGID_192_" /></clipPath><clipPath
       clip-path="url(#SVGID_206_)"
       id="SVGID_207_"><use
         height="100%"
         width="100%"
         y="0"
         x="0"
         style="overflow:visible"
         id="use717"
         overflow="visible"
         xlink:href="#SVGID_193_" /></clipPath><clipPath
       clip-path="url(#SVGID_207_)"
       id="SVGID_208_"><use
         height="100%"
         width="100%"
         y="0"
         x="0"
         style="overflow:visible"
         id="use720"
         overflow="visible"
         xlink:href="#SVGID_194_" /></clipPath><clipPath
       clip-path="url(#SVGID_208_)"
       id="SVGID_209_"><use
         height="100%"
         width="100%"
         y="0"
         x="0"
         style="overflow:visible"
         id="use723"
         overflow="visible"
         xlink:href="#SVGID_195_" /></clipPath><clipPath
       clip-path="url(#SVGID_209_)"
       id="SVGID_210_"><use
         height="100%"
         width="100%"
         y="0"
         x="0"
         style="overflow:visible"
         id="use726"
         overflow="visible"
         xlink:href="#SVGID_196_" /></clipPath><clipPath
       clip-path="url(#SVGID_210_)"
       id="SVGID_211_"><use
         height="100%"
         width="100%"
         y="0"
         x="0"
         style="overflow:visible"
         id="use729"
         overflow="visible"
         xlink:href="#SVGID_197_" /></clipPath><g
       clip-path="url(#SVGID_211_)"
       id="Layer_6"><image
         sodipodi:absref="C:\Users\jongw\Pictures\Logos\remain\OpenAPI\1BA14CBE5F23AE94.png"
         xlink:href="1BA14CBE5F23AE94.png"
         style="overflow:visible"
         id="image732"
         transform="matrix(0.223,0,0,0.2223,14.0005,15.04)"
         height="1799"
         width="1794"
         enable-background="new    "
         overflow="visible" /></g></g></g><g
   id="gen-blue"
   display="none"
   style="display:none"
   transform="translate(150.78834,188.15604)"><path
   display="inline"
   d="m 291.049,80 78.083,135 -78.034,135 H 134.904 L 56.844,215 134.904,80 H 291 M 307.25,52 H 118.75 L 24.5,215 118.75,378 h 188.5 L 401.5,215 Z"
   id="path779"
   inkscape:connector-curvature="0"
   style="display:inline;fill:#39a5dc" /><text
   transform="matrix(0.8009,0,0,1,120.5,262.7949)"
   display="inline"
   id="text787"
   style="display:inline"><tspan
     x="0"
     y="0"
     font-size="151.6958"
     id="tspan781"
     style="font-size:151.69580078px;font-family:OpenSans-Semibold">{ </tspan><tspan
     x="97.995003"
     y="4.2140002"
     font-size="151.6958"
     id="tspan783"
     style="font-size:151.69580078px;font-family:OpenSans-Semibold" /><tspan
     x="137.401"
     y="0"
     font-size="151.6958"
     id="tspan785"
     style="font-size:151.69580078px;font-family:OpenSans-Semibold"> }</tspan></text>






<path
   display="inline"
   d="m 268,207.277 c 0,5.24 0,10.294 0,15.412 -4.342,0.739 -8.36,1.459 -12.396,2.081 -0.995,0.153 -1.45,0.524 -1.817,1.493 -1.239,3.267 -2.56,6.509 -4.024,9.68 -0.423,0.916 -0.323,1.434 0.2,2.159 2.197,3.029 4.381,6.068 6.484,9.163 0.294,0.432 0.387,1.392 0.111,1.755 -2.918,3.835 -6.32,7.194 -10.293,10.157 -3.343,-2.377 -6.697,-4.696 -9.97,-7.125 -0.946,-0.701 -1.595,-0.625 -2.626,-0.147 -3.012,1.393 -6.1,2.63 -9.2,3.817 -0.951,0.364 -1.522,0.671 -1.681,1.833 -0.477,3.531 -1.176,7.031 -1.709,10.555 -0.184,1.206 -0.636,1.896 -1.94,1.893 -4.087,-0.018 -8.173,-0.003 -12.261,-0.006 -1.252,0 -1.776,-0.581 -1.951,-1.881 -0.487,-3.588 -1.102,-7.161 -1.787,-10.717 -0.112,-0.579 -0.74,-1.268 -1.301,-1.515 -3.302,-1.461 -6.639,-2.847 -10.007,-4.145 -0.547,-0.211 -1.454,-0.064 -1.951,0.273 -3.379,2.308 -6.693,4.712 -10.443,7.379 -3.584,-3.572 -7.198,-7.174 -10.859,-10.822 2.607,-3.666 4.942,-7.013 7.358,-10.299 0.63,-0.858 0.688,-1.47 0.224,-2.479 -1.433,-3.121 -2.71,-6.316 -3.952,-9.521 -0.328,-0.844 -0.639,-1.335 -1.625,-1.481 -3.642,-0.534 -7.262,-1.221 -10.903,-1.756 -1.132,-0.167 -1.682,-0.635 -1.681,-1.765 0.002,-4.202 0.01,-8.405 0,-12.609 -0.003,-1.181 0.653,-1.557 1.724,-1.721 3.639,-0.559 7.272,-1.157 10.891,-1.837 0.535,-0.101 1.213,-0.632 1.416,-1.129 1.501,-3.663 2.897,-7.368 4.471,-11.43 -2.337,-3.287 -4.976,-7 -7.691,-10.82 2.923,-3.98 6.377,-7.435 10.299,-10.417 0.314,-0.239 1.201,-0.063 1.616,0.22 3.038,2.083 6.061,4.19 9.002,6.409 0.967,0.729 1.609,0.579 2.623,0.113 3.016,-1.385 6.1,-2.632 9.204,-3.808 0.969,-0.367 1.526,-0.706 1.685,-1.848 0.507,-3.646 1.201,-7.264 1.751,-10.904 0.149,-0.989 0.571,-1.461 1.554,-1.462 4.259,-0.006 8.521,-0.012 12.782,-0.027 1.145,-0.004 1.565,0.588 1.729,1.685 0.54,3.583 1.225,7.143 1.744,10.729 0.147,1.017 0.54,1.435 1.496,1.797 3.266,1.241 6.509,2.559 9.683,4.019 0.917,0.422 1.439,0.312 2.16,-0.209 3.315,-2.401 6.656,-4.764 10.415,-7.444 3.58,3.565 7.19,7.16 10.865,10.818 -2.876,4.049 -5.505,7.752 -7.919,11.152 1.553,4.033 2.98,7.838 4.51,11.602 0.183,0.448 0.874,0.873 1.394,0.968 4.074,0.748 8.161,1.412 12.596,2.162 z"
   id="path789"
   inkscape:connector-curvature="0"
   style="clip-rule:evenodd;display:inline;fill:#0088ce;fill-rule:evenodd" /><path
   display="inline"
   d="m 178.004,214.694 c -0.289,19.125 15.161,34.894 34.57,35.285 19.256,0.388 35.143,-15.123 35.422,-34.583 0.278,-19.354 -15.167,-35.139 -34.617,-35.377 -19.329,-0.237 -35.082,15.205 -35.375,34.675 z"
   id="path791"
   inkscape:connector-curvature="0"
   style="clip-rule:evenodd;display:inline;fill:#ffffff;fill-rule:evenodd" /></g>

<flowRoot
   xml:space="preserve"
   id="flowRoot1306"
   style="font-style:normal;font-variant:normal;font-weight:normal;font-stretch:normal;font-size:40px;line-height:1.25;font-family:'Berthold Akzidenz Grotesk';-inkscape-font-specification:'Berthold Akzidenz Grotesk';letter-spacing:0px;word-spacing:0px;writing-mode:tb-rl;opacity:0.97000002;fill:#000000;fill-opacity:1;stroke:none"
   transform="translate(150.78834,188.15604)"><flowRegion
     id="flowRegion1308"><rect
       id="rect1310"
       width="402.66949"
       height="127.54237"
       x="-156.69492"
       y="-191.31355" /></flowRegion><flowPara
     id="flowPara1312" /></flowRoot>

<flowRoot
   xml:space="preserve"
   id="flowRoot2227"
   style="font-style:normal;font-variant:normal;font-weight:normal;font-stretch:normal;font-size:40px;line-height:1.25;font-family:'Berthold Akzidenz Grotesk';-inkscape-font-specification:'Berthold Akzidenz Grotesk';letter-spacing:0px;word-spacing:0px;writing-mode:tb-rl;opacity:0.97000002;fill:#f8f8f7;fill-opacity:1;stroke:none"
   transform="matrix(0.46789081,0,0,0.46789081,64.384618,294.96217)"><flowRegion
     id="flowRegion2229"
     style="fill:#f8f8f7;fill-opacity:1"><rect
       id="rect2231"
       width="737.92377"
       height="94.745766"
       x="694.19489"
       y="816.10913"
       style="fill:#f8f8f7;fill-opacity:1" /></flowRegion><flowPara
     id="flowPara2233"
     style="font-style:normal;font-variant:normal;font-weight:normal;font-stretch:normal;font-size:57.88533401px;font-family:'Arial Unicode MS';-inkscape-font-specification:'Arial Unicode MS, Normal';font-variant-ligatures:normal;font-variant-caps:normal;font-variant-numeric:normal;font-feature-settings:normal;text-align:start;writing-mode:lr-tb;text-anchor:start;fill:#f8f8f7;fill-opacity:1">  2019 </flowPara></flowRoot><path
   d="m 507.97043,681.96445 c 0,0 0,19.58442 0,19.58442 0,0 7.02337,0 7.02337,0 0,0 0,-7.02337 0,-7.02337 0,0 2.56624,0 2.56624,0 0.4795,0.001 0.90223,-0.0567 1.26827,0.31199 0.22962,0.23096 0.86846,1.36821 1.06565,1.71398 0,0 1.77476,3.1065 1.77476,3.1065 0.93871,1.61672 0.84012,1.88821 2.23938,1.8909 0,0 6.48314,0 6.48314,0 0,0 -1.39389,-2.43116 -1.39389,-2.43116 0,0 -3.3334,-5.40261 -3.3334,-5.40261 5.38639,-0.48623 5.82671,-8.44561 1.62078,-10.84842 -1.78419,-1.01839 -4.72998,-0.90223 -6.75325,-0.90223 0,0 -12.56105,0 -12.56105,0 z m 25.52729,0 c 0,0 0,19.58442 0,19.58442 0,0 20.80001,0 20.80001,0 0,0 0,-4.45714 0,-4.45714 0,0 -13.91168,0 -13.91168,0 0,0 0,-3.10649 0,-3.10649 0,0 12.56105,0 12.56105,0 0,0 0,-4.32209 0,-4.32209 0,0 -12.56105,0 -12.56105,0 0,0 0,-3.37663 0,-3.37663 0,0 13.64156,0 13.64156,0 0,0 0,-4.32207 0,-4.32207 0,0 -20.52989,0 -20.52989,0 z m 24.31171,0 c 0,0 0,19.58442 0,19.58442 0,0 6.75326,0 6.75326,0 0,0 0,-12.29092 0,-12.29092 0,0 1.57887,4.05196 1.57887,4.05196 0,0 1.93957,5.26754 1.93957,5.26754 0,0 0.71041,1.8909 0.71041,1.8909 0,0 0.45787,0.94681 0.45787,0.94681 0,0 0.98597,0.13371 0.98597,0.13371 0,0 3.24158,0 3.24158,0 0,0 1.01164,-0.13776 1.01164,-0.13776 0,0 0.44838,-0.80769 0.44838,-0.80769 0,0 0.74693,-2.02597 0.74693,-2.02597 0,0 3.46581,-9.45456 3.46581,-9.45456 0,0 0.13501,4.18702 0.13501,4.18702 0,0 0,8.23896 0,8.23896 0,0 6.75327,0 6.75327,0 0,0 0,-19.58442 0,-19.58442 0,0 -8.10386,0 -8.10386,0 0,0 -0.98604,0.13371 -0.98604,0.13371 0,0 -1.23177,2.83772 -1.23177,2.83772 0,0 -3.72511,9.72468 -3.72511,9.72468 0,0 -1.5424,-3.78182 -1.5424,-3.78182 0,0 -2.24613,-5.8078 -2.24613,-5.8078 0,0 -0.77799,-2.02598 -0.77799,-2.02598 0,0 -0.51866,-0.9468 -0.51866,-0.9468 0,0 -0.99266,-0.13371 -0.99266,-0.13371 0,0 -8.10395,0 -8.10395,0 z m 29.9844,19.58442 c 0,0 7.69876,0 7.69876,0 0,0 0.94542,-3.24156 0.94542,-3.24156 0,0 6.34803,0 6.34803,0 0,0 1.14671,0.2161 1.14671,0.2161 0,0 1.24398,2.89175 1.24398,2.89175 0,0 0.98597,0.13371 0.98597,0.13371 0,0 6.4831,0 6.4831,0 0,0 -1.36957,-3.24156 -1.36957,-3.24156 0,0 -1.75584,-4.05195 -1.75584,-4.05195 0,0 -3.38875,-7.83377 -3.38875,-7.83377 0,0 -1.33988,-3.1065 -1.33988,-3.1065 0,0 -0.70775,-1.21288 -0.70775,-1.21288 0,0 -1.02781,-0.13776 -1.02781,-0.13776 0,0 -5.80784,0 -5.80784,0 0,0 -0.98597,0.13371 -0.98597,0.13371 0,0 -0.69151,1.352 -0.69151,1.352 0,0 -1.27504,2.97143 -1.27504,2.97143 0,0 -4.26264,9.85975 -4.26264,9.85975 0,0 -2.23937,5.26753 -2.23937,5.26753 z m 26.60781,-19.58442 c 0,0 0,19.58442 0,19.58442 0,0 6.88834,0 6.88834,0 0,0 0,-19.58442 0,-19.58442 0,0 -6.88834,0 -6.88834,0 z m 11.21037,0 c 0,0 0,19.58442 0,19.58442 0,0 6.88834,0 6.88834,0 0,0 0,-10.4 0,-10.4 0,0 2.31773,2.56623 2.31773,2.56623 0,0 4.55034,5.13247 4.55034,5.13247 0.51459,0.58483 1.96791,2.39201 2.58645,2.62027 0.26204,0.0972 0.66326,0.081 0.9455,0.081 0,0 4.72726,0 4.72726,0 0,0 0,-19.58442 0,-19.58442 0,0 -6.88827,0 -6.88827,0 0,0 0,10.26493 0,10.26493 0,0 -7.15578,-7.83376 -7.15578,-7.83376 0,0 -2.31097,-2.35013 -2.31097,-2.35013 0,0 -0.93327,-0.081 -0.93327,-0.081 0,0 -4.72733,0 -4.72733,0 z m -110.61821,8.23896 c 0,0 0,-3.78182 0,-3.78182 0,0 6.07794,0 6.07794,0 1.19127,0.0162 2.24479,0.70504 2.08539,2.02598 -0.13369,1.11968 -0.95354,1.51543 -1.95031,1.67615 0,0 -6.21302,0.0797 -6.21302,0.0797 z m 85.22605,-2.7013 c 0,0 1.08051,2.83637 1.08051,2.83637 0,0 1.21558,3.64676 1.21558,3.64676 0,0 -4.45717,0 -4.45717,0 0,0 1.17102,-3.78183 1.17102,-3.78183 0,0 0.99006,-2.7013 0.99006,-2.7013 z"
   id="Selection"
   inkscape:connector-curvature="0"
   style="opacity:0.97000002;fill:#f8f8f7;fill-opacity:1;stroke:none;stroke-width:0.13506503" /><path
   d="m 674.37086,686.18841 c -1.48003,-2.75849 -5.7847,-3.66226 -8.66813,-3.69668 -1.42511,-0.0165 -3.07331,0.13767 -4.46146,0.46527 -1.23781,0.29318 -2.56224,0.84131 -3.39966,1.83049 -1.59339,1.88148 -1.38944,4.95354 0.72277,6.35955 1.1944,0.79415 2.69086,0.90505 4.07901,1.05291 0,0 3.31434,0.34035 3.31434,0.34035 0,0 3.05923,0.33016 3.05923,0.33016 1.34484,0.24475 2.93823,0.93053 3.04666,2.49589 0.11724,1.66987 -1.24415,2.76868 -2.66422,3.3066 -2.41297,0.9127 -6.44234,0.5698 -8.79546,-0.42957 -0.65271,-0.27661 -1.23019,-0.57745 -1.78467,-1.02488 -0.52257,-0.41937 -0.80046,-0.89994 -1.52967,-0.68961 -0.3212,0.0931 -1.33464,0.48694 -1.44929,0.79924 -0.10424,0.28426 0.10316,0.61951 0.26639,0.83749 0.37728,0.50607 1.26833,1.14979 1.82023,1.47739 1.89557,1.12431 4.10459,1.40346 6.24613,1.6087 0,0 1.14722,0.10584 1.14722,0.10584 2.22568,0.0255 5.29265,-0.30848 7.13846,-1.63037 2.43469,-1.74253 3.05934,-5.61001 0.63734,-7.63298 -1.471,-1.22755 -3.51948,-1.44935 -5.35379,-1.58319 0,0 -5.99113,-0.63736 -5.99113,-0.63736 -1.48636,-0.28171 -2.97907,-1.35375 -2.24867,-3.04785 0.4755,-1.10008 1.65969,-1.62654 2.75856,-1.89549 2.07771,-0.50735 5.02615,-0.4997 7.01091,0.34926 0.56974,0.24474 1.14722,0.56088 1.65711,0.91397 0.32249,0.22308 0.76865,0.62588 1.14723,0.69218 0.45122,0.0778 1.726,-0.54431 2.29456,-0.69727 z m 11.34492,-3.61637 c 0,0 -1.27478,0.10326 -1.27478,0.10326 -2.43716,0.38114 -4.65392,1.29638 -6.36208,3.13069 -3.09877,3.32829 -3.11285,9.68912 0.24856,12.85295 2.09307,1.97071 5.33348,2.79291 8.15308,2.82605 2.42834,0.0281 5.19583,-0.4691 7.2659,-1.79607 4.67057,-2.99559 5.27223,-9.86248 1.62015,-13.87782 -1.88277,-2.07141 -4.66412,-2.92547 -7.35638,-3.23905 -0.89223,-0.0689 -1.37794,-0.13767 -2.29445,0 z m 14.14936,0.3021 c 0,0 0,18.10095 0,18.10095 0,0 2.54935,0 2.54935,0 0,0 0,-8.0307 0,-8.0307 0,0 13.00214,0 13.00214,0 0,0 0,-2.03955 0,-2.03955 0,0 -13.00214,0 -13.00214,0 0,0 0,-5.86368 0,-5.86368 0,0 13.51203,0 13.51203,0 0,0 0,-2.16702 0,-2.16702 0,0 -16.06138,0 -16.06138,0 z m 17.2086,0 c 0,0 0,2.16702 0,2.16702 0,0 7.39335,0 7.39335,0 0,0 0,15.93393 0,15.93393 0,0 2.54945,0 2.54945,0 0,0 0,-15.93393 0,-15.93393 0,0 7.39335,0 7.39335,0 0,0 0,-2.16702 0,-2.16702 0,0 -17.33615,0 -17.33615,0 z m 18.22838,0 c 0,0 1.6151,5.22634 1.6151,5.22634 0,0 2.88848,8.79552 2.88848,8.79552 0,0 0.89234,2.80437 0.89234,2.80437 0,0 0.53288,1.1447 0.53288,1.1447 0,0 0.95466,0.13002 0.95466,0.13002 0,0 1.91212,0 1.91212,0 0,0 1.05932,-3.05931 1.05932,-3.05931 0,0 2.85281,-7.90323 2.85281,-7.90323 0,0 1.31421,-3.82414 1.31421,-3.82414 0,0 2.42835,6.50104 2.42835,6.50104 0,0 2.92544,8.28564 2.92544,8.28564 0,0 2.9319,0 2.9319,0 0,0 1.61499,-4.97139 1.61499,-4.97139 0,0 2.6769,-8.15817 2.6769,-8.15817 0,0 1.57179,-4.97139 1.57179,-4.97139 0,0 -2.6769,0 -2.6769,0 0,0 -2.45768,8.0307 -2.45768,8.0307 0,0 -2.25877,7.01094 -2.25877,7.01094 0,0 -3.32068,-9.05048 -3.32068,-9.05048 0,0 -2.16067,-5.99116 -2.16067,-5.99116 0,0 -1.27467,0 -1.27467,0 0,0 -0.95477,0.13003 -0.95477,0.13003 0,0 -0.52138,1.01722 -0.52138,1.01722 0,0 -0.87192,2.42195 -0.87192,2.42195 0,0 -2.53537,6.88346 -2.53537,6.88346 0,0 -1.74513,4.71645 -1.74513,4.71645 0,0 -1.49388,-4.71645 -1.49388,-4.71645 0,0 -2.12886,-6.88346 -2.12886,-6.88346 0,0 -0.75328,-2.42195 -0.75328,-2.42195 0,0 -0.4322,-1.02105 -0.4322,-1.02105 0,0 -0.92791,-0.1262 -0.92791,-0.1262 0,0 -1.65722,0 -1.65722,0 z m 25.11195,18.10095 c 0,0 1.91201,0 1.91201,0 0,0 1.02493,-0.20013 1.02493,-0.20013 0,0 1.471,-2.85918 1.471,-2.85918 0,0 0.7406,-1.27217 0.7406,-1.27217 0,0 0.97003,-0.13002 0.97003,-0.13002 0,0 10.1978,0 10.1978,0 0,0 1.30659,2.93185 1.30659,2.93185 0,0 0.72781,1.32952 0.72781,1.32952 0,0 0.76994,0.20013 0.76994,0.20013 0,0 2.16701,0 2.16701,0 -0.30851,-1.08096 -1.69795,-3.46594 -2.26265,-4.58897 0,0 -4.83627,-9.43289 -4.83627,-9.43289 0,0 -1.40985,-2.80437 -1.40985,-2.80437 -0.42059,-0.84004 -0.43209,-1.2556 -1.43403,-1.27472 -0.39384,-0.006 -1.67883,-0.0689 -1.95918,0.1262 -0.25242,0.17719 -0.59403,0.97261 -0.75082,1.27598 0,0 -1.52838,2.93186 -1.52838,2.93186 0,0 -5.48134,10.58012 -5.48134,10.58012 0,0 -1.6252,3.18679 -1.6252,3.18679 z m 22.81739,-18.10095 c 0,0 0,18.10095 0,18.10095 0,0 2.54945,0 2.54945,0 0,0 0,-7.26588 0,-7.26588 0,0 7.64824,0 7.64824,0 1.4825,0.002 1.67119,0.69345 2.58126,1.78461 0,0 3.12059,3.69667 3.12059,3.69667 0.3314,0.38879 1.19311,1.54241 1.60102,1.71195 0.21664,0.0905 0.61445,0.0726 0.85526,0.0726 0,0 2.29456,0 2.29456,0 0,0 -1.73105,-2.16701 -1.73105,-2.16701 0,0 -4.76997,-5.60875 -4.76997,-5.60875 1.60479,-0.0357 3.19689,-0.79032 4.08289,-2.16701 0.47163,-0.73169 0.69976,-1.81392 0.74952,-2.67691 0.10423,-1.84068 -0.80433,-3.70049 -2.41051,-4.62976 -1.70934,-0.9879 -4.07654,-0.85151 -5.99113,-0.85151 0,0 -10.58013,0 -10.58013,0 z m 22.18005,0 c 0,0 0,18.10095 0,18.10095 0,0 17.33605,0 17.33605,0 0,0 0,-2.16701 0,-2.16701 0,0 -14.7866,0 -14.7866,0 0,0 0,-6.11863 0,-6.11863 0,0 13.76682,0 13.76682,0 0,0 0,-2.16702 0,-2.16702 0,0 -13.76682,0 -13.76682,0 0,0 0,-5.48127 0,-5.48127 0,0 14.14926,0 14.14926,0 0,0 0,-2.16702 0,-2.16702 0,0 -16.69871,0 -16.69871,0 z m -119.82318,1.82029 c 2.4104,-0.22307 5.22248,0.24858 7.13835,1.80883 3.03388,2.46785 3.30789,7.90578 0.50484,10.63622 -1.71073,1.66604 -4.30349,2.20525 -6.62341,2.17848 -2.15432,-0.0255 -4.75987,-0.69089 -6.35197,-2.20526 -2.87322,-2.73171 -2.53032,-8.13394 0.48829,-10.62729 1.40212,-1.15871 3.10007,-1.53476 4.8439,-1.79098 z m 100.19258,6.97525 c 0,0 0,-6.62852 0,-6.62852 0,0 10.32514,0 10.32514,0 0.93564,10e-4 1.81518,0.10327 2.52645,0.79159 1.4609,1.41622 1.23018,4.24353 -0.74179,5.27605 -0.78777,0.41173 -2.53161,0.5494 -3.44178,0.56088 0,0 -8.66802,0 -8.66802,0 z m -14.65926,-6.11863 c 0,0 2.58126,5.09886 2.58126,5.09886 0,0 1.75275,3.82414 1.75275,3.82414 0,0 -8.92302,0 -8.92302,0 0,0 2.89998,-5.86369 2.89998,-5.86369 0.39652,-0.79287 1.12305,-2.49335 1.68903,-3.05931 z"
   id="Selection-3"
   inkscape:connector-curvature="0"
   style="opacity:0.97000002;fill:#f8f8f7;fill-opacity:1;stroke:#f8fbf8;stroke-width:0.12747148;stroke-opacity:1" /><text
   xml:space="preserve"
   style="font-style:normal;font-variant:normal;font-weight:normal;font-stretch:normal;font-size:40px;line-height:1.25;font-family:'Berthold Akzidenz Grotesk';-inkscape-font-specification:'Berthold Akzidenz Grotesk';letter-spacing:0px;word-spacing:0px;writing-mode:tb-rl;fill:#000000;fill-opacity:1;stroke:none"
   x="468.96759"
   y="692.89917"
   id="text1350"><tspan
     sodipodi:role="line"
     id="tspan1348"
     x="692.89917"
     y="443.96759" /></text>




<text
   xml:space="preserve"
   style="font-style:normal;font-variant:normal;font-weight:normal;font-stretch:normal;font-size:63.02685547px;line-height:1.25;font-family:'Arial Unicode MS';-inkscape-font-specification:'Arial Unicode MS';font-variant-ligatures:normal;font-variant-caps:normal;font-variant-numeric:normal;font-feature-settings:normal;text-align:start;letter-spacing:0px;word-spacing:0px;writing-mode:lr-tb;text-anchor:start;opacity:1;fill:#c8c442;fill-opacity:1;stroke:none;stroke-width:2;stroke-opacity:0.97254902;stroke-miterlimit:4;stroke-dasharray:none;"
   x="15.924823"
   y="78.105904"
   id="text1304"><tspan
     sodipodi:role="line"
     id="tspan1302"
     x="15.924823"
     y="78.105904"
     style="font-style:normal;font-variant:normal;font-weight:bold;font-stretch:normal;font-family:Arial;-inkscape-font-specification:'Arial Bold';fill:#c8c442;fill-opacity:1;stroke:none;stroke-width:2;stroke-opacity:0.97254902;stroke-miterlimit:4;stroke-dasharray:none;">OpenAPI Studio </tspan></text>





<flowRoot
   xml:space="preserve"
   id="flowRoot4519"
   style="font-style:normal;font-variant:normal;font-weight:normal;font-stretch:normal;font-size:192px;line-height:1.25;font-family:'Berthold Akzidenz Grotesk';-inkscape-font-specification:'Berthold Akzidenz Grotesk';letter-spacing:0px;word-spacing:0px;writing-mode:tb-rl;fill:#000000;fill-opacity:1;stroke:none"
   transform="matrix(0.23808621,0,0,0.23808621,150.4374,75.280846)"><flowRegion
     id="flowRegion4521"><rect
       id="rect4523"
       width="548.00775"
       height="724.78442"
       x="-2218.5476"
       y="-287.3103" /></flowRegion><flowPara
     id="flowPara4525" /></flowRoot>
<text
   xml:space="preserve"
   style="font-style:normal;font-variant:normal;font-weight:normal;font-stretch:normal;font-size:310.50714111px;line-height:1.25;font-family:'Bodoni MT';-inkscape-font-specification:'Bodoni MT';letter-spacing:0px;word-spacing:0px;writing-mode:lr-tb;fill:#c8c442;fill-opacity:1;stroke:none;stroke-width:3;stroke-opacity:1;stroke-miterlimit:4;stroke-dasharray:none;"
   x="16.200138"
   y="557.05713"
   id="text4517"
   transform="scale(1.0902031,0.91726028)"><tspan
     sodipodi:role="line"
     id="tspan4515"
     x="16.200138"
     y="557.05713"
     style="font-style:normal;font-variant:normal;font-weight:normal;font-stretch:normal;font-size:646.88983154px;font-family:'Bodoni MT';-inkscape-font-specification:'Bodoni MT';letter-spacing:-18.14284706px;writing-mode:lr-tb;fill:#c8c442;fill-opacity:1;stroke:none;stroke-width:3;stroke-opacity:1;stroke-miterlimit:4;stroke-dasharray:none;"><tspan
       style="font-style:normal;font-variant:normal;font-weight:normal;font-stretch:normal;font-family:'Bodoni MT';-inkscape-font-specification:'Bodoni MT';letter-spacing:-18.14284706px;stroke:none;stroke-width:3;stroke-opacity:1;stroke-miterlimit:4;stroke-dasharray:none;fill:#c8c442;fill-opacity:1;"
       id="tspan4529"
       dx="0">{ }</tspan></tspan></text>


<flowRoot
   xml:space="preserve"
   id="flowRoot4519-6"
   style="font-style:normal;font-variant:normal;font-weight:normal;font-stretch:normal;font-size:192px;line-height:1.25;font-family:'Berthold Akzidenz Grotesk';-inkscape-font-specification:'Berthold Akzidenz Grotesk';letter-spacing:0px;word-spacing:0px;writing-mode:tb-rl;fill:#000000;fill-opacity:1;stroke:none"
   transform="matrix(0.28268735,0,0,0.28268735,90.344422,40.769206)"><flowRegion
     id="flowRegion4521-1"><rect
       id="rect4523-6"
       width="548.00775"
       height="724.78442"
       x="-2218.5476"
       y="-287.3103" /></flowRegion><flowPara
     id="flowPara4525-0" /></flowRoot><g
   id="g900"
   transform="matrix(0.37691581,0,0,0.37691581,82.849149,59.663661)"
   style="fill:#fffffc;fill-opacity:1"><text
   transform="scale(1.1530663,0.8672528)"
   id="text4517-8-8"
   y="1382.896"
   x="342.59"
   style="font-style:normal;font-variant:normal;font-weight:normal;font-stretch:normal;font-size:908.01861572px;line-height:1.25;font-family:'Berthold Akzidenz Grotesk';-inkscape-font-specification:'Berthold Akzidenz Grotesk';letter-spacing:0px;word-spacing:0px;writing-mode:lr-tb;fill:#fffffc;fill-opacity:1;stroke:none;stroke-width:4.72926235"
   xml:space="preserve"><tspan
     style="font-style:normal;font-variant:normal;font-weight:normal;font-stretch:normal;font-size:1891.70532227px;font-family:Papyrus;-inkscape-font-specification:Papyrus;letter-spacing:-53.05528259px;writing-mode:lr-tb;fill:#fffffc;fill-opacity:1;stroke-width:4.72926235"
     y="1382.896"
     x="342.59"
     id="tspan4515-5-3"
     sodipodi:role="line"><tspan
       id="tspan4529-0-8"
       style="font-style:normal;font-variant:normal;font-weight:normal;font-stretch:normal;font-family:'Matura MT Script Capitals';-inkscape-font-specification:'Matura MT Script Capitals';letter-spacing:-53.05528259px;fill:#fffffc;fill-opacity:1;stroke-width:4.72926235"><tspan
         id="tspan4537-0-3"
         style="font-style:normal;font-variant:normal;font-weight:normal;font-stretch:normal;font-size:1891.70532227px;line-height:1.25;font-family:Papyrus;-inkscape-font-specification:Papyrus;font-variant-ligatures:normal;font-variant-position:normal;font-variant-caps:normal;font-variant-numeric:normal;font-variant-alternates:normal;font-feature-settings:normal;text-indent:0;text-align:start;text-decoration:none;text-decoration-line:none;text-decoration-style:solid;text-decoration-color:#000000;letter-spacing:-53.05528259px;word-spacing:0px;text-transform:none;writing-mode:lr-tb;direction:ltr;text-orientation:mixed;dominant-baseline:auto;baseline-shift:baseline;text-anchor:start;white-space:normal;shape-padding:0;opacity:1;vector-effect:none;fill:#fffffc;fill-opacity:1;stroke:none;stroke-width:4.72926235;stroke-linecap:butt;stroke-linejoin:miter;stroke-miterlimit:4;stroke-dasharray:none;stroke-dashoffset:0;stroke-opacity:1">3</tspan></tspan></tspan></text>


<text
   transform="scale(1.1580758,0.86350136)"
   id="text4517-8-8-0"
   y="1374.0079"
   x="278.21555"
   style="font-style:normal;font-variant:normal;font-weight:normal;font-stretch:normal;font-size:838.23303223px;line-height:1.25;font-family:'Berthold Akzidenz Grotesk';-inkscape-font-specification:'Berthold Akzidenz Grotesk';letter-spacing:0px;word-spacing:0px;writing-mode:lr-tb;fill:#fffffc;fill-opacity:1;stroke:none;stroke-width:4.36579561"
   xml:space="preserve"><tspan
     style="font-style:normal;font-variant:normal;font-weight:normal;font-stretch:normal;font-size:1746.31872559px;font-family:Papyrus;-inkscape-font-specification:Papyrus;letter-spacing:-48.97773361px;writing-mode:lr-tb;fill:#fffffc;fill-opacity:1;stroke-width:4.36579561"
     y="1374.0079"
     x="278.21555"
     id="tspan4515-5-3-4"
     sodipodi:role="line"><tspan
       id="tspan4529-0-8-0"
       style="font-style:normal;font-variant:normal;font-weight:normal;font-stretch:normal;font-family:'Matura MT Script Capitals';-inkscape-font-specification:'Matura MT Script Capitals';letter-spacing:-48.97773361px;fill:#fffffc;fill-opacity:1;stroke-width:4.36579561"><tspan
         id="tspan4537-0-3-0"
         style="font-style:normal;font-variant:normal;font-weight:normal;font-stretch:normal;font-size:1746.31872559px;line-height:1.25;font-family:Papyrus;-inkscape-font-specification:Papyrus;font-variant-ligatures:normal;font-variant-position:normal;font-variant-caps:normal;font-variant-numeric:normal;font-variant-alternates:normal;font-feature-settings:normal;text-indent:0;text-align:start;text-decoration:none;text-decoration-line:none;text-decoration-style:solid;text-decoration-color:#000000;letter-spacing:-48.97773361px;word-spacing:0px;text-transform:none;writing-mode:lr-tb;direction:ltr;text-orientation:mixed;dominant-baseline:auto;baseline-shift:baseline;text-anchor:start;white-space:normal;shape-padding:0;opacity:1;vector-effect:none;fill:#fffffc;fill-opacity:1;stroke:none;stroke-width:4.36579561;stroke-linecap:butt;stroke-linejoin:miter;stroke-miterlimit:4;stroke-dasharray:none;stroke-dashoffset:0;stroke-opacity:1">3</tspan></tspan></tspan></text>


</g><text
   xml:space="preserve"
   style="font-style:normal;font-variant:normal;font-weight:normal;font-stretch:normal;font-size:318.56088257px;line-height:1.25;font-family:'Berthold Akzidenz Grotesk';-inkscape-font-specification:'Berthold Akzidenz Grotesk';letter-spacing:0px;word-spacing:0px;writing-mode:lr-tb;fill:#000600;fill-opacity:1;stroke:none;stroke-width:1.65917087"
   x="214.47105"
   y="566.46393"
   id="text4517-8"
   transform="scale(1.1184801,0.89407045)"><tspan
     sodipodi:role="line"
     id="tspan4515-5"
     x="214.47105"
     y="566.46393"
     style="font-style:normal;font-variant:normal;font-weight:normal;font-stretch:normal;font-size:663.66845703px;font-family:Papyrus;-inkscape-font-specification:Papyrus;letter-spacing:-18.61342621px;writing-mode:lr-tb;fill:#000600;fill-opacity:1;stroke-width:1.65917087"><tspan
       style="font-style:normal;font-variant:normal;font-weight:normal;font-stretch:normal;font-family:'Matura MT Script Capitals';-inkscape-font-specification:'Matura MT Script Capitals';letter-spacing:-18.61342621px;fill:#000600;fill-opacity:1;stroke-width:1.65917087"
       id="tspan4529-0"><tspan
         style="font-style:normal;font-variant:normal;font-weight:normal;font-stretch:normal;font-size:663.66845703px;line-height:1.25;font-family:Papyrus;-inkscape-font-specification:Papyrus;font-variant-ligatures:normal;font-variant-position:normal;font-variant-caps:normal;font-variant-numeric:normal;font-variant-alternates:normal;font-feature-settings:normal;text-indent:0;text-align:start;text-decoration:none;text-decoration-line:none;text-decoration-style:solid;text-decoration-color:#000000;letter-spacing:-18.61342621px;word-spacing:0px;text-transform:none;writing-mode:lr-tb;direction:ltr;text-orientation:mixed;dominant-baseline:auto;baseline-shift:baseline;text-anchor:start;white-space:normal;shape-padding:0;opacity:1;vector-effect:none;fill:#000600;fill-opacity:1;stroke:none;stroke-width:1.65917087;stroke-linecap:butt;stroke-linejoin:miter;stroke-miterlimit:4;stroke-dasharray:none;stroke-dashoffset:0;stroke-opacity:1"
         id="tspan4537-0">3</tspan></tspan></tspan></text>


</svg>