<?xml version="1.0" encoding="UTF-8" standalone="no"?>
<svg
   xmlns:dc="http://purl.org/dc/elements/1.1/"
   xmlns:cc="http://creativecommons.org/ns#"
   xmlns:rdf="http://www.w3.org/1999/02/22-rdf-syntax-ns#"
   xmlns:svg="http://www.w3.org/2000/svg"
   xmlns="http://www.w3.org/2000/svg"
   xmlns:sodipodi="http://sodipodi.sourceforge.net/DTD/sodipodi-0.dtd"
   xmlns:inkscape="http://www.inkscape.org/namespaces/inkscape"
   inkscape:export-ydpi="31.969999"
   inkscape:export-xdpi="31.969999"
   inkscape:export-filename="C:\Users\jongw\Desktop\openapistudio.png"
   inkscape:version="1.0 (4035a4fb49, 2020-05-01)"
   sodipodi:docname="logo.svg"
   id="svg3"
   version="1.1"
   viewBox="0 0 1801.5072 2113.08"
   height="29.34828in"
   width="25.020933in">
  <metadata
     id="metadata9">
    <rdf:RDF>
      <cc:Work
         rdf:about="">
        <dc:format>image/svg+xml</dc:format>
        <dc:type
           rdf:resource="http://purl.org/dc/dcmitype/StillImage" />
        <dc:title />
      </cc:Work>
    </rdf:RDF>
  </metadata>
  <defs
     id="defs7" />
  <sodipodi:namedview
     inkscape:document-rotation="0"
     inkscape:current-layer="svg3"
     inkscape:window-maximized="1"
     inkscape:window-y="-8"
     inkscape:window-x="-8"
     inkscape:cy="996.95049"
     inkscape:cx="1189.7882"
     inkscape:zoom="0.31999999"
     showgrid="true"
     id="namedview5"
     inkscape:window-height="1017"
     inkscape:window-width="1920"
     inkscape:pageshadow="2"
     inkscape:pageopacity="0"
     guidetolerance="10"
     gridtolerance="10"
     objecttolerance="10"
     borderopacity="1"
     bordercolor="#666666"
     pagecolor="#ffffff">
    <inkscape:grid
       id="grid855"
       type="xygrid" />
  </sodipodi:namedview>
  <text
     transform="scale(1.0902031,0.91726027)"
     id="text4517"
     y="1171.3199"
     x="-168.73264"
     style="font-style:normal;font-variant:normal;font-weight:normal;font-stretch:normal;font-size:823.81px;line-height:1.25;font-family:'Bodoni MT';-inkscape-font-specification:'Bodoni MT';letter-spacing:0px;word-spacing:0px;writing-mode:lr-tb;fill:#c8c442;fill-opacity:1;stroke:#000000;stroke-width:4.29068;stroke-opacity:1"
     xml:space="preserve"><tspan
       style="font-style:normal;font-variant:normal;font-weight:normal;font-stretch:normal;font-size:1716.27px;font-family:'Bodoni MT';-inkscape-font-specification:'Bodoni MT';letter-spacing:-48.135px;writing-mode:lr-tb;fill:#c8c442;fill-opacity:1;stroke:#000000;stroke-width:4.29068;stroke-opacity:1"
       y="1171.3199"
       x="-168.73264"
       id="tspan4515"
       sodipodi:role="line"><tspan
         dx="0"
         id="tspan4529"
         style="font-style:normal;font-variant:normal;font-weight:normal;font-stretch:normal;font-family:'Bodoni MT';-inkscape-font-specification:'Bodoni MT';letter-spacing:-48.135px;fill:#c8c442;fill-opacity:1;stroke:#000000;stroke-width:4.29068;stroke-opacity:1">{ }</tspan></tspan></text>
  <flowRoot
     transform="matrix(0.7500013,0,0,0.7500013,5.8834489,-179.0806)"
     style="font-style:normal;font-variant:normal;font-weight:normal;font-stretch:normal;font-size:192px;line-height:1.25;font-family:'Berthold Akzidenz Grotesk';-inkscape-font-specification:'Berthold Akzidenz Grotesk';letter-spacing:0px;word-spacing:0px;writing-mode:tb-rl;fill:#000000;fill-opacity:1;stroke:none"
     id="flowRoot4519"
     xml:space="preserve"><flowRegion
       id="flowRegion4521"><rect
         y="-287.3103"
         x="-2218.5476"
         height="724.78442"
         width="548.00775"
         id="rect4523" /></flowRegion><flowPara
       id="flowPara4525" /></flowRoot>
  <text
     transform="scale(1.1184801,0.89407044)"
     id="text4517-8"
     y="1181.6135"
     x="359.97275"
     style="font-style:normal;font-variant:normal;font-weight:normal;font-stretch:normal;font-size:845.178px;line-height:1.25;font-family:'Berthold Akzidenz Grotesk';-inkscape-font-specification:'Berthold Akzidenz Grotesk';letter-spacing:0px;word-spacing:0px;writing-mode:lr-tb;fill:#000600;fill-opacity:1;stroke:none;stroke-width:4.40197"
     xml:space="preserve"><tspan
       style="font-style:normal;font-variant:normal;font-weight:normal;font-stretch:normal;font-size:1760.79px;font-family:Papyrus;-inkscape-font-specification:Papyrus;letter-spacing:-49.3835px;writing-mode:lr-tb;fill:#000600;fill-opacity:1;stroke-width:4.40197"
       y="1181.6135"
       x="359.97275"
       id="tspan4515-5"
       sodipodi:role="line"><tspan
         id="tspan4529-0"
         style="font-style:normal;font-variant:normal;font-weight:normal;font-stretch:normal;font-family:'Matura MT Script Capitals';-inkscape-font-specification:'Matura MT Script Capitals';letter-spacing:-49.3835px;fill:#000600;fill-opacity:1;stroke-width:4.40197"><tspan
           id="tspan4537-0"
           style="font-style:normal;font-variant:normal;font-weight:normal;font-stretch:normal;font-size:1760.79px;line-height:1.25;font-family:Papyrus;-inkscape-font-specification:Papyrus;font-variant-ligatures:normal;font-variant-position:normal;font-variant-caps:normal;font-variant-numeric:normal;font-variant-alternates:normal;font-feature-settings:normal;text-indent:0;text-align:start;text-decoration:none;text-decoration-line:none;text-decoration-style:solid;text-decoration-color:#000000;letter-spacing:-49.3835px;word-spacing:0px;text-transform:none;writing-mode:lr-tb;direction:ltr;text-orientation:mixed;dominant-baseline:auto;baseline-shift:baseline;text-anchor:start;white-space:normal;shape-padding:0;opacity:1;vector-effect:none;fill:#000600;fill-opacity:1;stroke:none;stroke-width:4.40197;stroke-linecap:butt;stroke-linejoin:miter;stroke-miterlimit:4;stroke-dasharray:none;stroke-dashoffset:0;stroke-opacity:1">3</tspan></tspan></tspan></text>
  <path
     style="fill:#c8c442;fill-opacity:1;stroke:#a29f51;stroke-width:1.5619;stroke-opacity:1"
     inkscape:connector-curvature="0"
     id="Selection-5"
     d="m 103.95977,1534.3818 c 0,0 0,226.4757 0,226.4757 0,0 81.21892,0 81.21892,0 0,0 0,-81.2189 0,-81.2189 0,0 29.6761,0 29.6761,0 5.5447,0.016 10.43339,-0.656 14.6662,3.608 2.6553,2.6709 10.043,15.8221 12.3234,19.8206 0,0 20.52339,35.9237 20.52339,35.9237 10.85531,18.6959 9.7151,21.8354 25.8963,21.8666 0,0 74.9713,0 74.9713,0 0,0 -16.11881,-28.1142 -16.11881,-28.1142 0,0 -38.54769,-62.4761 -38.54769,-62.4761 62.28859,-5.6228 67.38039,-97.6657 18.7427,-125.4519 -20.6326,-11.7767 -54.6978,-10.4335 -78.0949,-10.4335 0,0 -145.25691,0 -145.25691,0 z m 295.1994,0 c 0,0 0,226.4757 0,226.4757 0,0 240.53278,0 240.53278,0 0,0 0,-51.5427 0,-51.5427 0,0 -160.87588,0 -160.87588,0 0,0 0,-35.9238 0,-35.9238 0,0 145.25678,0 145.25678,0 0,0 0,-49.9808 0,-49.9808 0,0 -145.25678,0 -145.25678,0 0,0 0,-39.0475 0,-39.0475 0,0 157.75218,0 157.75218,0 0,0 0,-49.9809 0,-49.9809 0,0 -237.40908,0 -237.40908,0 z m 281.14217,0 c 0,0 0,226.4757 0,226.4757 0,0 78.0951,0 78.0951,0 0,0 0,-142.133 0,-142.133 0,0 18.2587,46.857 18.2587,46.857 0,0 22.42879,60.9142 22.42879,60.9142 0,0 8.21561,21.8666 8.21561,21.8666 0,0 5.2948,10.9489 5.2948,10.9489 0,0 11.40189,1.5463 11.40189,1.5463 0,0 37.4857,0 37.4857,0 0,0 11.69867,-1.5931 11.69867,-1.5931 0,0 5.1855,-9.3402 5.1855,-9.3402 0,0 8.63732,-23.4285 8.63732,-23.4285 0,0 40.07827,-109.3331 40.07827,-109.3331 0,0 1.56195,48.4189 1.56195,48.4189 0,0 0,95.276 0,95.276 0,0 78.09516,0 78.09516,0 0,0 0,-226.4757 0,-226.4757 0,0 -93.71416,0 -93.71416,0 0,0 -11.40189,1.5463 -11.40189,1.5463 0,0 -14.2444,32.8155 -14.2444,32.8155 0,0 -43.07742,112.4569 -43.07742,112.4569 0,0 -17.8369,-43.7332 -17.8369,-43.7332 0,0 -25.9743,-67.1617 -25.9743,-67.1617 0,0 -8.99659,-23.4286 -8.99659,-23.4286 0,0 -5.9976,-10.9489 -5.9976,-10.9489 0,0 -11.48,-1.5463 -11.48,-1.5463 0,0 -93.7142,0 -93.7142,0 z m 346.74216,226.4757 c 0,0 89.0283,0 89.0283,0 0,0 10.9333,-37.4856 10.9333,-37.4856 0,0 73.4095,0 73.4095,0 0,0 13.2604,2.499 13.2604,2.499 0,0 14.3852,33.4403 14.3852,33.4403 0,0 11.4018,1.5463 11.4018,1.5463 0,0 74.9713,0 74.9713,0 0,0 -15.8376,-37.4856 -15.8376,-37.4856 0,0 -20.3047,-46.8571 -20.3047,-46.8571 0,0 -39.1882,-90.5902 -39.1882,-90.5902 0,0 -15.494,-35.9237 -15.494,-35.9237 0,0 -8.1844,-14.0259 -8.1844,-14.0259 0,0 -11.8861,-1.5932 -11.8861,-1.5932 0,0 -67.1618,0 -67.1618,0 0,0 -11.4018,1.5463 -11.4018,1.5463 0,0 -7.9969,15.6347 -7.9969,15.6347 0,0 -14.7444,34.3618 -14.7444,34.3618 0,0 -49.2936,114.0188 -49.2936,114.0188 0,0 -25.8963,60.9141 -25.8963,60.9141 z m 307.6945,-226.4757 c 0,0 0,226.4757 0,226.4757 0,0 79.6571,0 79.6571,0 0,0 0,-226.4757 0,-226.4757 0,0 -79.6571,0 -79.6571,0 z m 129.6379,0 c 0,0 0,226.4757 0,226.4757 0,0 79.6569,0 79.6569,0 0,0 0,-120.2664 0,-120.2664 0,0 26.8022,29.6761 26.8022,29.6761 0,0 52.6206,59.3523 52.6206,59.3523 5.9508,6.763 22.7567,27.6613 29.9103,30.3009 3.03,1.1245 7.6689,0.9371 10.9333,0.9371 0,0 54.6665,0 54.6665,0 0,0 0,-226.4757 0,-226.4757 0,0 -79.657,0 -79.657,0 0,0 0,118.7045 0,118.7045 0,0 -82.7494,-90.5903 -82.7494,-90.5903 0,0 -26.7242,-27.1771 -26.7242,-27.1771 0,0 -10.7926,-0.9371 -10.7926,-0.9371 0,0 -54.6666,0 -54.6666,0 z m -1279.19721,95.276 c 0,0 0,-43.7332 0,-43.7332 0,0 70.28559,0 70.28559,0 13.7759,0.1873 25.9587,8.1531 24.1157,23.4285 -1.5463,12.9481 -11.027,17.5245 -22.5538,19.3832 0,0 -71.84749,0.9215 -71.84749,0.9215 z m 985.55971,-31.238 c 0,0 12.4952,32.7999 12.4952,32.7999 0,0 14.0571,42.1713 14.0571,42.1713 0,0 -51.5427,0 -51.5427,0 0,0 13.5416,-43.7332 13.5416,-43.7332 0,0 11.4488,-31.238 11.4488,-31.238 z" />
  <g
     style="font-size:256.069px;line-height:1.25;font-family:Orbitron;-inkscape-font-specification:Orbitron;fill:#c8c442;fill-opacity:1;stroke-width:1.1297"
     id="text853"
     aria-label="API STUDIO">
    <path
       id="path857"
       style="font-style:normal;font-variant:normal;font-weight:900;font-stretch:normal;font-family:Orbitron;-inkscape-font-specification:'Orbitron Heavy';fill:#c8c442;fill-opacity:1;stroke-width:1.1297"
       d="m 101.26483,2028.379 v -146.4714 q 0,-15.6202 11.01097,-26.6312 11.26703,-11.2671 26.88724,-11.2671 h 108.31719 q 15.62021,0 26.88724,11.2671 11.26704,11.011 11.26704,26.6312 v 146.4714 h -40.20283 v -59.408 H 140.95552 v 59.408 z m 39.69069,-99.3547 h 104.47616 v -36.6179 q 0,-8.4503 0,-8.4503 0,0 -8.45028,0 h -87.5756 q -8.45028,0 -8.45028,0 0,0 0,8.4503 z" />
    <path
       id="path859"
       style="font-style:normal;font-variant:normal;font-weight:900;font-stretch:normal;font-family:Orbitron;-inkscape-font-specification:'Orbitron Heavy';fill:#c8c442;fill-opacity:1;stroke-width:1.1297"
       d="m 314.81037,2028.379 v -184.1136 h 146.2154 q 15.62021,0 26.88724,11.2671 11.26704,11.267 11.26704,26.6311 v 47.6289 q 0,15.3641 -11.26704,26.6311 -11.26703,11.2671 -26.88724,11.2671 l -106.52471,0.256 v 60.4323 z m 48.14097,-100.6351 h 87.5756 q 8.45028,0 8.45028,0 0,0 0,-8.4503 v -26.8872 q 0,-8.4503 0,-8.4503 0,0 -8.45028,0 h -87.5756 q -8.45028,0 -8.45028,0 0,0 0,8.4503 v 26.8872 q 0,8.4503 0,8.4503 0,0 8.45028,0 z" />
    <path
       id="path861"
       style="font-style:normal;font-variant:normal;font-weight:900;font-stretch:normal;font-family:Orbitron;-inkscape-font-specification:'Orbitron Heavy';fill:#c8c442;fill-opacity:1;stroke-width:1.1297"
       d="m 516.34066,2028.379 v -184.3697 h 39.17856 v 184.3697 z" />
    <path
       id="path863"
       style="font-style:normal;font-variant:normal;font-weight:900;font-stretch:normal;font-family:Orbitron;-inkscape-font-specification:'Orbitron Heavy';fill:#c8c442;fill-opacity:1;stroke-width:1.1297"
       d="m 692.28806,2028.379 q -15.62021,0 -26.88725,-11.0109 -11.01097,-11.2671 -11.01097,-26.8873 v -17.1566 h 39.6907 v 6.6578 q 0,8.4503 0,8.4503 0,0 8.45028,0 h 87.57559 q 8.45028,0 8.45028,0 0,0 0,-8.4503 v -15.3642 q 0,-8.4502 0,-8.4502 0,0 -8.45028,0 h -97.81835 q -15.62021,0 -26.88725,-11.011 -11.01097,-11.267 -11.01097,-26.8872 v -36.3618 q 0,-15.6202 11.01097,-26.6312 11.26704,-11.2671 26.88725,-11.2671 h 108.57325 q 15.36414,0 26.63118,11.2671 11.26703,11.011 11.26703,26.6312 v 17.1566 h -40.20283 v -6.6578 q 0,-8.4503 0,-8.4503 0,0 -8.45028,0 h -87.57559 q -8.45028,0 -8.45028,0 0,0 0,8.4503 v 15.3641 q 0,8.4503 0,8.4503 0,0 8.45028,0 h 98.33049 q 15.36414,0 26.63118,11.267 11.26703,11.011 11.26703,26.6312 v 36.3618 q 0,15.6202 -11.26703,26.8873 -11.26704,11.0109 -26.63118,11.0109 z" />
    <path
       id="path865"
       style="font-style:normal;font-variant:normal;font-weight:900;font-stretch:normal;font-family:Orbitron;-inkscape-font-specification:'Orbitron Heavy';fill:#c8c442;fill-opacity:1;stroke-width:1.1297"
       d="m 929.95215,2028.379 v -144.4229 h -72.21146 v -39.9468 h 184.36971 v 39.9468 h -72.21149 v 144.4229 z" />
    <path
       id="path867"
       style="font-style:normal;font-variant:normal;font-weight:900;font-stretch:normal;font-family:Orbitron;-inkscape-font-specification:'Orbitron Heavy';fill:#c8c442;fill-opacity:1;stroke-width:1.1297"
       d="m 1098.8977,2028.379 q -15.6202,0 -26.8873,-11.0109 -11.0109,-11.2671 -11.0109,-26.8873 v -146.4715 h 39.6907 v 135.9727 q 0,8.4503 0,8.4503 0,0 8.4502,0 h 87.5756 q 8.4503,0 8.4503,0 0,0 0,-8.4503 v -135.9727 h 40.2028 v 146.4715 q 0,15.6202 -11.267,26.8873 -11.267,11.0109 -26.6312,11.0109 z" />
    <path
       id="path869"
       style="font-style:normal;font-variant:normal;font-weight:900;font-stretch:normal;font-family:Orbitron;-inkscape-font-specification:'Orbitron Heavy';fill:#c8c442;fill-opacity:1;stroke-width:1.1297"
       d="m 1274.0809,2028.379 v -184.3697 h 146.2154 q 15.6202,0 26.8872,11.2671 11.267,11.011 11.267,26.6312 v 108.5732 q 0,15.6202 -11.267,26.8873 -11.267,11.0109 -26.8872,11.0109 z m 48.1409,-39.9467 h 87.5756 q 8.4503,0 8.4503,0 0,0 0,-8.4503 v -87.5756 q 0,-8.4503 0,-8.4503 0,0 -8.4503,0 h -87.5756 q -8.4502,0 -8.4502,0 0,0 0,8.4503 v 87.5756 q 0,8.4503 0,8.4503 0,0 8.4502,0 z" />
    <path
       id="path871"
       style="font-style:normal;font-variant:normal;font-weight:900;font-stretch:normal;font-family:Orbitron;-inkscape-font-specification:'Orbitron Heavy';fill:#c8c442;fill-opacity:1;stroke-width:1.1297"
       d="m 1486.1019,2028.379 v -184.3697 h 39.1786 v 184.3697 z" />
    <path
       id="path873"
       style="font-style:normal;font-variant:normal;font-weight:900;font-stretch:normal;font-family:Orbitron;-inkscape-font-specification:'Orbitron Heavy';fill:#c8c442;fill-opacity:1;stroke-width:1.1297"
       d="m 1579.5272,2028.379 q -15.6202,0 -26.8873,-11.0109 -11.0109,-11.2671 -11.0109,-26.8873 v -108.5732 q 0,-15.6202 11.0109,-26.6312 11.2671,-11.2671 26.8873,-11.2671 h 108.5732 q 15.3642,0 26.6312,11.2671 11.2671,11.011 11.2671,26.6312 v 108.5732 q 0,15.6202 -11.2671,26.8873 -11.267,11.0109 -26.6312,11.0109 z m 10.2428,-39.9467 h 87.5756 q 8.4502,0 8.4502,0 0,0 0,-8.4503 v -87.5756 q 0,-8.4503 0,-8.4503 0,0 -8.4502,0 H 1589.77 q -8.4503,0 -8.4503,0 0,0 0,8.4503 v 87.5756 q 0,8.4503 0,8.4503 0,0 8.4503,0 z" />
  </g>
</svg>
