<?xml version="1.0" encoding="UTF-8" standalone="no"?>
<svg
   xmlns:dc="http://purl.org/dc/elements/1.1/"
   xmlns:cc="http://creativecommons.org/ns#"
   xmlns:rdf="http://www.w3.org/1999/02/22-rdf-syntax-ns#"
   xmlns:svg="http://www.w3.org/2000/svg"
   xmlns="http://www.w3.org/2000/svg"
   xmlns:sodipodi="http://sodipodi.sourceforge.net/DTD/sodipodi-0.dtd"
   xmlns:inkscape="http://www.inkscape.org/namespaces/inkscape"
   width="0.62999976in"
   height="0.60000008in"
   viewBox="0 0 188.99993 179.99995"
   version="1.1"
   id="svg3"
   sodipodi:docname="gravity_simple.svg"
   inkscape:version="0.92.3 (2405546, 2018-03-11)"
   inkscape:export-filename="C:\Users\jongw\Pictures\Logos\remain\Gravity\gravity_simple.png"
   inkscape:export-xdpi="476.19"
   inkscape:export-ydpi="476.19">
  <metadata
     id="metadata9">
    <rdf:RDF>
      <cc:Work
         rdf:about="">
        <dc:format>image/svg+xml</dc:format>
        <dc:type
           rdf:resource="http://purl.org/dc/dcmitype/StillImage" />
        <dc:title></dc:title>
        <dc:description>Copyright Remain Software. This is not open source.</dc:description>
        <dc:rights>
          <cc:Agent>
            <dc:title>Remain BV Nieuwgein</dc:title>
          </cc:Agent>
        </dc:rights>
        <dc:publisher>
          <cc:Agent>
            <dc:title>Remain BV Nieuwgein</dc:title>
          </cc:Agent>
        </dc:publisher>
        <dc:creator>
          <cc:Agent>
            <dc:title>Remain BV Nieuwgein</dc:title>
          </cc:Agent>
        </dc:creator>
      </cc:Work>
    </rdf:RDF>
  </metadata>
  <defs
     id="defs7" />
  <sodipodi:namedview
     pagecolor="#ffffff"
     bordercolor="#666666"
     borderopacity="1"
     objecttolerance="10"
     gridtolerance="10"
     guidetolerance="10"
     inkscape:pageopacity="0"
     inkscape:pageshadow="2"
     inkscape:window-width="1308"
     inkscape:window-height="696"
     id="namedview5"
     showgrid="false"
     inkscape:zoom="0.88572855"
     inkscape:cx="362.97802"
     inkscape:cy="-164.25126"
     inkscape:window-x="49"
     inkscape:window-y="27"
     inkscape:window-maximized="0"
     inkscape:current-layer="svg3"
     fit-margin-top="0"
     fit-margin-left="0"
     fit-margin-right="0"
     fit-margin-bottom="0" />
  <path
     inkscape:connector-curvature="0"
     style="fill:#c8c442;fill-opacity:1;stroke:none;stroke-width:1;stroke-opacity:1"
     id="Selection"
     d="m 0,0 c 0,0 0,180 0,180 0,0 188.9999,0 188.9999,0 0,0 0,-180 0,-180 C 188.9999,0 0,0 0,0 Z" />
  <path
     inkscape:connector-curvature="0"
     style="fill:#ffffff;fill-opacity:1;stroke:none;stroke-width:1;stroke-opacity:1"
     id="Selection #2"
     d="m 20.5952,15.23999 c 0,0 0,-7.00001 0,-7.00001 0,0 -14,0 -14,0 0,0 0,38.00001 0,38.00001 0,0 38,0 38,0 0,0 0,-13 0,-13 0,0 -23,0 -23,0 3.45,-5.51 5.8,-8.35 12,-10.91 12.3,-5.07 28.13,-3.71 36.35,7.91 2.6801,3.78 3.5301,7.46 3.6401,12 0.32,13.54 -6.9201,24.11 -20.9901,25.82 -5.81,0.7 -12.75,0.25 -18,-2.49 -4.27,-2.23 -6.33,-5.24 -10,-5.98 0,0 -18,1.65 -18,1.65 3.72,9.5 13.43,15.75 23,18.36 16.61,4.53 40.08,3.44 52.8201,-9.53 16.57,-16.88 12.54,-48.05 -8.82,-59.01001 -5.9801,-3.07 -15.2801,-4.74 -22.0001,-4.82 -14.17,-0.16 -19.04,1.7 -31,9.00001 z" />
</svg>
