<?xml version="1.0" encoding="UTF-8" standalone="no"?>
<svg
   xmlns:dc="http://purl.org/dc/elements/1.1/"
   xmlns:cc="http://creativecommons.org/ns#"
   xmlns:rdf="http://www.w3.org/1999/02/22-rdf-syntax-ns#"
   xmlns:svg="http://www.w3.org/2000/svg"
   xmlns="http://www.w3.org/2000/svg"
   xmlns:sodipodi="http://sodipodi.sourceforge.net/DTD/sodipodi-0.dtd"
   xmlns:inkscape="http://www.inkscape.org/namespaces/inkscape"
   width="3.34in"
   height="0.826667in"
   viewBox="0 0 1002 248"
   version="1.1"
   id="svg3"
   sodipodi:docname="full-logo.svg"
   inkscape:version="0.92.3 (2405546, 2018-03-11)"
   inkscape:export-filename="C:\Users\jongw\Pictures\Logos\remain\Gravity\gravity.png"
   inkscape:export-xdpi="119.75802"
   inkscape:export-ydpi="119.75802">
  <metadata
     id="metadata9">
    <rdf:RDF>
      <cc:Work
         rdf:about="">
        <dc:format>image/svg+xml</dc:format>
        <dc:type
           rdf:resource="http://purl.org/dc/dcmitype/StillImage" />
        <dc:title></dc:title>
        <dc:description>Copyright Remain Software. This is not open source.</dc:description>
        <dc:rights>
          <cc:Agent>
            <dc:title>Remain BV Nieuwgein</dc:title>
          </cc:Agent>
        </dc:rights>
        <dc:publisher>
          <cc:Agent>
            <dc:title>Remain BV Nieuwgein</dc:title>
          </cc:Agent>
        </dc:publisher>
        <dc:creator>
          <cc:Agent>
            <dc:title>Remain BV Nieuwgein</dc:title>
          </cc:Agent>
        </dc:creator>
      </cc:Work>
    </rdf:RDF>
  </metadata>
  <defs
     id="defs7" />
  <sodipodi:namedview
     pagecolor="#ffffff"
     bordercolor="#666666"
     borderopacity="1"
     objecttolerance="10"
     gridtolerance="10"
     guidetolerance="10"
     inkscape:pageopacity="0"
     inkscape:pageshadow="2"
     inkscape:window-width="1308"
     inkscape:window-height="696"
     id="namedview5"
     showgrid="false"
     inkscape:zoom="1.7714571"
     inkscape:cx="194.56182"
     inkscape:cy="60.121544"
     inkscape:window-x="49"
     inkscape:window-y="27"
     inkscape:window-maximized="0"
     inkscape:current-layer="svg3" />
  <path
     id="Selection #1"
     d="M 162.00,182.00            C 162.00,182.00 162.00,198.00 162.00,198.00              162.00,198.00 191.00,198.00 191.00,198.00              191.00,198.00 191.00,118.00 191.00,118.00              191.00,118.00 111.00,118.00 111.00,118.00              111.00,118.00 111.00,145.00 111.00,145.00              111.00,145.00 158.00,145.00 158.00,145.00              151.97,165.50 124.19,174.22 105.00,174.00              91.21,173.84 75.11,168.48 65.09,158.83              49.61,143.92 47.36,118.67 56.76,100.00              61.18,91.22 66.48,85.80 75.00,80.87              83.52,75.95 94.17,73.24 104.00,73.01              114.41,72.78 127.23,75.87 136.00,81.55              140.59,84.52 146.98,91.77 151.00,92.67              153.47,93.23 161.10,91.85 164.00,91.42              164.00,91.42 191.00,88.00 191.00,88.00              188.00,78.58 178.82,68.93 171.00,63.16              148.94,46.88 124.33,44.88 98.00,45.00              79.11,45.09 56.07,51.02 41.00,62.68              22.05,77.35 11.47,101.13 12.01,125.00              12.30,137.82 14.95,150.56 20.76,162.00              27.26,174.82 37.32,184.50 50.00,191.22              62.64,197.91 80.71,201.83 95.00,202.00              121.81,202.31 140.44,199.21 162.00,182.00 Z            M 553.00,52.53            C 530.53,59.74 541.20,89.25 562.00,84.47              573.60,81.81 579.78,67.57 571.72,58.04              566.65,52.04 560.29,51.33 553.00,52.53 Z            M 598.00,63.00            C 598.00,63.00 598.00,91.00 598.00,91.00              598.00,91.00 581.00,91.00 581.00,91.00              581.00,91.00 581.00,113.00 581.00,113.00              581.00,113.00 598.00,113.00 598.00,113.00              598.00,113.00 598.00,171.00 598.00,171.00              598.11,180.30 600.64,188.80 609.00,194.01              620.75,201.33 643.52,197.12 657.00,197.00              657.00,197.00 657.00,171.00 657.00,171.00              650.71,171.14 642.71,173.52 637.22,169.28              633.43,166.34 633.06,161.41 633.00,157.00              633.00,157.00 633.00,113.00 633.00,113.00              633.00,113.00 657.00,113.00 657.00,113.00              657.00,113.00 657.00,91.00 657.00,91.00              657.00,91.00 633.00,91.00 633.00,91.00              633.00,91.00 633.00,63.00 633.00,63.00              633.00,63.00 598.00,63.00 598.00,63.00 Z            M 232.00,107.00            C 232.00,107.00 232.00,91.00 232.00,91.00              232.00,91.00 197.00,91.00 197.00,91.00              197.00,91.00 197.00,198.00 197.00,198.00              197.00,198.00 232.00,198.00 232.00,198.00              232.00,198.00 232.00,153.00 232.00,153.00              232.01,144.51 232.64,134.50 239.18,128.33              245.71,122.17 258.19,119.18 267.00,119.18              267.00,119.18 277.00,120.00 277.00,120.00              277.00,120.00 277.00,88.00 277.00,88.00              256.87,88.00 245.51,91.45 232.00,107.00 Z            M 280.00,122.00            C 280.00,122.00 308.00,122.00 308.00,122.00              320.25,121.98 315.26,118.78 324.00,115.13              332.82,111.46 344.73,111.97 354.00,113.05              360.07,113.76 366.72,115.59 370.26,121.04              372.15,123.95 371.97,126.70 372.00,130.00              372.00,130.00 353.00,130.00 353.00,130.00              353.00,130.00 335.00,130.00 335.00,130.00              335.00,130.00 318.00,131.00 318.00,131.00              301.60,131.08 281.76,135.23 276.44,153.00              275.29,156.83 275.05,159.04 275.00,163.00              274.94,168.71 275.15,173.67 277.53,179.00              284.08,193.71 303.01,199.93 318.00,200.00              329.61,200.05 340.82,200.75 352.00,196.92              359.09,194.49 365.73,191.08 372.00,187.00              372.00,187.00 374.00,198.00 374.00,198.00              374.00,198.00 413.00,198.00 413.00,198.00              409.27,189.05 408.02,191.87 408.00,181.00              408.00,181.00 408.00,128.00 408.00,128.00              407.91,120.40 406.08,110.16 401.45,104.00              392.45,92.05 370.22,88.02 356.00,88.00              332.66,87.96 297.18,84.91 283.90,109.00              281.55,113.26 280.88,117.30 280.00,122.00 Z            M 402.00,91.00            C 402.00,91.00 412.58,117.00 412.58,117.00              412.58,117.00 438.14,174.00 438.14,174.00              438.14,174.00 445.30,190.00 445.30,190.00              445.30,190.00 449.49,196.98 449.49,196.98              449.49,196.98 457.00,198.00 457.00,198.00              457.00,198.00 489.00,198.00 489.00,198.00              489.00,198.00 502.69,167.00 502.69,167.00              502.69,167.00 524.30,119.00 524.30,119.00              524.30,119.00 536.00,91.00 536.00,91.00              536.00,91.00 506.00,91.00 506.00,91.00              506.00,91.00 498.50,92.02 498.50,92.02              498.50,92.02 490.60,109.00 490.60,109.00              490.60,109.00 469.00,165.00 469.00,165.00              469.00,165.00 447.58,109.00 447.58,109.00              447.58,109.00 440.30,91.99 440.30,91.99              440.30,91.99 433.00,91.00 433.00,91.00              433.00,91.00 402.00,91.00 402.00,91.00 Z            M 540.00,91.00            C 540.00,91.00 540.00,198.00 540.00,198.00              540.00,198.00 576.00,198.00 576.00,198.00              576.00,198.00 576.00,91.00 576.00,91.00              576.00,91.00 540.00,91.00 540.00,91.00 Z            M 660.00,91.00            C 661.34,98.16 667.94,110.82 671.14,118.00              671.14,118.00 694.30,170.00 694.30,170.00              694.30,170.00 705.26,195.00 705.26,195.00              705.81,197.96 704.58,200.48 703.12,202.99              695.55,215.95 681.15,211.01 669.00,211.00              669.00,211.00 669.00,237.00 669.00,237.00              684.67,237.00 707.21,240.83 721.00,232.65              733.77,225.08 740.41,206.06 746.30,193.00              746.30,193.00 772.30,134.00 772.30,134.00              772.30,134.00 791.00,91.00 791.00,91.00              791.00,91.00 753.00,91.00 753.00,91.00              753.00,91.00 743.69,117.00 743.69,117.00              743.69,117.00 726.00,165.00 726.00,165.00              726.00,165.00 704.40,109.00 704.40,109.00              704.40,109.00 696.59,92.02 696.59,92.02              696.59,92.02 689.00,91.00 689.00,91.00              689.00,91.00 660.00,91.00 660.00,91.00 Z            M 372.00,149.00            C 371.90,153.26 371.69,156.13 369.59,160.00              363.54,171.13 345.17,177.59 333.00,176.68              327.72,176.28 321.38,175.59 317.07,172.35              310.49,167.48 310.39,158.85 317.07,154.13              322.18,150.56 333.78,149.08 340.00,149.00              340.00,149.00 372.00,149.00 372.00,149.00 Z"
     stroke-width="1"
     stroke="black"
     fill="none"
     style="fill:#000401;fill-opacity:1;stroke:none" />
  <path
     inkscape:connector-curvature="0"
     style="fill:#c8c442;fill-opacity:1;stroke:none;stroke-width:1;stroke-opacity:1"
     id="Selection"
     d="m 801.65476,18.637408 c 0,0 0,180.000002 0,180.000002 0,0 188.99992,0 188.99992,0 0,0 0,-180.000002 0,-180.000002 0,0 -188.99992,0 -188.99992,0 z" />
  <path
     inkscape:connector-curvature="0"
     style="fill:#ffffff;fill-opacity:1;stroke:none;stroke-width:1;stroke-opacity:1"
     id="Selection #2"
     d="m 822.25004,33.877398 c 0,0 0,-7.000004 0,-7.000004 0,0 -14,0 -14,0 0,0 0,38.000002 0,38.000002 0,0 38,0 38,0 0,0 0,-12.999997 0,-12.999997 0,0 -23,0 -23,0 3.45,-5.510001 5.8,-8.350001 12,-10.910001 12.3,-5.07 28.13,-3.71 36.35,7.910001 2.68004,3.78 3.53004,7.459997 3.64004,11.999997 0.32,13.54 -6.92004,24.11 -20.99004,25.82 -5.81,0.7 -12.75,0.25 -18,-2.49 -4.27,-2.23 -6.33,-5.24 -10,-5.98 0,0 -18,1.65 -18,1.65 3.72,9.5 13.43,15.75 23,18.36 16.61,4.530004 40.08,3.440004 52.82004,-9.53 16.57,-16.88 12.54,-48.049998 -8.82,-59.010002 -5.98004,-3.07 -15.28004,-4.74 -22.00004,-4.82 -14.17,-0.16 -19.04,1.7 -31,9.000004 z" />
</svg>
