<?xml version="1.0" encoding="UTF-8" standalone="no"?>
<svg
   xmlns:dc="http://purl.org/dc/elements/1.1/"
   xmlns:cc="http://creativecommons.org/ns#"
   xmlns:rdf="http://www.w3.org/1999/02/22-rdf-syntax-ns#"
   xmlns:svg="http://www.w3.org/2000/svg"
   xmlns="http://www.w3.org/2000/svg"
   xmlns:sodipodi="http://sodipodi.sourceforge.net/DTD/sodipodi-0.dtd"
   xmlns:inkscape="http://www.inkscape.org/namespaces/inkscape"
   width="2.6009085in"
   height="0.6464138in"
   viewBox="0 0 780.27258 193.92406"
   version="1.1"
   id="svg3"
   sodipodi:docname="gravity_words.svg"
   inkscape:version="0.92.3 (2405546, 2018-03-11)"
   inkscape:export-filename="C:\Users\jongw\Pictures\Logos\remain\Gravity\gravity_words.png"
   inkscape:export-xdpi="106.98"
   inkscape:export-ydpi="106.98">
  <metadata
     id="metadata9">
    <rdf:RDF>
      <cc:Work
         rdf:about="">
        <dc:format>image/svg+xml</dc:format>
        <dc:type
           rdf:resource="http://purl.org/dc/dcmitype/StillImage" />
        <dc:title></dc:title>
        <dc:description>Copyright Remain Software. This is not open source.</dc:description>
        <dc:rights>
          <cc:Agent>
            <dc:title>Remain BV Nieuwgein</dc:title>
          </cc:Agent>
        </dc:rights>
        <dc:publisher>
          <cc:Agent>
            <dc:title>Remain BV Nieuwgein</dc:title>
          </cc:Agent>
        </dc:publisher>
        <dc:creator>
          <cc:Agent>
            <dc:title>Remain BV Nieuwgein</dc:title>
          </cc:Agent>
        </dc:creator>
      </cc:Work>
    </rdf:RDF>
  </metadata>
  <defs
     id="defs7" />
  <sodipodi:namedview
     pagecolor="#ffffff"
     bordercolor="#666666"
     borderopacity="1"
     objecttolerance="10"
     gridtolerance="10"
     guidetolerance="10"
     inkscape:pageopacity="0"
     inkscape:pageshadow="2"
     inkscape:window-width="1308"
     inkscape:window-height="696"
     id="namedview5"
     showgrid="false"
     inkscape:zoom="1.7714571"
     inkscape:cx="118.0909"
     inkscape:cy="-27.886705"
     inkscape:window-x="0"
     inkscape:window-y="0"
     inkscape:window-maximized="0"
     inkscape:current-layer="svg3"
     fit-margin-top="0"
     fit-margin-left="0"
     fit-margin-right="0"
     fit-margin-bottom="0" />
  <path
     id="Selection #1"
     d="m 150.50972,137.50484 c 0,0 0,16 0,16 0,0 29,0 29,0 0,0 0,-79.999998 0,-79.999998 0,0 -80.000001,0 -80.000001,0 0,0 0,26.999998 0,26.999998 0,0 47.000001,0 47.000001,0 -6.03,20.5 -33.81,29.22 -53.000001,29 -13.79,-0.16 -29.89,-5.52 -39.91,-15.17 -15.48,-14.909998 -17.73,-40.159998 -8.33,-58.829998 4.42,-8.78 9.72,-14.2 18.24,-19.13 8.52,-4.92 19.17,-7.63 29,-7.86 10.410001,-0.23 23.230001,2.86 32.000001,8.54 4.59,2.97 10.98,10.22 15,11.12 2.47,0.56 10.1,-0.82 13,-1.25 0,0 27,-3.42 27,-3.42 -3,-9.42 -12.18,-19.07 -20,-24.84 -22.06,-16.2799999 -46.67,-18.27999994 -73.000001,-18.15999994 -18.89,0.09 -41.93,6.02000004 -57,17.67999994 -18.95,14.67 -29.52999993,38.45 -28.98999993,62.32 0.29,12.82 2.94000003,25.559998 8.75000003,36.999998 6.4999999,12.82 16.5599999,22.5 29.2399999,29.22 12.64,6.69 30.71,10.61 45,10.78 26.810001,0.31 45.440001,-2.79 67.000001,-20 z m 391,-129.4699979 c -22.47,7.2099999 -11.8,36.7199999 9,31.9399999 11.6,-2.66 17.78,-16.9 9.72,-26.43 -5.07,-5.9999999 -11.43,-6.7099999 -18.72,-5.5099999 z m 45,10.4699999 c 0,0 0,28 0,28 0,0 -17,0 -17,0 0,0 0,22 0,22 0,0 17,0 17,0 0,0 0,57.999998 0,57.999998 0.11,9.3 2.64,17.8 11,23.01 11.75,7.32 34.52,3.11 48,2.99 0,0 0,-26 0,-26 -6.29,0.14 -14.29,2.52 -19.78,-1.72 -3.79,-2.94 -4.16,-7.87 -4.22,-12.28 0,0 0,-43.999998 0,-43.999998 0,0 24,0 24,0 0,0 0,-22 0,-22 0,0 -24,0 -24,0 0,0 0,-28 0,-28 0,0 -35,0 -35,0 z m -366,44 c 0,0 0,-16 0,-16 0,0 -35,0 -35,0 0,0 0,106.999998 0,106.999998 0,0 35,0 35,0 0,0 0,-45 0,-45 0.01,-8.49 0.64,-18.499998 7.18,-24.669998 6.53,-6.16 19.01,-9.15 27.82,-9.15 0,0 10,0.82 10,0.82 0,0 0,-32 0,-32 -20.13,0 -31.49,3.45 -45,19 z m 48,15 c 0,0 28,0 28,0 12.25,-0.02 7.26,-3.22 16,-6.87 8.82,-3.67 20.73,-3.16 30,-2.08 6.07,0.71 12.72,2.54 16.26,7.99 1.89,2.91 1.71,5.66 1.74,8.96 0,0 -19,0 -19,0 0,0 -18,0 -18,0 0,0 -17,1 -17,1 -16.4,0.08 -36.24,4.23 -41.56,21.999998 -1.15,3.83 -1.39,6.04 -1.44,10 -0.06,5.71 0.15,10.67 2.53,16 6.55,14.71 25.48,20.93 40.47,21 11.61,0.05 22.82,0.75 34,-3.08 7.09,-2.43 13.73,-5.84 20,-9.92 0,0 2,11 2,11 0,0 39,0 39,0 -3.73,-8.95 -4.98,-6.13 -5,-17 0,0 0,-52.999998 0,-52.999998 -0.09,-7.6 -1.92,-17.84 -6.55,-24 -9,-11.95 -31.23,-15.98 -45.45,-16 -23.34,-0.04 -58.82,-3.09 -72.1,21 -2.35,4.26 -3.02,8.3 -3.9,13 z m 122,-31 c 0,0 10.58,26 10.58,26 0,0 25.56,56.999998 25.56,56.999998 0,0 7.16,16 7.16,16 0,0 4.19,6.98 4.19,6.98 0,0 7.51,1.02 7.51,1.02 0,0 32,0 32,0 0,0 13.69,-31 13.69,-31 0,0 21.61,-47.999998 21.61,-47.999998 0,0 11.7,-28 11.7,-28 0,0 -30,0 -30,0 0,0 -7.5,1.02 -7.5,1.02 0,0 -7.9,16.98 -7.9,16.98 0,0 -21.6,55.999998 -21.6,55.999998 0,0 -21.42,-55.999998 -21.42,-55.999998 0,0 -7.28,-17.01 -7.28,-17.01 0,0 -7.3,-0.99 -7.3,-0.99 0,0 -31,0 -31,0 z m 138,0 c 0,0 0,106.999998 0,106.999998 0,0 36,0 36,0 0,0 0,-106.999998 0,-106.999998 0,0 -36,0 -36,0 z m 120,0 c 1.34,7.16 7.94,19.82 11.14,27 0,0 23.16,51.999998 23.16,51.999998 0,0 10.96,25 10.96,25 0.55,2.96 -0.68,5.48 -2.14,7.99 -7.57,12.96 -21.97,8.02 -34.12,8.01 0,0 0,26 0,26 15.67,0 38.21,3.83 52,-4.35 12.77,-7.57 19.41,-26.59 25.3,-39.65 0,0 26,-58.999998 26,-58.999998 0,0 18.7,-43 18.7,-43 0,0 -38,0 -38,0 0,0 -9.31,26 -9.31,26 0,0 -17.69,47.999998 -17.69,47.999998 0,0 -21.6,-55.999998 -21.6,-55.999998 0,0 -7.81,-16.98 -7.81,-16.98 0,0 -7.59,-1.02 -7.59,-1.02 0,0 -29,0 -29,0 z m -288,57.999998 c -0.1,4.26 -0.31,7.13 -2.41,11 -6.05,11.13 -24.42,17.59 -36.59,16.68 -5.28,-0.4 -11.62,-1.09 -15.93,-4.33 -6.58,-4.87 -6.68,-13.5 0,-18.22 5.11,-3.57 16.71,-5.05 22.93,-5.13 0,0 32,0 32,0 z"
     inkscape:connector-curvature="0"
     style="fill:#000000;stroke:none;stroke-width:1;fill-opacity:1" />
</svg>
