<?xml version="1.0" encoding="UTF-8" standalone="no"?>
<svg
   xmlns:dc="http://purl.org/dc/elements/1.1/"
   xmlns:cc="http://creativecommons.org/ns#"
   xmlns:rdf="http://www.w3.org/1999/02/22-rdf-syntax-ns#"
   xmlns:svg="http://www.w3.org/2000/svg"
   xmlns="http://www.w3.org/2000/svg"
   xmlns:sodipodi="http://sodipodi.sourceforge.net/DTD/sodipodi-0.dtd"
   xmlns:inkscape="http://www.inkscape.org/namespaces/inkscape"
   width="0.62999982in"
   height="0.60000008in"
   viewBox="0 0 188.99995 179.99995"
   version="1.1"
   id="svg3"
   sodipodi:docname="simple logo.svg"
   inkscape:version="0.92.3 (2405546, 2018-03-11)"
   inkscape:export-filename="C:\Users\jongw\Pictures\Logos\remain\Gravity\gravity.png"
   inkscape:export-xdpi="119.75802"
   inkscape:export-ydpi="119.75802">
  <metadata
     id="metadata9">
    <rdf:RDF>
      <cc:Work
         rdf:about="">
        <dc:format>image/svg+xml</dc:format>
        <dc:type
           rdf:resource="http://purl.org/dc/dcmitype/StillImage" />
        <dc:title></dc:title>
        <dc:description>Copyright Remain Software. This is not open source.</dc:description>
        <dc:rights>
          <cc:Agent>
            <dc:title>Remain BV Nieuwgein</dc:title>
          </cc:Agent>
        </dc:rights>
        <dc:publisher>
          <cc:Agent>
            <dc:title>Remain BV Nieuwgein</dc:title>
          </cc:Agent>
        </dc:publisher>
        <dc:creator>
          <cc:Agent>
            <dc:title>Remain BV Nieuwgein</dc:title>
          </cc:Agent>
        </dc:creator>
      </cc:Work>
    </rdf:RDF>
  </metadata>
  <defs
     id="defs7" />
  <sodipodi:namedview
     pagecolor="#ffffff"
     bordercolor="#666666"
     borderopacity="1"
     objecttolerance="10"
     gridtolerance="10"
     guidetolerance="10"
     inkscape:pageopacity="0"
     inkscape:pageshadow="2"
     inkscape:window-width="1308"
     inkscape:window-height="696"
     id="namedview5"
     showgrid="false"
     inkscape:zoom="1.7714571"
     inkscape:cx="-160.75648"
     inkscape:cy="44.325493"
     inkscape:window-x="49"
     inkscape:window-y="27"
     inkscape:window-maximized="0"
     inkscape:current-layer="svg3"
     fit-margin-top="0"
     fit-margin-left="0"
     fit-margin-right="0"
     fit-margin-bottom="0" />
  <path
     inkscape:connector-curvature="0"
     style="fill:#c8c442;fill-opacity:1;stroke:none;stroke-width:1;stroke-opacity:1"
     id="Selection"
     d="m 0,0 c 0,0 0,180 0,180 0,0 188.99992,0 188.99992,0 0,0 0,-180 0,-180 C 188.99992,0 0,0 0,0 Z" />
  <path
     inkscape:connector-curvature="0"
     style="fill:#ffffff;fill-opacity:1;stroke:none;stroke-width:1;stroke-opacity:1"
     id="Selection #2"
     d="m 20.59528,15.23999 c 0,0 0,-7.000004 0,-7.000004 0,0 -14,0 -14,0 0,0 0,38.000002 0,38.000002 0,0 38,0 38,0 0,0 0,-12.999997 0,-12.999997 0,0 -23,0 -23,0 3.45,-5.510001 5.8,-8.350001 12,-10.910001 12.3,-5.07 28.13,-3.71 36.35,7.910001 2.68004,3.78 3.53004,7.459997 3.64004,11.999997 0.32,13.54 -6.92004,24.11 -20.99004,25.82 -5.81,0.7 -12.75,0.25 -18,-2.49 -4.27,-2.23 -6.33,-5.24 -10,-5.98 0,0 -18,1.65 -18,1.65 3.72,9.5 13.43,15.75 23,18.36 16.61,4.530004 40.08,3.440004 52.82004,-9.53 16.57,-16.88 12.54,-48.049998 -8.82,-59.010002 -5.98004,-3.07 -15.28004,-4.74 -22.00004,-4.82 -14.17,-0.16 -19.04,1.7 -31,9.000004 z" />
</svg>
