<?xml version="1.0" encoding="UTF-8" standalone="no"?>
<svg
   xmlns:dc="http://purl.org/dc/elements/1.1/"
   xmlns:cc="http://creativecommons.org/ns#"
   xmlns:rdf="http://www.w3.org/1999/02/22-rdf-syntax-ns#"
   xmlns:svg="http://www.w3.org/2000/svg"
   xmlns="http://www.w3.org/2000/svg"
   xmlns:sodipodi="http://sodipodi.sourceforge.net/DTD/sodipodi-0.dtd"
   xmlns:inkscape="http://www.inkscape.org/namespaces/inkscape"
   width="0.29085821in"
   height="0.25601932in"
   viewBox="0 0 87.257465 76.805765"
   version="1.1"
   id="svg3"
   sodipodi:docname="gravity_arrow.svg"
   inkscape:version="0.92.3 (2405546, 2018-03-11)"
   inkscape:export-filename="C:\Users\jongw\Pictures\Logos\remain\Gravity\gravity_arrow.png"
   inkscape:export-xdpi="872.78876"
   inkscape:export-ydpi="872.78876">
  <metadata
     id="metadata9">
    <rdf:RDF>
      <cc:Work
         rdf:about="">
        <dc:format>image/svg+xml</dc:format>
        <dc:type
           rdf:resource="http://purl.org/dc/dcmitype/StillImage" />
        <dc:title></dc:title>
      </cc:Work>
    </rdf:RDF>
  </metadata>
  <defs
     id="defs7" />
  <sodipodi:namedview
     pagecolor="#ffffff"
     bordercolor="#666666"
     borderopacity="1"
     objecttolerance="10"
     gridtolerance="10"
     guidetolerance="10"
     inkscape:pageopacity="0"
     inkscape:pageshadow="2"
     inkscape:window-width="1222"
     inkscape:window-height="618"
     id="namedview5"
     showgrid="false"
     fit-margin-top="0"
     fit-margin-left="0"
     fit-margin-right="0"
     fit-margin-bottom="0"
     inkscape:zoom="5.0104374"
     inkscape:cx="32.850749"
     inkscape:cy="8.8402583"
     inkscape:window-x="0"
     inkscape:window-y="0"
     inkscape:window-maximized="0"
     inkscape:current-layer="svg3" />
  <path
     id="Selection #2"
     d="m 14.708158,9.5090656 c 0,0 0,-7 0,-7 0,0 -13.99999985,0 -13.99999985,0 0,0 0,38.0000004 0,38.0000004 0,0 37.99999985,0 37.99999985,0 0,0 0,-13 0,-13 0,0 -23,0 -23,0 3.45,-5.51 5.8,-8.35 12,-10.91 12.3,-5.07 28.13,-3.71 36.35,7.91 2.68,3.78 3.53,7.46 3.64,12 0.32,13.54 -6.92,24.11 -20.99,25.82 -5.81,0.7 -12.75,0.25 -18,-2.49 -4.27,-2.23 -6.33,-5.24 -10,-5.98 0,0 -17.99999985,1.65 -17.99999985,1.65 3.72000005,9.5 13.42999985,15.75 22.99999985,18.36 16.61,4.53 40.08,3.44 52.82,-9.53 16.57,-16.88 12.54,-48.05 -8.82,-59.0100004 -5.98,-3.07 -15.28,-4.73999995 -22,-4.81999995 -14.17,-0.16 -19.04,1.69999995 -31,8.99999995 z"
     inkscape:connector-curvature="0"
     style="fill:#c8c442;stroke:none;stroke-width:1;fill-opacity:1" />
</svg>
