<?xml version="1.0" encoding="UTF-8" standalone="no"?>
<svg
   xmlns:dc="http://purl.org/dc/elements/1.1/"
   xmlns:cc="http://creativecommons.org/ns#"
   xmlns:rdf="http://www.w3.org/1999/02/22-rdf-syntax-ns#"
   xmlns:svg="http://www.w3.org/2000/svg"
   xmlns="http://www.w3.org/2000/svg"
   xmlns:sodipodi="http://sodipodi.sourceforge.net/DTD/sodipodi-0.dtd"
   xmlns:inkscape="http://www.inkscape.org/namespaces/inkscape"
   version="1.1"
   id="svg10"
   xml:space="preserve"
   width="1600"
   height="1600"
   viewBox="0 0 1600 1600"
   sodipodi:docname="octo.svg"
   inkscape:version="1.0.2 (e86c870879, 2021-01-15, custom)"><metadata
     id="metadata16"><rdf:RDF><cc:Work
         rdf:about=""><dc:format>image/svg+xml</dc:format><dc:type
           rdf:resource="http://purl.org/dc/dcmitype/StillImage" /><dc:title></dc:title></cc:Work></rdf:RDF></metadata><defs
     id="defs14"><clipPath
       clipPathUnits="userSpaceOnUse"
       id="clipPath26"><path
         d="M 0,1200 H 1200 V 0 H 0 Z"
         id="path24" /></clipPath><clipPath
       clipPathUnits="userSpaceOnUse"
       id="clipPath66"><path
         d="m 424.182,549.884 h 424.6 V 391.958 h -424.6 z"
         id="path64" /></clipPath><clipPath
       clipPathUnits="userSpaceOnUse"
       id="clipPath90"><path
         d="M 658.761,737.292 H 1019.05 V 209.163 H 658.761 Z"
         id="path88" /></clipPath><clipPath
       clipPathUnits="userSpaceOnUse"
       id="clipPath106"><path
         d="m 637.926,1038.957 c -41.005,-14.22 -63.354,-34.025 -80.588,-50.019 v 0 C 545.336,977.8 531.719,958.8 524.556,948.287 v 0 c 25.14,33.954 94.326,83.144 174,63.05 v 0 c 85.83,-21.645 106.531,-80.104 99.573,-116.644 v 0 c -7.839,-41.168 -38.412,-68.399 -65.966,-90.017 v 0 c -44.436,-34.863 -54.136,-62.45 -44.086,-85.357 v 0 c 10.049,-22.909 30.218,-33.566 51.858,-33.059 v 0 c -11.531,7.419 -14.537,8.452 -19.669,17.211 v 0 c -5.132,8.761 -9.354,22.626 1.572,41.73 v 0 c 10.926,19.105 37.379,33.853 56.319,44.259 v 0 c 18.942,10.405 45.165,35.656 55.851,57.992 v 0 c 10.685,22.334 27.039,59.986 14.821,106.954 v 0 c -12.22,46.968 -52.761,64.346 -79.818,80.137 v 0 c -15.15,8.841 -41.582,13.624 -69.106,13.625 v 0 c -21.631,0 -43.934,-2.953 -61.979,-9.211 M 519.535,940.732 c 0,0 1.897,2.971 5.021,7.555 v 0 c -1.943,-2.623 -3.62,-5.152 -5.021,-7.555"
         id="path104" /></clipPath><clipPath
       clipPathUnits="userSpaceOnUse"
       id="clipPath114"><path
         d="M -32768,32767 H 32767 V -32768 H -32768 Z"
         id="path112" /></clipPath><radialGradient
       fx="-0.13160001"
       fy="-0.0187444"
       cx="0"
       cy="0"
       r="1"
       gradientUnits="userSpaceOnUse"
       gradientTransform="matrix(168.21552,99.095589,78.186432,-132.72206,686.35254,867.20502)"
       spreadMethod="pad"
       id="radialGradient122"><stop
         style="stop-opacity:0;stop-color:#ffffff"
         offset="0"
         id="stop116" /><stop
         style="stop-opacity:0;stop-color:#ffffff"
         offset="0.3322"
         id="stop118" /><stop
         style="stop-opacity:1;stop-color:#ffffff"
         offset="1"
         id="stop120" /></radialGradient><mask
       maskUnits="userSpaceOnUse"
       x="0"
       y="0"
       width="1"
       height="1"
       id="mask124"><g
         id="g134"><g
           clip-path="url(#clipPath114)"
           id="g132"><g
             id="g130"><g
               id="g128"><path
                 d="M -32768,32767 H 32767 V -32768 H -32768 Z"
                 style="fill:url(#radialGradient122);stroke:none"
                 id="path126" /></g></g></g></g></mask><radialGradient
       fx="-0.13160001"
       fy="-0.0187444"
       cx="0"
       cy="0"
       r="1"
       gradientUnits="userSpaceOnUse"
       gradientTransform="matrix(168.21552,99.095589,78.186432,-132.72206,686.35254,867.20502)"
       spreadMethod="pad"
       id="radialGradient146"><stop
         style="stop-opacity:1;stop-color:#9170b0"
         offset="0"
         id="stop140" /><stop
         style="stop-opacity:1;stop-color:#9170b0"
         offset="0.3322"
         id="stop142" /><stop
         style="stop-opacity:1;stop-color:#6d4096"
         offset="1"
         id="stop144" /></radialGradient><clipPath
       clipPathUnits="userSpaceOnUse"
       id="clipPath156"><path
         d="M 0,1200 H 1200 V 0 H 0 Z"
         id="path154" /></clipPath><clipPath
       clipPathUnits="userSpaceOnUse"
       id="clipPath164"><path
         d="M 206.817,941.667 H 735.374 V 272.209 H 206.817 Z"
         id="path162" /></clipPath><clipPath
       clipPathUnits="userSpaceOnUse"
       id="clipPath168"><path
         d="m 457.473,766.018 c 0,0 6.009,9.497 11.722,35.351 5.714,25.854 29.07,91.255 37.019,109.297 7.948,18.041 27.613,37.282 46.212,29.036 18.598,-8.246 13.445,-38.781 26.844,-42.582 13.4,-3.801 30.089,4.788 42.015,14.065 11.927,9.277 29.793,31.953 66.212,28.517 36.419,-3.436 42.947,-27.744 47.07,-48.702 4.123,-20.958 -8.245,-48.273 -21.645,-60.899 -13.4,-12.627 -47.075,-27.487 -63.564,-67.17 -16.49,-39.683 -22.975,-86.581 5.779,-129.357 28.752,-42.775 64.399,-69.003 65.129,-124.948 0.73,-55.945 -27.71,-102.589 -30.042,-144.317 -2.331,-41.73 6.088,-80.598 29.252,-92.1 -32.754,17.358 -38.094,34.851 -46.117,56.962 -8.023,22.111 -3.021,61.518 4.786,91.74 7.806,30.224 27.86,91.133 1.857,136.309 -26.004,45.175 -71.663,29.736 -80.019,21.351 -12.08,-12.123 -18.489,-23.797 -36.806,-64.509 -13.626,-30.287 -38.407,-58.546 -59.794,-85.474 -7.088,-8.924 -15.243,-17.201 -21.066,-25.283 -22.998,-31.923 -47.163,-60.011 -47.836,-94.669 -14.201,9.019 -8.962,34.444 2.548,59.137 11.593,24.87 49.26,68.248 67.771,119.179 26.191,72.066 18.124,135.7 9.191,174.831 -8.934,39.132 -27.143,90.326 -56.003,46.004 -28.861,-44.321 -74.495,-70.685 -147.192,-94.094 -72.698,-23.41 -92.282,-58.197 -91.509,-93.5 0.773,-35.301 10.687,-72.96 25.185,-92.01 -20.031,27.433 -33.173,51.554 -36.781,80.415 -3.607,28.86 3.924,58.059 22.963,79.407 19.04,21.348 54.061,34.534 89.051,49.878 34.991,15.344 60.085,26.072 78.998,41.46 18.914,15.389 32.987,32.835 41.762,47.169 -31.952,-24.222 -65.967,-25.597 -95.514,-17.694 -29.548,7.902 -43.291,44.906 -35.389,76.91 7.902,32.004 16.23,60.768 12.911,77.336 1.751,-20.337 1.543,-49.37 0.329,-69.211 -1.215,-19.841 2.419,-46.64 24.824,-60.813 22.406,-14.173 43.439,-13.328 62.427,-6.535 18.988,6.793 26.875,14.705 26.875,14.705 10.323,9.524 16.424,17.844 20.545,24.808"
         id="path166" /></clipPath><radialGradient
       fx="-0.00105021"
       fy="-0.0236456"
       cx="0"
       cy="0"
       r="1"
       gradientUnits="userSpaceOnUse"
       gradientTransform="matrix(-187.77391,49.414185,49.414185,187.77391,579.60382,802.62079)"
       spreadMethod="pad"
       id="radialGradient178"><stop
         style="stop-opacity:1;stop-color:#ffffff"
         offset="0"
         id="stop170" /><stop
         style="stop-opacity:1;stop-color:#ffffff"
         offset="0.299047"
         id="stop172" /><stop
         style="stop-opacity:1;stop-color:#ba9bc9"
         offset="0.902426"
         id="stop174" /><stop
         style="stop-opacity:1;stop-color:#ba9bc9"
         offset="1"
         id="stop176" /></radialGradient><clipPath
       clipPathUnits="userSpaceOnUse"
       id="clipPath200"><path
         d="M 375.155,624.813 H 606.757 V 153.082 H 375.155 Z"
         id="path198" /></clipPath><clipPath
       clipPathUnits="userSpaceOnUse"
       id="clipPath216"><path
         d="M 161.725,647.971 H 454.384 V 309.531 H 161.725 Z"
         id="path214" /></clipPath><clipPath
       clipPathUnits="userSpaceOnUse"
       id="clipPath232"><path
         d="M 692.667,725.493 H 999.809 V 521.385 H 692.667 Z"
         id="path230" /></clipPath></defs><sodipodi:namedview
     pagecolor="#ffffff"
     bordercolor="#666666"
     borderopacity="1"
     objecttolerance="10"
     gridtolerance="10"
     guidetolerance="10"
     inkscape:pageopacity="0"
     inkscape:pageshadow="2"
     inkscape:window-width="1233"
     inkscape:window-height="814"
     id="namedview12"
     showgrid="false"
     inkscape:zoom="0.459375"
     inkscape:cx="800"
     inkscape:cy="784.99587"
     inkscape:window-x="0"
     inkscape:window-y="0"
     inkscape:window-maximized="0"
     inkscape:current-layer="g152" /><g
     id="g18"
     inkscape:groupmode="layer"
     inkscape:label="octo"
     transform="matrix(1.3333333,0,0,-1.3333333,0,1600)"><g
       id="g20"><g
         id="g22"
         clip-path="url(#clipPath26)"><g
           id="g28"
           transform="translate(265.9276,933.2599)"><path
             d="m 0,0 c 42.518,-2.062 55.402,-48.702 57.979,-83.232 2.577,-34.53 -11.081,-87.612 17.007,-111.834 28.087,-24.222 64.679,-20.357 96.116,3.092 31.437,23.45 36.075,77.305 36.075,77.305 0,0 9.277,-30.407 -19.24,-94.999 -28.517,-64.593 -91.735,-80.397 -141.554,-52.911 -49.819,27.486 -46.898,88.385 -36.848,135.799 10.049,47.413 19.841,90.447 -6.185,105.907 -26.026,15.461 -50.764,-10.049 -50.764,-10.049 0,0 4.896,32.984 47.414,30.922"
             style="fill:#6d4096;fill-opacity:1;fill-rule:nonzero;stroke:none"
             id="path30" /></g><g
           id="g32"
           transform="translate(465.8431,790.2579)"><path
             d="m 0,0 c 0,0 -37.189,33.156 -31.562,103.061 9.408,116.893 42.088,134.854 42.088,134.854 H -2.015 c -16.943,-8.203 -28.339,-30.083 -33.802,-42.682 -8.464,-19.522 -20.662,-52.672 -29.073,-96.982 -14.086,-74.213 16.836,-125.406 21.99,-132.965 5.153,-7.558 14.087,-14.413 14.087,-14.413 0,0 12.931,8.424 19.583,20.77 C -2.578,-16.012 0,0 0,0"
             style="fill:#6d4096;fill-opacity:1;fill-rule:nonzero;stroke:none"
             id="path34" /></g><g
           id="g36"
           transform="translate(858.0047,676.5294)"><path
             d="m 0,0 c 0,0 14.509,0.569 28.939,9.729 14.43,9.16 17.373,18.5 17.373,18.5 0,0 9.773,1.478 17.652,-11.919 7.879,-13.398 3.443,-27.509 2.247,-31.211 -1.196,-3.703 -3.311,-8.207 -3.311,-8.207 0,0 -17.984,-23.197 -65.141,-41.235 -47.155,-18.038 -87.01,-7.301 -87.01,-7.301 0,0 13.297,2.218 26.64,9.785 13.343,7.566 26.56,19.256 38.682,33.5 C -11.807,-14.116 0,0 0,0"
             style="fill:#6d4096;fill-opacity:1;fill-rule:nonzero;stroke:none"
             id="path38" /></g><g
           id="g40"
           transform="translate(1037.9066,968.2433)"><path
             d="m 0,0 c -3.132,19.78 -30.754,32.143 -62.742,19.345 -31.99,-12.799 -49.464,-50.904 -49.464,-50.904 0,0 0.032,-0.156 0.088,-0.437 -1.342,-2.32 -2.564,-4.613 -3.628,-6.853 -13.056,-27.486 -16.148,-60.813 -10.342,-94.14 5.806,-33.327 0,-67.747 0,-67.747 0,0 10.686,-0.582 25.372,-3.809 14.686,-3.226 26.578,-15.309 26.578,-15.309 0,0 1.339,47.697 -10.686,89.957 -11.384,40.006 -11.366,79.692 1.491,101.593 19.968,29.426 44.836,32.062 51.951,32.25 7.121,0.188 18.194,-7.922 16.437,-22.024 -1.757,-14.101 -15.25,-24.207 -15.25,-24.207 0,0 2.061,-3.435 13.448,4.44 C -5.36,-29.97 3.132,-19.78 0,0"
             style="fill:#6d4096;fill-opacity:1;fill-rule:nonzero;stroke:none"
             id="path42" /></g><g
           id="g44"
           transform="translate(772.8216,534.6183)"><path
             d="m 0,0 c 1.974,0.612 15.815,4.643 29.096,1.629 14.341,-3.255 21.89,-6.681 24.705,-8.233 2.815,-1.55 16.402,-17.16 16.402,-17.16 l 5.097,-17.19 c 0,0 15.888,39.285 -28.547,57.388 -18.811,7.663 -34.197,6.42 -40.514,5.99 -6.318,-0.43 -9.556,-1.288 -9.556,-1.288 0,0 2.66,-12.985 3.317,-21.136"
             style="fill:#9170b0;fill-opacity:1;fill-rule:nonzero;stroke:none"
             id="path46" /></g><g
           id="g48"
           transform="translate(688.4114,531.6007)"><path
             d="m 0,0 c -3.838,-2.086 -27.586,-15.179 -39.422,-26.074 -12.9,-11.874 -44.527,-31.823 -61.989,-38.157 -17.461,-6.335 -28.476,-9.802 -40.779,-10.184 -11.422,-0.355 -17.908,1.856 -18.78,2.176 -6.168,-5.289 -10.172,-12.274 -14.832,-19.264 -10.751,-15.23 -23.143,-27.413 -34.866,-42.515 0.117,-0.207 -0.143,0.182 0,0 0.675,0.949 1.071,1.077 1.071,1.077 0,0 15.358,-7 32.429,-6.736 17.07,0.266 65.491,7.232 103.984,36.39 36.381,27.558 73.464,57.803 77.425,61.04 C 6.565,-27.787 3.123,-13.86 0,0"
             style="fill:#9170b0;fill-opacity:1;fill-rule:nonzero;stroke:none"
             id="path50" /></g><g
           id="g52"
           transform="translate(999.8089,561.0792)"><path
             d="M 0,0 C 0,0 -3.549,-4.729 -6.186,-7.378 -6.209,-7.401 -6.231,-7.427 -6.254,-7.451 -10.793,-12.272 -28.179,-18.146 -33.5,-18.42 l -13.656,-20.232 c 0,0 23.106,-2.748 35.858,10.185 C 1.454,-15.532 0,0 0,0"
             style="fill:#9170b0;fill-opacity:1;fill-rule:nonzero;stroke:none"
             id="path54" /></g><g
           id="g56"
           transform="translate(1009.6868,271.4513)"><path
             d="m 0,0 c -11.166,14.344 -26.098,23.193 -64.199,30.45 -38.101,7.257 -78.643,-2.628 -110.081,-4.3 -31.437,-1.671 -63.354,-1.679 -84.588,14.645 -21.234,16.324 -24.501,38.199 -18.399,57.382 6.102,19.183 28.689,72.667 34.873,108.742 4.292,25.034 5.004,42.573 5.038,50.97 -0.015,-0.106 -0.025,-0.209 -0.037,-0.314 -0.011,-0.104 -0.023,-0.209 -0.041,-0.314 0.036,0.211 0.049,0.418 0.078,0.628 0.015,3.704 -0.102,5.635 -0.102,5.635 0,0 0.092,0.031 0.249,0.08 -0.657,8.151 -7.108,40.249 -9.737,46.731 -3.573,8.813 -9.84,21.18 -9.84,21.18 0,0 9.884,-0.201 26.118,5.144 16.235,5.346 29.71,15.321 37.043,22.093 7.334,6.772 32.922,37.294 44.647,50.176 11.726,12.882 31.74,28.444 48.963,23.922 17.223,-4.522 20.023,-30.193 10.638,-50.95 -9.385,-20.755 -20.549,-37.853 -24.842,-56.239 -4.293,-18.386 -2.148,-49.265 17.399,-62.139 14.694,-9.676 30.769,-11.908 39.925,-12.34 l -0.139,-0.206 c 0,0 6.565,-0.78 14.627,0.45 3.153,0.11 5.744,0.198 5.744,0.198 0,0.334 0,0.669 0,1.003 5.479,1.488 11.097,4.082 15.487,8.534 12.752,12.935 11.298,28.467 11.298,28.467 0,0 -3.549,-4.73 -6.185,-7.378 -0.024,-0.023 -0.046,-0.049 -0.069,-0.073 -4.536,-4.819 -21.904,-10.688 -27.236,-10.968 -6.151,-0.145 -15.566,0.197 -24.068,2.844 -14.12,4.393 -21.591,14.503 -18.367,30.023 3.223,15.52 23.656,31.443 33.226,44.436 9.57,12.992 33.767,43.028 29.855,81.266 -3.913,38.239 -32.359,63.794 -66.313,65.551 -33.954,1.758 -46.664,-4.829 -67.23,-21.393 -20.567,-16.565 -47.885,-46.544 -93.093,-56.327 -45.207,-9.782 -53.388,33.295 -38.636,56.265 14.753,22.971 52.448,40.844 62.153,47.897 9.705,7.053 52.261,40.494 63.183,84.939 10.923,44.446 13.543,99.962 -49.198,141.197 -62.741,41.236 -136.038,30.793 -171.907,15.736 -35.869,-15.058 -84.46,-52.244 -106.397,-96.064 -21.936,-43.821 -39.176,-96.109 -45.768,-120.217 -5.801,-21.208 -12.767,-58.963 -28.599,-86.246 -2.163,-3.728 -4.493,-7.261 -7.007,-10.53 -20.912,-27.186 -32.156,-45.488 -82.144,-68.873 -49.989,-23.386 -109.673,-44.431 -122.742,-62.779 -13.069,-18.35 -33.163,-46.481 -24.647,-88.77 8.515,-42.289 38.715,-75.81 46.831,-90.441 8.116,-14.631 21.194,-38.546 13.682,-53.93 -7.511,-15.384 -28.193,-20.789 -44.258,-20.423 -16.064,0.366 -31.656,12.526 -39.637,25.885 -7.98,13.359 -23.225,50.932 -23.225,50.932 0,0 -2.397,-8.083 1.733,-30.717 4.13,-22.633 17.699,-52.725 38.561,-62.634 20.861,-9.908 52.894,-19.799 90.425,-0.844 37.531,18.955 21.586,83.07 14.559,96.468 -7.027,13.397 -33.983,55.6 -37.074,70.683 -3.092,15.082 -4.502,34.301 14.247,49.671 18.75,15.369 32.483,15.895 57.983,16.906 25.501,1.009 40.365,5.575 52.81,9.403 12.446,3.827 37.682,14.972 37.682,14.972 0,0 -13.139,-54.084 -10.511,-86.436 2.629,-32.351 4.68,-33.292 4.68,-33.292 0,0 -26.245,-44.63 -31.547,-55.644 -5.302,-11.015 -21.957,-44.339 -19.99,-75.012 1.967,-30.674 9.338,-51.237 23.071,-65.466 13.733,-14.227 31.344,-24.231 50.501,-24.168 19.156,0.064 34.094,0.744 49.016,-1.609 14.922,-2.353 26.404,-4.99 33.427,-8.342 7.022,-3.352 21.597,-13.36 22.013,-13.125 0.047,0.027 0.355,0.191 0.846,0.453 4.602,-3.89 17.777,-15.155 24.997,-22.656 8.848,-9.191 28.95,-39.933 28.95,-39.933 0.002,-0.023 -1.464,31.945 -12.458,48.179 -10.995,16.234 -20.409,23.216 -25.781,27.069 -0.001,10e-4 -0.002,0.002 -0.003,0.003 -5.317,3.949 -16.495,11.8 -29.922,18.62 -18.834,9.567 -59.638,18.181 -73.635,20.913 -13.998,2.733 -27.153,12.367 -30.624,27.733 -3.472,15.366 2.713,36.716 5.805,44.225 3.093,7.509 24.724,45.752 30.199,52.015 2.718,3.109 4.339,5.465 4.078,5.57 1.165,-0.469 4.613,4.848 4.613,5.446 0,-0.863 20.851,23.215 31.602,38.445 4.66,6.99 41.183,51.716 51.173,75.355 9.991,23.638 26.204,70.384 58.439,72.228 38.734,2.217 44.275,-11.569 54.453,-24.712 10.179,-13.141 12.282,-31.073 12.282,-31.073 0,0 -0.2,-0.108 -0.545,-0.295 3.123,-13.86 6.565,-27.787 4.241,-42.247 0.23,0.188 0.355,0.29 0.355,0.29 0,0 0.306,-3.993 -3.762,-24.644 -4.068,-20.65 -11.205,-42.371 -14.765,-58.309 -3.561,-15.94 -8.708,-53.046 -2.46,-72.805 6.248,-19.759 15.432,-40.647 32.365,-52.983 16.933,-12.336 39.287,-19.938 65.055,-23.373 25.768,-3.437 65.656,0.136 94.999,2.748 6.217,0.553 12.6,1.221 19.047,1.878 23.984,2.443 48.848,4.73 69.274,0.379 25.918,-5.521 40.011,-24.826 35.069,-43.733 -4.942,-18.908 -23.742,-29.03 -23.152,-28.977 0.591,0.051 36.529,4.378 47.125,25.691 C 12.369,-34.187 11.167,-14.345 0,0"
             style="fill:#9170b0;fill-opacity:1;fill-rule:nonzero;stroke:none"
             id="path58" /></g><g
           id="g60"><g
             id="g62" /><g
             id="g82"><g
               clip-path="url(#clipPath66)"
               opacity="0.5"
               id="g80"><g
                 transform="translate(424.1825,467.0099)"
                 id="g70"><path
                   d="m 0,0 c 0.5,-2.99 1.139,-5.962 1.928,-8.911 0.2,0.373 0.402,0.741 0.601,1.115 C 1.545,-5.336 0.689,-2.749 0,0"
                   style="fill:#9170b0;fill-opacity:1;fill-rule:nonzero;stroke:none"
                   id="path68" /></g><g
                 transform="translate(691.9774,510.8214)"
                 id="g74"><path
                   d="m 0,0 c -10.549,-6.95 -14.488,-9.878 -24.681,-16.653 -35.661,-23.707 -69.988,-65.709 -145.232,-71.894 -8.093,-0.665 -16.018,-0.926 -23.658,-0.724 -1.935,-2.555 -4.628,-4.294 -6.573,-6.916 -2.384,-3.211 -4.198,-6.797 -6.653,-9.959 -1.738,-2.239 -3.829,-4.567 -6.147,-6.698 45.185,-17.743 104.079,6.276 147.908,38.985 30.91,23.066 40.012,33.484 65.036,51.84 C -0.578,-19.228 1.807,-0.523 0,0"
                   style="fill:#9170b0;fill-opacity:1;fill-rule:nonzero;stroke:none"
                   id="path72" /></g><g
                 transform="translate(771.3875,541.215)"
                 id="g78"><path
                   d="m 0,0 c 0.186,-2.243 0.332,-4.528 0.437,-6.856 18.941,4.65 35.428,1.619 47.317,-2.682 11.642,-4.211 20.901,-13.233 25.406,-24.765 l 4.235,-10.838 C 77.395,-10.198 40.118,10.602 7.584,8.527 4.793,8.349 1.998,8.006 -0.799,7.545 -0.635,6.245 -0.48,4.936 -0.343,3.607 -0.219,2.414 -0.101,1.217 0,0"
                   style="fill:#9170b0;fill-opacity:1;fill-rule:nonzero;stroke:none"
                   id="path76" /></g></g></g></g><g
           id="g84"><g
             id="g86" /><g
             id="g98"><g
               clip-path="url(#clipPath90)"
               opacity="0.600006"
               id="g96"><g
                 transform="translate(1019.0491,243.9581)"
                 id="g94"><path
                   d="m 0,0 c -0.343,50.162 -75.415,63.39 -127.467,60.297 -52.052,-3.092 -120.596,-23.192 -152.548,19.584 -31.953,42.775 34.339,100.501 32.983,203.57 -1.03,78.335 -47.6,116.215 -51.751,119.45 -16.599,12.935 -51.479,63.308 -54.894,75.987 -0.971,3.603 -1.743,10.323 -2.054,14.446 -4.939,-15.59 -6.728,-34.071 -0.945,-51.028 14.504,-42.528 56.819,-56.555 76.145,-109.896 19.326,-53.34 9.823,-99.074 -7.972,-159.309 -17.796,-60.237 -19.098,-79.047 6.42,-109.196 25.517,-30.149 85.557,-21.989 125.068,-15.804 39.512,6.184 76.962,7.816 114.583,-8.676 C -4.81,22.934 -4.938,3.221 -4.037,-4.51 -3.21,-11.595 -6.378,-26.525 -12.572,-34.795 -5.213,-26.875 0.108,-15.714 0,0"
                   style="fill:#6d4096;fill-opacity:1;fill-rule:nonzero;stroke:none"
                   id="path92" /></g></g></g></g></g></g><g
       id="g100"><g
         id="g102"
         clip-path="url(#clipPath106)"><g
           id="g108"><g
             id="g110" /><g
             id="g136"
             mask="url(#mask124)"><g
               id="g138"><path
                 d="m 637.926,1038.957 c -41.005,-14.22 -63.354,-34.025 -80.588,-50.019 v 0 C 545.336,977.8 531.719,958.8 524.556,948.287 v 0 c 25.14,33.954 94.326,83.144 174,63.05 v 0 c 85.83,-21.645 106.531,-80.104 99.573,-116.644 v 0 c -7.839,-41.168 -38.412,-68.399 -65.966,-90.017 v 0 c -44.436,-34.863 -54.136,-62.45 -44.086,-85.357 v 0 c 10.049,-22.909 30.218,-33.566 51.858,-33.059 v 0 c -11.531,7.419 -14.537,8.452 -19.669,17.211 v 0 c -5.132,8.761 -9.354,22.626 1.572,41.73 v 0 c 10.926,19.105 37.379,33.853 56.319,44.259 v 0 c 18.942,10.405 45.165,35.656 55.851,57.992 v 0 c 10.685,22.334 27.039,59.986 14.821,106.954 v 0 c -12.22,46.968 -52.761,64.346 -79.818,80.137 v 0 c -15.15,8.841 -41.582,13.624 -69.106,13.625 v 0 c -21.631,0 -43.934,-2.953 -61.979,-9.211 M 519.535,940.732 c 0,0 1.897,2.971 5.021,7.555 v 0 c -1.943,-2.623 -3.62,-5.152 -5.021,-7.555"
                 style="fill:url(#radialGradient146);stroke:none"
                 id="path148" /></g></g></g></g></g><g
       id="g150"><g
         id="g152"
         clip-path="url(#clipPath156)"><g
           id="g158"><g
             id="g160" /><g
             id="g192"><g
               clip-path="url(#clipPath164)"
               opacity="0.300003"
               id="g190"><g
                 id="g188"><g
                   clip-path="url(#clipPath168)"
                   id="g186"><g
                     id="g184"><g
                       id="g182"><path
                         d="m 457.473,766.018 c 0,0 6.009,9.497 11.722,35.351 5.714,25.854 29.07,91.255 37.019,109.297 7.948,18.041 27.613,37.282 46.212,29.036 18.598,-8.246 13.445,-38.781 26.844,-42.582 13.4,-3.801 30.089,4.788 42.015,14.065 11.927,9.277 29.793,31.953 66.212,28.517 36.419,-3.436 42.947,-27.744 47.07,-48.702 4.123,-20.958 -8.245,-48.273 -21.645,-60.899 -13.4,-12.627 -47.075,-27.487 -63.564,-67.17 -16.49,-39.683 -22.975,-86.581 5.779,-129.357 28.752,-42.775 64.399,-69.003 65.129,-124.948 0.73,-55.945 -27.71,-102.589 -30.042,-144.317 -2.331,-41.73 6.088,-80.598 29.252,-92.1 -32.754,17.358 -38.094,34.851 -46.117,56.962 -8.023,22.111 -3.021,61.518 4.786,91.74 7.806,30.224 27.86,91.133 1.857,136.309 -26.004,45.175 -71.663,29.736 -80.019,21.351 -12.08,-12.123 -18.489,-23.797 -36.806,-64.509 -13.626,-30.287 -38.407,-58.546 -59.794,-85.474 -7.088,-8.924 -15.243,-17.201 -21.066,-25.283 -22.998,-31.923 -47.163,-60.011 -47.836,-94.669 -14.201,9.019 -8.962,34.444 2.548,59.137 11.593,24.87 49.26,68.248 67.771,119.179 26.191,72.066 18.124,135.7 9.191,174.831 -8.934,39.132 -27.143,90.326 -56.003,46.004 -28.861,-44.321 -74.495,-70.685 -147.192,-94.094 -72.698,-23.41 -92.282,-58.197 -91.509,-93.5 0.773,-35.301 10.687,-72.96 25.185,-92.01 -20.031,27.433 -33.173,51.554 -36.781,80.415 -3.607,28.86 3.924,58.059 22.963,79.407 19.04,21.348 54.061,34.534 89.051,49.878 34.991,15.344 60.085,26.072 78.998,41.46 18.914,15.389 32.987,32.835 41.762,47.169 -31.952,-24.222 -65.967,-25.597 -95.514,-17.694 -29.548,7.902 -43.291,44.906 -35.389,76.91 7.902,32.004 16.23,60.768 12.911,77.336 1.751,-20.337 1.543,-49.37 0.329,-69.211 -1.215,-19.841 2.419,-46.64 24.824,-60.813 22.406,-14.173 43.439,-13.328 62.427,-6.535 18.988,6.793 26.875,14.705 26.875,14.705 10.323,9.524 16.424,17.844 20.545,24.808"
                         style="fill:url(#radialGradient178);stroke:none"
                         id="path180" /></g></g></g></g></g></g></g><g
           id="g194"><g
             id="g196" /><g
             id="g208"><g
               clip-path="url(#clipPath200)"
               opacity="0.600006"
               id="g206"><g
                 transform="translate(581.9329,199.0353)"
                 id="g204"><path
                   d="m 0,0 c -25.21,28.56 -51.966,41.658 -76.36,44.751 -24.394,3.092 -62.101,3.521 -80.139,13.571 -18.038,10.049 -38.223,34.701 -29.634,84.864 8.59,50.162 42.003,85.98 61.586,148.854 17.281,55.481 22.492,88.784 21.388,116.387 -0.451,11.274 -0.773,14.302 -1.031,17.351 -6.056,-25.768 -23.541,-102.308 -36.247,-134.168 -23.02,-57.72 -61.844,-94.483 -65.967,-149.112 -4.123,-54.629 26.112,-103.416 76.962,-102.386 49.464,1.003 65.116,-2.059 79.689,-9.659 0,0 4.598,-2.513 28.674,-20.325 24.076,-17.814 45.903,-56.082 45.903,-56.082 0,0 -7,25.761 -24.824,45.954"
                   style="fill:#6d4096;fill-opacity:1;fill-rule:nonzero;stroke:none"
                   id="path202" /></g></g></g></g><g
           id="g210"><g
             id="g212" /><g
             id="g224"><g
               clip-path="url(#clipPath216)"
               opacity="0.600006"
               id="g222"><g
                 transform="translate(161.7718,414.6495)"
                 id="g220"><path
                   d="m 0,0 c 0,0 5.721,-76.896 58.804,-87.976 53.082,-11.08 83.231,24.222 72.924,58.752 -10.307,34.53 -62.96,91.821 -46.125,142.67 16.835,50.85 66.31,57.034 115.785,62.188 49.475,5.154 91.224,57.687 91.224,57.687 0,0 -12.425,-34.991 -16.126,-47.975 -3.701,-12.985 -5.695,-21.103 -5.695,-21.103 0,0 -37.278,-17.727 -60.212,-21.077 -22.934,-3.35 -61.586,-1.288 -78.078,-12.369 -16.492,-11.08 -27.78,-24.549 -25.873,-48.35 1.909,-23.801 29.334,-61.296 35.857,-75.706 6.523,-14.41 18.475,-47.086 8.369,-76.699 -10.107,-29.613 -40.006,-31.808 -57.783,-34.704 C 75.295,-107.56 34.037,-96.408 21.854,-78.32 9.672,-60.231 1.873,-36.633 0.771,-24.984 -0.331,-13.336 0,0 0,0"
                   style="fill:#6d4096;fill-opacity:1;fill-rule:nonzero;stroke:none"
                   id="path218" /></g></g></g></g><g
           id="g226"><g
             id="g228" /><g
             id="g240"><g
               clip-path="url(#clipPath232)"
               opacity="0.600006"
               id="g238"><g
                 transform="translate(999.8089,560.5646)"
                 id="g236"><path
                   d="m 0,0 c 0,0 -7.902,-27.521 -36.763,-28.964 -28.86,-1.443 -61.843,11.613 -55.659,53.186 6.184,41.573 43.978,50.162 42.603,93.453 -1.374,43.291 -39.511,54.972 -70.433,42.603 -30.922,-12.368 -62.874,-69.402 -99.638,-75.243 -36.762,-5.841 -87.252,31.468 -87.252,31.468 0,0 33.655,-37.652 40.183,-46.07 6.527,-8.417 20.442,-28.689 20.442,-28.689 0,0 33.499,3.093 56.003,21.646 22.505,18.552 53.448,60.239 62.134,66.689 8.686,6.449 26.982,17.53 38.32,12.892 11.338,-4.639 21.774,-15.203 12.884,-45.353 -8.89,-30.148 -21.462,-32.649 -27.674,-65.671 -6.212,-33.021 10.882,-60.802 37.337,-67.848 26.455,-7.046 45.635,-1.736 54.684,6.517 C -3.779,-21.131 0,-8.59 0,0"
                   style="fill:#6d4096;fill-opacity:1;fill-rule:nonzero;stroke:none"
                   id="path234" /></g></g></g></g><g
           id="g242"
           transform="translate(596.7933,851.3253)"><path
             d="m 0,0 c 0,0 5.399,-14.238 16.829,-19.363 11.43,-5.125 29.516,-6.906 42.26,-0.988 12.745,5.917 29.484,15.031 32.935,15.996 1.997,6.118 4.361,20.109 -0.799,32.359 -5.16,12.25 -18.989,19.535 -18.989,19.535 0,0 -10.199,-0.556 -17.93,-6.401 C 46.576,35.294 37.557,23.62 32.725,18.055 27.894,12.489 18.295,4.694 11.273,1.988 4.251,-0.717 0,0 0,0"
             style="fill:#ffffff;fill-opacity:1;fill-rule:nonzero;stroke:none"
             id="path244" /></g><g
           id="g246"
           transform="translate(531.178,882.3273)"><path
             d="m 0,0 c 0,0 -8.54,-8.537 -10.652,-16.596 -2.112,-8.059 0.078,-13.814 2.269,-17.507 2.19,-3.693 4.767,-5.497 4.767,-5.497 0,0 8.498,0.225 15.286,4.128 6.788,3.903 9.578,10.044 9.578,10.044 z"
             style="fill:#ffffff;fill-opacity:1;fill-rule:nonzero;stroke:none"
             id="path248" /></g><g
           id="g250"
           transform="translate(1035.6176,950.7662)"><path
             d="m 0,0 c -2.822,-8.758 -10.548,-19.319 -23.431,-22.619 3.727,3.72 9.273,10.388 11.552,18.909 1.776,6.644 0.356,13.4 -3.897,18.536 -4.591,5.541 -11.883,8.509 -19.536,7.946 -15.975,-1.185 -31.796,-11.576 -44.549,-29.259 -14.914,-20.676 -16.478,-62.403 -3.986,-106.306 10.139,-35.631 10.728,-75.255 10.682,-86.137 -11.334,9.451 -25.608,15.266 -41.477,16.096 -2.685,0.139 -5.229,0.219 -7.671,0.251 0.85,5.649 5.12,37.099 -0.143,67.305 -5.739,32.947 -2.103,66.097 10.241,93.343 10.415,22.99 33.951,51.768 61.017,60.628 13.342,4.37 25.877,3.337 37.255,-3.067 C 0.338,27.589 5.029,15.603 0,0 m -49.738,-249.935 c 3.655,-35.677 -17.669,-64.34 -27.918,-78.115 -0.592,-0.796 -1.148,-1.543 -1.662,-2.242 -3.063,-4.162 -7.263,-8.634 -11.709,-13.371 -9.138,-9.732 -19.496,-20.763 -21.746,-31.617 -3.218,-15.509 3.637,-26.737 19.302,-31.617 8.05,-2.508 39.506,-7.092 55.863,12.42 -3.611,-26.47 -22.646,-32.46 -38.418,-32.69 l -0.114,-0.002 c -21.915,-0.314 -36.857,6.427 -45.545,12.148 -19.567,12.881 -20.697,44.05 -16.814,60.67 2.856,12.226 8.893,24.069 15.283,36.608 3.149,6.18 6.405,12.57 9.479,19.367 0.088,0.193 0.163,0.39 0.249,0.584 0.002,0.005 0.003,0.011 0.006,0.016 6.153,13.997 6.882,29.804 1.813,40.441 -2.924,6.137 -7.626,10.21 -13.596,11.776 -1.846,0.484 -3.704,0.74 -5.563,0.821 -0.021,0.008 -0.039,0.02 -0.06,0.027 -0.281,0.089 -0.568,0.081 -0.829,-0.003 -19.092,0.222 -38.051,-18.79 -43.863,-25.177 -4.468,-4.91 -10.866,-12.285 -17.639,-20.094 -11.028,-12.713 -22.431,-25.859 -26.92,-30.006 -3.856,-3.561 -17.885,-15.658 -36.544,-21.803 -13.402,-4.414 -22.488,-4.998 -24.973,-5.07 -1.496,2.639 -3.099,5.217 -4.77,7.724 -3.196,4.802 -6.605,9.436 -10.114,13.986 -7.089,9.041 -14.525,17.787 -22.256,26.263 -3.865,4.233 -7.824,8.401 -11.807,12.509 -3.936,4.076 -7.633,8.408 -11.165,12.874 -7.046,8.947 -13.495,18.399 -19.333,28.203 -1.461,2.449 -2.906,4.912 -4.24,7.43 -1.338,2.516 -2.631,5.052 -3.631,7.712 -1.015,2.656 -1.802,5.399 -2.38,8.19 -0.563,2.791 -0.957,5.636 -0.948,8.499 -0.237,-5.73 0.809,-11.484 2.652,-16.933 0.918,-2.735 2.139,-5.355 3.395,-7.935 1.254,-2.586 2.618,-5.112 4,-7.627 5.635,-10 11.921,-19.627 18.833,-28.818 3.46,-4.591 7.11,-9.057 11.095,-13.244 3.937,-4.152 7.815,-8.326 11.618,-12.588 7.629,-8.493 15.021,-17.204 22.014,-26.207 5.44,-7.062 10.733,-14.246 15.08,-21.951 0.019,-0.043 0.029,-0.089 0.053,-0.13 0.023,-0.041 0.801,-1.42 1.931,-3.562 0.484,-0.948 0.968,-1.897 1.418,-2.863 3.15,-6.576 5.868,-13.377 8.178,-20.311 1.953,-6.626 3.45,-13.007 4.577,-19.151 -0.03,-0.184 -0.025,-0.375 0.026,-0.566 0.029,-0.11 0.074,-0.211 0.127,-0.307 5.683,-31.872 1.345,-57.296 -2.022,-76.935 -4.471,-26.08 -17.359,-60.774 -26.77,-86.108 -3.423,-9.214 -6.38,-17.171 -8.059,-22.452 -7.207,-22.657 -0.329,-44.117 18.868,-58.876 11.434,-8.791 26.741,-13.837 45.493,-14.999 15.584,-0.965 43.094,1.64 69.701,4.159 6.998,0.663 13.607,1.289 19.991,1.849 31.788,2.792 57.301,1.973 93.664,-10.481 16.015,-5.486 23.775,-13.373 29.774,-21.079 11.216,-14.409 11.794,-33.606 1.628,-54.054 -7.682,-15.451 -29.698,-21.756 -40.251,-23.941 9.797,7.501 16.264,16.507 18.817,26.274 2.182,8.35 0.8,17.139 -3.894,24.749 -6.319,10.246 -17.758,17.584 -32.21,20.663 -21.416,4.562 -48.186,1.836 -69.697,-0.356 l -2.894,-0.295 c -5.339,-0.547 -10.859,-1.112 -16.135,-1.581 l -0.328,-0.03 c -29.055,-2.587 -68.849,-6.129 -94.37,-2.726 -26.552,3.541 -48.23,11.321 -64.433,23.124 -18.448,13.44 -27.502,35.822 -31.848,52.23 -5.233,19.751 -0.972,56.743 2.471,72.158 1.392,6.231 3.421,13.39 5.568,20.97 3.287,11.602 7.014,24.752 9.211,37.404 0.834,4.807 2.097,13.384 2.689,23.898 0.065,0.207 0.073,0.426 0.036,0.64 1.175,22.069 -0.669,52.394 -15.509,74.426 -7.931,11.776 -22.343,27.214 -55.661,25.312 -30.302,-1.728 -46.296,-40.679 -56.881,-66.453 -0.963,-2.346 -1.873,-4.563 -2.737,-6.607 -9.799,-23.184 -35.988,-55.394 -36.251,-55.717 -0.027,-0.033 -0.052,-0.067 -0.076,-0.102 -0.079,-0.117 -8.043,-11.921 -21.324,-27.712 l -2.687,-3.189 c -20.253,-24.047 -47.991,-56.979 -62.106,-88.111 -3.743,-8.253 -9.314,-29.953 -5.893,-45.091 3.934,-17.42 18.951,-26.286 31.694,-28.774 8.773,-1.714 53.538,-10.77 73.282,-20.8 7.628,-3.876 14.551,-7.927 20.02,-11.715 7.284,-5.045 25.337,-18.554 35.591,-34.998 7.055,-11.312 10.369,-31.762 11.656,-42.127 -5.415,9.12 -16.841,27.142 -28.636,38.175 -16.95,15.858 -26.408,23.274 -38.924,30.521 l -1.005,0.583 c -2.263,1.315 -4.402,2.556 -6.133,3.383 -6.679,3.185 -17.419,5.871 -33.799,8.45 -9.258,1.458 -18.593,1.758 -28.777,1.758 -3.43,0 -6.958,-0.035 -10.61,-0.07 -3.162,-0.03 -6.435,-0.061 -9.841,-0.074 h -0.184 c -17.032,0 -34.544,8.425 -49.325,23.737 -13.553,14.038 -20.76,34.561 -22.683,64.584 -1.877,29.319 13.523,61.179 19.321,73.173 l 0.548,1.134 c 5.219,10.834 31.24,55.077 31.503,55.522 0.075,0.128 0.121,0.267 0.151,0.409 1.188,2.062 2.298,4.192 3.341,6.303 0.657,1.315 1.276,2.644 1.915,3.965 l 1.838,3.995 c 2.405,5.345 4.65,10.754 6.795,16.201 4.241,10.914 8.057,21.988 11.395,33.205 0.835,2.804 1.656,5.612 2.417,8.437 l 1.164,4.231 1.091,4.25 c 1.492,5.662 2.735,11.354 4.087,17.036 l 7.971,34.098 c 2.56,11.39 5.211,22.756 7.69,34.161 -3.077,-11.263 -5.985,-22.566 -8.982,-33.846 l -8.705,-33.907 c -5.547,-22.67 -12.099,-45.015 -20.666,-66.671 -2.117,-5.416 -4.322,-10.798 -6.689,-16.105 -1.799,-3.996 -3.643,-7.977 -5.69,-11.819 -0.779,3.382 -2.094,11.389 -3.614,30.137 -2.575,31.747 10.361,85.43 10.491,85.968 0.041,0.168 0.038,0.336 0.016,0.501 0.322,1.409 0.655,2.815 1.023,4.206 1.085,4.106 2.336,8.225 3.51,12.355 l 3.452,12.417 c 1.163,4.09 2.455,8.16 3.81,12.22 2.685,8.129 5.615,16.191 8.519,24.262 l 17.857,48.308 c -6.956,-15.707 -13.598,-31.551 -19.842,-47.56 -3.145,-7.997 -6.133,-16.055 -8.975,-24.183 -1.424,-4.062 -2.721,-8.178 -3.935,-12.337 l -3.508,-12.379 c -1.155,-4.133 -2.378,-8.236 -3.468,-12.436 -0.349,-1.36 -0.666,-2.722 -0.974,-4.086 -3.984,-1.746 -25.751,-11.222 -36.885,-14.652 -12.082,-3.722 -27.118,-8.354 -52.541,-9.372 -25.545,-1.024 -39.617,-1.588 -58.694,-17.241 -19.097,-15.669 -17.89,-35.501 -14.707,-51.029 2.288,-11.151 17.039,-36.297 27.81,-54.657 4.017,-6.847 7.487,-12.76 9.409,-16.427 5.025,-9.58 14.186,-44.496 5.996,-70.088 -3.678,-11.49 -10.384,-19.766 -19.935,-24.597 -28.502,-14.416 -57.68,-14.153 -89.203,0.802 -19.97,9.476 -33.585,38.574 -37.784,61.599 -2.277,12.487 -2.534,20.492 -2.331,25.077 4.412,-10.644 15.022,-35.722 21.333,-46.29 7.726,-12.936 23.336,-26.174 40.789,-26.582 16.03,-0.388 37.602,4.937 45.53,21.153 7.915,16.188 -5.615,40.577 -13.699,55.148 -1.992,3.591 -5.326,8.349 -9.188,13.858 -12.375,17.657 -31.076,44.338 -37.471,76.122 -8.351,41.5 9.922,69.853 24.394,87.57 12.56,15.377 45.03,29.073 79.408,43.574 14.093,5.945 28.665,12.092 42.894,18.735 2.816,1.315 5.505,2.614 8.086,3.899 0.085,0.003 0.171,0.002 0.257,0.005 0.491,0.018 0.909,0.298 1.134,0.697 38.888,19.613 51.526,36.177 68.526,58.484 1.516,1.991 3.068,4.027 4.676,6.116 2.46,3.194 4.852,6.783 7.108,10.668 7.83,13.474 13.529,29.576 17.968,44.883 0.006,0.014 0.011,0.028 0.017,0.041 0.038,0.094 0.063,0.189 0.078,0.284 2.74,9.476 4.999,18.639 6.977,26.67 1.312,5.328 2.551,10.361 3.721,14.629 5.995,21.886 23.265,75.104 45.709,119.877 21.252,42.396 69.283,80.041 105.746,95.316 33.297,13.949 106.719,26.333 170.68,-15.74 64.039,-42.125 58.446,-99.987 48.667,-139.845 -10.986,-44.784 -54.102,-78.021 -62.634,-84.229 -2.216,-1.613 -5.933,-3.807 -10.639,-6.587 -15.098,-8.916 -40.367,-23.839 -51.84,-41.721 -8.976,-13.992 -9.2,-33.978 -0.52,-46.49 8.042,-11.596 22.471,-15.825 40.617,-11.909 37.68,8.132 63.467,30.526 82.295,46.877 4.023,3.494 7.823,6.795 11.388,9.662 19.899,16.011 32.19,22.842 66.319,21.06 34.6,-1.807 61.348,-28.279 65.046,-64.377 m -124.531,-22.571 c 0.239,0.265 0.477,0.527 0.706,0.779 10.8,11.867 26.179,23.381 40.089,24.221 -1.644,-3.104 -5.973,-9.53 -15.931,-15.85 -9.84,-6.247 -19.808,-8.413 -24.864,-9.15 m -6.072,-64.8 c -35.911,-13.736 -67.617,-10.618 -80.112,-8.506 1.479,0.427 3.017,0.898 4.624,1.428 18.656,6.144 32.468,17.705 37.54,22.389 4.6,4.25 16.054,17.453 27.13,30.223 5.17,5.96 10.117,11.663 14.15,16.204 2.839,0.2 15.896,1.549 29.066,9.909 11.998,7.617 16.283,15.364 17.518,18.161 1.515,-0.087 3.007,-0.315 4.467,-0.699 5.17,-1.356 9.26,-4.922 11.828,-10.311 4.719,-9.905 4.005,-24.727 -1.766,-37.979 -1.475,-1.819 -19.981,-23.811 -64.445,-40.819 m -76.123,-57.778 c 7.084,0.484 21.692,0.354 39.979,-5.92 3.204,-1.1 14.268,-5.473 22.109,-15.588 7.157,-9.233 9.538,-20.471 7.149,-33.48 -1.597,7.519 -6.518,18.642 -21.004,28.45 -1.417,0.96 -7.422,4.406 -25.167,8.432 -12.218,2.773 -24.682,-0.191 -28.816,-1.364 -0.402,5.908 -1.12,12.076 -2.236,18.505 1.468,0.28 4.15,0.704 7.986,0.965 m -249.512,-95.577 c 5.368,6.755 26.688,34.208 35.398,54.816 0.866,2.052 1.781,4.277 2.747,6.632 10.325,25.141 25.927,63.137 54.513,64.766 31.6,1.799 45.046,-11.94 53.244,-24.112 5.936,-8.814 9.729,-19.022 12.06,-29.493 -4.877,-2.656 -27.814,-15.392 -39.538,-26.185 -12.295,-11.317 -43.729,-31.42 -61.53,-37.879 -18.445,-6.691 -28.65,-9.738 -40.357,-10.101 -8.373,-0.262 -13.955,0.863 -16.537,1.556 m 160.504,29.226 c -26.713,-21.884 -53.611,-43.167 -75.741,-59.931 -36.789,-27.868 -83.581,-35.807 -103.183,-36.112 -13.398,-0.211 -25.892,4.217 -30.228,5.94 8.07,10.213 16.143,19.801 23.282,28.277 l 2.686,3.191 c 11.325,13.464 18.821,24.066 20.908,27.081 2.036,-0.639 7.345,-1.995 15.838,-1.995 0.822,0 1.675,0.013 2.557,0.04 12.079,0.376 22.472,3.471 41.202,10.265 18.072,6.556 49.974,26.956 62.445,38.436 10.997,10.123 32.243,22.089 38.279,25.403 2.769,-14.009 3.044,-28.305 2.42,-40.214 z m -377.176,182.543 c -38.403,21.188 -50.573,66.381 -36.173,134.322 l 0.661,3.119 c 4.927,23.211 9.58,45.134 9.827,63.304 0.283,20.748 -5.218,33.757 -17.31,40.94 -20.938,12.438 -41.193,-0.852 -49.031,-7.243 2.88,8.584 12.819,27.132 44.919,25.582 45.806,-2.221 54.9,-58.065 56.684,-81.972 0.703,-9.429 0.189,-20.199 -0.356,-31.602 -1.416,-29.614 -3.02,-63.18 17.833,-81.163 13.704,-11.818 30.217,-17.582 47.763,-16.66 16.465,0.863 33.575,7.542 49.524,19.307 0.161,0.034 0.319,0.086 0.463,0.18 0.452,0.294 9.47,6.236 16.348,15.504 -2.941,-7.617 -6.303,-14.996 -10.194,-21.692 -2.198,-3.784 -4.523,-7.274 -6.912,-10.374 -1.611,-2.093 -3.166,-4.132 -4.685,-6.126 -16.895,-22.172 -29.416,-38.594 -68.421,-58.126 -17.374,-0.487 -34.974,3.891 -50.94,12.7 m 111.1,84.438 c -3.809,5.587 -36.781,56.754 -21.779,131.93 8.906,44.627 19.55,79.35 31.636,103.205 8.801,17.37 18.149,28.682 27.785,33.621 4.002,2.052 7.322,2.602 9.731,2.602 0.904,0 1.68,-0.077 2.316,-0.182 -11.537,-11.809 -20.204,-26.255 -25.134,-41.92 -6.422,-20.411 -14.361,-52.976 -15.706,-92.203 -1.252,-36.483 7.473,-62.8 15.013,-78.452 7.152,-14.848 14.46,-23.031 16.447,-25.111 -0.31,-1.708 -1.249,-6.485 -2.954,-12.186 -6.276,-15.318 -14.508,-26.973 -24.483,-34.67 -2.373,1.934 -8.848,7.464 -12.872,13.366 M -12.606,38.003 c -12.071,6.794 -25.342,7.897 -39.441,3.282 -27.848,-9.117 -51.998,-38.579 -62.652,-62.094 -12.568,-27.74 -16.276,-61.457 -10.443,-94.937 5.337,-30.638 0.723,-62.629 0.072,-66.825 -27.37,-0.115 -39.865,-7.537 -57.743,-21.922 -3.604,-2.9 -7.423,-6.216 -11.467,-9.728 -19.64,-17.058 -44.085,-38.285 -81.081,-46.27 -21.792,-4.702 -32.585,3.277 -37.802,10.798 -8.088,11.659 -7.84,30.344 0.576,43.462 11.122,17.337 36.042,32.053 50.931,40.846 4.769,2.816 8.535,5.041 10.857,6.73 8.666,6.306 52.465,40.077 63.679,85.784 9.974,40.662 15.662,99.699 -49.819,142.773 -64.919,42.704 -139.439,30.136 -173.232,15.977 -36.926,-15.469 -85.58,-53.62 -107.13,-96.609 -22.54,-44.963 -39.881,-98.403 -45.901,-120.378 -1.179,-4.303 -2.423,-9.352 -3.739,-14.698 -0.96,-3.901 -1.988,-8.07 -3.104,-12.412 -6.007,6.76 -32.022,39.698 -29.929,100.724 1.335,38.92 9.21,71.228 15.582,91.477 5.029,15.98 14.053,30.658 26.097,42.449 0.319,0.313 0.465,0.761 0.391,1.202 -0.075,0.44 -0.36,0.816 -0.764,1.007 -0.268,0.125 -6.679,3.032 -16.292,-1.815 -16.911,-8.526 -41.227,-39.53 -61.041,-138.817 -15.221,-76.267 18.325,-128.315 22.2,-133.999 3.988,-5.849 10.055,-11.184 12.863,-13.506 -32.487,-23.464 -67.092,-24.279 -92.875,-2.044 -19.847,17.116 -18.276,49.976 -16.891,78.968 0.55,11.489 1.068,22.34 0.352,31.936 -1.837,24.629 -11.292,82.165 -59.272,84.491 -43.244,2.112 -48.777,-31.741 -48.828,-32.083 -0.087,-0.585 0.214,-1.16 0.744,-1.422 0.531,-0.262 1.171,-0.152 1.583,0.272 0.24,0.248 24.309,24.549 49.088,9.827 24.615,-14.622 16.086,-54.805 6.209,-101.333 l -0.662,-3.12 c -6.352,-29.976 -7.673,-54.798 -4.035,-75.886 4.864,-28.204 18.847,-48.859 41.559,-61.39 14.665,-8.09 30.675,-12.545 46.676,-13.038 -0.985,-0.471 -1.967,-0.94 -2.984,-1.416 -14.183,-6.622 -28.731,-12.759 -42.8,-18.693 -36.204,-15.272 -67.472,-28.46 -80.461,-44.363 -8.539,-10.454 -34.525,-42.269 -24.955,-89.832 6.508,-32.343 25.407,-59.307 37.911,-77.149 3.819,-5.447 7.115,-10.15 9.038,-13.615 7.312,-13.182 20.923,-37.717 13.633,-52.629 -7.362,-15.057 -27.764,-19.985 -43.016,-19.624 -16.326,0.383 -31.407,13.359 -38.511,25.254 -7.839,13.127 -22.994,50.406 -23.147,50.781 -0.217,0.536 -0.718,0.884 -1.329,0.849 -0.579,-0.028 -1.077,-0.418 -1.241,-0.973 -0.102,-0.343 -2.445,-8.652 1.691,-31.331 4.318,-23.689 18.459,-53.687 39.298,-63.573 32.333,-15.342 62.298,-15.595 91.601,-0.772 10.228,5.172 17.394,13.987 21.302,26.199 8.552,26.72 -0.826,61.983 -6.178,72.186 -1.953,3.724 -5.437,9.663 -9.471,16.54 -10.675,18.195 -25.295,43.116 -27.491,53.825 -3.219,15.694 -4.1,33.714 13.765,48.372 18.37,15.074 32.116,15.624 57.159,16.628 25.692,1.029 40.916,5.719 53.148,9.487 10.07,3.103 28.625,11.042 35.328,13.956 -2.58,-11.317 -12.217,-56.088 -9.939,-84.172 1.881,-23.202 3.471,-30.627 4.491,-33.103 -3.327,-5.66 -26.254,-44.739 -31.243,-55.097 l -0.546,-1.13 c -5.883,-12.171 -21.509,-44.499 -19.587,-74.534 1.967,-30.706 9.416,-51.774 23.443,-66.304 15.301,-15.85 33.507,-24.571 51.287,-24.571 0.065,0 0.129,10e-4 0.193,10e-4 3.413,0.012 6.69,0.043 9.859,0.075 14.374,0.139 26.783,0.258 38.936,-1.657 16.112,-2.536 26.614,-5.148 33.049,-8.217 1.631,-0.778 3.723,-1.993 5.938,-3.28 l 1.007,-0.584 c 12.313,-7.13 21.65,-14.456 38.428,-30.152 15.631,-14.622 31.19,-42.839 31.345,-43.122 0.244,-0.445 0.709,-0.708 1.196,-0.708 0.13,0 0.26,0.018 0.39,0.057 0.615,0.183 1.019,0.771 0.969,1.412 -0.105,1.367 -2.718,33.672 -12.743,49.748 -10.524,16.875 -28.928,30.655 -36.352,35.797 -5.569,3.856 -12.601,7.972 -20.337,11.904 -19.563,9.938 -61.582,18.62 -73.996,21.044 -11.897,2.324 -25.911,10.558 -29.557,26.699 -3.277,14.507 2.107,35.401 5.718,43.364 8.655,19.09 22.552,38.938 36.668,56.968 3.608,-1.508 16.519,-6.439 31.044,-6.439 0.327,0 0.657,0.002 0.985,0.006 19.912,0.311 67.436,8.373 104.787,36.666 21.746,16.472 48.087,37.303 74.334,58.779 -0.636,-9.086 -1.735,-16.467 -2.482,-20.772 -2.173,-12.512 -5.878,-25.59 -9.147,-37.127 -2.159,-7.618 -4.197,-14.813 -5.606,-21.119 -3.139,-14.053 -8.114,-52.058 -2.447,-73.451 4.46,-16.836 13.784,-39.824 32.88,-53.736 16.574,-12.074 38.671,-20.022 65.678,-23.623 25.821,-3.443 65.789,0.116 94.972,2.713 l 0.327,0.029 c 5.295,0.472 10.825,1.037 16.172,1.585 l 2.894,0.295 c 21.32,2.172 47.854,4.873 68.851,0.401 13.716,-2.922 24.533,-9.82 30.457,-19.427 4.36,-7.071 5.598,-14.895 3.577,-22.627 -2.733,-10.455 -10.314,-20.036 -21.927,-27.707 -0.805,-0.532 -1.565,-1.034 -1.206,-2.061 0.207,-0.59 0.803,-0.968 1.42,-0.912 0.367,0.032 37.18,4.224 48.226,26.442 10.505,21.129 9.806,41.884 -1.917,56.943 -5.958,7.655 -14.306,16.252 -31.041,21.985 -36.822,12.611 -62.638,13.442 -94.786,10.618 -6.395,-0.562 -13.009,-1.188 -20.011,-1.851 -26.501,-2.509 -53.905,-5.102 -69.275,-4.152 -18.201,1.128 -33.004,5.986 -44,14.44 -24.963,19.192 -21.95,43.252 -17.931,55.887 1.659,5.217 4.605,13.147 8.015,22.328 9.449,25.434 22.39,60.267 26.903,86.597 2.587,15.089 5.743,33.554 4.587,55.716 2.626,0.778 15.687,4.304 28.049,1.498 13.729,-3.116 21.525,-6.192 24.241,-8.031 22.684,-15.359 20.541,-33.821 20.439,-34.596 -0.001,-0.008 0,-0.015 -0.001,-0.023 -0.005,-0.046 -0.004,-0.092 -0.005,-0.138 -0.001,-0.045 -0.004,-0.09 0,-0.135 0.003,-0.039 0.012,-0.077 0.019,-0.116 0.008,-0.049 0.014,-0.099 0.028,-0.147 0.01,-0.033 0.025,-0.064 0.037,-0.097 0.018,-0.049 0.035,-0.099 0.059,-0.146 0.016,-0.033 0.039,-0.062 0.058,-0.094 0.026,-0.043 0.05,-0.086 0.081,-0.125 0.025,-0.032 0.055,-0.059 0.082,-0.088 0.032,-0.035 0.062,-0.071 0.098,-0.102 0.029,-0.025 0.064,-0.047 0.096,-0.07 0.039,-0.03 0.078,-0.06 0.121,-0.084 0.032,-0.019 0.068,-0.032 0.102,-0.048 0.048,-0.023 0.095,-0.046 0.147,-0.063 0.006,-0.003 0.011,-0.006 0.018,-0.008 0.014,-0.004 0.028,-0.002 0.042,-0.006 0.061,-0.018 0.121,-0.036 0.185,-0.045 0.06,-0.008 0.119,-0.012 0.178,-0.012 0.002,0 0.004,-10e-4 0.006,-10e-4 0.157,0 0.308,0.032 0.453,0.083 0.05,0.018 0.091,0.047 0.138,0.07 0.089,0.043 0.176,0.089 0.254,0.152 0.047,0.038 0.085,0.082 0.127,0.126 0.063,0.065 0.121,0.133 0.171,0.211 0.035,0.056 0.062,0.116 0.089,0.177 0.021,0.046 0.052,0.084 0.068,0.133 14.07,44.47 -24.488,59.122 -28.93,60.647 -18.741,6.43 -33.764,6.559 -41.049,6.061 -3.948,-0.268 -6.714,-0.7 -8.283,-0.999 -1.465,7.746 -3.514,15.866 -6.306,24.372 -2.293,6.987 -6.795,15.639 -8.867,19.465 2.578,0.159 7.249,0.654 13.63,2.141 2.067,-0.505 13.219,-3.021 29.647,-3.021 15.519,0 35.745,2.246 57.462,10.553 32.521,12.439 51.155,27.236 59.794,35.487 -2.017,-4.157 -4.066,-8.198 -6.074,-12.138 -6.468,-12.691 -12.577,-24.679 -15.509,-37.226 -4.051,-17.337 -2.754,-49.926 17.97,-63.569 9.008,-5.93 24.453,-12.93 47.085,-12.597 l 0.113,0.002 c 14.533,0.212 39.255,5.64 41.54,39.601 0.007,0.119 0,0.236 -0.022,0.348 0.103,0.537 -0.124,1.106 -0.614,1.413 -0.636,0.399 -1.479,0.209 -1.88,-0.43 -16.151,-25.731 -55.313,-15.452 -55.696,-15.331 -10.005,3.116 -21.153,10.584 -17.445,28.459 2.096,10.101 12.173,20.834 21.065,30.305 4.503,4.797 8.758,9.327 11.917,13.62 0.512,0.696 1.065,1.439 1.654,2.231 10.454,14.051 32.206,43.29 28.443,80.02 -2.007,19.595 -10.579,36.448 -23.437,48.345 0.096,5.585 0.462,49.821 -10.762,89.267 -12.272,43.131 -10.869,83.939 3.575,103.963 12.273,17.019 27.381,27.011 42.54,28.135 6.763,0.504 13.204,-2.103 17.232,-6.967 3.737,-4.51 4.932,-10.225 3.363,-16.091 -3.257,-12.182 -14.113,-20.636 -14.222,-20.72 -0.485,-0.373 -0.662,-1.022 -0.435,-1.589 0.227,-0.567 0.805,-0.914 1.411,-0.848 16.973,1.835 26.96,14.79 30.356,25.327 6.828,21.187 -4.498,32.815 -15.202,38.839"
             style="fill:#000000;fill-opacity:1;fill-rule:nonzero;stroke:none"
             id="path252" /></g><g
           id="g254"
           transform="translate(541.8587,847.3986)"><path
             d="m 0,0 c -2.223,-1.091 -4.59,-1.871 -7.004,-2.424 -2.251,-0.536 -4.628,-0.83 -6.869,-0.911 -0.53,0.426 -1.095,0.953 -1.594,1.474 -0.609,0.644 -1.186,1.324 -1.701,2.048 -1.034,1.443 -1.918,2.994 -2.552,4.649 -0.345,0.819 -0.557,1.681 -0.801,2.534 -0.151,0.875 -0.358,1.74 -0.418,2.632 -0.229,1.773 -0.126,3.581 0.105,5.352 0.557,3.559 1.907,7.042 3.735,10.284 0.91,1.624 1.903,3.219 3.016,4.737 0.371,0.516 0.761,1.021 1.147,1.527 0.076,-0.099 0.15,-0.197 0.227,-0.285 0.259,-0.299 0.59,-0.755 0.885,-1.158 l 1.861,-2.628 c 1.256,-1.813 2.574,-3.655 3.963,-5.49 0.043,-0.057 0.089,-0.114 0.132,-0.172 -2.281,-1.681 -3.824,-4.867 -3.824,-8.528 0,-5.41 3.363,-9.795 7.511,-9.795 3.389,0 6.25,2.926 7.186,6.946 C 6.415,9.719 7.94,8.734 9.621,7.934 9.376,7.531 9.116,7.14 8.841,6.765 8.08,5.767 7.197,4.874 6.254,4.056 4.359,2.438 2.226,1.063 0,0 m 7.037,3.255 c 0.888,0.968 1.698,2.016 2.328,3.17 0.234,0.427 0.439,0.872 0.622,1.325 1.182,-0.527 2.462,-0.965 3.819,-1.11 1.344,-0.168 2.828,0.046 3.85,0.799 -1.247,0.237 -2.135,0.878 -2.92,1.558 -0.778,0.703 -1.465,1.493 -2.111,2.349 -1.298,1.687 -2.501,3.5 -3.708,5.347 -2.425,3.685 -4.875,7.475 -7.682,11.149 -1.402,1.837 -2.882,3.664 -4.536,5.429 -0.845,0.879 -1.679,1.769 -2.655,2.613 -0.914,0.836 -2.118,1.76 -3.391,2.501 -0.334,0.18 -0.669,0.357 -1.008,0.518 l -0.508,0.241 -0.557,0.191 -1.105,0.357 c -0.364,0.119 -0.782,0.143 -1.164,0.209 -0.768,0.142 -1.57,0.12 -2.34,0.076 -0.385,-0.025 -0.766,-0.126 -1.139,-0.193 -0.375,-0.066 -0.738,-0.155 -1.083,-0.303 -1.411,-0.481 -2.599,-1.28 -3.537,-2.222 -0.945,-0.932 -1.68,-2.014 -2.129,-3.192 2.297,0.928 4.539,1.375 6.312,1.017 0.88,-0.158 1.622,-0.451 2.273,-0.9 0.657,-0.392 1.237,-0.967 1.803,-1.566 0.077,-0.068 0.151,-0.147 0.223,-0.233 -1.873,-1.801 -3.585,-3.787 -5.074,-5.948 -2.224,-3.161 -3.924,-6.771 -4.759,-10.678 -0.342,-1.969 -0.532,-3.976 -0.36,-5.98 0.021,-1.008 0.245,-1.997 0.409,-2.991 0.258,-0.976 0.494,-1.96 0.871,-2.9 0.709,-1.889 1.656,-3.699 2.873,-5.307 1.233,-1.624 2.556,-3.053 4.307,-4.338 0.204,-0.149 0.456,-0.235 0.727,-0.229 h 0.015 c 1.414,0.029 2.687,0.201 4.006,0.418 1.304,0.223 2.599,0.497 3.871,0.859 2.552,0.689 5.006,1.742 7.305,3.05 2.273,1.367 4.38,2.956 6.152,4.914"
             style="fill:#000000;fill-opacity:1;fill-rule:nonzero;stroke:none"
             id="path256" /></g><g
           id="g258"
           transform="translate(686.9788,847.2247)"><path
             d="m 0,0 c -0.078,-0.025 -0.157,-0.047 -0.234,-0.072 -4.814,-1.67 -9.245,-3.966 -13.721,-6.191 -4.463,-2.293 -8.714,-4.724 -13.22,-6.573 -4.47,-1.898 -9.09,-3.392 -13.844,-4.25 -4.738,-0.932 -9.587,-1.276 -14.439,-1.157 -2.452,0.031 -4.785,0.213 -7.138,0.662 -2.335,0.45 -4.633,1.108 -6.854,1.988 -4.429,1.786 -8.54,4.454 -12.071,7.802 -1.787,1.654 -3.413,3.494 -4.888,5.457 -0.737,0.982 -1.428,2.002 -2.051,3.065 -0.315,0.529 -0.617,1.069 -0.881,1.626 -0.107,0.24 -0.218,0.482 -0.318,0.728 0.026,-0.006 0.051,-0.011 0.076,-0.018 0.666,-0.112 1.344,-0.223 2.024,-0.291 2.727,-0.262 5.519,-0.004 8.191,0.637 l 1.012,0.229 0.981,0.303 c 0.654,0.206 1.318,0.404 1.972,0.624 l 1.903,0.773 c 0.639,0.257 1.275,0.522 1.875,0.84 1.214,0.612 2.467,1.203 3.603,1.935 1.157,0.711 2.35,1.376 3.454,2.192 4.506,3.138 8.382,6.952 11.929,10.819 1.778,1.936 3.45,3.92 5.124,5.849 1.646,1.954 3.269,3.877 4.915,5.719 1.621,1.865 3.28,3.636 4.987,5.283 1.689,1.667 3.47,3.16 5.31,4.497 3.707,2.669 7.735,4.493 12.34,5.346 1.462,0.297 2.931,0.531 4.407,0.711 C -10.89,46.141 -3.351,40.761 0.432,29.843 5.409,15.483 1.247,3.139 0,0 M 7.194,1.55 C 5.864,1.44 4.548,1.213 3.247,0.912 c 1.722,5.12 4.365,16.542 -0.238,29.824 -3.247,9.371 -8.949,14.947 -13.724,18.156 1.702,0.04 3.409,-0.007 5.116,-0.162 4.765,-0.554 9.66,-1.85 13.848,-4.955 -1.335,2.265 -3.351,4.141 -5.565,5.676 -2.227,1.547 -4.723,2.71 -7.315,3.618 -5.22,1.691 -10.802,2.175 -16.228,1.82 -2.752,-0.141 -5.683,-0.661 -8.413,-1.572 -2.762,-0.882 -5.376,-2.178 -7.798,-3.682 -2.429,-1.505 -4.62,-3.28 -6.672,-5.115 -2.034,-1.86 -3.89,-3.83 -5.666,-5.805 C -56.419,30.742 -61.917,22.385 -69.017,15.904 -72.608,12.715 -76.47,9.677 -80.81,7.641 -82.965,6.562 -85.254,5.772 -87.651,5.308 -88.25,5.191 -88.855,5.135 -89.47,5.04 -90.078,5.011 -90.706,4.923 -91.324,4.948 -92.579,4.915 -93.84,5.044 -95.1,5.38 c 1.033,-0.815 2.281,-1.355 3.553,-1.788 0.555,-0.208 1.127,-0.321 1.703,-0.462 0.065,-0.297 0.155,-0.589 0.238,-0.877 0.186,-0.601 0.411,-1.189 0.653,-1.77 0.495,-1.157 1.073,-2.278 1.7,-3.373 1.263,-2.186 2.773,-4.232 4.446,-6.146 3.378,-3.795 7.527,-6.994 12.225,-9.163 4.659,-2.237 9.911,-3.28 15.001,-3.488 5.082,-0.227 10.212,0.1 15.242,1.033 5.02,0.979 9.918,2.575 14.545,4.677 4.623,2.114 8.98,4.701 13.199,7.238 2.108,1.231 4.322,2.45 6.452,3.669 2.149,1.214 4.317,2.363 6.55,3.344 2.224,1.002 4.534,1.792 6.927,2.285 C 9.724,1.045 12.206,1.207 14.691,1 12.267,1.583 9.722,1.773 7.194,1.55"
             style="fill:#000000;fill-opacity:1;fill-rule:nonzero;stroke:none"
             id="path260" /></g><g
           id="g262"
           transform="translate(615.7288,777.005)"><path
             d="m 0,0 c -1.533,1.09 -3.275,1.742 -4.999,2.19 -1.735,0.44 -3.496,0.596 -5.225,0.536 -1.728,-0.076 -3.434,-0.304 -5.062,-0.824 3.349,-0.528 6.556,-1.174 9.396,-2.418 2.681,-1.135 4.945,-2.81 6.406,-5.054 -1.036,-0.69 -2.08,-1.361 -3.142,-1.996 -6.963,-4.191 -14.415,-7.286 -22.162,-9.285 -3.864,-0.984 -7.861,-1.783 -11.663,-2.203 -3.858,-0.374 -7.749,-0.464 -11.674,-0.175 -7.868,0.565 -15.787,2.404 -23.979,5.413 2.702,-3.524 6.311,-6.248 10.17,-8.497 3.887,-2.231 8.167,-3.857 12.627,-4.826 2.227,-0.504 4.504,-0.8 6.795,-0.972 2.291,-0.121 4.597,-0.135 6.89,0.06 2.282,0.188 4.601,0.561 6.756,1.035 1.097,0.211 2.187,0.467 3.269,0.753 1.087,0.266 2.16,0.591 3.23,0.918 2.148,0.635 4.256,1.408 6.323,2.271 1.043,0.407 2.052,0.902 3.076,1.35 1.009,0.487 2.001,1.008 2.994,1.521 3.941,2.119 7.656,4.641 11.054,7.5 0.578,0.492 1.142,0.999 1.698,1.513 0.201,-1.061 0.282,-2.158 0.309,-3.269 0.046,-3.085 -0.584,-6.279 -1.623,-9.5 2.357,2.473 3.926,5.74 4.473,9.28 0.558,3.533 -0.066,7.422 -2.056,10.602 C 2.936,-2.427 1.525,-1.065 0,0"
             style="fill:#000000;fill-opacity:1;fill-rule:nonzero;stroke:none"
             id="path264" /></g><g
           id="g266"
           transform="translate(649.0511,873.0968)"><path
             d="m 0,0 c -8.955,0 -16.214,-7.999 -16.214,-17.866 0,-9.867 7.259,-17.866 16.214,-17.866 8.955,0 16.214,7.999 16.214,17.866 C 16.214,-7.999 8.955,0 0,0"
             style="fill:#000000;fill-opacity:1;fill-rule:nonzero;stroke:none"
             id="path268" /></g></g></g></g></svg>
