<?xml version="1.0" encoding="UTF-8" standalone="no"?>
<svg
   xmlns:dc="http://purl.org/dc/elements/1.1/"
   xmlns:cc="http://creativecommons.org/ns#"
   xmlns:rdf="http://www.w3.org/1999/02/22-rdf-syntax-ns#"
   xmlns:svg="http://www.w3.org/2000/svg"
   xmlns="http://www.w3.org/2000/svg"
   xmlns:sodipodi="http://sodipodi.sourceforge.net/DTD/sodipodi-0.dtd"
   xmlns:inkscape="http://www.inkscape.org/namespaces/inkscape"
   version="1.1"
   id="svg1484"
   xml:space="preserve"
   width="1600"
   height="1600"
   viewBox="0 0 1600 1600"
   sodipodi:docname="octo_zen.svg"
   inkscape:version="1.0.2 (e86c870879, 2021-01-15, custom)"><metadata
     id="metadata1490"><rdf:RDF><cc:Work
         rdf:about=""><dc:format>image/svg+xml</dc:format><dc:type
           rdf:resource="http://purl.org/dc/dcmitype/StillImage" /><dc:title></dc:title></cc:Work></rdf:RDF></metadata><defs
     id="defs1488"><clipPath
       clipPathUnits="userSpaceOnUse"
       id="clipPath1500"><path
         d="M 0,1200 H 1200 V 0 H 0 Z"
         id="path1498" /></clipPath><clipPath
       clipPathUnits="userSpaceOnUse"
       id="clipPath1516"><path
         d="m 308.592,394.488 c 0,0 -59.528,-54.992 -50.458,-130.96 v 0 c 9.072,-75.969 60.095,-129.26 143.434,-149.103 v 0 c 83.338,-19.842 229.039,45.638 285.732,67.181 v 0 c 56.693,21.544 93.544,-31.463 95.244,-53.574 v 0 C 784.245,105.922 773.19,87.78 765.82,81.544 v 0 c -7.37,-6.237 -13.606,-9.071 -13.606,-9.071 v 0 c 0,0 44.314,8.693 58.676,37.417 v 0 c 14.362,28.723 -3.684,75.968 -52.157,101.197 v 0 c -48.473,25.228 -87.306,15.591 -142.866,-3.685 v 0 C 560.308,188.126 510.985,190.11 455.993,208.535 v 0 C 401,226.96 371.341,269.395 404.969,329.858 v 0 c 32.647,58.698 -5.299,70.978 -42.755,70.979 v 0 c -26.939,0.001 -53.622,-6.349 -53.622,-6.349"
         id="path1514" /></clipPath><clipPath
       clipPathUnits="userSpaceOnUse"
       id="clipPath1524"><path
         d="M -32768,32767 H 32767 V -32768 H -32768 Z"
         id="path1522" /></clipPath><radialGradient
       fx="0"
       fy="0"
       cx="0"
       cy="0"
       r="1"
       gradientUnits="userSpaceOnUse"
       gradientTransform="matrix(229.05682,0,0,-229.05682,536.44006,236.6548)"
       spreadMethod="pad"
       id="radialGradient1532"><stop
         style="stop-opacity:0.90000763;stop-color:#ffffff"
         offset="0"
         id="stop1526" /><stop
         style="stop-opacity:0.90000763;stop-color:#ffffff"
         offset="0.149112"
         id="stop1528" /><stop
         style="stop-opacity:1;stop-color:#ffffff"
         offset="1"
         id="stop1530" /></radialGradient><mask
       maskUnits="userSpaceOnUse"
       x="0"
       y="0"
       width="1"
       height="1"
       id="mask1534"><g
         id="g1544"><g
           clip-path="url(#clipPath1524)"
           id="g1542"><g
             id="g1540"><g
               id="g1538"><path
                 d="M -32768,32767 H 32767 V -32768 H -32768 Z"
                 style="fill:url(#radialGradient1532);stroke:none"
                 id="path1536" /></g></g></g></g></mask><radialGradient
       fx="0"
       fy="0"
       cx="0"
       cy="0"
       r="1"
       gradientUnits="userSpaceOnUse"
       gradientTransform="matrix(229.05682,0,0,-229.05682,536.44006,236.6548)"
       spreadMethod="pad"
       id="radialGradient1556"><stop
         style="stop-opacity:1;stop-color:#9170b0"
         offset="0"
         id="stop1550" /><stop
         style="stop-opacity:1;stop-color:#9170b0"
         offset="0.149112"
         id="stop1552" /><stop
         style="stop-opacity:1;stop-color:#9170b0"
         offset="1"
         id="stop1554" /></radialGradient><clipPath
       clipPathUnits="userSpaceOnUse"
       id="clipPath1566"><path
         d="M 0,1200 H 1200 V 0 H 0 Z"
         id="path1564" /></clipPath><clipPath
       clipPathUnits="userSpaceOnUse"
       id="clipPath1574"><path
         d="M 257.194,397.074 H 599.991 V 111.063 H 257.194 Z"
         id="path1572" /></clipPath><clipPath
       clipPathUnits="userSpaceOnUse"
       id="clipPath1590"><path
         d="M 370.01,273.835 H 546.52 V 168.265 H 370.01 Z"
         id="path1588" /></clipPath><clipPath
       clipPathUnits="userSpaceOnUse"
       id="clipPath1594"><path
         d="m 460.194,205.324 c -40.473,17.846 -65.677,39.313 -69.477,68.511 -0.931,-0.571 -1.862,-1.14 -2.788,-1.711 -5.978,-3.685 -11.773,-7.903 -17.918,-11.387 4.298,-26.365 25.746,-47.684 66.99,-66.091 37.352,-16.671 67.748,-21.827 109.518,-26.381 -22.904,9.103 -55.123,23.3 -86.325,37.059"
         id="path1592" /></clipPath><radialGradient
       fx="0"
       fy="0"
       cx="0"
       cy="0"
       r="1"
       gradientUnits="userSpaceOnUse"
       gradientTransform="matrix(204.31177,0,0,-204.31177,501.22369,246.35143)"
       spreadMethod="pad"
       id="radialGradient1604"><stop
         style="stop-opacity:1;stop-color:#ffffff"
         offset="0"
         id="stop1596" /><stop
         style="stop-opacity:1;stop-color:#ffffff"
         offset="0.299047"
         id="stop1598" /><stop
         style="stop-opacity:1;stop-color:#ba9bc9"
         offset="0.902426"
         id="stop1600" /><stop
         style="stop-opacity:1;stop-color:#ba9bc9"
         offset="1"
         id="stop1602" /></radialGradient><clipPath
       clipPathUnits="userSpaceOnUse"
       id="clipPath1658"><path
         d="m 389.11,109.89 c 10.67,-21.341 37.868,-31.622 51.148,-35.5 v 0 c -12.869,7.323 -29.426,19.268 -37.542,35.5 v 0 c -0.821,1.642 -1.523,3.35 -2.132,5.105 v 0 c -5.898,1.318 -11.299,2.689 -14.725,3.68 v 0 c 0.784,-3.076 1.866,-6.017 3.251,-8.785"
         id="path1656" /></clipPath><clipPath
       clipPathUnits="userSpaceOnUse"
       id="clipPath1666"><path
         d="M -32768,32767 H 32767 V -32768 H -32768 Z"
         id="path1664" /></clipPath><radialGradient
       fx="0"
       fy="0"
       cx="0"
       cy="0"
       r="1"
       gradientUnits="userSpaceOnUse"
       gradientTransform="matrix(24.800188,0,0,-24.800188,413.05869,96.532547)"
       spreadMethod="pad"
       id="radialGradient1674"><stop
         style="stop-opacity:0.90000763;stop-color:#ffffff"
         offset="0"
         id="stop1668" /><stop
         style="stop-opacity:0.90000763;stop-color:#ffffff"
         offset="0.149112"
         id="stop1670" /><stop
         style="stop-opacity:1;stop-color:#ffffff"
         offset="1"
         id="stop1672" /></radialGradient><mask
       maskUnits="userSpaceOnUse"
       x="0"
       y="0"
       width="1"
       height="1"
       id="mask1676"><g
         id="g1686"><g
           clip-path="url(#clipPath1666)"
           id="g1684"><g
             id="g1682"><g
               id="g1680"><path
                 d="M -32768,32767 H 32767 V -32768 H -32768 Z"
                 style="fill:url(#radialGradient1674);stroke:none"
                 id="path1678" /></g></g></g></g></mask><radialGradient
       fx="0"
       fy="0"
       cx="0"
       cy="0"
       r="1"
       gradientUnits="userSpaceOnUse"
       gradientTransform="matrix(24.800188,0,0,-24.800188,413.05869,96.532547)"
       spreadMethod="pad"
       id="radialGradient1698"><stop
         style="stop-opacity:1;stop-color:#9170b0"
         offset="0"
         id="stop1692" /><stop
         style="stop-opacity:1;stop-color:#9170b0"
         offset="0.149112"
         id="stop1694" /><stop
         style="stop-opacity:1;stop-color:#9170b0"
         offset="1"
         id="stop1696" /></radialGradient><clipPath
       clipPathUnits="userSpaceOnUse"
       id="clipPath1708"><path
         d="M 795.031,329.858 C 828.66,269.395 799,226.96 744.008,208.535 v 0 C 689.016,190.11 639.692,188.126 584.133,207.402 v 0 c -54.243,18.818 -92.544,28.451 -139.438,5.419 v 0 c 17.723,-8.444 46.301,-22.967 68.005,-31.215 v 0 c 56.693,-21.543 202.393,-87.023 285.732,-67.181 v 0 c 83.339,19.843 134.363,73.134 143.434,149.103 v 0 c 9.07,75.968 -50.457,130.96 -50.457,130.96 v 0 c 0,0 -26.687,6.348 -53.622,6.349 v 0 c -37.46,0.001 -75.406,-12.274 -42.756,-70.979"
         id="path1706" /></clipPath><clipPath
       clipPathUnits="userSpaceOnUse"
       id="clipPath1716"><path
         d="M -32768,32767 H 32767 V -32768 H -32768 Z"
         id="path1714" /></clipPath><radialGradient
       fx="0"
       fy="0"
       cx="0"
       cy="0"
       r="1"
       gradientUnits="userSpaceOnUse"
       gradientTransform="matrix(203.8006,0,0,-203.8006,693.75067,255.78273)"
       spreadMethod="pad"
       id="radialGradient1724"><stop
         style="stop-opacity:0.90000763;stop-color:#ffffff"
         offset="0"
         id="stop1718" /><stop
         style="stop-opacity:0.90000763;stop-color:#ffffff"
         offset="0.149112"
         id="stop1720" /><stop
         style="stop-opacity:1;stop-color:#ffffff"
         offset="1"
         id="stop1722" /></radialGradient><mask
       maskUnits="userSpaceOnUse"
       x="0"
       y="0"
       width="1"
       height="1"
       id="mask1726"><g
         id="g1736"><g
           clip-path="url(#clipPath1716)"
           id="g1734"><g
             id="g1732"><g
               id="g1730"><path
                 d="M -32768,32767 H 32767 V -32768 H -32768 Z"
                 style="fill:url(#radialGradient1724);stroke:none"
                 id="path1728" /></g></g></g></g></mask><radialGradient
       fx="0"
       fy="0"
       cx="0"
       cy="0"
       r="1"
       gradientUnits="userSpaceOnUse"
       gradientTransform="matrix(203.8006,0,0,-203.8006,693.75067,255.78273)"
       spreadMethod="pad"
       id="radialGradient1748"><stop
         style="stop-opacity:1;stop-color:#9170b0"
         offset="0"
         id="stop1742" /><stop
         style="stop-opacity:1;stop-color:#9170b0"
         offset="0.149112"
         id="stop1744" /><stop
         style="stop-opacity:1;stop-color:#9170b0"
         offset="1"
         id="stop1746" /></radialGradient><clipPath
       clipPathUnits="userSpaceOnUse"
       id="clipPath1758"><path
         d="M 0,1200 H 1200 V 0 H 0 Z"
         id="path1756" /></clipPath><clipPath
       clipPathUnits="userSpaceOnUse"
       id="clipPath1766"><path
         d="M 444.695,400.837 H 942.806 V 110.728 H 444.695 Z"
         id="path1764" /></clipPath><clipPath
       clipPathUnits="userSpaceOnUse"
       id="clipPath1786"><path
         d="M 444.695,277.693 H 834.02 V 169.708 H 444.695 Z"
         id="path1784" /></clipPath><clipPath
       clipPathUnits="userSpaceOnUse"
       id="clipPath1790"><path
         d="m 809.099,277.693 c -1.97,-32.923 -27.646,-56.611 -65.091,-69.157 -54.993,-18.426 -104.316,-20.41 -159.874,-1.134 -54.244,18.818 -92.545,28.451 -139.439,5.419 4.55,-2.168 9.818,-4.737 15.499,-7.497 45.105,16.787 97.672,-4.308 148.728,-22.022 55.558,-19.275 104.882,-17.291 159.874,1.134 42.136,14.118 69.387,42.336 64.701,81.957 -8.049,3.938 -16.093,7.862 -24.398,11.3"
         id="path1788" /></clipPath><radialGradient
       fx="0"
       fy="0"
       cx="0"
       cy="0"
       r="1"
       gradientUnits="userSpaceOnUse"
       gradientTransform="matrix(-191.90361,-9.0001097,-4.6813803,99.818085,592.05603,334.39383)"
       spreadMethod="pad"
       id="radialGradient1800"><stop
         style="stop-opacity:1;stop-color:#ffffff"
         offset="0"
         id="stop1792" /><stop
         style="stop-opacity:1;stop-color:#ffffff"
         offset="0.153218"
         id="stop1794" /><stop
         style="stop-opacity:1;stop-color:#ba9bc9"
         offset="0.902426"
         id="stop1796" /><stop
         style="stop-opacity:1;stop-color:#ba9bc9"
         offset="1"
         id="stop1798" /></radialGradient><clipPath
       clipPathUnits="userSpaceOnUse"
       id="clipPath1846"><path
         d="m 615.867,207.402 c -5.347,-1.856 -10.635,-3.511 -15.876,-4.974 v 0 c 8.931,-2.396 35.359,-11.468 77.525,-7.999 v 0 c 60.443,4.969 103.328,-44.286 105.029,-66.397 v 0 c 1.7,-22.11 -9.355,-40.252 -16.725,-46.488 v 0 c -7.37,-6.237 -13.606,-9.071 -13.606,-9.071 v 0 c 0,0 44.314,8.693 58.676,37.417 v 0 c 14.362,28.723 -3.684,75.968 -52.157,101.197 v 0 c -20.748,10.798 -39.738,15.209 -59.022,15.21 v 0 c -25.767,0.002 -52.066,-7.87 -83.844,-18.895"
         id="path1844" /></clipPath><clipPath
       clipPathUnits="userSpaceOnUse"
       id="clipPath1854"><path
         d="M -32768,32767 H 32767 V -32768 H -32768 Z"
         id="path1852" /></clipPath><radialGradient
       fx="0"
       fy="0"
       cx="0"
       cy="0"
       r="1"
       gradientUnits="userSpaceOnUse"
       gradientTransform="matrix(93.66584,0,0,-93.66584,707.83844,149.38487)"
       spreadMethod="pad"
       id="radialGradient1862"><stop
         style="stop-opacity:0.90000763;stop-color:#ffffff"
         offset="0"
         id="stop1856" /><stop
         style="stop-opacity:0.90000763;stop-color:#ffffff"
         offset="0.149112"
         id="stop1858" /><stop
         style="stop-opacity:1;stop-color:#ffffff"
         offset="1"
         id="stop1860" /></radialGradient><mask
       maskUnits="userSpaceOnUse"
       x="0"
       y="0"
       width="1"
       height="1"
       id="mask1864"><g
         id="g1874"><g
           clip-path="url(#clipPath1854)"
           id="g1872"><g
             id="g1870"><g
               id="g1868"><path
                 d="M -32768,32767 H 32767 V -32768 H -32768 Z"
                 style="fill:url(#radialGradient1862);stroke:none"
                 id="path1866" /></g></g></g></g></mask><radialGradient
       fx="0"
       fy="0"
       cx="0"
       cy="0"
       r="1"
       gradientUnits="userSpaceOnUse"
       gradientTransform="matrix(93.66584,0,0,-93.66584,707.83844,149.38487)"
       spreadMethod="pad"
       id="radialGradient1886"><stop
         style="stop-opacity:1;stop-color:#9170b0"
         offset="0"
         id="stop1880" /><stop
         style="stop-opacity:1;stop-color:#9170b0"
         offset="0.149112"
         id="stop1882" /><stop
         style="stop-opacity:1;stop-color:#9170b0"
         offset="1"
         id="stop1884" /></radialGradient><clipPath
       clipPathUnits="userSpaceOnUse"
       id="clipPath1896"><path
         d="M 0,1200 H 1200 V 0 H 0 Z"
         id="path1894" /></clipPath><clipPath
       clipPathUnits="userSpaceOnUse"
       id="clipPath1908"><path
         d="M 657.349,226.29 H 815.686 V 75.3914 H 657.349 Z"
         id="path1906" /></clipPath><clipPath
       clipPathUnits="userSpaceOnUse"
       id="clipPath1912"><path
         d="m 758.733,211.087 c -35.51,18.481 -65.854,18.24 -101.384,9.216 26.694,3.528 57.09,0.326 85.227,-14.319 49.884,-25.963 69.205,-68.801 54.425,-98.362 -5.946,-11.892 -23.043,-26.251 -33.99,-32.231 14.066,4.51 38.024,14.788 47.879,34.499 14.363,28.724 -3.684,75.968 -52.157,101.197"
         id="path1910" /></clipPath><radialGradient
       fx="0"
       fy="0"
       cx="0"
       cy="0"
       r="1"
       gradientUnits="userSpaceOnUse"
       gradientTransform="matrix(77.331154,0,0,-77.331154,736.51752,150.84059)"
       spreadMethod="pad"
       id="radialGradient1922"><stop
         style="stop-opacity:1;stop-color:#ffffff"
         offset="0"
         id="stop1914" /><stop
         style="stop-opacity:1;stop-color:#ffffff"
         offset="0.299047"
         id="stop1916" /><stop
         style="stop-opacity:1;stop-color:#ba9bc9"
         offset="0.902426"
         id="stop1918" /><stop
         style="stop-opacity:1;stop-color:#ba9bc9"
         offset="1"
         id="stop1920" /></radialGradient><clipPath
       clipPathUnits="userSpaceOnUse"
       id="clipPath1948"><path
         d="M 47.2941,941.291 H 1152.71 V 219.374 H 47.2941 Z"
         id="path1946" /></clipPath><clipPath
       clipPathUnits="userSpaceOnUse"
       id="clipPath1952"><path
         d="m 955.471,310.866 c -92.975,11.622 -123.874,83.622 -123.874,83.622 0,0 17.008,-30.047 62.647,-36.566 45.638,-6.52 109.227,12.755 138.141,48.283 2.352,2.889 4.645,5.57 6.899,8.095 9.343,-2.065 21.851,-8.107 30.518,-24.914 15.497,-30.047 -21.354,-90.142 -114.331,-78.52 m 134.221,198.071 c 2.268,26.15 34.725,25.866 34.157,2.339 -0.386,-16.058 -10.419,-18.912 -28.1,-23.161 -3.993,4.578 -6.889,11.225 -6.057,20.822 M 244.528,310.866 c -92.975,-11.622 -129.826,48.473 -114.33,78.52 8.667,16.807 21.176,22.849 30.519,24.914 2.253,-2.525 4.546,-5.206 6.898,-8.095 28.913,-35.528 92.504,-54.803 138.142,-48.283 45.637,6.519 62.645,36.566 62.645,36.566 0,0 -30.897,-72 -123.874,-83.622 M 76.15,511.276 c -0.566,23.527 31.89,23.811 34.158,-2.339 0.832,-9.597 -2.063,-16.244 -6.056,-20.822 -17.683,4.249 -27.714,7.103 -28.102,23.161 m 1075.195,-13.182 c 4.111,16.016 0.663,48.52 -35.244,57.402 -35.905,8.882 -63.118,-30.142 -48.944,-57.826 3.234,-6.319 7.374,-10.737 11.83,-13.816 -3.994,-1.134 -8.225,-2.451 -12.681,-4.043 C 1030.59,467.055 1016.7,431.622 961.425,427.37 906.149,423.118 845.771,442.11 802.401,517.796 759.031,593.48 799,653.008 799,778.866 c 0,124.497 -120.647,161.618 -197.738,162.407 0,0.002 -0.002,0.019 -0.002,0.019 -0.416,0 -0.841,-0.008 -1.26,-0.01 -0.418,0.002 -0.843,0.01 -1.259,0.01 0,0 -0.002,-0.017 -0.002,-0.019 -77.092,-0.789 -197.738,-37.91 -197.738,-162.407 0,-125.858 39.969,-185.386 -3.402,-261.07 -43.37,-75.686 -103.748,-94.678 -159.023,-90.426 -55.275,4.252 -69.166,39.685 -104.882,52.441 -4.456,1.592 -8.687,2.909 -12.681,4.043 4.457,3.079 8.596,7.497 11.831,13.816 14.172,27.684 -13.039,66.708 -48.946,57.826 -35.905,-8.882 -39.354,-41.386 -35.244,-57.402 4.11,-16.015 12.473,-31.463 40.819,-40.535 7.363,-2.356 14.219,-4.559 20.846,-7.147 -15.78,-8.061 -41.841,-28.754 -48.058,-78.884 -9.071,-73.134 58.11,-113.67 120.472,-141.449 62.363,-27.78 173.481,-0.567 265.89,70.866 91.84,70.993 83.441,115.1 151.377,115.641 67.936,-0.541 59.537,-44.648 151.378,-115.641 92.409,-71.433 203.527,-98.646 265.889,-70.866 62.363,27.779 129.543,68.315 120.473,141.449 -6.218,50.13 -32.279,70.823 -48.06,78.884 6.627,2.588 13.485,4.791 20.847,7.147 28.347,9.072 36.708,24.52 40.818,40.535"
         id="path1950" /></clipPath><clipPath
       clipPathUnits="userSpaceOnUse"
       id="clipPath1956"><path
         d="M -32768,32767 H 32767 V -32768 H -32768 Z"
         id="path1954" /></clipPath><radialGradient
       fx="0.080124304"
       fy="-0.00051099999"
       cx="0"
       cy="0"
       r="1"
       gradientUnits="userSpaceOnUse"
       gradientTransform="matrix(3.5346446,452.40216,346.03049,-2.7035565,604.5285,609.92139)"
       spreadMethod="pad"
       id="radialGradient1966"><stop
         style="stop-opacity:0;stop-color:#ffffff"
         offset="0"
         id="stop1958" /><stop
         style="stop-opacity:0;stop-color:#ffffff"
         offset="0.283422"
         id="stop1960" /><stop
         style="stop-opacity:1;stop-color:#ffffff"
         offset="0.726358"
         id="stop1962" /><stop
         style="stop-opacity:1;stop-color:#ffffff"
         offset="1"
         id="stop1964" /></radialGradient><mask
       maskUnits="userSpaceOnUse"
       x="0"
       y="0"
       width="1"
       height="1"
       id="mask1968"><g
         id="g1978"><g
           clip-path="url(#clipPath1956)"
           id="g1976"><g
             id="g1974"><g
               id="g1972"><path
                 d="M -32768,32767 H 32767 V -32768 H -32768 Z"
                 style="fill:url(#radialGradient1966);stroke:none"
                 id="path1970" /></g></g></g></g></mask><radialGradient
       fx="0.080124304"
       fy="-0.00051099999"
       cx="0"
       cy="0"
       r="1"
       gradientUnits="userSpaceOnUse"
       gradientTransform="matrix(3.5346446,452.40216,346.03049,-2.7035565,604.5285,609.92139)"
       spreadMethod="pad"
       id="radialGradient1988"><stop
         style="stop-opacity:1;stop-color:#9170b0"
         offset="0"
         id="stop1980" /><stop
         style="stop-opacity:1;stop-color:#9170b0"
         offset="0.283422"
         id="stop1982" /><stop
         style="stop-opacity:1;stop-color:#6d4096"
         offset="0.726358"
         id="stop1984" /><stop
         style="stop-opacity:1;stop-color:#6d4096"
         offset="1"
         id="stop1986" /></radialGradient><clipPath
       clipPathUnits="userSpaceOnUse"
       id="clipPath2014"><path
         d="M 60.3685,568.445 H 432.895 V 356.666 H 60.3685 Z"
         id="path2012" /></clipPath><clipPath
       clipPathUnits="userSpaceOnUse"
       id="clipPath2030"><path
         d="M 147.867,905.546 H 1052.13 V 279.681 H 147.867 Z"
         id="path2028" /></clipPath><clipPath
       clipPathUnits="userSpaceOnUse"
       id="clipPath2034"><path
         d="m 947.75,298.077 c -131.176,18.895 -254.608,189.687 -198.641,425.797 26.459,111.619 -67.846,175.253 -143.338,181.207 -0.045,0.296 -0.07,0.465 -0.07,0.465 -1.883,0 -3.786,-0.05 -5.701,-0.127 -1.914,0.077 -3.819,0.127 -5.7,0.127 0,0 -0.026,-0.169 -0.071,-0.465 C 518.737,899.127 424.432,835.493 450.89,723.874 506.858,487.764 383.427,316.972 252.251,298.077 c -35.188,-5.069 -85.061,5.795 -104.384,16.474 0,0 10.386,-19.798 60.661,-30.614 69.839,-15.023 145.229,9.638 214.317,75.368 82.987,78.954 110.735,102.348 177.155,103.221 66.421,-0.873 94.168,-24.267 177.156,-103.221 69.088,-65.73 144.478,-90.391 214.315,-75.368 50.277,10.816 60.663,30.614 60.663,30.614 -19.324,-10.679 -69.198,-21.543 -104.384,-16.474"
         id="path2032" /></clipPath><radialGradient
       fx="0"
       fy="0"
       cx="0"
       cy="0"
       r="1"
       gradientUnits="userSpaceOnUse"
       gradientTransform="matrix(-156.14554,-0.7610153,-0.9896001,203.04671,600.00018,698.92926)"
       spreadMethod="pad"
       id="radialGradient2044"><stop
         style="stop-opacity:1;stop-color:#ffffff"
         offset="0"
         id="stop2036" /><stop
         style="stop-opacity:1;stop-color:#ffffff"
         offset="0.334122"
         id="stop2038" /><stop
         style="stop-opacity:1;stop-color:#ba9bc9"
         offset="0.922435"
         id="stop2040" /><stop
         style="stop-opacity:1;stop-color:#ba9bc9"
         offset="1"
         id="stop2042" /></radialGradient><clipPath
       clipPathUnits="userSpaceOnUse"
       id="clipPath2066"><path
         d="M 767.105,568.445 H 1139.63 V 356.666 H 767.105 Z"
         id="path2064" /></clipPath><clipPath
       clipPathUnits="userSpaceOnUse"
       id="clipPath2082"><path
         d="M 69.1755,856.506 H 424.943 V 412.083 H 69.1755 Z"
         id="path2080" /></clipPath><clipPath
       clipPathUnits="userSpaceOnUse"
       id="clipPath2098"><path
         d="M 65.5347,433.054 H 1134.47 V 219.374 H 65.5347 Z"
         id="path2096" /></clipPath><clipPath
       clipPathUnits="userSpaceOnUse"
       id="clipPath2114"><path
         d="M 775.667,856.506 H 1130.82 V 411.97 H 775.667 Z"
         id="path2112" /></clipPath><clipPath
       clipPathUnits="userSpaceOnUse"
       id="clipPath2346"><path
         d="m 514.874,887.549 h 172.77 v -88.413 h -172.77 z"
         id="path2344" /></clipPath><clipPath
       clipPathUnits="userSpaceOnUse"
       id="clipPath2362"><path
         d="m 516.88,885.548 h 168.758 v -84.43 H 516.88 Z"
         id="path2360" /></clipPath><clipPath
       clipPathUnits="userSpaceOnUse"
       id="clipPath2378"><path
         d="m 595.446,830.087 h 11.717 V 818.37 h -11.717 z"
         id="path2376" /></clipPath><clipPath
       clipPathUnits="userSpaceOnUse"
       id="clipPath2394"><path
         d="m 578.219,860.984 h 46.08 v -29.113 h -46.08 z"
         id="path2392" /></clipPath></defs><sodipodi:namedview
     pagecolor="#ffffff"
     bordercolor="#666666"
     borderopacity="1"
     objecttolerance="10"
     gridtolerance="10"
     guidetolerance="10"
     inkscape:pageopacity="0"
     inkscape:pageshadow="2"
     inkscape:window-width="689"
     inkscape:window-height="480"
     id="namedview1486"
     showgrid="false"
     inkscape:zoom="0.459375"
     inkscape:cx="800"
     inkscape:cy="800"
     inkscape:window-x="0"
     inkscape:window-y="0"
     inkscape:window-maximized="0"
     inkscape:current-layer="g1492" /><g
     id="g1492"
     inkscape:groupmode="layer"
     inkscape:label="octo"
     transform="matrix(1.3333333,0,0,-1.3333333,0,1600)"><g
       id="g1494"><g
         id="g1496"
         clip-path="url(#clipPath1500)"><g
           id="g1502"
           transform="translate(308.5916,394.488)"><path
             d="m 0,0 c 0,0 -59.527,-54.992 -50.457,-130.96 9.071,-75.969 60.095,-129.26 143.434,-149.102 83.337,-19.843 229.039,45.637 285.732,67.18 56.692,21.544 93.543,-31.464 95.243,-53.574 1.701,-22.11 -9.353,-40.252 -16.723,-46.488 -7.371,-6.237 -13.607,-9.072 -13.607,-9.072 0,0 44.315,8.694 58.677,37.418 14.362,28.724 -3.685,75.968 -52.157,101.197 -48.473,25.228 -87.307,15.59 -142.867,-3.685 -55.558,-19.276 -104.881,-17.292 -159.874,1.134 C 92.409,-167.527 62.749,-125.093 96.378,-64.63 152.504,36.284 0,0 0,0"
             style="fill:#6d4096;fill-opacity:1;fill-rule:nonzero;stroke:none"
             id="path1504" /></g><g
           id="g1506"
           transform="translate(308.5916,394.488)"><path
             d="m 0,0 c 0,0 -59.527,-54.992 -50.457,-130.96 9.071,-75.969 60.095,-129.26 143.434,-149.102 83.337,-19.843 229.039,45.637 285.732,67.18 56.692,21.544 93.543,-31.464 95.243,-53.574 1.701,-22.11 -9.353,-40.252 -16.723,-46.488 -7.371,-6.237 -13.607,-9.072 -13.607,-9.072 0,0 44.315,8.694 58.677,37.418 14.362,28.724 -3.685,75.968 -52.157,101.197 -48.473,25.228 -87.307,15.59 -142.867,-3.685 -55.558,-19.276 -104.881,-17.292 -159.874,1.134 C 92.409,-167.527 62.749,-125.093 96.378,-64.63 152.504,36.284 0,0 0,0"
             style="fill:#6d4096;fill-opacity:1;fill-rule:nonzero;stroke:none"
             id="path1508" /></g></g></g><g
       id="g1510"><g
         id="g1512"
         clip-path="url(#clipPath1516)"><g
           id="g1518"><g
             id="g1520" /><g
             id="g1546"
             mask="url(#mask1534)"><g
               id="g1548"><path
                 d="m 308.592,394.488 c 0,0 -59.528,-54.992 -50.458,-130.96 v 0 c 9.072,-75.969 60.095,-129.26 143.434,-149.103 v 0 c 83.338,-19.842 229.039,45.638 285.732,67.181 v 0 c 56.693,21.544 93.544,-31.463 95.244,-53.574 v 0 C 784.245,105.922 773.19,87.78 765.82,81.544 v 0 c -7.37,-6.237 -13.606,-9.071 -13.606,-9.071 v 0 c 0,0 44.314,8.693 58.676,37.417 v 0 c 14.362,28.723 -3.684,75.968 -52.157,101.197 v 0 c -48.473,25.228 -87.306,15.591 -142.866,-3.685 v 0 C 560.308,188.126 510.985,190.11 455.993,208.535 v 0 C 401,226.96 371.341,269.395 404.969,329.858 v 0 c 32.647,58.698 -5.299,70.978 -42.755,70.979 v 0 c -26.939,0.001 -53.622,-6.349 -53.622,-6.349"
                 style="fill:url(#radialGradient1556);stroke:none"
                 id="path1558" /></g></g></g></g></g><g
       id="g1560"><g
         id="g1562"
         clip-path="url(#clipPath1566)"><g
           id="g1568"><g
             id="g1570" /><g
             id="g1582"><g
               clip-path="url(#clipPath1574)"
               opacity="0.600006"
               id="g1580"><g
                 transform="translate(569.5203,159.2409)"
                 id="g1578"><path
                   d="m 0,0 c -45.438,-12.014 -96.039,-20.862 -130.772,-12.593 -83.339,19.843 -134.363,73.134 -143.434,149.103 -5.037,42.187 11.081,77.899 26.411,101.323 -8.014,-1.368 -13.134,-2.586 -13.134,-2.586 0,0 -59.527,-54.992 -50.457,-130.96 9.072,-75.969 60.095,-129.26 143.434,-149.102 60.726,-14.459 166.96,21.684 198.423,33.396 z"
                   style="fill:#6d4096;fill-opacity:1;fill-rule:nonzero;stroke:none"
                   id="path1576" /></g></g></g></g><g
           id="g1584"><g
             id="g1586" /><g
             id="g1618"><g
               clip-path="url(#clipPath1590)"
               opacity="0.300003"
               id="g1616"><g
                 id="g1614"><g
                   clip-path="url(#clipPath1594)"
                   id="g1612"><g
                     id="g1610"><g
                       id="g1608"><path
                         d="m 460.194,205.324 c -40.473,17.846 -65.677,39.313 -69.477,68.511 -0.931,-0.571 -1.862,-1.14 -2.788,-1.711 -5.978,-3.685 -11.773,-7.903 -17.918,-11.387 4.298,-26.365 25.746,-47.684 66.99,-66.091 37.352,-16.671 67.748,-21.827 109.518,-26.381 -22.904,9.103 -55.123,23.3 -86.325,37.059"
                         style="fill:url(#radialGradient1604);stroke:none"
                         id="path1606" /></g></g></g></g></g></g></g><g
           id="g1620"
           transform="translate(598.8592,1066.2994)"><path
             d="m 0,0 c 4.398,43.146 -37.984,61.229 -37.984,61.229 0,0 26.079,-29.481 3.968,-71.151 -22.11,-41.669 -55.559,-49.983 -127.748,-81.353 -72.189,-31.37 -175.559,-99.213 -175.559,-219.969 0,-120.756 68.032,-193.89 133.796,-214.3 65.763,-20.409 75.401,-23.81 75.401,-23.81 v 121.889 c 0,0 -53.858,-9.637 -94.11,16.442 -40.252,26.078 -60.095,93.543 -31.181,166.96 28.913,73.418 70.866,104.598 134.362,131.244 C -55.559,-86.174 -5.953,-58.393 0,0"
             style="fill:#6d4096;fill-opacity:1;fill-rule:nonzero;stroke:none"
             id="path1622" /></g><g
           id="g1624"
           transform="translate(270.7859,225.5837)"><path
             d="m 0,0 c -1.262,-0.8 -2.145,-2.065 -2.688,-3.655 4.687,-12.515 10.782,-24.159 18.221,-34.863 3.586,-1.898 6.945,-2.31 9.367,-0.775 5.356,3.394 4.123,14.941 -2.753,25.792 C 15.271,-2.651 5.356,3.394 0,0"
             style="fill:#c8c442;fill-opacity:1;fill-rule:nonzero;stroke:none"
             id="path1626" /></g><g
           id="g1628"
           transform="translate(357.5555,139.7409)"><path
             d="m 0,0 c 3.17,5.491 -3.278,15.148 -14.402,21.571 -11.125,6.423 -22.713,7.179 -25.884,1.688 -1.612,-2.793 -0.727,-6.664 1.988,-10.64 7.155,-5.603 14.89,-10.738 23.179,-15.387 C -8.075,-4.548 -2.132,-3.692 0,0"
             style="fill:#c8c442;fill-opacity:1;fill-rule:nonzero;stroke:none"
             id="path1630" /></g><g
           id="g1632"
           transform="translate(424.8777,120.8112)"><path
             d="m 0,0 c 1.074,6.249 -8.318,13.079 -20.978,15.256 -12.66,2.177 -23.793,-1.125 -24.868,-7.373 -0.547,-3.179 1.188,-7.218 6.827,-10.02 8.653,-2.781 16.405,-4.45 25.79,-5.942 C -5.098,-8.264 -0.723,-4.202 0,0"
             style="fill:#c8c442;fill-opacity:1;fill-rule:nonzero;stroke:none"
             id="path1634" /></g><g
           id="g1636"
           transform="translate(500.9315,125.7419)"><path
             d="M 0,0 C -0.773,6.294 -11.736,10.125 -24.486,8.559 -37.235,6.991 -46.944,0.62 -46.171,-5.674 c 0.397,-3.227 3.264,-6.871 8.103,-7.851 10.775,1.122 21.24,2.752 32.357,5.026 C -1.893,-5.944 0.381,-3.1 0,0"
             style="fill:#c8c442;fill-opacity:1;fill-rule:nonzero;stroke:none"
             id="path1638" /></g><g
           id="g1640"
           transform="translate(578.2801,144.6735)"><path
             d="m 0,0 c -1.852,6.063 -13.312,7.939 -25.598,4.188 -12.286,-3.751 -20.744,-11.707 -18.893,-17.771 0.466,-1.525 1.542,-2.784 3.084,-3.757 13.874,3.895 27.661,8.236 41.054,12.761 C 0.291,-3 0.441,-1.446 0,0"
             style="fill:#c8c442;fill-opacity:1;fill-rule:nonzero;stroke:none"
             id="path1642" /></g><g
           id="g1644"
           transform="translate(657.6502,170.5632)"><path
             d="m 0,0 c -1.852,6.064 -13.312,7.939 -25.598,4.188 -12.286,-3.751 -20.744,-11.707 -18.893,-17.771 0.408,-1.335 1.303,-2.454 2.55,-3.368 15.316,5.751 29.545,11.378 42.086,16.369 C 0.106,-0.387 0.059,-0.192 0,0"
             style="fill:#c8c442;fill-opacity:1;fill-rule:nonzero;stroke:none"
             id="path1646" /></g><g
           id="g1648"
           transform="translate(385.8592,118.6745)"><path
             d="m 0,0 c 0.783,-3.076 1.866,-6.017 3.25,-8.784 14.362,-28.725 58.678,-37.418 58.678,-37.418 0,0 -6.237,2.835 -13.607,9.071 -5.439,4.603 -12.885,15.69 -15.73,30.07 C 21.736,-5.518 6.885,-1.99 0,0"
             style="fill:#6d4096;fill-opacity:1;fill-rule:nonzero;stroke:none"
             id="path1650" /></g></g></g><g
       id="g1652"><g
         id="g1654"
         clip-path="url(#clipPath1658)"><g
           id="g1660"><g
             id="g1662" /><g
             id="g1688"
             mask="url(#mask1676)"><g
               id="g1690"><path
                 d="m 389.11,109.89 c 10.67,-21.341 37.868,-31.622 51.148,-35.5 v 0 c -12.869,7.323 -29.426,19.268 -37.542,35.5 v 0 c -0.821,1.642 -1.523,3.35 -2.132,5.105 v 0 c -5.898,1.318 -11.299,2.689 -14.725,3.68 v 0 c 0.784,-3.076 1.866,-6.017 3.251,-8.785"
                 style="fill:url(#radialGradient1698);stroke:none"
                 id="path1700" /></g></g></g></g></g><g
       id="g1702"><g
         id="g1704"
         clip-path="url(#clipPath1708)"><g
           id="g1710"><g
             id="g1712" /><g
             id="g1738"
             mask="url(#mask1726)"><g
               id="g1740"><path
                 d="M 795.031,329.858 C 828.66,269.395 799,226.96 744.008,208.535 v 0 C 689.016,190.11 639.692,188.126 584.133,207.402 v 0 c -54.243,18.818 -92.544,28.451 -139.438,5.419 v 0 c 17.723,-8.444 46.301,-22.967 68.005,-31.215 v 0 c 56.693,-21.543 202.393,-87.023 285.732,-67.181 v 0 c 83.339,19.843 134.363,73.134 143.434,149.103 v 0 c 9.07,75.968 -50.457,130.96 -50.457,130.96 v 0 c 0,0 -26.687,6.348 -53.622,6.349 v 0 c -37.46,0.001 -75.406,-12.274 -42.756,-70.979"
                 style="fill:url(#radialGradient1748);stroke:none"
                 id="path1750" /></g></g></g></g></g><g
       id="g1752"><g
         id="g1754"
         clip-path="url(#clipPath1758)"><g
           id="g1760"><g
             id="g1762" /><g
             id="g1774"><g
               clip-path="url(#clipPath1766)"
               opacity="0.600006"
               id="g1772"><g
                 transform="translate(891.409,394.488)"
                 id="g1770"><path
                   d="m 0,0 c 0,0 -152.504,36.284 -96.378,-64.63 33.629,-60.463 3.969,-102.897 -51.023,-121.322 -54.993,-18.426 -104.316,-20.41 -159.874,-1.134 -54.244,18.818 -92.545,28.451 -139.439,5.419 17.723,-8.443 46.301,-22.967 68.005,-31.215 56.693,-21.543 202.394,-87.023 285.732,-67.18 83.339,19.842 134.363,73.133 143.434,149.102 C 59.527,-54.992 0,0 0,0"
                   style="fill:#6d4096;fill-opacity:1;fill-rule:nonzero;stroke:none"
                   id="path1768" /></g></g></g></g><g
           id="g1776"
           transform="translate(891.409,394.488)"><path
             d="m 0,0 c 0,0 -5.202,1.237 -13.327,2.619 15.732,-23.358 33.02,-59.968 27.828,-103.459 -9.071,-75.969 -59.552,-131.698 -143.434,-149.102 -112.466,-23.335 -226.803,70.356 -282.53,51.301 11.22,-5.274 22.721,-10.428 32.754,-14.241 56.693,-21.543 202.394,-87.023 285.732,-67.18 83.339,19.842 134.363,73.133 143.434,149.102 C 59.527,-54.992 0,0 0,0"
             style="fill:#6d4096;fill-opacity:1;fill-rule:nonzero;stroke:none"
             id="path1778" /></g><g
           id="g1780"><g
             id="g1782" /><g
             id="g1814"><g
               clip-path="url(#clipPath1786)"
               opacity="0.600006"
               id="g1812"><g
                 id="g1810"><g
                   clip-path="url(#clipPath1790)"
                   id="g1808"><g
                     id="g1806"><g
                       id="g1804"><path
                         d="m 809.099,277.693 c -1.97,-32.923 -27.646,-56.611 -65.091,-69.157 -54.993,-18.426 -104.316,-20.41 -159.874,-1.134 -54.244,18.818 -92.545,28.451 -139.439,5.419 4.55,-2.168 9.818,-4.737 15.499,-7.497 45.105,16.787 97.672,-4.308 148.728,-22.022 55.558,-19.275 104.882,-17.291 159.874,1.134 42.136,14.118 69.387,42.336 64.701,81.957 -8.049,3.938 -16.093,7.862 -24.398,11.3"
                         style="fill:url(#radialGradient1800);stroke:none"
                         id="path1802" /></g></g></g></g></g></g></g><g
           id="g1816"
           transform="translate(601.1414,1066.2994)"><path
             d="m 0,0 c -4.398,43.146 37.984,61.229 37.984,61.229 0,0 -26.079,-29.481 -3.968,-71.151 22.11,-41.669 55.558,-49.983 127.748,-81.353 72.188,-31.37 175.558,-99.213 175.558,-219.969 0,-120.756 -68.031,-193.89 -133.795,-214.3 -65.763,-20.409 -75.401,-23.81 -75.401,-23.81 v 121.889 c 0,0 53.858,-9.637 94.11,16.442 40.252,26.078 60.094,93.543 31.181,166.96 -28.913,73.418 -70.866,104.598 -134.362,131.244 C 55.559,-86.174 5.952,-58.393 0,0"
             style="fill:#6d4096;fill-opacity:1;fill-rule:nonzero;stroke:none"
             id="path1818" /></g><g
           id="g1820"
           transform="translate(929.2137,225.5837)"><path
             d="m 0,0 c 1.263,-0.8 2.146,-2.065 2.688,-3.655 -4.686,-12.515 -10.781,-24.159 -18.221,-34.863 -3.585,-1.898 -6.944,-2.31 -9.366,-0.775 -5.356,3.394 -4.123,14.941 2.753,25.792 C -15.271,-2.651 -5.355,3.394 0,0"
             style="fill:#c8c442;fill-opacity:1;fill-rule:nonzero;stroke:none"
             id="path1822" /></g><g
           id="g1824"
           transform="translate(842.4451,139.7409)"><path
             d="m 0,0 c -3.171,5.491 3.277,15.148 14.402,21.571 11.125,6.423 22.713,7.179 25.883,1.688 1.613,-2.793 0.727,-6.664 -1.987,-10.64 C 31.143,7.016 23.408,1.881 15.119,-2.768 8.075,-4.548 2.132,-3.692 0,0"
             style="fill:#c8c442;fill-opacity:1;fill-rule:nonzero;stroke:none"
             id="path1826" /></g><g
           id="g1828"
           transform="translate(707.4315,124.4675)"><path
             d="M 0,0 C 0.773,6.293 11.736,10.124 24.485,8.558 37.235,6.99 46.944,0.619 46.171,-5.674 45.774,-8.902 42.691,-11.48 38.066,-13.017 27.552,-12.209 16.674,-10.744 5.604,-8.773 1.786,-6.219 -0.381,-3.101 0,0"
             style="fill:#c8c442;fill-opacity:1;fill-rule:nonzero;stroke:none"
             id="path1830" /></g><g
           id="g1832"
           transform="translate(621.7205,144.6735)"><path
             d="M 0,0 C 1.851,6.063 13.312,7.939 25.597,4.188 37.883,0.437 46.342,-7.519 44.49,-13.583 44.024,-15.108 42.949,-16.367 41.407,-17.34 27.533,-13.445 13.745,-9.104 0.353,-4.579 -0.291,-3 -0.441,-1.446 0,0"
             style="fill:#c8c442;fill-opacity:1;fill-rule:nonzero;stroke:none"
             id="path1834" /></g><g
           id="g1836"
           transform="translate(542.3504,170.5632)"><path
             d="M 0,0 C 1.851,6.064 13.312,7.939 25.598,4.188 37.883,0.437 46.342,-7.519 44.49,-13.583 44.083,-14.918 43.187,-16.037 41.941,-16.951 26.625,-11.2 12.396,-5.573 -0.146,-0.582 -0.106,-0.387 -0.059,-0.192 0,0"
             style="fill:#c8c442;fill-opacity:1;fill-rule:nonzero;stroke:none"
             id="path1838" /></g></g></g><g
       id="g1840"><g
         id="g1842"
         clip-path="url(#clipPath1846)"><g
           id="g1848"><g
             id="g1850" /><g
             id="g1876"
             mask="url(#mask1864)"><g
               id="g1878"><path
                 d="m 615.867,207.402 c -5.347,-1.856 -10.635,-3.511 -15.876,-4.974 v 0 c 8.931,-2.396 35.359,-11.468 77.525,-7.999 v 0 c 60.443,4.969 103.328,-44.286 105.029,-66.397 v 0 c 1.7,-22.11 -9.355,-40.252 -16.725,-46.488 v 0 c -7.37,-6.237 -13.606,-9.071 -13.606,-9.071 v 0 c 0,0 44.314,8.693 58.676,37.417 v 0 c 14.362,28.723 -3.684,75.968 -52.157,101.197 v 0 c -20.748,10.798 -39.738,15.209 -59.022,15.21 v 0 c -25.767,0.002 -52.066,-7.87 -83.844,-18.895"
                 style="fill:url(#radialGradient1886);stroke:none"
                 id="path1888" /></g></g></g></g></g><g
       id="g1890"><g
         id="g1892"
         clip-path="url(#clipPath1896)"><g
           id="g1898"
           transform="translate(686.0916,195.7809)"><path
             d="m 0,0 c 33.729,0 58.264,-16.379 70.373,-26.703 15.315,-13.058 26.196,-29.523 27.076,-40.97 1.731,-22.488 -9.554,-40.965 -17.074,-47.329 -2.699,-2.283 -5.237,-4.112 -7.385,-5.519 13.006,3.785 40.375,13.999 50.914,35.077 13.977,27.952 -3.472,74.75 -51.724,99.863 C 23.321,39.847 -15.796,29.446 -69.896,10.676 -74.084,9.223 -78.289,7.875 -82.439,6.655 -71.328,3.489 -46.211,-3.444 -8.658,-0.356 -5.709,-0.114 -2.822,0 0,0 m 66.121,-124.309 c -0.427,0 -0.816,0.275 -0.951,0.695 -0.155,0.483 0.076,1.006 0.538,1.216 0.062,0.028 6.21,2.861 13.375,8.923 7.218,6.109 18.045,23.903 16.372,45.648 -0.701,9.114 -9.13,24.894 -26.38,39.602 -12.886,10.987 -40.104,28.968 -77.569,25.874 -38.554,-3.167 -64.129,4.126 -75.049,7.242 -1.079,0.307 -2.019,0.576 -2.816,0.79 -0.436,0.117 -0.74,0.509 -0.742,0.961 -0.002,0.45 0.297,0.846 0.732,0.967 5.201,1.453 10.522,3.12 15.816,4.955 54.596,18.941 94.089,29.425 143.657,3.628 49.294,-25.656 66.99,-73.729 52.589,-102.531 -14.416,-28.833 -57.549,-37.592 -59.379,-37.951 -0.064,-0.013 -0.128,-0.019 -0.193,-0.019"
             style="fill:#000000;fill-opacity:1;fill-rule:nonzero;stroke:none"
             id="path1900" /></g><g
           id="g1902"><g
             id="g1904" /><g
             id="g1936"><g
               clip-path="url(#clipPath1908)"
               opacity="0.300003"
               id="g1934"><g
                 id="g1932"><g
                   clip-path="url(#clipPath1912)"
                   id="g1930"><g
                     id="g1928"><g
                       id="g1926"><path
                         d="m 758.733,211.087 c -35.51,18.481 -65.854,18.24 -101.384,9.216 26.694,3.528 57.09,0.326 85.227,-14.319 49.884,-25.963 69.205,-68.801 54.425,-98.362 -5.946,-11.892 -23.043,-26.251 -33.99,-32.231 14.066,4.51 38.024,14.788 47.879,34.499 14.363,28.724 -3.684,75.968 -52.157,101.197"
                         style="fill:url(#radialGradient1922);stroke:none"
                         id="path1924" /></g></g></g></g></g></g></g><g
           id="g1938"
           transform="translate(955.4715,310.8659)"><path
             d="m 0,0 c -92.976,11.622 -123.874,83.622 -123.874,83.622 0,0 17.008,-30.047 62.646,-36.566 C -15.59,40.536 48,59.812 76.914,95.339 c 2.352,2.89 4.645,5.57 6.898,8.096 9.343,-2.066 21.851,-8.108 30.519,-24.914 C 129.827,48.473 92.977,-11.622 0,0 m 134.221,198.071 c 2.267,26.15 34.724,25.866 34.157,2.339 -0.387,-16.057 -10.419,-18.912 -28.101,-23.161 -3.993,4.578 -6.888,11.225 -6.056,20.822 M -710.943,0 c -92.976,-11.622 -129.827,48.473 -114.33,78.521 8.667,16.806 21.175,22.848 30.518,24.914 2.253,-2.526 4.547,-5.206 6.899,-8.096 28.913,-35.527 92.503,-54.803 138.141,-48.283 45.638,6.519 62.646,36.566 62.646,36.566 0,0 -30.898,-72 -123.874,-83.622 m -168.378,200.41 c -0.567,23.527 31.889,23.811 34.158,-2.339 0.832,-9.597 -2.064,-16.244 -6.057,-20.822 -17.682,4.249 -27.714,7.104 -28.101,23.161 M 195.874,187.229 c 4.11,16.015 0.662,48.519 -35.244,57.401 -35.905,8.882 -63.118,-30.142 -48.945,-57.826 3.235,-6.319 7.375,-10.737 11.831,-13.816 -3.995,-1.134 -8.225,-2.451 -12.681,-4.043 C 75.118,156.189 61.229,120.756 5.953,116.504 c -55.275,-4.252 -115.653,14.74 -159.023,90.426 -43.37,75.684 -3.402,135.213 -3.402,261.07 0,124.497 -120.646,161.618 -197.738,162.407 0,0.002 -0.002,0.019 -0.002,0.019 -0.416,0 -0.841,-0.008 -1.26,-0.01 -0.418,0.002 -0.842,0.01 -1.258,0.01 0,0 -0.002,-0.017 -0.002,-0.019 -77.092,-0.789 -197.739,-37.91 -197.739,-162.407 0,-125.857 39.969,-185.386 -3.401,-261.07 -43.37,-75.686 -103.748,-94.678 -159.024,-90.426 -55.275,4.252 -69.166,39.685 -104.881,52.441 -4.456,1.592 -8.688,2.909 -12.681,4.043 4.456,3.079 8.596,7.497 11.83,13.816 14.173,27.684 -13.039,66.708 -48.945,57.826 -35.906,-8.882 -39.355,-41.386 -35.244,-57.401 4.11,-16.016 12.472,-31.464 40.819,-40.536 7.362,-2.356 14.219,-4.559 20.846,-7.147 -15.781,-8.061 -41.841,-28.754 -48.059,-78.884 -9.07,-73.134 58.11,-113.67 120.473,-141.449 62.362,-27.779 173.48,-0.567 265.889,70.866 91.84,70.993 83.442,115.1 151.377,115.641 67.937,-0.541 59.537,-44.648 151.378,-115.641 92.409,-71.433 203.528,-98.645 265.89,-70.866 62.362,27.779 129.543,68.315 120.472,141.449 -6.217,50.13 -32.279,70.823 -48.059,78.884 6.627,2.588 13.484,4.791 20.847,7.147 28.346,9.072 36.708,24.52 40.818,40.536"
             style="fill:#9170b0;fill-opacity:1;fill-rule:nonzero;stroke:none"
             id="path1940" /></g><g
           id="g1942"><g
             id="g1944" /><g
             id="g2006"><g
               clip-path="url(#clipPath1948)"
               opacity="0.600006"
               id="g2004"><g
                 id="g2002"><g
                   clip-path="url(#clipPath1952)"
                   id="g2000"><g
                     id="g1998"><g
                       id="g1990" /><g
                       mask="url(#mask1968)"
                       id="g1996"><g
                         id="g1994"><path
                           d="m 955.471,310.866 c -92.975,11.622 -123.874,83.622 -123.874,83.622 0,0 17.008,-30.047 62.647,-36.566 45.638,-6.52 109.227,12.755 138.141,48.283 2.352,2.889 4.645,5.57 6.899,8.095 9.343,-2.065 21.851,-8.107 30.518,-24.914 15.497,-30.047 -21.354,-90.142 -114.331,-78.52 m 134.221,198.071 c 2.268,26.15 34.725,25.866 34.157,2.339 -0.386,-16.058 -10.419,-18.912 -28.1,-23.161 -3.993,4.578 -6.889,11.225 -6.057,20.822 M 244.528,310.866 c -92.975,-11.622 -129.826,48.473 -114.33,78.52 8.667,16.807 21.176,22.849 30.519,24.914 2.253,-2.525 4.546,-5.206 6.898,-8.095 28.913,-35.528 92.504,-54.803 138.142,-48.283 45.637,6.519 62.645,36.566 62.645,36.566 0,0 -30.897,-72 -123.874,-83.622 M 76.15,511.276 c -0.566,23.527 31.89,23.811 34.158,-2.339 0.832,-9.597 -2.063,-16.244 -6.056,-20.822 -17.683,4.249 -27.714,7.103 -28.102,23.161 m 1075.195,-13.182 c 4.111,16.016 0.663,48.52 -35.244,57.402 -35.905,8.882 -63.118,-30.142 -48.944,-57.826 3.234,-6.319 7.374,-10.737 11.83,-13.816 -3.994,-1.134 -8.225,-2.451 -12.681,-4.043 C 1030.59,467.055 1016.7,431.622 961.425,427.37 906.149,423.118 845.771,442.11 802.401,517.796 759.031,593.48 799,653.008 799,778.866 c 0,124.497 -120.647,161.618 -197.738,162.407 0,0.002 -0.002,0.019 -0.002,0.019 -0.416,0 -0.841,-0.008 -1.26,-0.01 -0.418,0.002 -0.843,0.01 -1.259,0.01 0,0 -0.002,-0.017 -0.002,-0.019 -77.092,-0.789 -197.738,-37.91 -197.738,-162.407 0,-125.858 39.969,-185.386 -3.402,-261.07 -43.37,-75.686 -103.748,-94.678 -159.023,-90.426 -55.275,4.252 -69.166,39.685 -104.882,52.441 -4.456,1.592 -8.687,2.909 -12.681,4.043 4.457,3.079 8.596,7.497 11.831,13.816 14.172,27.684 -13.039,66.708 -48.946,57.826 -35.905,-8.882 -39.354,-41.386 -35.244,-57.402 4.11,-16.015 12.473,-31.463 40.819,-40.535 7.363,-2.356 14.219,-4.559 20.846,-7.147 -15.78,-8.061 -41.841,-28.754 -48.058,-78.884 -9.071,-73.134 58.11,-113.67 120.472,-141.449 62.363,-27.78 173.481,-0.567 265.89,70.866 91.84,70.993 83.441,115.1 151.377,115.641 67.936,-0.541 59.537,-44.648 151.378,-115.641 92.409,-71.433 203.527,-98.646 265.889,-70.866 62.363,27.779 129.543,68.315 120.473,141.449 -6.218,50.13 -32.279,70.823 -48.06,78.884 6.627,2.588 13.485,4.791 20.847,7.147 28.347,9.072 36.708,24.52 40.818,40.535"
                           style="fill:url(#radialGradient1988);stroke:none"
                           id="path1992" /></g></g></g></g></g></g></g></g><g
           id="g2008"><g
             id="g2010" /><g
             id="g2022"><g
               clip-path="url(#clipPath2014)"
               opacity="0.600006"
               id="g2020"><g
                 transform="translate(295.4256,380.6891)"
                 id="g2018"><path
                   d="m 0,0 c -44.916,-10.385 -83.212,4.067 -129.1,45.169 -34.119,30.562 -65.608,34.016 -93.955,43.087 -4.695,1.502 -8.642,3.5 -12.002,5.847 6.144,-6.818 15.224,-12.791 29.105,-17.233 28.347,-9.071 49.228,-15.827 78.141,-51.354 28.914,-35.528 92.504,-54.803 138.142,-48.284 45.638,6.52 62.646,36.567 62.646,36.567 0,0 53.575,80.504 64.493,173.956 C 137.47,187.755 119.758,27.688 0,0"
                   style="fill:#6d4096;fill-opacity:1;fill-rule:nonzero;stroke:none"
                   id="path2016" /></g></g></g></g><g
           id="g2024"><g
             id="g2026" /><g
             id="g2058"><g
               clip-path="url(#clipPath2030)"
               opacity="0.300003"
               id="g2056"><g
                 id="g2054"><g
                   clip-path="url(#clipPath2034)"
                   id="g2052"><g
                     id="g2050"><g
                       id="g2048"><path
                         d="m 947.75,298.077 c -131.176,18.895 -254.608,189.687 -198.641,425.797 26.459,111.619 -67.846,175.253 -143.338,181.207 -0.045,0.296 -0.07,0.465 -0.07,0.465 -1.883,0 -3.786,-0.05 -5.701,-0.127 -1.914,0.077 -3.819,0.127 -5.7,0.127 0,0 -0.026,-0.169 -0.071,-0.465 C 518.737,899.127 424.432,835.493 450.89,723.874 506.858,487.764 383.427,316.972 252.251,298.077 c -35.188,-5.069 -85.061,5.795 -104.384,16.474 0,0 10.386,-19.798 60.661,-30.614 69.839,-15.023 145.229,9.638 214.317,75.368 82.987,78.954 110.735,102.348 177.155,103.221 66.421,-0.873 94.168,-24.267 177.156,-103.221 69.088,-65.73 144.478,-90.391 214.315,-75.368 50.277,10.816 60.663,30.614 60.663,30.614 -19.324,-10.679 -69.198,-21.543 -104.384,-16.474"
                         style="fill:url(#radialGradient2044);stroke:none"
                         id="path2046" /></g></g></g></g></g></g></g><g
           id="g2060"><g
             id="g2062" /><g
             id="g2074"><g
               clip-path="url(#clipPath2066)"
               opacity="0.600006"
               id="g2072"><g
                 transform="translate(904.574,380.6891)"
                 id="g2070"><path
                   d="m 0,0 c 45.522,-7.285 83.213,4.067 129.1,45.169 34.12,30.562 65.609,34.016 93.956,43.087 4.694,1.502 8.641,3.5 12.002,5.847 C 228.914,87.285 219.833,81.312 205.953,76.87 177.606,67.799 156.725,61.043 127.811,25.516 98.897,-10.012 35.308,-29.287 -10.331,-22.768 c -45.638,6.52 -62.646,36.567 -62.646,36.567 0,0 -53.574,80.504 -64.492,173.956 0,0 24.132,-169.615 137.469,-187.755"
                   style="fill:#6d4096;fill-opacity:1;fill-rule:nonzero;stroke:none"
                   id="path2068" /></g></g></g></g><g
           id="g2076"><g
             id="g2078" /><g
             id="g2090"><g
               clip-path="url(#clipPath2082)"
               opacity="0.600006"
               id="g2088"><g
                 transform="translate(81.8992,525.362)"
                 id="g2086"><path
                   d="m 0,0 c -0.008,-0.003 -0.016,-0.006 -0.023,-0.01 -24.748,-11.151 -11.573,-58.984 24.322,-52.06 35.894,6.923 43.086,-30.615 106.015,-52.725 62.929,-22.11 125.291,0.378 173.481,51.401 48.188,51.024 43.072,147.023 31.181,216.756 -9.99,58.58 -13.711,121.003 4.11,167.782 -12.467,-20.974 -19.984,-46.584 -19.984,-77.64 0,-125.858 39.968,-185.386 -3.402,-261.07 -43.37,-75.686 -103.748,-94.678 -159.023,-90.426 -55.276,4.252 -69.166,39.685 -104.882,52.441 -4.456,1.592 -8.688,2.909 -12.681,4.043 -7.233,-5.389 -19.681,-8.578 -33.807,-5.366 9.885,2.209 15.13,7.524 17.046,9.627 C 4.67,-32.998 -5.361,-30.144 -5.749,-14.086 -5.905,-7.597 -3.542,-2.886 0,0"
                   style="fill:#6d4096;fill-opacity:1;fill-rule:nonzero;stroke:none"
                   id="path2084" /></g></g></g></g><g
           id="g2092"><g
             id="g2094" /><g
             id="g2106"><g
               clip-path="url(#clipPath2098)"
               opacity="0.600006"
               id="g2104"><g
                 transform="translate(1024.8259,254.9196)"
                 id="g2102"><path
                   d="m 0,0 c -102.047,-17.281 -186.17,13.152 -271.181,90.246 -73.064,66.26 -106.067,91.816 -153.645,87.406 -47.578,4.41 -80.581,-21.146 -153.645,-87.406 C -663.481,13.152 -747.604,-17.281 -849.652,0 c -63.675,10.783 -95.047,48.75 -109.639,75.779 14.847,-48.3 67.549,-78.503 117.198,-100.62 62.363,-27.779 173.481,-0.566 265.89,70.866 91.84,70.994 83.441,115.1 151.377,115.641 67.936,-0.541 59.537,-44.647 151.378,-115.641 C -181.039,-25.407 -69.921,-52.62 -7.559,-24.841 42.091,-2.724 94.793,27.479 109.64,75.779 95.048,48.75 63.675,10.783 0,0"
                   style="fill:#6d4096;fill-opacity:1;fill-rule:nonzero;stroke:none"
                   id="path2100" /></g></g></g></g><g
           id="g2108"><g
             id="g2110" /><g
             id="g2122"><g
               clip-path="url(#clipPath2114)"
               opacity="0.600006"
               id="g2120"><g
                 transform="translate(1118.1003,525.362)"
                 id="g2118"><path
                   d="m 0,0 c 0.008,-0.003 0.017,-0.006 0.024,-0.01 24.747,-11.151 11.573,-58.984 -24.322,-52.06 -35.894,6.923 -43.087,-30.615 -106.015,-52.725 -62.93,-22.11 -134.325,-0.928 -175.196,56.126 -45.486,63.496 -41.248,136.913 -27.779,210.047 10.763,58.443 12.023,122.987 -5.797,169.766 12.467,-20.974 19.984,-46.584 19.984,-77.64 0,-125.858 -39.968,-185.386 3.402,-261.07 43.37,-75.686 103.748,-94.678 159.023,-90.426 55.276,4.252 69.165,39.685 104.882,52.441 4.456,1.592 8.687,2.909 12.681,4.043 7.232,-5.389 19.681,-8.578 33.807,-5.366 -9.885,2.209 -15.13,7.524 -17.046,9.627 17.682,4.249 27.714,7.103 28.101,23.161 C 5.905,-7.597 3.543,-2.886 0,0"
                   style="fill:#6d4096;fill-opacity:1;fill-rule:nonzero;stroke:none"
                   id="path2116" /></g></g></g></g><g
           id="g2124"
           transform="translate(423.4266,968.8044)"><path
             d="M 0,0 C -0.427,-1.319 -0.479,-2.605 -0.09,-3.801 1.759,-9.479 12.753,-10.989 24.468,-7.176 36.183,-3.362 44.181,4.332 42.332,10.01 41.462,12.684 38.548,14.42 34.5,15.125 27.932,12.352 21.011,9.409 13.669,6.22 9.221,4.286 4.653,2.214 0,0"
             style="fill:#c8c442;fill-opacity:1;fill-rule:nonzero;stroke:none"
             id="path2126" /></g><g
           id="g2128"
           transform="translate(364.7908,929.3034)"><path
             d="m 0,0 c 3.209,-5.036 14.233,-3.75 24.622,2.871 10.39,6.621 16.211,16.07 13.002,21.106 -0.829,1.3 -2.187,2.171 -3.914,2.645 C 22.283,20.227 10.682,13.009 -0.69,4.916 -1.055,3.052 -0.867,1.361 0,0"
             style="fill:#c8c442;fill-opacity:1;fill-rule:nonzero;stroke:none"
             id="path2130" /></g><g
           id="g2132"
           transform="translate(342.6483,910.1052)"><path
             d="m 0,0 c -1.414,1.554 -3.66,2.152 -6.359,1.938 -9.939,-8.907 -19.376,-18.609 -27.997,-29.136 0.22,-1.097 0.661,-2.063 1.368,-2.838 4.019,-4.415 14.663,-1.271 23.772,7.023 C -0.105,-14.719 4.021,-4.416 0,0"
             style="fill:#c8c442;fill-opacity:1;fill-rule:nonzero;stroke:none"
             id="path2134" /></g><g
           id="g2136"
           transform="translate(274.0682,800.9382)"><path
             d="m 0,0 c 6.156,-2.409 15.176,5.936 20.146,18.638 4.97,12.702 4.009,24.952 -2.147,27.36 -2.691,1.053 -5.93,0.052 -9.137,-2.471 C 3.199,32.482 -1.516,20.741 -5.071,8.288 -4.461,4.12 -2.751,1.076 0,0"
             style="fill:#c8c442;fill-opacity:1;fill-rule:nonzero;stroke:none"
             id="path2138" /></g><g
           id="g2140"
           transform="translate(273.1854,709.8679)"><path
             d="m 0,0 c 6.557,0.845 10.458,12.497 8.715,26.024 -1.744,13.529 -8.473,23.81 -15.029,22.965 -2.077,-0.267 -3.886,-1.622 -5.334,-3.773 0,-0.01 -10e-4,-0.019 -10e-4,-0.028 0,-13.768 0.893,-26.909 2.558,-39.43 C -6.415,1.813 -3.188,-0.411 0,0"
             style="fill:#c8c442;fill-opacity:1;fill-rule:nonzero;stroke:none"
             id="path2142" /></g><g
           id="g2144"
           transform="translate(307.575,623.5934)"><path
             d="m 0,0 c 6.597,3.271 6.473,16.956 -0.276,30.565 -6.749,13.611 -17.568,21.992 -24.164,18.72 -3.933,-1.95 -5.476,-7.604 -4.651,-14.736 3.677,-9.611 7.866,-18.679 12.494,-27.194 C -10.842,0.905 -4.457,-2.21 0,0"
             style="fill:#c8c442;fill-opacity:1;fill-rule:nonzero;stroke:none"
             id="path2146" /></g><g
           id="g2148"
           transform="translate(330.2791,579.6218)"><path
             d="m 0,0 c 5.556,-5.224 11.302,-9.998 17.181,-14.318 9.053,-4.764 17.557,-5.501 21.065,-1.163 4.629,5.726 -1.196,18.11 -13.01,27.66 C 13.423,21.729 0.094,24.83 -4.535,19.104 -7.856,14.995 -5.795,7.458 0,0"
             style="fill:#c8c442;fill-opacity:1;fill-rule:nonzero;stroke:none"
             id="path2150" /></g><g
           id="g2152"
           transform="translate(203.0301,385.2233)"><path
             d="m 0,0 c 3.565,4.663 -1.509,14.533 -11.333,22.046 -9.825,7.512 -20.681,9.82 -24.247,5.156 -0.956,-1.251 -1.273,-2.885 -1.061,-4.739 0.41,-0.495 0.814,-0.975 1.226,-1.482 C -28.273,12.206 -19.011,4.428 -8.432,-2.221 -4.659,-2.77 -1.597,-2.089 0,0"
             style="fill:#c8c442;fill-opacity:1;fill-rule:nonzero;stroke:none"
             id="path2154" /></g><g
           id="g2156"
           transform="translate(266.1932,378.7858)"><path
             d="m 0,0 c -12.195,2.062 -22.874,-0.96 -23.853,-6.749 -0.75,-4.438 4.421,-9.21 12.368,-12.126 6.209,-1.201 12.416,-2.075 18.535,-2.611 7.257,0.587 12.582,3.266 13.259,7.272 C 21.287,-8.425 12.194,-2.062 0,0"
             style="fill:#c8c442;fill-opacity:1;fill-rule:nonzero;stroke:none"
             id="path2158" /></g><g
           id="g2160"
           transform="translate(371.8729,399.986)"><path
             d="m 0,0 c 0.045,1.655 0.086,2.896 -0.827,4.003 -3.732,4.532 -14.496,1.832 -24.043,-6.03 -9.547,-7.863 -14.261,-17.91 -10.529,-22.442 2.27,-2.757 7.148,-2.823 12.767,-0.693 13.503,9.698 19.161,19.664 19.161,19.664 0,0 1.211,1.874 3.471,5.498"
             style="fill:#c8c442;fill-opacity:1;fill-rule:nonzero;stroke:none"
             id="path2162" /></g><g
           id="g2164"
           transform="translate(77.0447,317.152)"><path
             d="M 0,0 C 5.832,1.52 8.114,12.146 5.097,23.735 2.079,35.325 -5.096,43.49 -10.928,41.971 -12.896,41.459 -14.449,39.891 -15.542,37.616 -15.075,24.855 -12.157,13.185 -7.32,2.473 -4.9,0.363 -2.344,-0.609 0,0"
             style="fill:#c8c442;fill-opacity:1;fill-rule:nonzero;stroke:none"
             id="path2166" /></g><g
           id="g2168"
           transform="translate(141.1434,258.6335)"><path
             d="m 0,0 c 3.372,4.995 -1.939,14.478 -11.865,21.179 -9.926,6.702 -20.707,8.085 -24.079,3.09 -1.312,-1.943 -1.296,-4.566 -0.221,-7.437 C -27.589,9.661 -18.149,3.096 -8.231,-2.961 -4.501,-3.183 -1.508,-2.233 0,0"
             style="fill:#c8c442;fill-opacity:1;fill-rule:nonzero;stroke:none"
             id="path2170" /></g><g
           id="g2172"
           transform="translate(211.9412,242.3425)"><path
             d="m 0,0 c -11.838,1.813 -22.175,-1.546 -23.087,-7.504 -0.505,-3.294 1.981,-6.69 6.301,-9.377 7.52,-2.298 15.582,-3.934 24.093,-4.929 6.859,0.835 11.854,3.682 12.476,7.74 C 20.695,-8.113 11.839,-1.813 0,0"
             style="fill:#c8c442;fill-opacity:1;fill-rule:nonzero;stroke:none"
             id="path2174" /></g><g
           id="g2176"
           transform="translate(333.7635,248.5944)"><path
             d="m 0,0 c -2.07,6.397 -14.051,8.249 -26.761,4.137 -12.711,-4.113 -21.337,-12.631 -19.266,-19.028 1.279,-3.955 6.35,-6.17 13.039,-6.314 7.847,1.943 15.806,4.237 23.837,6.87 C -2.362,-10.014 1.451,-4.485 0,0"
             style="fill:#c8c442;fill-opacity:1;fill-rule:nonzero;stroke:none"
             id="path2178" /></g><g
           id="g2180"
           transform="translate(421.9129,293.8542)"><path
             d="m 0,0 c -3.593,6.224 -16.53,5.481 -28.896,-1.658 -12.367,-7.14 -19.478,-17.973 -15.885,-24.196 2.36,-4.089 8.764,-5.152 16.381,-3.387 8.098,4.5 16.158,9.314 24.138,14.452 C 0.364,-9.403 2.211,-3.829 0,0"
             style="fill:#c8c442;fill-opacity:1;fill-rule:nonzero;stroke:none"
             id="path2182" /></g><g
           id="g2184"
           transform="translate(478.2381,360.6432)"><path
             d="m 0,0 c -10.345,-9.843 -14.715,-22.043 -9.761,-27.249 3.862,-4.059 12.25,-2.648 20.662,2.825 5.591,5.515 10.625,10.787 15.219,15.8 4.019,6.936 4.891,13.541 1.579,17.02 C 22.746,13.603 10.345,9.843 0,0"
             style="fill:#c8c442;fill-opacity:1;fill-rule:nonzero;stroke:none"
             id="path2186" /></g><g
           id="g2188"
           transform="translate(776.574,968.8044)"><path
             d="m 0,0 c 0.427,-1.319 0.479,-2.605 0.09,-3.801 -1.849,-5.678 -12.844,-7.188 -24.559,-3.375 -11.714,3.814 -19.713,11.508 -17.864,17.186 0.871,2.674 3.785,4.41 7.832,5.115 6.569,-2.773 13.49,-5.716 20.832,-8.905 C -9.221,4.286 -4.653,2.214 0,0"
             style="fill:#c8c442;fill-opacity:1;fill-rule:nonzero;stroke:none"
             id="path2190" /></g><g
           id="g2192"
           transform="translate(835.2088,929.3034)"><path
             d="m 0,0 c -3.209,-5.036 -14.232,-3.75 -24.622,2.871 -10.389,6.621 -16.21,16.07 -13.001,21.106 0.829,1.3 2.187,2.171 3.914,2.645 C -22.283,20.227 -10.681,13.009 0.69,4.916 1.056,3.052 0.868,1.361 0,0"
             style="fill:#c8c442;fill-opacity:1;fill-rule:nonzero;stroke:none"
             id="path2194" /></g><g
           id="g2196"
           transform="translate(857.3514,910.1052)"><path
             d="m 0,0 c 1.415,1.554 3.66,2.152 6.36,1.938 9.939,-8.907 19.376,-18.609 27.997,-29.136 -0.22,-1.097 -0.662,-2.063 -1.368,-2.838 C 28.97,-34.451 18.326,-31.307 9.216,-23.013 0.106,-14.719 -4.02,-4.416 0,0"
             style="fill:#c8c442;fill-opacity:1;fill-rule:nonzero;stroke:none"
             id="path2198" /></g><g
           id="g2200"
           transform="translate(925.9324,800.9382)"><path
             d="m 0,0 c -6.156,-2.409 -15.177,5.936 -20.146,18.638 -4.971,12.702 -4.009,24.952 2.147,27.36 2.691,1.053 5.929,0.052 9.137,-2.471 C -3.199,32.482 1.516,20.741 5.071,8.288 4.461,4.12 2.75,1.076 0,0"
             style="fill:#c8c442;fill-opacity:1;fill-rule:nonzero;stroke:none"
             id="path2202" /></g><g
           id="g2204"
           transform="translate(926.8152,709.8679)"><path
             d="m 0,0 c -6.557,0.845 -10.458,12.497 -8.715,26.024 1.744,13.529 8.473,23.81 15.029,22.965 2.077,-0.267 3.885,-1.622 5.334,-3.773 V 45.188 C 11.648,31.42 10.755,18.279 9.091,5.758 6.414,1.813 3.188,-0.411 0,0"
             style="fill:#c8c442;fill-opacity:1;fill-rule:nonzero;stroke:none"
             id="path2206" /></g><g
           id="g2208"
           transform="translate(892.4256,623.5934)"><path
             d="m 0,0 c -6.597,3.271 -6.473,16.956 0.276,30.565 6.749,13.611 17.568,21.992 24.164,18.72 3.933,-1.95 5.476,-7.604 4.65,-14.736 C 25.414,24.938 21.225,15.87 16.597,7.355 10.842,0.905 4.457,-2.21 0,0"
             style="fill:#c8c442;fill-opacity:1;fill-rule:nonzero;stroke:none"
             id="path2210" /></g><g
           id="g2212"
           transform="translate(869.7215,579.6218)"><path
             d="m 0,0 c -5.557,-5.224 -11.302,-9.998 -17.182,-14.318 -9.053,-4.764 -17.557,-5.501 -21.064,-1.163 -4.629,5.726 1.195,18.11 13.01,27.66 11.813,9.55 25.142,12.651 29.771,6.925 C 7.856,14.995 5.795,7.458 0,0"
             style="fill:#c8c442;fill-opacity:1;fill-rule:nonzero;stroke:none"
             id="path2214" /></g><g
           id="g2216"
           transform="translate(996.9705,385.2233)"><path
             d="m 0,0 c -3.566,4.663 1.508,14.533 11.333,22.046 9.825,7.512 20.681,9.82 24.246,5.156 0.957,-1.251 1.273,-2.885 1.062,-4.739 -0.41,-0.495 -0.814,-0.975 -1.226,-1.482 C 28.273,12.206 19.011,4.428 8.432,-2.221 4.659,-2.77 1.596,-2.089 0,0"
             style="fill:#c8c442;fill-opacity:1;fill-rule:nonzero;stroke:none"
             id="path2218" /></g><g
           id="g2220"
           transform="translate(933.8074,378.7858)"><path
             d="m 0,0 c 12.194,2.062 22.874,-0.96 23.852,-6.749 0.75,-4.438 -4.421,-9.21 -12.368,-12.126 -6.208,-1.201 -12.415,-2.075 -18.534,-2.611 -7.257,0.587 -12.582,3.266 -13.259,7.272 C -21.287,-8.425 -12.195,-2.062 0,0"
             style="fill:#c8c442;fill-opacity:1;fill-rule:nonzero;stroke:none"
             id="path2222" /></g><g
           id="g2224"
           transform="translate(827.91,400.3464)"><path
             d="m 0,0 c -0.045,1.655 0.132,2.535 1.044,3.643 3.732,4.532 14.497,1.832 24.044,-6.031 9.547,-7.862 14.261,-17.909 10.528,-22.441 -2.27,-2.757 -7.148,-2.823 -12.766,-0.693 C 9.347,-15.824 3.688,-5.858 3.688,-5.858 3.688,-5.858 2.232,-3.604 0,0"
             style="fill:#c8c442;fill-opacity:1;fill-rule:nonzero;stroke:none"
             id="path2226" /></g><g
           id="g2228"
           transform="translate(1122.9558,317.152)"><path
             d="m 0,0 c -5.833,1.52 -8.115,12.146 -5.098,23.735 3.018,11.59 10.193,19.755 16.026,18.236 1.968,-0.512 3.521,-2.08 4.614,-4.355 C 15.075,24.855 12.157,13.185 7.319,2.473 4.9,0.363 2.343,-0.609 0,0"
             style="fill:#c8c442;fill-opacity:1;fill-rule:nonzero;stroke:none"
             id="path2230" /></g><g
           id="g2232"
           transform="translate(1058.8572,258.6335)"><path
             d="m 0,0 c -3.373,4.995 1.939,14.478 11.865,21.179 9.926,6.702 20.706,8.085 24.079,3.09 1.312,-1.943 1.295,-4.566 0.221,-7.437 C 27.589,9.661 18.148,3.096 8.231,-2.961 4.501,-3.183 1.508,-2.233 0,0"
             style="fill:#c8c442;fill-opacity:1;fill-rule:nonzero;stroke:none"
             id="path2234" /></g><g
           id="g2236"
           transform="translate(988.0584,242.3425)"><path
             d="m 0,0 c 11.839,1.813 22.175,-1.546 23.088,-7.504 0.504,-3.294 -1.981,-6.69 -6.301,-9.377 -7.52,-2.298 -15.583,-3.934 -24.094,-4.929 -6.858,0.835 -11.854,3.682 -12.475,7.74 C -20.695,-8.113 -11.838,-1.813 0,0"
             style="fill:#c8c442;fill-opacity:1;fill-rule:nonzero;stroke:none"
             id="path2238" /></g><g
           id="g2240"
           transform="translate(866.2371,248.5944)"><path
             d="m 0,0 c 2.069,6.397 14.051,8.249 26.761,4.137 12.71,-4.113 21.336,-12.631 19.266,-19.028 -1.279,-3.955 -6.351,-6.17 -13.039,-6.314 -7.847,1.943 -15.806,4.237 -23.837,6.87 C 2.362,-10.014 -1.451,-4.485 0,0"
             style="fill:#c8c442;fill-opacity:1;fill-rule:nonzero;stroke:none"
             id="path2242" /></g><g
           id="g2244"
           transform="translate(778.0867,293.8542)"><path
             d="m 0,0 c 3.594,6.224 16.531,5.481 28.897,-1.658 12.367,-7.14 19.478,-17.973 15.885,-24.196 -2.361,-4.089 -8.764,-5.152 -16.381,-3.387 -8.098,4.5 -16.159,9.314 -24.139,14.452 C -0.363,-9.403 -2.211,-3.829 0,0"
             style="fill:#c8c442;fill-opacity:1;fill-rule:nonzero;stroke:none"
             id="path2246" /></g><g
           id="g2248"
           transform="translate(721.7625,360.6432)"><path
             d="m 0,0 c 10.345,-9.843 14.714,-22.043 9.761,-27.249 -3.863,-4.059 -12.251,-2.648 -20.662,2.825 -5.591,5.515 -10.626,10.787 -15.219,15.8 -4.019,6.936 -4.891,13.541 -1.58,17.02 C -22.746,13.603 -10.345,9.843 0,0"
             style="fill:#c8c442;fill-opacity:1;fill-rule:nonzero;stroke:none"
             id="path2250" /></g><g
           id="g2252"
           transform="translate(635.2088,696.3776)"><path
             d="m 0,0 c 3.446,-2.253 7.062,-3.752 10.696,-4.893 3.633,-1.133 7.309,-1.835 10.995,-2.181 0.92,-0.095 1.831,-0.209 2.765,-0.207 0.928,-0.021 1.841,-0.11 2.764,-0.115 1.859,0.066 3.691,-0.011 5.548,0.182 0.922,0.096 1.847,0.061 2.766,0.203 l 2.756,0.339 1.378,0.149 1.348,0.25 2.696,0.488 2.646,0.642 c 0.44,0.112 0.885,0.205 1.322,0.329 l 1.297,0.421 c 0.865,0.284 1.752,0.479 2.607,0.83 0.862,0.323 1.718,0.66 2.593,0.959 3.469,1.358 6.955,3.081 10.876,4.631 1.953,0.771 4.027,1.482 6.203,1.962 2.17,0.487 4.433,0.717 6.653,0.623 C 82.369,4.407 86.457,2.937 90,0.851 85.839,0.852 81.924,0.725 78.399,-0.278 c -3.528,-0.96 -6.597,-2.679 -9.832,-4.728 -3.218,-2.049 -6.673,-4.317 -10.502,-6.249 -1.948,-0.92 -3.918,-1.804 -5.988,-2.516 l -1.545,-0.538 c -0.52,-0.16 -1.052,-0.288 -1.578,-0.432 -1.056,-0.276 -2.108,-0.572 -3.169,-0.823 -4.289,-0.787 -8.569,-1.265 -12.873,-1.111 -4.29,0.067 -8.618,0.691 -12.769,1.919 -4.15,1.217 -8.141,3.028 -11.649,5.497 C 6.727,-8.057 5.118,-6.621 3.65,-5.107 2.2,-3.575 0.905,-1.873 0,0"
             style="fill:#000000;fill-opacity:1;fill-rule:nonzero;stroke:none"
             id="path2254" /></g><g
           id="g2256"
           transform="translate(653.1609,743.528)"><path
             d="m 0,0 c 2.596,2.203 5.518,3.991 8.498,5.652 3.003,1.623 6.124,3.047 9.339,4.236 6.419,2.41 13.186,3.965 20.049,4.593 3.431,0.327 6.886,0.367 10.326,0.221 l 2.577,-0.177 c 0.857,-0.064 1.712,-0.181 2.566,-0.269 1.714,-0.145 3.405,-0.496 5.095,-0.78 C 65.187,12.145 71.721,9.883 77.67,6.614 71.104,8.334 64.569,9.67 57.989,10.388 51.403,11.048 44.804,11.09 38.247,10.499 31.696,9.891 25.186,8.714 18.8,6.932 12.417,5.138 6.124,2.893 0,0"
             style="fill:#000000;fill-opacity:1;fill-rule:nonzero;stroke:none"
             id="path2258" /></g><g
           id="g2260"
           transform="translate(567.3094,696.3776)"><path
             d="m 0,0 c -0.905,-1.873 -2.199,-3.575 -3.65,-5.107 -1.468,-1.514 -3.077,-2.95 -4.844,-4.152 -3.508,-2.469 -7.499,-4.28 -11.648,-5.497 -4.152,-1.228 -8.48,-1.852 -12.77,-1.919 -4.304,-0.154 -8.584,0.324 -12.873,1.111 -1.061,0.251 -2.113,0.547 -3.169,0.823 -0.526,0.144 -1.057,0.272 -1.578,0.432 l -1.545,0.538 c -2.069,0.712 -4.04,1.596 -5.988,2.516 -3.828,1.932 -7.284,4.2 -10.502,6.249 -3.235,2.049 -6.304,3.768 -9.832,4.728 -3.525,1.003 -7.439,1.13 -11.601,1.129 3.543,2.086 7.631,3.556 12.091,3.761 2.22,0.094 4.484,-0.136 6.653,-0.623 2.176,-0.48 4.25,-1.191 6.203,-1.962 3.921,-1.55 7.407,-3.273 10.876,-4.631 0.876,-0.299 1.732,-0.636 2.593,-0.959 0.855,-0.351 1.742,-0.546 2.607,-0.83 l 1.297,-0.421 c 0.437,-0.124 0.882,-0.217 1.323,-0.329 l 2.645,-0.642 2.696,-0.488 1.349,-0.25 1.377,-0.149 2.756,-0.339 c 0.919,-0.142 1.844,-0.107 2.767,-0.203 1.856,-0.193 3.689,-0.116 5.547,-0.182 0.924,0.005 1.836,0.094 2.764,0.115 0.935,-0.002 1.845,0.112 2.765,0.207 3.686,0.346 7.362,1.048 10.995,2.181 C -7.062,-3.752 -3.446,-2.253 0,0"
             style="fill:#000000;fill-opacity:1;fill-rule:nonzero;stroke:none"
             id="path2262" /></g><g
           id="g2264"
           transform="translate(549.3572,743.528)"><path
             d="m 0,0 c -6.124,2.893 -12.416,5.138 -18.799,6.932 -6.387,1.782 -12.897,2.959 -19.448,3.567 -6.556,0.591 -13.156,0.549 -19.742,-0.111 -6.58,-0.718 -13.115,-2.054 -19.68,-3.774 5.948,3.269 12.482,5.531 19.219,6.862 1.691,0.284 3.381,0.635 5.095,0.78 0.855,0.088 1.709,0.205 2.567,0.269 l 2.576,0.177 c 3.44,0.146 6.896,0.106 10.326,-0.221 6.863,-0.628 13.631,-2.183 20.049,-4.593 3.215,-1.189 6.336,-2.613 9.34,-4.236 C -5.517,3.991 -2.596,2.203 0,0"
             style="fill:#000000;fill-opacity:1;fill-rule:nonzero;stroke:none"
             id="path2266" /></g><g
           id="g2268"
           transform="translate(555.0545,597.4489)"><path
             d="m 0,0 c 7.778,-4.146 15.423,-7.702 23.211,-10.394 7.766,-2.674 15.632,-4.462 23.48,-4.711 0.982,-0.09 1.959,-0.017 2.94,-0.038 0.489,0.007 0.98,-0.016 1.469,0.015 l 1.463,0.106 c 1.962,0.034 3.892,0.372 5.843,0.601 3.888,0.607 7.7,1.684 11.533,2.949 C 77.54,-8.729 84.863,-4.633 92.409,0 87.851,-7.589 81.21,-13.981 73.234,-18.61 c -4.037,-2.209 -8.383,-3.987 -12.941,-5.106 -2.286,-0.489 -4.597,-0.952 -6.936,-1.151 l -1.753,-0.162 c -0.585,-0.045 -1.172,-0.035 -1.757,-0.055 -1.171,-0.001 -2.349,-0.101 -3.515,-0.012 -9.39,0.312 -18.433,3.203 -26.342,7.559 -3.957,2.201 -7.659,4.778 -11.042,7.687 C 5.601,-6.904 2.466,-3.709 0,0"
             style="fill:#000000;fill-opacity:1;fill-rule:nonzero;stroke:none"
             id="path2270" /></g><g
           id="g2272"
           transform="translate(77.1502,511.2995)"><path
             d="m 0,0 c 0.358,-14.902 8.938,-17.776 26.738,-22.068 4.282,5.162 6.105,11.758 5.423,19.619 C 31.033,10.549 21.998,16.884 13.638,16.42 6.662,16.033 -0.261,10.807 0,0 m 27.102,-24.185 c -0.079,0 -0.157,0.009 -0.234,0.028 -16.517,3.969 -28.452,6.836 -28.868,24.108 -0.292,12.147 7.588,18.027 15.527,18.466 9.295,0.518 19.389,-6.428 20.626,-20.693 0.751,-8.658 -1.367,-15.913 -6.298,-21.566 -0.192,-0.22 -0.468,-0.343 -0.753,-0.343 m 986.436,21.737 c -0.682,-7.862 1.144,-14.458 5.424,-19.62 17.8,4.292 26.379,7.166 26.737,22.068 0.261,10.807 -6.661,16.033 -13.636,16.42 -8.351,0.463 -17.398,-5.87 -18.525,-18.869 z m 5.061,-21.737 c -0.286,0 -0.562,0.123 -0.754,0.343 -4.93,5.653 -7.05,12.908 -6.299,21.566 1.236,14.266 11.338,21.194 20.627,20.693 7.939,-0.44 15.819,-6.32 15.526,-18.466 -0.416,-17.272 -12.349,-20.139 -28.867,-24.108 -0.077,-0.019 -0.155,-0.028 -0.233,-0.028 M 759.144,-126.187 c 4.405,-7.005 11.695,-17.125 22.379,-27.603 17.881,-17.534 49.212,-39.688 96.922,-45.651 47.681,-5.962 87.68,7.005 107.003,34.684 9.995,14.317 12.415,30.557 6.316,42.385 -8.382,16.252 -20.434,22.18 -29.277,24.267 -2.224,-2.507 -4.347,-5.004 -6.476,-7.621 -30.852,-37.909 -96.2,-54.76 -139.06,-48.643 -30.064,4.296 -48.612,18.754 -57.807,28.182 m 141.568,-76.677 c -7.275,0 -14.794,0.473 -22.515,1.438 -48.305,6.038 -80.031,28.495 -98.138,46.271 -19.632,19.272 -27.958,37.396 -28.04,37.577 -0.217,0.479 -0.026,1.045 0.438,1.293 0.467,0.251 1.042,0.095 1.32,-0.351 0.184,-0.293 18.851,-29.38 63.457,-35.753 42.313,-6.046 106.816,10.559 137.226,47.925 2.272,2.793 4.539,5.453 6.928,8.131 0.24,0.27 0.603,0.389 0.962,0.311 9.306,-2.058 22.272,-8.14 31.191,-25.434 6.441,-12.488 3.969,-29.52 -6.453,-44.446 -16.607,-23.786 -48.022,-36.962 -86.376,-36.962 M 83.213,-98.105 c -8.844,-2.087 -20.896,-8.015 -29.276,-24.267 -6.1,-11.828 -3.68,-28.069 6.315,-42.386 19.324,-27.677 59.326,-40.643 107.002,-34.683 47.71,5.963 79.725,29.28 98.18,47.789 10.69,10.721 18.191,21.11 22.876,28.496 -9.967,-10.699 -29.577,-26.929 -59.562,-31.213 -5.739,-0.819 -11.89,-1.228 -18.299,-1.228 -41.45,-0.002 -94.041,17.039 -120.76,49.871 -2.128,2.615 -4.251,5.113 -6.476,7.621 m 61.774,-104.759 c -38.358,0 -69.767,13.174 -86.375,36.962 -10.422,14.926 -12.894,31.957 -6.453,44.446 8.918,17.293 21.884,23.376 31.192,25.434 0.354,0.076 0.722,-0.042 0.962,-0.311 2.388,-2.679 4.655,-5.339 6.927,-8.131 30.409,-37.365 94.904,-53.967 137.225,-47.925 44.617,6.374 65.766,39.698 65.975,40.034 0.279,0.449 0.856,0.604 1.324,0.353 0.465,-0.25 0.655,-0.819 0.434,-1.299 -0.088,-0.191 -9.042,-19.379 -29.29,-39.705 -18.682,-18.756 -51.095,-42.381 -99.406,-48.42 -7.718,-0.965 -15.243,-1.438 -22.515,-1.438 M 17.106,44.478 c -3.331,0 -6.719,-0.412 -10.118,-1.252 -13.382,-3.311 -23.261,-10.17 -29.366,-20.388 -7.402,-12.389 -7.4,-27.025 -5.149,-35.794 3.73,-14.537 11.419,-30.637 40.155,-39.832 6.945,-2.223 14.127,-4.522 20.905,-7.169 0.366,-0.144 0.615,-0.488 0.635,-0.882 0.02,-0.393 -0.193,-0.762 -0.544,-0.94 -15.085,-7.704 -41.317,-28.098 -47.521,-78.117 -9.064,-73.081 59.308,-113.426 119.887,-140.412 63.725,-28.382 175.118,1.366 264.871,70.745 37.141,28.709 57.51,52.612 73.877,71.818 23.227,27.255 37.246,43.706 78.104,44.031 40.874,-0.325 54.893,-16.776 78.119,-44.031 16.367,-19.206 36.736,-43.109 73.877,-71.818 66.915,-51.725 145.863,-81.424 208.113,-81.426 21.246,0 40.544,3.459 56.759,10.681 60.579,26.986 128.951,67.332 119.887,140.412 -6.204,50.019 -32.437,70.413 -47.522,78.117 -0.35,0.178 -0.563,0.547 -0.544,0.94 0.02,0.394 0.269,0.738 0.635,0.882 6.782,2.649 13.963,4.947 20.906,7.169 28.736,9.195 36.424,25.295 40.155,39.832 2.251,8.769 2.252,23.405 -5.15,35.794 -6.104,10.218 -15.984,17.077 -29.366,20.388 -15.95,3.947 -31.694,-1.558 -42.122,-14.718 -9.976,-12.59 -12.21,-28.951 -5.693,-41.683 2.889,-5.642 6.761,-10.168 11.509,-13.449 0.319,-0.22 0.482,-0.604 0.418,-0.985 -0.062,-0.382 -0.341,-0.694 -0.713,-0.799 -4.441,-1.261 -8.568,-2.576 -12.618,-4.022 -13.586,-4.852 -23.912,-12.971 -34.846,-21.568 -17.689,-13.907 -35.981,-28.289 -70.294,-30.929 -30.901,-2.377 -59.326,2.784 -84.5,15.339 -29.873,14.898 -55.265,40.328 -75.468,75.586 -27.653,48.256 -21.739,89.271 -13.555,146.035 4.696,32.575 10.02,69.495 10.02,115.533 0,125.825 -123.672,160.66 -196.748,161.407 -0.06,10e-4 -0.12,0.006 -0.176,0.017 l -1.071,-0.008 -1.08,0.008 c -0.057,-0.011 -0.116,-0.016 -0.175,-0.017 -73.077,-0.747 -196.748,-35.582 -196.748,-161.407 0,-46.038 5.323,-82.959 10.02,-115.534 8.185,-56.764 14.098,-97.778 -13.554,-146.034 -20.204,-35.258 -45.595,-60.688 -75.468,-75.586 -25.174,-12.555 -53.598,-17.713 -84.5,-15.339 -34.315,2.64 -52.607,17.022 -70.296,30.93 -10.934,8.596 -21.26,16.715 -34.845,21.567 -4.045,1.444 -8.173,2.759 -12.618,4.022 -0.372,0.105 -0.651,0.417 -0.713,0.799 -0.064,0.381 0.1,0.765 0.418,0.985 4.747,3.281 8.619,7.807 11.509,13.449 6.517,12.732 4.283,29.094 -5.694,41.684 -8.205,10.355 -19.705,15.969 -32.004,15.969 m 145.558,-337.435 c -21.513,-0.001 -41.057,3.503 -57.488,10.823 -61.208,27.265 -130.283,68.101 -121.058,142.485 6.059,48.845 30.99,70.006 46.64,78.614 -6.113,2.302 -12.522,4.352 -18.739,6.343 -29.665,9.491 -37.617,26.172 -41.484,41.239 -2.346,9.141 -2.347,24.399 5.37,37.317 6.389,10.693 16.685,17.86 30.603,21.303 16.727,4.14 33.242,-1.624 44.17,-15.416 10.462,-13.203 12.779,-30.41 5.905,-43.838 -2.699,-5.271 -6.223,-9.623 -10.492,-12.962 3.754,-1.102 7.302,-2.252 10.789,-3.498 13.893,-4.962 24.344,-13.179 35.408,-21.878 17.455,-13.723 35.505,-27.915 69.215,-30.508 67.716,-5.214 120.901,25.046 158.079,89.925 27.31,47.658 21.437,88.386 13.31,144.755 -4.707,32.642 -10.041,69.638 -10.041,115.819 0,127.279 124.702,162.592 198.537,163.405 0.065,0.013 0.133,0.02 0.203,0.02 l 1.263,-0.009 1.254,0.009 c 0.07,0 0.138,-0.007 0.204,-0.02 73.834,-0.813 198.537,-36.126 198.537,-163.405 0,-46.18 -5.334,-83.177 -10.04,-115.818 -8.128,-56.369 -14,-97.098 13.309,-144.756 37.179,-64.879 90.377,-95.126 158.079,-89.925 33.709,2.593 51.759,16.785 69.213,30.507 11.066,8.7 21.517,16.917 35.41,21.879 3.49,1.246 7.038,2.397 10.789,3.498 -4.27,3.339 -7.794,7.691 -10.492,12.962 -6.875,13.428 -4.557,30.635 5.904,43.837 10.928,13.792 27.438,19.556 44.17,15.417 13.918,-3.443 24.214,-10.61 30.603,-21.303 7.718,-12.918 7.716,-28.176 5.37,-37.317 -3.867,-15.067 -11.819,-31.748 -41.482,-41.239 -6.217,-1.991 -12.624,-4.04 -18.741,-6.343 15.65,-8.608 40.581,-29.769 46.64,-78.614 9.227,-74.383 -59.849,-115.219 -121.057,-142.485 -16.427,-7.318 -35.982,-10.823 -57.488,-10.823 -62.75,-0.003 -142.17,29.826 -209.421,81.811 -37.305,28.837 -57.749,52.828 -74.176,72.104 -23.634,27.733 -36.653,43.01 -76.597,43.328 -39.929,-0.318 -52.947,-15.595 -76.581,-43.329 -16.428,-19.275 -36.871,-43.266 -74.177,-72.103 -67.245,-51.981 -146.672,-81.809 -209.42,-81.811"
             style="fill:#000000;fill-opacity:1;fill-rule:nonzero;stroke:none"
             id="path2274" /></g><g
           id="g2276"
           transform="translate(407.0486,536.1149)"><path
             d="m 0,0 c -0.098,0 -0.198,0.015 -0.297,0.045 l -11.717,3.641 c -35.454,11.002 -68.156,35.827 -92.081,69.899 -27.75,39.52 -42.418,89.783 -42.418,145.354 0,53.925 20.521,102.441 60.991,144.201 36.861,38.035 82.976,62.695 115.17,76.685 10.889,4.733 21.103,9.027 30.115,12.815 52.292,21.985 78.539,33.02 97.148,68.091 21.511,40.539 -3.578,69.729 -3.834,70.019 -0.309,0.351 -0.335,0.868 -0.061,1.247 0.273,0.379 0.771,0.518 1.203,0.335 0.43,-0.184 43.009,-18.873 38.587,-62.25 -2.779,-27.247 -15.308,-49.811 -38.304,-68.981 C 132.177,442.49 102.205,428.639 73.142,416.443 12.236,390.885 -31.395,360.107 -60.677,285.755 c -13.57,-34.458 -17.132,-69.264 -10.3,-100.653 6.288,-28.886 20.882,-52.007 41.095,-65.103 10.596,-6.863 23.135,-11.848 37.27,-14.814 0.541,-0.114 0.886,-0.644 0.773,-1.184 -0.113,-0.542 -0.644,-0.885 -1.183,-0.773 -14.377,3.016 -27.145,8.094 -37.948,15.093 -20.658,13.385 -35.56,36.95 -41.961,66.355 -6.917,31.778 -3.323,66.984 10.393,101.811 29.54,75.007 73.52,106.04 134.906,131.8 58.923,24.727 112.32,51.899 118.447,111.998 3.505,34.382 -23.592,52.741 -33.691,58.334 6.036,-9.069 19.404,-35.186 1.555,-68.825 C 139.734,484.093 113.268,472.965 60.538,450.797 51.531,447.01 41.323,442.719 30.445,437.991 -34.896,409.597 -144.513,343.382 -144.513,218.939 -144.513,100.096 -77.668,26.154 -11.42,5.596 L 0.297,1.955 C 0.824,1.791 1.119,1.23 0.955,0.703 0.821,0.274 0.427,0 0,0"
             style="fill:#000000;fill-opacity:1;fill-rule:nonzero;stroke:none"
             id="path2278" /></g><g
           id="g2280"
           transform="translate(792.951,536.1149)"><path
             d="m 0,0 c -0.427,0 -0.821,0.274 -0.955,0.703 -0.164,0.527 0.131,1.088 0.658,1.252 l 11.719,3.641 c 66.246,20.558 133.091,94.5 133.091,213.343 0,124.442 -109.617,190.658 -174.957,219.052 -10.878,4.727 -21.085,9.019 -30.091,12.805 -52.731,22.169 -79.198,33.296 -98.143,68.998 -17.846,33.634 -4.487,59.747 1.551,68.82 -10.102,-5.603 -37.189,-23.98 -33.687,-58.329 6.126,-60.099 59.523,-87.271 118.446,-111.998 61.387,-25.76 105.367,-56.794 134.906,-131.8 C 76.254,251.66 79.848,216.454 72.931,184.676 66.53,155.271 51.628,131.706 30.97,118.321 20.167,111.322 7.4,106.244 -6.978,103.228 c -0.539,-0.112 -1.07,0.231 -1.183,0.773 -0.113,0.54 0.232,1.07 0.773,1.184 14.136,2.965 26.675,7.95 37.27,14.814 20.213,13.096 34.807,36.217 41.095,65.103 6.832,31.389 3.27,66.195 -10.3,100.653 -29.281,74.351 -72.912,105.13 -133.819,130.688 -29.063,12.196 -59.035,26.047 -81.36,44.658 -22.996,19.17 -35.525,41.734 -38.303,68.981 -4.422,43.377 38.156,62.066 38.586,62.25 0.432,0.183 0.929,0.044 1.203,-0.335 0.274,-0.379 0.248,-0.896 -0.061,-1.247 -0.256,-0.29 -25.344,-29.48 -3.833,-70.019 18.609,-35.072 44.857,-46.107 97.15,-68.091 9.011,-3.789 19.224,-8.083 30.113,-12.815 32.194,-13.99 78.308,-38.651 115.169,-76.685 40.47,-41.76 60.991,-90.276 60.991,-144.201 0,-55.571 -14.668,-105.834 -42.418,-145.354 C 80.17,39.513 47.469,14.688 12.015,3.686 L 0.297,0.045 C 0.198,0.015 0.098,0 0,0"
             style="fill:#000000;fill-opacity:1;fill-rule:nonzero;stroke:none"
             id="path2282" /></g><g
           id="g2284"
           transform="translate(814.1365,117.6618)"><path
             d="m 0,0 c -0.43,0 -0.826,0.278 -0.957,0.71 -0.16,0.528 0.139,1.087 0.667,1.247 58.254,17.652 98.753,52.908 117.118,101.956 0.193,0.517 0.772,0.778 1.287,0.586 0.518,-0.193 0.78,-0.77 0.586,-1.287 C 100.109,53.559 59.163,17.883 0.29,0.043 0.193,0.014 0.096,0 0,0"
             style="fill:#000000;fill-opacity:1;fill-rule:nonzero;stroke:none"
             id="path2286" /></g><g
           id="g2288"
           transform="translate(763.2186,109.7155)"><path
             d="m 0,0 c -72.448,-0.002 -167.521,37.877 -226.227,61.265 -9.49,3.78 -17.685,7.046 -24.647,9.691 -17.075,6.488 -38.278,16.796 -55.315,25.078 -4.64,2.255 -8.954,4.352 -12.764,6.168 -0.347,0.164 -0.568,0.513 -0.57,0.897 -0.002,0.383 0.214,0.734 0.559,0.903 48.035,23.593 86.7,13.192 140.206,-5.372 29.562,-10.256 57.832,-14.61 86.43,-13.316 0.509,0.04 1.018,-0.401 1.044,-0.954 0.025,-0.551 -0.403,-1.018 -0.954,-1.044 -28.851,-1.308 -57.37,3.084 -87.176,13.425 -52.326,18.155 -90.313,28.444 -136.801,6.368 3.334,-1.598 7.002,-3.381 10.9,-5.276 17.001,-8.266 38.16,-18.551 55.152,-25.008 6.976,-2.651 15.179,-5.919 24.677,-9.702 C -161.823,37.76 -55.279,-4.691 18.226,2.893 18.781,2.943 19.266,2.55 19.323,2 19.38,1.45 18.98,0.959 18.431,0.902 12.488,0.29 6.327,0.001 0,0"
             style="fill:#000000;fill-opacity:1;fill-rule:nonzero;stroke:none"
             id="path2290" /></g><g
           id="g2292"
           transform="translate(755.4734,211.8845)"><path
             d="m 0,0 c -0.388,0 -0.758,0.228 -0.92,0.607 -0.217,0.508 0.02,1.095 0.527,1.313 27.349,11.684 44.909,29.138 50.78,50.476 0.146,0.534 0.695,0.846 1.229,0.699 0.532,-0.147 0.845,-0.697 0.698,-1.23 C 46.276,29.919 28.322,12.012 0.393,0.08 0.265,0.025 0.132,0 0,0"
             style="fill:#000000;fill-opacity:1;fill-rule:nonzero;stroke:none"
             id="path2294" /></g><g
           id="g2296"
           transform="translate(938.3973,312.7995)"><path
             d="m 0,0 c -0.498,0 -0.93,0.371 -0.991,0.878 -2.358,19.191 -17.866,42.509 -18.024,42.742 -0.306,0.458 -0.184,1.08 0.275,1.387 0.457,0.31 1.08,0.186 1.386,-0.274 C -16.704,43.766 -1.422,20.792 0.993,1.122 1.061,0.573 0.671,0.075 0.123,0.008 0.081,0.002 0.04,0 0,0"
             style="fill:#000000;fill-opacity:1;fill-rule:nonzero;stroke:none"
             id="path2298" /></g><g
           id="g2300"
           transform="translate(387.2928,117.2321)"><path
             d="m 0,0 c 0.716,-2.41 1.625,-4.723 2.711,-6.896 10.539,-21.078 37.909,-31.292 50.915,-35.077 -2.147,1.408 -4.686,3.237 -7.384,5.52 C 40.359,-31.476 33.213,-20.33 30.317,-6.508 20.249,-5.021 7.131,-1.955 0,0 m 60.495,-45.76 c -0.064,0 -0.129,0.006 -0.193,0.019 -1.829,0.359 -44.964,9.118 -59.38,37.951 -1.401,2.804 -2.521,5.827 -3.325,8.984 -0.089,0.348 0.015,0.716 0.272,0.965 0.258,0.25 0.634,0.341 0.974,0.243 6.635,-1.918 21.537,-5.478 32.455,-7.031 0.421,-0.059 0.758,-0.379 0.841,-0.796 2.703,-13.668 9.679,-24.666 15.394,-29.501 7.165,-6.062 13.314,-8.895 13.375,-8.924 0.462,-0.21 0.694,-0.732 0.538,-1.215 -0.134,-0.42 -0.524,-0.695 -0.951,-0.695"
             style="fill:#000000;fill-opacity:1;fill-rule:nonzero;stroke:none"
             id="path2302" /></g><g
           id="g2304"
           transform="translate(436.5418,109.7184)"><path
             d="M 0,0 C -13.047,0 -24.765,1.247 -35.206,3.733 -102.168,19.677 -148.469,56.804 -169.103,111.1 l 1.87,0.711 C -146.846,58.162 -101.031,21.462 -34.743,5.679 8.093,-4.518 72.808,6.393 163.111,39.038 l 0.68,-1.881 C 95.016,12.295 40.96,0 0,0"
             style="fill:#000000;fill-opacity:1;fill-rule:nonzero;stroke:none"
             id="path2306" /></g><g
           id="g2308"
           transform="translate(262.6102,313.7087)"><path
             d="m 0,0 -1.937,0.496 c 3.738,14.581 9.811,29.101 18.049,43.158 l 1.725,-1.011 C 9.693,28.747 3.692,14.399 0,0"
             style="fill:#000000;fill-opacity:1;fill-rule:nonzero;stroke:none"
             id="path2310" /></g><g
           id="g2312"
           transform="translate(444.3006,211.8942)"><path
             d="m 0,0 c -28.132,11.975 -46.211,30.149 -52.284,52.56 l 1.93,0.523 C -44.447,31.285 -26.764,13.565 0.783,1.84 Z"
             style="fill:#000000;fill-opacity:1;fill-rule:nonzero;stroke:none"
             id="path2314" /></g><g
           id="g2316"
           transform="translate(432.8953,568.445)"><path
             d="m 0,0 c -3.094,-23.943 -8.983,-47.464 -16.067,-70.543 -3.646,-11.516 -7.656,-22.918 -12.079,-34.16 -1.091,-2.817 -2.22,-5.618 -3.378,-8.408 -1.127,-2.803 -2.337,-5.572 -3.52,-8.351 -1.189,-2.776 -2.475,-5.512 -3.707,-8.268 l -3.855,-8.202 -4.01,-8.127 -4.146,-8.056 c -2.801,-5.347 -5.672,-10.665 -8.698,-15.901 -3.008,-5.244 -6.212,-10.383 -9.632,-15.377 -3.408,-5.001 -7.038,-9.854 -10.923,-14.498 -7.754,-9.29 -16.472,-17.808 -26.167,-25.046 -9.664,-7.271 -20.149,-13.408 -31.139,-18.375 10.831,5.299 21.182,11.583 30.64,19.023 4.725,3.722 9.252,7.688 13.534,11.905 4.276,4.221 8.307,8.686 12.097,13.346 7.612,9.305 14.114,19.456 20.097,29.881 5.946,10.454 11.447,21.188 16.635,32.044 l 3.793,8.192 c 1.213,2.753 2.472,5.487 3.65,8.257 1.193,2.762 2.414,5.513 3.554,8.299 1.169,2.772 2.31,5.557 3.414,8.357 4.47,11.178 8.533,22.52 12.231,33.979 3.764,11.437 7.136,23.008 10.105,34.684 C -4.595,-23.673 -1.942,-11.905 0,0"
             style="fill:#000000;fill-opacity:1;fill-rule:nonzero;stroke:none"
             id="path2318" /></g><g
           id="g2320"
           transform="translate(767.1053,568.445)"><path
             d="m 0,0 c 1.941,-11.905 4.595,-23.673 7.571,-35.345 2.969,-11.676 6.34,-23.247 10.104,-34.684 3.699,-11.459 7.761,-22.801 12.232,-33.979 1.104,-2.8 2.244,-5.585 3.414,-8.357 1.139,-2.786 2.36,-5.537 3.554,-8.299 1.178,-2.77 2.436,-5.504 3.65,-8.257 l 3.793,-8.192 c 5.188,-10.856 10.689,-21.59 16.634,-32.044 5.984,-10.425 12.486,-20.576 20.097,-29.881 3.79,-4.66 7.822,-9.125 12.098,-13.346 4.281,-4.217 8.809,-8.183 13.534,-11.905 9.458,-7.44 19.808,-13.724 30.639,-19.023 -10.99,4.967 -21.474,11.104 -31.138,18.375 -9.695,7.238 -18.413,15.756 -26.167,25.046 -3.885,4.644 -7.515,9.497 -10.923,14.498 -3.42,4.994 -6.624,10.133 -9.632,15.377 -3.026,5.236 -5.897,10.554 -8.698,15.901 l -4.146,8.056 -4.011,8.127 -3.854,8.202 c -1.232,2.756 -2.518,5.492 -3.708,8.268 -1.183,2.779 -2.392,5.548 -3.52,8.351 -1.157,2.79 -2.286,5.591 -3.377,8.408 -4.423,11.242 -8.434,22.644 -12.079,34.16 C 8.983,-47.464 3.094,-23.943 0,0"
             style="fill:#000000;fill-opacity:1;fill-rule:nonzero;stroke:none"
             id="path2322" /></g><g
           id="g2324"
           transform="translate(88.1248,458.0016)"><path
             d="m 0,0 c 4.987,-1.018 9.936,-2.268 14.812,-3.784 4.869,-1.535 9.655,-3.362 14.317,-5.474 4.659,-2.121 9.194,-4.529 13.539,-7.25 4.361,-2.699 8.491,-5.738 12.509,-8.915 7.996,-6.428 15.038,-13.915 21.723,-21.572 3.353,-3.827 6.694,-7.649 10.144,-11.373 3.442,-3.732 7.063,-7.292 10.806,-10.742 -7.985,6.324 -15.103,13.703 -22.002,21.162 -3.457,3.726 -6.949,7.406 -10.561,10.948 -3.62,3.534 -7.391,6.898 -11.327,10.061 -3.969,3.118 -8.083,6.056 -12.336,8.766 -4.27,2.686 -8.687,5.144 -13.23,7.353 C 19.312,-6.376 9.747,-2.938 0,0"
             style="fill:#000000;fill-opacity:1;fill-rule:nonzero;stroke:none"
             id="path2326" /></g><g
           id="g2328"
           transform="translate(98.7596,476.0202)"><path
             d="m 0,0 c -6.62,0 -11.446,1.393 -11.839,1.51 -0.445,0.132 -0.74,0.553 -0.713,1.016 0.028,0.464 0.371,0.848 0.828,0.927 0.091,0.016 9.174,1.663 16.493,9.332 6.469,6.78 8.133,16.675 4.451,26.47 -0.195,0.516 0.067,1.093 0.585,1.288 0.511,0.192 1.092,-0.067 1.288,-0.585 C 15.051,29.428 13.229,18.753 6.216,11.404 1.499,6.462 -3.811,3.893 -7.355,2.619 c 6.207,-0.96 18.659,-1.588 29.017,6.02 14.359,10.548 15.142,26.329 15.149,26.487 0.021,0.553 0.527,0.95 1.037,0.961 0.551,-0.022 0.981,-0.484 0.961,-1.036 C 38.783,34.366 38.009,18.166 22.846,7.027 15.218,1.423 6.692,0 0,0"
             style="fill:#000000;fill-opacity:1;fill-rule:nonzero;stroke:none"
             id="path2330" /></g><g
           id="g2332"
           transform="translate(1111.8943,458.0016)"><path
             d="m 0,0 c -9.747,-2.938 -19.312,-6.376 -28.393,-10.82 -4.544,-2.209 -8.961,-4.667 -13.23,-7.353 -4.253,-2.71 -8.368,-5.648 -12.336,-8.766 -3.936,-3.163 -7.707,-6.527 -11.327,-10.061 -3.612,-3.542 -7.104,-7.222 -10.561,-10.948 -6.899,-7.459 -14.018,-14.838 -22.003,-21.162 3.744,3.45 7.365,7.01 10.807,10.742 3.45,3.724 6.791,7.546 10.144,11.373 6.685,7.657 13.727,15.144 21.723,21.572 4.018,3.177 8.147,6.216 12.509,8.915 4.345,2.721 8.88,5.129 13.538,7.25 4.663,2.112 9.449,3.939 14.318,5.474 C -9.935,-2.268 -4.987,-1.018 0,0"
             style="fill:#000000;fill-opacity:1;fill-rule:nonzero;stroke:none"
             id="path2334" /></g><g
           id="g2336"
           transform="translate(1101.2595,476.0202)"><path
             d="m 0,0 c -6.692,0 -15.216,1.423 -22.845,7.027 -15.163,11.139 -15.938,27.339 -15.964,28.024 -0.02,0.551 0.41,1.014 0.961,1.036 0.511,-0.011 1.016,-0.408 1.037,-0.961 0.007,-0.158 0.79,-15.939 15.15,-26.487 C -11.285,1.017 1.162,1.651 7.363,2.616 3.818,3.889 -1.495,6.459 -6.215,11.404 c -7.013,7.35 -8.836,18.025 -4.876,28.554 0.195,0.518 0.775,0.779 1.287,0.584 0.518,-0.194 0.78,-0.771 0.584,-1.287 -3.682,-9.794 -2.018,-19.69 4.452,-26.47 C 2.572,5.093 11.633,3.469 11.724,3.453 12.182,3.375 12.525,2.991 12.553,2.527 12.581,2.063 12.285,1.642 11.84,1.51 11.447,1.393 6.62,0 0,0"
             style="fill:#000000;fill-opacity:1;fill-rule:nonzero;stroke:none"
             id="path2338" /></g><g
           id="g2340"><g
             id="g2342" /><g
             id="g2354"><g
               clip-path="url(#clipPath2346)"
               opacity="0.25"
               id="g2352"><g
                 transform="translate(539.7654,851.653)"
                 id="g2350"><path
                   d="m 0,0 c -5.134,0 -16.068,-1.5 -21.132,-13.545 -2.353,-5.598 -2.336,-11.034 0.053,-16.16 3.295,-7.071 11.29,-13.309 20.864,-16.276 14.173,-4.393 73.102,-6.848 106.128,-1.528 20.546,3.311 32.851,8.36 37.616,15.433 2.31,3.428 2.905,7.395 1.821,12.129 C 142.472,-7.39 125.713,-9.339 125,-9.425 l -1.494,-0.187 0.407,1.451 c 0.145,0.513 3.419,12.625 -6.502,17.933 C 106.068,15.842 97.31,7.553 96.942,7.196 L 94.994,5.309 95.25,8.01 C 95.306,8.591 96.438,22.31 82.101,29.411 64.255,38.251 50.769,31.676 47.06,29.45 39.935,25.175 38.269,18.971 38.253,18.909 l -0.557,-2.164 -1.243,1.857 C 36.149,19.052 28.798,29.608 13.861,23.339 -0.692,17.228 3.658,1.766 3.85,1.11 L 4.289,-0.385 2.746,-0.162 C 2.583,-0.139 1.558,0 0,0 m 58.14,-52.518 c -25.62,0 -50.366,1.966 -58.947,4.626 -7.913,2.454 -17.871,8.297 -22.086,17.342 -2.636,5.658 -2.665,11.641 -0.083,17.78 6.039,14.364 20.08,14.916 24.594,14.704 -0.815,4.32 -2.073,17.562 11.469,23.249 13.003,5.46 21.009,-1.013 23.855,-4.056 1.037,2.374 3.568,6.726 9.088,10.038 3.929,2.357 18.205,9.328 36.958,0.038 C 95.084,25.213 97,14.55 97.243,9.985 c 3.39,2.404 11.5,6.695 21.111,1.551 9.249,-4.948 8.42,-15.177 7.775,-18.873 4.468,0.216 18.407,-0.113 21.17,-12.164 1.215,-5.302 0.524,-9.781 -2.112,-13.692 -5.09,-7.558 -17.833,-12.886 -38.956,-16.29 -13.345,-2.151 -30.918,-3.035 -48.091,-3.035"
                   style="fill:#ffffff;fill-opacity:1;fill-rule:nonzero;stroke:none"
                   id="path2348" /></g></g></g></g><g
           id="g2356"><g
             id="g2358" /><g
             id="g2370"><g
               clip-path="url(#clipPath2362)"
               opacity="0.100006"
               id="g2368"><g
                 transform="translate(539.7645,851.653)"
                 id="g2366"><path
                   d="m 0,0 c -5.134,0 -16.068,-1.5 -21.132,-13.545 -2.353,-5.598 -2.336,-11.034 0.053,-16.16 3.295,-7.071 11.29,-13.309 20.864,-16.276 14.173,-4.393 73.102,-6.848 106.128,-1.528 20.546,3.311 32.851,8.36 37.616,15.433 2.31,3.428 2.905,7.395 1.821,12.129 C 142.472,-7.39 125.713,-9.339 125,-9.425 l -1.494,-0.187 0.407,1.451 c 0.145,0.513 3.419,12.625 -6.502,17.933 C 106.068,15.842 97.31,7.553 96.942,7.196 L 94.994,5.309 95.25,8.01 C 95.306,8.591 96.438,22.31 82.101,29.411 64.255,38.251 50.769,31.676 47.06,29.45 39.935,25.175 38.269,18.971 38.253,18.909 l -0.557,-2.164 -1.243,1.857 C 36.149,19.052 28.798,29.608 13.861,23.339 -0.692,17.228 3.658,1.766 3.85,1.11 L 4.289,-0.385 2.746,-0.162 C 2.583,-0.139 1.558,0 0,0"
                   style="fill:#ffffff;fill-opacity:1;fill-rule:nonzero;stroke:none"
                   id="path2364" /></g></g></g></g><g
           id="g2372"><g
             id="g2374" /><g
             id="g2386"><g
               clip-path="url(#clipPath2378)"
               opacity="0.149994"
               id="g2384"><g
                 transform="translate(595.4461,824.2282)"
                 id="g2382"><path
                   d="m 0,0 c 0,3.235 2.623,5.858 5.858,5.858 3.236,0 5.859,-2.623 5.859,-5.858 0,-3.235 -2.623,-5.858 -5.859,-5.858 C 2.623,-5.858 0,-3.235 0,0"
                   style="fill:#ffffff;fill-opacity:1;fill-rule:nonzero;stroke:none"
                   id="path2380" /></g></g></g></g><g
           id="g2388"><g
             id="g2390" /><g
             id="g2410"><g
               clip-path="url(#clipPath2394)"
               opacity="0.149994"
               id="g2408"><g
                 transform="translate(611.1082,831.8708)"
                 id="g2398"><path
                   d="m 0,0 c -0.633,0 -1.266,0.238 -1.752,0.717 -2.163,2.125 -5.022,3.295 -8.052,3.295 -3.03,0 -5.889,-1.17 -8.05,-3.295 -0.985,-0.968 -2.566,-0.953 -3.537,0.03 -0.967,0.985 -0.954,2.568 0.031,3.536 3.102,3.049 7.207,4.729 11.556,4.729 4.349,0 8.453,-1.68 11.556,-4.729 C 2.737,3.315 2.751,1.732 1.783,0.748 1.294,0.25 0.647,0 0,0"
                   style="fill:#ffffff;fill-opacity:1;fill-rule:nonzero;stroke:none"
                   id="path2396" /></g><g
                 transform="translate(586.2488,839.9919)"
                 id="g2402"><path
                   d="m 0,0 c -0.72,0 -1.435,0.31 -1.929,0.909 -0.879,1.065 -0.728,2.64 0.337,3.519 4.67,3.854 10.582,5.977 16.648,5.977 6.024,0 11.905,-2.097 16.56,-5.906 C 32.685,3.625 32.843,2.05 31.968,0.981 31.093,-0.09 29.519,-0.246 28.45,0.63 24.686,3.709 19.929,5.405 15.056,5.405 10.149,5.405 5.367,3.688 1.59,0.572 1.124,0.187 0.561,0 0,0"
                   style="fill:#ffffff;fill-opacity:1;fill-rule:nonzero;stroke:none"
                   id="path2400" /></g><g
                 transform="translate(580.7195,851.6042)"
                 id="g2406"><path
                   d="m 0,0 c 5.729,4.32 12.859,6.88 20.59,6.88 7.68,0 14.769,-2.529 20.489,-6.81"
                   style="fill:none;stroke:#ffffff;stroke-width:5;stroke-linecap:round;stroke-linejoin:round;stroke-miterlimit:10;stroke-dasharray:none;stroke-opacity:1"
                   id="path2404" /></g></g></g></g></g></g></g></svg>
