<?xml version="1.0" encoding="UTF-8" standalone="no"?>
<svg
   xmlns:dc="http://purl.org/dc/elements/1.1/"
   xmlns:cc="http://creativecommons.org/ns#"
   xmlns:rdf="http://www.w3.org/1999/02/22-rdf-syntax-ns#"
   xmlns:svg="http://www.w3.org/2000/svg"
   xmlns="http://www.w3.org/2000/svg"
   xmlns:sodipodi="http://sodipodi.sourceforge.net/DTD/sodipodi-0.dtd"
   xmlns:inkscape="http://www.inkscape.org/namespaces/inkscape"
   width="377.778mm"
   height="68.7831mm"
   viewBox="0 0 1071 195"
   version="1.1"
   id="svg3"
   sodipodi:docname="remain.svg"
   inkscape:export-filename="C:\Users\jongw\Pictures\Logos\remain.png"
   inkscape:export-xdpi="27.83"
   inkscape:export-ydpi="27.83"
   inkscape:version="0.92.3 (2405546, 2018-03-11)">
  <metadata
     id="metadata9">
    <rdf:RDF>
      <cc:Work
         rdf:about="">
        <dc:format>image/svg+xml</dc:format>
        <dc:type
           rdf:resource="http://purl.org/dc/dcmitype/StillImage" />
      </cc:Work>
    </rdf:RDF>
  </metadata>
  <defs
     id="defs7" />
  <sodipodi:namedview
     pagecolor="#ffffff"
     bordercolor="#666666"
     borderopacity="1"
     objecttolerance="10"
     gridtolerance="10"
     guidetolerance="10"
     inkscape:pageopacity="0"
     inkscape:pageshadow="2"
     inkscape:window-width="1385"
     inkscape:window-height="630"
     id="namedview5"
     showgrid="false"
     inkscape:zoom="0.19890429"
     inkscape:cx="1271.5958"
     inkscape:cy="109.32233"
     inkscape:window-x="0"
     inkscape:window-y="0"
     inkscape:window-maximized="0"
     inkscape:current-layer="svg3" />
  <path
     id="Selection"
     d="M 23.00,23.00            C 23.00,23.00 23.00,168.00 23.00,168.00              23.00,168.00 75.00,168.00 75.00,168.00              75.00,168.00 75.00,116.00 75.00,116.00              75.00,116.00 94.00,116.00 94.00,116.00              97.55,116.01 100.68,115.58 103.39,118.31              105.09,120.02 109.82,128.44 111.28,131.00              111.28,131.00 124.42,154.00 124.42,154.00              131.37,165.97 130.64,167.98 141.00,168.00              141.00,168.00 189.00,168.00 189.00,168.00              189.00,168.00 178.68,150.00 178.68,150.00              178.68,150.00 154.00,110.00 154.00,110.00              193.88,106.40 197.14,47.47 166.00,29.68              152.79,22.14 130.98,23.00 116.00,23.00              116.00,23.00 23.00,23.00 23.00,23.00 Z            M 212.00,23.00            C 212.00,23.00 212.00,168.00 212.00,168.00              212.00,168.00 366.00,168.00 366.00,168.00              366.00,168.00 366.00,135.00 366.00,135.00              366.00,135.00 263.00,135.00 263.00,135.00              263.00,135.00 263.00,112.00 263.00,112.00              263.00,112.00 356.00,112.00 356.00,112.00              356.00,112.00 356.00,80.00 356.00,80.00              356.00,80.00 263.00,80.00 263.00,80.00              263.00,80.00 263.00,55.00 263.00,55.00              263.00,55.00 364.00,55.00 364.00,55.00              364.00,55.00 364.00,23.00 364.00,23.00              364.00,23.00 212.00,23.00 212.00,23.00 Z            M 392.00,23.00            C 392.00,23.00 392.00,168.00 392.00,168.00              392.00,168.00 442.00,168.00 442.00,168.00              442.00,168.00 442.00,77.00 442.00,77.00              442.00,77.00 453.69,107.00 453.69,107.00              453.69,107.00 468.05,146.00 468.05,146.00              468.05,146.00 473.31,160.00 473.31,160.00              473.31,160.00 476.70,167.01 476.70,167.01              476.70,167.01 484.00,168.00 484.00,168.00              484.00,168.00 508.00,168.00 508.00,168.00              508.00,168.00 515.49,166.98 515.49,166.98              515.49,166.98 518.81,161.00 518.81,161.00              518.81,161.00 524.34,146.00 524.34,146.00              524.34,146.00 550.00,76.00 550.00,76.00              550.00,76.00 551.00,107.00 551.00,107.00              551.00,107.00 551.00,168.00 551.00,168.00              551.00,168.00 601.00,168.00 601.00,168.00              601.00,168.00 601.00,23.00 601.00,23.00              601.00,23.00 541.00,23.00 541.00,23.00              541.00,23.00 533.70,23.99 533.70,23.99              533.70,23.99 524.58,45.00 524.58,45.00              524.58,45.00 497.00,117.00 497.00,117.00              497.00,117.00 485.58,89.00 485.58,89.00              485.58,89.00 468.95,46.00 468.95,46.00              468.95,46.00 463.19,31.00 463.19,31.00              463.19,31.00 459.35,23.99 459.35,23.99              459.35,23.99 452.00,23.00 452.00,23.00              452.00,23.00 392.00,23.00 392.00,23.00 Z            M 614.00,168.00            C 614.00,168.00 671.00,168.00 671.00,168.00              671.00,168.00 678.00,144.00 678.00,144.00              678.00,144.00 725.00,144.00 725.00,144.00              725.00,144.00 733.49,145.60 733.49,145.60              733.49,145.60 742.70,167.01 742.70,167.01              742.70,167.01 750.00,168.00 750.00,168.00              750.00,168.00 798.00,168.00 798.00,168.00              798.00,168.00 787.86,144.00 787.86,144.00              787.86,144.00 774.86,114.00 774.86,114.00              774.86,114.00 749.77,56.00 749.77,56.00              749.77,56.00 739.85,33.00 739.85,33.00              739.85,33.00 734.61,24.02 734.61,24.02              734.61,24.02 727.00,23.00 727.00,23.00              727.00,23.00 684.00,23.00 684.00,23.00              684.00,23.00 676.70,23.99 676.70,23.99              676.70,23.99 671.58,34.00 671.58,34.00              671.58,34.00 662.14,56.00 662.14,56.00              662.14,56.00 630.58,129.00 630.58,129.00              630.58,129.00 614.00,168.00 614.00,168.00 Z            M 811.00,23.00            C 811.00,23.00 811.00,168.00 811.00,168.00              811.00,168.00 862.00,168.00 862.00,168.00              862.00,168.00 862.00,23.00 862.00,23.00              862.00,23.00 811.00,23.00 811.00,23.00 Z            M 894.00,23.00            C 894.00,23.00 894.00,168.00 894.00,168.00              894.00,168.00 945.00,168.00 945.00,168.00              945.00,168.00 945.00,91.00 945.00,91.00              945.00,91.00 962.16,110.00 962.16,110.00              962.16,110.00 995.85,148.00 995.85,148.00              999.66,152.33 1010.42,165.71 1015.00,167.40              1016.94,168.12 1019.91,168.00 1022.00,168.00              1022.00,168.00 1057.00,168.00 1057.00,168.00              1057.00,168.00 1057.00,23.00 1057.00,23.00              1057.00,23.00 1006.00,23.00 1006.00,23.00              1006.00,23.00 1006.00,99.00 1006.00,99.00              1006.00,99.00 953.02,41.00 953.02,41.00              953.02,41.00 935.91,23.60 935.91,23.60              935.91,23.60 929.00,23.00 929.00,23.00              929.00,23.00 894.00,23.00 894.00,23.00 Z            M 75.00,84.00            C 75.00,84.00 75.00,56.00 75.00,56.00              75.00,56.00 120.00,56.00 120.00,56.00              128.82,56.12 136.62,61.22 135.44,71.00              134.45,79.29 128.38,82.22 121.00,83.41              121.00,83.41 75.00,84.00 75.00,84.00 Z            M 706.00,64.00            C 706.00,64.00 714.00,85.00 714.00,85.00              714.00,85.00 723.00,112.00 723.00,112.00              723.00,112.00 690.00,112.00 690.00,112.00              690.00,112.00 698.67,84.00 698.67,84.00              698.67,84.00 706.00,64.00 706.00,64.00 Z"
     stroke-width="1"
     stroke="black"
     fill="none" />
</svg>
