<?xml version="1.0" encoding="UTF-8" standalone="no"?>
<svg
   xmlns:dc="http://purl.org/dc/elements/1.1/"
   xmlns:cc="http://creativecommons.org/ns#"
   xmlns:rdf="http://www.w3.org/1999/02/22-rdf-syntax-ns#"
   xmlns:svg="http://www.w3.org/2000/svg"
   xmlns="http://www.w3.org/2000/svg"
   xmlns:sodipodi="http://sodipodi.sourceforge.net/DTD/sodipodi-0.dtd"
   xmlns:inkscape="http://www.inkscape.org/namespaces/inkscape"
   width="24.5in"
   height="24.4444in"
   viewBox="0 0 1764 1760"
   version="1.1"
   id="svg3"
   sodipodi:docname="remainlogo.svg"
   inkscape:version="0.92.3 (2405546, 2018-03-11)">
  <metadata
     id="metadata9">
    <rdf:RDF>
      <cc:Work
         rdf:about="">
        <dc:format>image/svg+xml</dc:format>
        <dc:type
           rdf:resource="http://purl.org/dc/dcmitype/StillImage" />
      </cc:Work>
    </rdf:RDF>
  </metadata>
  <defs
     id="defs7" />
  <sodipodi:namedview
     pagecolor="#ffffff"
     bordercolor="#666666"
     borderopacity="1"
     objecttolerance="10"
     gridtolerance="10"
     guidetolerance="10"
     inkscape:pageopacity="0"
     inkscape:pageshadow="2"
     inkscape:window-width="1920"
     inkscape:window-height="1027"
     id="namedview5"
     showgrid="true"
     inkscape:zoom="0.40227344"
     inkscape:cx="1529.2022"
     inkscape:cy="1335.3444"
     inkscape:window-x="-8"
     inkscape:window-y="-8"
     inkscape:window-maximized="1"
     inkscape:current-layer="svg3" />
  <path
     id="Selection"
     d="m 825.61081,37.173747 60.63812,-2.636669 56.3588,1.647918 34.34727,2.307086 C 995.425,39.041249 1039.28,48.86 1059,52.8 c 83.13,16.62 166.52,48.65 240,90.78 184.27,105.65 324.98,280.55 388.02,483.42 16.07,51.71 25.94,102.17 31.15,156 l 1.83,26 1,16 v 42 l -1,22 -0.91,10 -1.92,26 c -3.65,37.71 -8.53,74.79 -15.97,112 -26.16,130.82 -79.97,258.63 -161.08,365 -17.88,23.44 -36.95,45.45 -57.03,67 l -24.09,24.96 c -59.96,57.35 -121.56,100.12 -195,138.26 l -36,16.64 c -70.1,30.99 -142.24,50.49 -218,61.41 l -68,6.82 -11,0.91 -23,1 h -48 l -21,-1 -10,-0.91 -49,-4.81 C 722.98,1704.84 667.13,1691.02 613,1671.69 407.9,1598.46 234.32,1446.47 132.78,1254 113.95,1218.31 98.21,1180.99 84.69,1143 67.41,1094.45 53.32,1033.26 47.84,982 L 44.91,950 44,939 43,920 v -47 l 1,-16 0.91,-15 3.93,-46 C 53.2,755.2 60.68,714.8 70.63,675 127.59,447.14 269.48,252.5 476,137.86 542.59,100.9 614.79,73.68 689,56.65 l 60,-11.38 37,-5.13 z M 1530.58,1076 l 11.4,-33 c 12.84,-41.33 22.17,-87.76 24.06,-131 l 0.96,-11 v -47 l -0.91,-12 -3.81,-40 c -7.63,-58.48 -25,-115.46 -49.59,-169 -40.93,-89.14 -108.36,-167.74 -185.69,-227.35 -37.98,-29.27 -75.96,-52.22 -118,-74.96 -55.68,-30.11 -115.08,-54.59 -177,-68.27 -25.98,-5.73 -52.49,-9.65 -79,-11.51 L 943,250 923,249 h -30 l -20,1 -10,0.91 c -34.79,2.39 -69.16,8.26 -103,16.72 C 638.11,298.1 517.8,369.51 439,468 391.99,526.76 356.29,598.72 352.96,675 L 352,688 v 4 l 1.04,10 v 8 c 4.66,47.54 23.09,89.54 58.96,121.83 29.62,26.66 71.52,42.55 111,45.26 l 11,0.89 9,-0.89 c 24.41,-1.68 46.07,-7.88 68,-18.84 18.18,-9.09 35.51,-19.97 48.11,-36.25 12.42,-16.04 22.65,-38.4 22.89,-59 0.41,-35.5 -12.43,-54.47 -37,-79 -17.76,-17.73 -42.19,-32.29 -68,-32 -8.7,0.1 -17.55,2.87 -25,7.35 -3.02,1.82 -6.85,4.63 -6.21,8.65 0.9,5.6 10.65,11.36 15.21,14.19 14.44,8.97 29.78,17.9 42,29.82 19.35,18.88 27.31,33.8 27,60.99 -0.12,9.77 -3.06,22.99 -8.79,31 -14.5,20.26 -44.12,29.71 -68.21,30 -14.88,0.17 -28.75,-1.61 -43,-6.02 C 452.7,810.23 419.75,760.72 408.4,704 c -2.16,-10.77 -4.27,-25.09 -4.4,-36 -0.31,-26.67 6.03,-52.73 16.86,-77 6.19,-13.87 17.71,-30.28 27.39,-42 40.05,-48.46 98.96,-77.39 160.75,-85.72 17.74,-2.39 35.13,-2.49 53,-2.28 13.73,0.16 35.55,3.76 49,7.13 46.65,11.66 74.66,28.44 111,59.6 50.87,43.62 82.9,92.62 113.68,151.27 l 11.18,26 24.57,49 c 31.68,55.26 78.1,108.91 141.57,126.58 21.36,5.94 30.49,5.52 52,5.42 9.87,-0.05 25.27,-3.19 35,-5.63 33.51,-8.38 70.59,-27.55 93.83,-53.37 10.79,-11.99 19.71,-27.86 27.47,-42 13.08,-23.82 23.02,-47.31 22.7,-75 -0.22,-18.19 -6.69,-38.83 -14.75,-55 -6.7,-13.42 -14.35,-27.81 -24.42,-39 -23.69,-26.33 -58.04,-39.66 -92.83,-42.09 l -13,-0.91 -10,0.91 c -31.85,2.23 -65.98,14.11 -84.07,42.09 -9.38,14.35 -19.94,43.92 0,54.17 10.08,5.12 26.25,3.34 35.07,-3.56 l 19,-18.44 c 8.61,-7.75 20.13,-14.89 31,-18.94 18.61,-6.93 40.74,-5.26 59,1.97 7.14,2.83 14.43,6.28 19.83,11.89 10.13,10.53 14.48,28.6 14.16,42.91 -1.34,58.88 -47.36,123.9 -102.99,143.31 -16.74,5.83 -27.73,5.89 -45,5.69 -20.82,-0.25 -49.84,-10.72 -68,-20.7 -15.72,-8.62 -27.33,-17.63 -40,-30.3 -34.06,-34.06 -52.28,-75.22 -56.96,-123 v -10 l -1.04,-11 0.96,-12 c 0.9,-20.69 3.88,-41.34 10.73,-61 9.97,-28.6 25.71,-53.9 46.4,-76 L 1038,480.95 c 31.82,-28.26 62.62,-40.23 104,-47.03 56.19,-9.24 110.13,-2.43 162,21.39 28.23,12.96 56.03,33.08 79,53.86 38.47,34.8 71.1,82.54 94.25,128.83 33.04,66.08 55.05,140.47 62.91,214 l 3.84,51 1,15 v 23 l -1,17 c -0.04,28.28 -6.26,69.06 -12.21,97 l -7.22,29 c -1.26,4.44 -3.86,9.38 -2.57,14 z m -1272.83,104 18.83,35 c 24.44,42.62 53.39,82.49 86.25,119 56.65,62.94 125.98,116.25 203.17,151.69 53.43,24.54 105.89,40.71 164,49.73 l 52,5.67 10,0.95 h 13 l 12,0.96 41,-1 10,-0.91 60,-6.67 c 52.8,-8.19 101.39,-22.41 150,-44.73 146.23,-67.14 258.88,-192.35 328.26,-335.69 27.02,-55.82 48.3,-118.91 59.32,-180 3.94,-21.89 6.96,-43.83 8.51,-66 l 0.91,-10 1,-20 v -30 l -1,-19 -0.91,-10 -6.67,-51 c -12.29,-68.18 -41.58,-135.59 -86.01,-189 -20.12,-24.2 -44.5,-49.57 -72.41,-64.69 -24.94,-13.52 -62.56,-24.27 -91,-24.31 h -26 c -29.32,0.05 -68.24,10.31 -95,22.14 -15.08,6.67 -34.45,18.11 -45.91,29.9 -11.7,12.03 -20.62,30.35 -26.51,45.96 -14.65,38.79 -13.53,81.63 1.82,120 3.2,8 8.38,19.09 13.38,26 6.12,8.44 17.98,19.43 26.22,26 17.26,13.76 39.5,24.74 62,25 39.45,0.44 76.69,-28.43 96.2,-61 6.92,-11.56 14.12,-26.26 13.79,-40 -0.24,-9.71 -5.24,-14.71 -14.99,-14.98 -15.27,-0.43 -25.84,9.82 -36,19.98 -20.96,20.96 -52.18,59.19 -86,45.55 -6.51,-2.63 -12.67,-6.29 -18,-10.85 -30.42,-26.04 -32.47,-62.33 -23.37,-98.7 3.96,-15.84 9.92,-31.44 20.67,-44 24.79,-28.97 62.63,-42.12 99.7,-45.08 l 12,-0.92 h 21 c 22.14,0.26 48.53,6.94 69,15.2 22.63,9.13 43.78,23.59 61,40.8 12.6,12.59 22.13,23.83 31.58,39 57.32,92.09 43.43,211.82 -18.16,298 -9.94,13.92 -24.81,31.42 -37.42,42.83 -19.4,17.55 -40.62,33.53 -64,45.41 -26.49,13.47 -62,26.41 -92,26.76 -80.24,0.93 -141,-43.45 -216,-54.57 l -20,-1.52 -10,-0.91 -22,1 -33,3.92 c -39.41,6.57 -81.4,23.51 -109.99,52.09 -17.68,17.69 -35.51,49.9 -42.59,73.99 -6.36,21.68 -7.68,35.6 -7.42,58 0.2,16.72 5.46,38.93 10.28,55 13.1,43.67 31.45,82.53 72.72,106.13 18.15,10.37 45.01,18.84 66,18.87 h 22 c 11.09,-0.13 30.32,-4.47 41,-8 43.58,-14.39 81.59,-45.03 93.37,-91 1.72,-6.7 3.55,-16.14 3.63,-23 0.16,-14.2 -0.23,-33.76 -5.61,-47 -3.94,-9.7 -19.52,-27.7 -28.39,-33.29 -8.93,-5.63 -19.8,-5.84 -30,-6.78 -3.41,-0.32 -8.64,-1.89 -10.98,1.5 -3.39,4.93 2.05,20.1 3.7,25.57 6.17,20.5 14.18,41.26 14.28,63 0.06,12.4 -2.04,25.19 -8.45,36 -11.73,19.77 -35.84,31.64 -57.55,36.87 -4.69,1.13 -19.58,3.26 -24,2.95 -16.55,-1.18 -30.53,-4.92 -45,-13.25 -39.72,-22.86 -68.46,-79.1 -69,-124.57 -0.24,-21.15 0.71,-38.81 8.05,-59 3.17,-8.72 8.46,-19.31 13.62,-27 28.43,-42.4 77.25,-61.15 126.33,-65.96 h 9 l 10,-1.04 h 6 l 13,0.96 c 92.28,4.02 192.95,56.11 225.31,147.04 8.24,23.15 9.97,44.71 9.69,69 -0.27,22.63 -7.52,49.57 -14.67,71 -16.6,49.81 -51.23,101.58 -93.33,133.11 -17.95,13.44 -47.92,27.46 -69,35.89 -46.51,18.6 -95.95,29.86 -146,32.04 l -13,0.96 h -30 l -11,-0.96 c -46.49,-2.03 -92.58,-11.21 -137,-25.02 -109.12,-33.9 -209.4,-96.38 -291,-176.01 l -8.83,-8.1 c -27.37,-28.18 -53.03,-57.8 -75.75,-89.91 l -21,-32 c -3.32,-5.37 -7.21,-13.8 -11.42,-18 1.66,5.83 5.94,13.37 8.75,19 z M 331,508 l 1,1 v -1 z m -21.26,43 c -18.49,38.21 -33.27,77.36 -45.46,118 -11.34,37.8 -18.52,72.73 -22.45,112 l -1.83,21 -1,19 v 34 l 1,19 0.91,10 2.94,30 c 4.62,38.73 14.49,80.01 26.82,117 44.64,133.92 133.74,254.22 252.33,331.66 19.66,12.83 40.02,24.1 61,34.59 47.63,23.81 98.48,40.24 151,49 l 51,5.84 10,0.91 c 34.37,0.4 63.9,0.73 98,-5.42 73.67,-13.29 145.38,-53.72 185.19,-118.58 17.63,-28.72 27.59,-57.37 29.9,-91 0.39,-5.71 1.15,-7.5 0.87,-14 -2.32,-53.41 -26.29,-97.62 -68.96,-129.87 -11,-8.31 -23.3,-16.27 -36,-21.7 -21.53,-9.21 -43.72,-12.7 -67,-12.43 l -10,0.91 c -35.21,2.57 -82.15,16.25 -101.54,48.09 -12.06,19.81 -12.72,36.72 -12.46,59 0.1,7.9 2.42,20.08 4,28 2.66,13.3 5.39,27.02 13.9,37.99 8.29,10.67 19.32,13.81 32.1,15.38 5.92,0.43 6.67,1.04 13,0 3.18,-0.21 9.32,-0.07 11.58,-1.97 4.54,-3.81 4.48,-14.91 4.42,-20.4 -0.24,-20.1 -14.76,-54.62 -15,-75 v -7 c 0.23,-18.92 13.6,-32.18 31,-37.56 21.72,-6.73 45.86,-3.43 67,3.9 40.23,13.97 66.11,51.01 77.42,90.66 2.7,9.48 6.46,23.29 6.58,33 v 8 c -0.05,29.15 -14.84,60.65 -32.8,83 -32.33,40.21 -80.3,68.9 -130.2,81.37 -13.79,3.45 -34.95,7.46 -49,7.63 -27.25,0.32 -45.48,-0.86 -72,-8.43 -19.38,-5.53 -42.69,-17 -60,-27.37 -50.92,-30.5 -94.42,-76.12 -115.58,-132.2 -12.76,-33.83 -13.83,-55.6 -13.42,-91 0.13,-10.37 2.81,-28.44 4.59,-39 14.36,-85.56 59.09,-146.88 110.29,-214 24.76,-32.44 54.45,-68.39 70.54,-106 6.9,-16.13 13.37,-36.32 13.58,-54 0.27,-23.51 -2.53,-40.49 -9.28,-63 C 758.79,620.23 718.83,574.62 660,552.42 596.4,528.44 522.49,538.52 480.16,596 c -7.04,9.56 -13.01,19.84 -17.11,31 -7.77,21.2 -9.31,33.65 -9.05,56 0.51,43.36 35.27,79.88 72,98.25 14.17,7.08 30.04,11.93 46,11.75 8.14,-0.1 29.15,-3.47 23.91,-16 C 592.73,769.39 579.9,761.55 573,757 557.48,746.77 535.6,733.64 523.28,719.99 512.45,707.97 503.2,693.74 503,677 c -0.29,-24.92 11.34,-50.98 32,-65.56 16.71,-11.8 33.07,-14.47 53,-14.44 48.63,0.08 105.82,35.26 129.57,77 9.8,17.22 17.78,44.27 20.15,64 l 0.54,13 v 8 c -2.17,46.4 -28.44,83.18 -60.26,115 -29.48,29.48 -60.87,51.5 -101,63.98 -14.32,4.45 -29.07,7.43 -44,8.98 h -9 l -9,1.01 -10,-0.93 C 431.38,943.83 362.44,901.31 323.58,839 303.75,807.21 289.44,767.76 289,730 l -0.92,-11 0.92,-15 3.72,-32 c 5.11,-38.81 15.25,-74.37 25.43,-112 L 331,510 c -6.79,8.44 -16.13,30.41 -21.26,41 z M 859,805.75 c -17.8,5.68 -34.75,20.3 -42.68,37.25 -15.68,33.52 -4.49,72.26 26.68,92.3 9.37,6.02 21.79,10.57 33,10.7 h 10 c 15.7,-0.07 32.43,-7.8 44,-18.17 26.17,-23.47 30.75,-64.83 11.25,-93.83 -9.6,-14.28 -22.99,-23.56 -39.25,-28.65 -7.2,-2.26 -17.49,-3.76 -25,-3.07 -6.05,0.89 -12.15,1.6 -18,3.47 z m 659,298.25 1,1 v -1 z m -1275,45 1,1 v -1 z m 1,2 1,1 v -1 z m 1,2 1,1 v -1 z"
     style="fill:#c8c442;fill-opacity:1;stroke:none;stroke-width:1"
     inkscape:export-xdpi="10.94238"
     inkscape:export-ydpi="10.94238"
     inkscape:connector-curvature="0"
     sodipodi:nodetypes="cccccccccccccccccccccccccccccccccccccccccccccccccccccccccccccccccccccccccccccccccccccccccccccccccccccccccccccccccccccccsccccccccccccccccccccccccccccccccccccccccccccccccccccccccsccccccccccccccccccccccccccccccccccccccccccccccccccccccccccccccccccccccccccccsccccccccccccccccccccccccccccccccccccccccccccccccccccccccsccccccccccccccccccccccccccccccccccccccc" />
</svg>
