<?xml version="1.0" encoding="UTF-8" standalone="no"?>
<svg
   xmlns:dc="http://purl.org/dc/elements/1.1/"
   xmlns:cc="http://creativecommons.org/ns#"
   xmlns:rdf="http://www.w3.org/1999/02/22-rdf-syntax-ns#"
   xmlns:svg="http://www.w3.org/2000/svg"
   xmlns="http://www.w3.org/2000/svg"
   xmlns:sodipodi="http://sodipodi.sourceforge.net/DTD/sodipodi-0.dtd"
   xmlns:inkscape="http://www.inkscape.org/namespaces/inkscape"
   width="24.5in"
   height="24.4444in"
   viewBox="0 0 1764 1760"
   version="1.1"
   id="svg3"
   sodipodi:docname="remainlogo.ico.svg"
   inkscape:version="0.92.3 (2405546, 2018-03-11)">
  <metadata
     id="metadata9">
    <rdf:RDF>
      <cc:Work
         rdf:about="">
        <dc:format>image/svg+xml</dc:format>
        <dc:type
           rdf:resource="http://purl.org/dc/dcmitype/StillImage" />
        <dc:title />
      </cc:Work>
    </rdf:RDF>
  </metadata>
  <defs
     id="defs7" />
  <sodipodi:namedview
     pagecolor="#ffffff"
     bordercolor="#666666"
     borderopacity="1"
     objecttolerance="10"
     gridtolerance="10"
     guidetolerance="10"
     inkscape:pageopacity="0"
     inkscape:pageshadow="2"
     inkscape:window-width="1920"
     inkscape:window-height="1027"
     id="namedview5"
     showgrid="false"
     inkscape:zoom="0.125"
     inkscape:cx="323.0291"
     inkscape:cy="1743.6922"
     inkscape:window-x="-8"
     inkscape:window-y="-8"
     inkscape:window-maximized="1"
     inkscape:current-layer="svg3"
     showguides="false"
     inkscape:pagecheckerboard="true">
    <inkscape:grid
       type="xygrid"
       id="grid812" />
  </sodipodi:namedview>
  <ellipse
     style="fill:#ffffff;fill-opacity:1;fill-rule:nonzero;stroke:none;stroke-width:0.65763891;stroke-miterlimit:4;stroke-dasharray:none;stroke-opacity:1"
     id="path852"
     cx="903.00006"
     cy="889.99841"
     rx="753.00128"
     ry="726.00128" />
  <path
     id="Selection"
     fill="none"
     stroke="black"
     stroke-width="1"
     d="M 850.00,40.14            C 850.00,40.14 973.00,40.14 973.00,40.14              991.47,40.03 1039.28,48.86 1059.00,52.80              1142.13,69.42 1225.52,101.45 1299.00,143.58              1483.27,249.23 1623.98,424.13 1687.02,627.00              1703.09,678.71 1712.96,729.17 1718.17,783.00              1718.17,783.00 1720.00,809.00 1720.00,809.00              1720.00,809.00 1721.00,825.00 1721.00,825.00              1721.00,825.00 1721.00,867.00 1721.00,867.00              1721.00,867.00 1720.00,889.00 1720.00,889.00              1720.00,889.00 1719.09,899.00 1719.09,899.00              1719.09,899.00 1717.17,925.00 1717.17,925.00              1713.52,962.71 1708.64,999.79 1701.20,1037.00              1675.04,1167.82 1621.23,1295.63 1540.12,1402.00              1522.24,1425.44 1503.17,1447.45 1483.09,1469.00              1483.09,1469.00 1459.00,1493.96 1459.00,1493.96              1399.04,1551.31 1337.44,1594.08 1264.00,1632.22              1264.00,1632.22 1228.00,1648.86 1228.00,1648.86              1157.90,1679.85 1085.76,1699.35 1010.00,1710.27              1010.00,1710.27 942.00,1717.09 942.00,1717.09              942.00,1717.09 931.00,1718.00 931.00,1718.00              931.00,1718.00 908.00,1719.00 908.00,1719.00              908.00,1719.00 860.00,1719.00 860.00,1719.00              860.00,1719.00 839.00,1718.00 839.00,1718.00              839.00,1718.00 829.00,1717.09 829.00,1717.09              829.00,1717.09 780.00,1712.28 780.00,1712.28              722.98,1704.84 667.13,1691.02 613.00,1671.69              407.90,1598.46 234.32,1446.47 132.78,1254.00              113.95,1218.31 98.21,1180.99 84.69,1143.00              67.41,1094.45 53.32,1033.26 47.84,982.00              47.84,982.00 44.91,950.00 44.91,950.00              44.91,950.00 44.00,939.00 44.00,939.00              44.00,939.00 43.00,920.00 43.00,920.00              43.00,920.00 43.00,873.00 43.00,873.00              43.00,873.00 44.00,857.00 44.00,857.00              44.00,857.00 44.91,842.00 44.91,842.00              44.91,842.00 48.84,796.00 48.84,796.00              53.20,755.20 60.68,714.80 70.63,675.00              127.59,447.14 269.48,252.50 476.00,137.86              542.59,100.90 614.79,73.68 689.00,56.65              689.00,56.65 749.00,45.27 749.00,45.27              749.00,45.27 786.00,40.14 786.00,40.14              786.00,40.14 850.00,40.14 850.00,40.14 Z            M 1530.58,1076.00            C 1530.58,1076.00 1541.98,1043.00 1541.98,1043.00              1554.82,1001.67 1564.15,955.24 1566.04,912.00              1566.04,912.00 1567.00,901.00 1567.00,901.00              1567.00,901.00 1567.00,854.00 1567.00,854.00              1567.00,854.00 1566.09,842.00 1566.09,842.00              1566.09,842.00 1562.28,802.00 1562.28,802.00              1554.65,743.52 1537.28,686.54 1512.69,633.00              1471.76,543.86 1404.33,465.26 1327.00,405.65              1289.02,376.38 1251.04,353.43 1209.00,330.69              1153.32,300.58 1093.92,276.10 1032.00,262.42              1006.02,256.69 979.51,252.77 953.00,250.91              953.00,250.91 943.00,250.00 943.00,250.00              943.00,250.00 923.00,249.00 923.00,249.00              923.00,249.00 893.00,249.00 893.00,249.00              893.00,249.00 873.00,250.00 873.00,250.00              873.00,250.00 863.00,250.91 863.00,250.91              828.21,253.30 793.84,259.17 760.00,267.63              638.11,298.10 517.80,369.51 439.00,468.00              391.99,526.76 356.29,598.72 352.96,675.00              352.96,675.00 352.00,688.00 352.00,688.00              352.00,688.00 352.00,692.00 352.00,692.00              352.00,692.00 353.04,702.00 353.04,702.00              353.04,702.00 353.04,710.00 353.04,710.00              357.70,757.54 376.13,799.54 412.00,831.83              441.62,858.49 483.52,874.38 523.00,877.09              523.00,877.09 534.00,877.98 534.00,877.98              534.00,877.98 543.00,877.09 543.00,877.09              567.41,875.41 589.07,869.21 611.00,858.25              629.18,849.16 646.51,838.28 659.11,822.00              671.53,805.96 681.76,783.60 682.00,763.00              682.41,727.50 669.57,708.53 645.00,684.00              627.24,666.27 602.81,651.71 577.00,652.00              568.30,652.10 559.45,654.87 552.00,659.35              548.98,661.17 545.15,663.98 545.79,668.00              546.69,673.60 556.44,679.36 561.00,682.19              575.44,691.16 590.78,700.09 603.00,712.01              622.35,730.89 630.31,745.81 630.00,773.00              629.88,782.77 626.94,795.99 621.21,804.00              606.71,824.26 577.09,833.71 553.00,834.00              538.12,834.17 524.25,832.39 510.00,827.98              452.70,810.23 419.75,760.72 408.40,704.00              406.24,693.23 404.13,678.91 404.00,668.00              403.69,641.33 410.03,615.27 420.86,591.00              427.05,577.13 438.57,560.72 448.25,549.00              488.30,500.54 547.21,471.61 609.00,463.28              626.74,460.89 644.13,460.79 662.00,461.00              675.73,461.16 697.55,464.76 711.00,468.13              757.65,479.79 785.66,496.57 822.00,527.73              872.87,571.35 904.90,620.35 935.68,679.00              935.68,679.00 946.86,705.00 946.86,705.00              946.86,705.00 971.43,754.00 971.43,754.00              1003.11,809.26 1049.53,862.91 1113.00,880.58              1134.36,886.52 1143.49,886.10 1165.00,886.00              1174.87,885.95 1190.27,882.81 1200.00,880.37              1233.51,871.99 1270.59,852.82 1293.83,827.00              1304.62,815.01 1313.54,799.14 1321.30,785.00              1334.38,761.18 1344.32,737.69 1344.00,710.00              1343.78,691.81 1337.31,671.17 1329.25,655.00              1322.55,641.58 1314.90,627.19 1304.83,616.00              1281.14,589.67 1246.79,576.34 1212.00,573.91              1212.00,573.91 1199.00,573.00 1199.00,573.00              1199.00,573.00 1189.00,573.91 1189.00,573.91              1157.15,576.14 1123.02,588.02 1104.93,616.00              1095.55,630.35 1084.99,659.92 1104.93,670.17              1115.01,675.29 1131.18,673.51 1140.00,666.61              1140.00,666.61 1159.00,648.17 1159.00,648.17              1167.61,640.42 1179.13,633.28 1190.00,629.23              1208.61,622.30 1230.74,623.97 1249.00,631.20              1256.14,634.03 1263.43,637.48 1268.83,643.09              1278.96,653.62 1283.31,671.69 1282.99,686.00              1281.65,744.88 1235.63,809.90 1180.00,829.31              1163.26,835.14 1152.27,835.20 1135.00,835.00              1114.18,834.75 1085.16,824.28 1067.00,814.30              1051.28,805.68 1039.67,796.67 1027.00,784.00              992.94,749.94 974.72,708.78 970.04,661.00              970.04,661.00 970.04,651.00 970.04,651.00              970.04,651.00 969.00,640.00 969.00,640.00              969.00,640.00 969.96,628.00 969.96,628.00              970.86,607.31 973.84,586.66 980.69,567.00              990.66,538.40 1006.40,513.10 1027.09,491.00              1027.09,491.00 1038.00,480.95 1038.00,480.95              1069.82,452.69 1100.62,440.72 1142.00,433.92              1198.19,424.68 1252.13,431.49 1304.00,455.31              1332.23,468.27 1360.03,488.39 1383.00,509.17              1421.47,543.97 1454.10,591.71 1477.25,638.00              1510.29,704.08 1532.30,778.47 1540.16,852.00              1540.16,852.00 1544.00,903.00 1544.00,903.00              1544.00,903.00 1545.00,918.00 1545.00,918.00              1545.00,918.00 1545.00,941.00 1545.00,941.00              1545.00,941.00 1544.00,958.00 1544.00,958.00              1543.96,986.28 1537.74,1027.06 1531.79,1055.00              1531.79,1055.00 1524.57,1084.00 1524.57,1084.00              1523.31,1088.44 1520.71,1093.38 1522.00,1098.00              1522.00,1098.00 1530.58,1076.00 1530.58,1076.00 Z            M 257.75,1180.00            C 257.75,1180.00 276.58,1215.00 276.58,1215.00              301.02,1257.62 329.97,1297.49 362.83,1334.00              419.48,1396.94 488.81,1450.25 566.00,1485.69              619.43,1510.23 671.89,1526.40 730.00,1535.42              730.00,1535.42 782.00,1541.09 782.00,1541.09              782.00,1541.09 792.00,1542.04 792.00,1542.04              792.00,1542.04 805.00,1542.04 805.00,1542.04              805.00,1542.04 817.00,1543.00 817.00,1543.00              817.00,1543.00 858.00,1542.00 858.00,1542.00              858.00,1542.00 868.00,1541.09 868.00,1541.09              868.00,1541.09 928.00,1534.42 928.00,1534.42              980.80,1526.23 1029.39,1512.01 1078.00,1489.69              1224.23,1422.55 1336.88,1297.34 1406.26,1154.00              1433.28,1098.18 1454.56,1035.09 1465.58,974.00              1469.52,952.11 1472.54,930.17 1474.09,908.00              1474.09,908.00 1475.00,898.00 1475.00,898.00              1475.00,898.00 1476.00,878.00 1476.00,878.00              1476.00,878.00 1476.00,848.00 1476.00,848.00              1476.00,848.00 1475.00,829.00 1475.00,829.00              1475.00,829.00 1474.09,819.00 1474.09,819.00              1474.09,819.00 1467.42,768.00 1467.42,768.00              1455.13,699.82 1425.84,632.41 1381.41,579.00              1361.29,554.80 1336.91,529.43 1309.00,514.31              1284.06,500.79 1246.44,490.04 1218.00,490.00              1218.00,490.00 1192.00,490.00 1192.00,490.00              1162.68,490.05 1123.76,500.31 1097.00,512.14              1081.92,518.81 1062.55,530.25 1051.09,542.04              1039.39,554.07 1030.47,572.39 1024.58,588.00              1009.93,626.79 1011.05,669.63 1026.40,708.00              1029.60,716.00 1034.78,727.09 1039.78,734.00              1045.90,742.44 1057.76,753.43 1066.00,760.00              1083.26,773.76 1105.50,784.74 1128.00,785.00              1167.45,785.44 1204.69,756.57 1224.20,724.00              1231.12,712.44 1238.32,697.74 1237.99,684.00              1237.75,674.29 1232.75,669.29 1223.00,669.02              1207.73,668.59 1197.16,678.84 1187.00,689.00              1166.04,709.96 1134.82,748.19 1101.00,734.55              1094.49,731.92 1088.33,728.26 1083.00,723.70              1052.58,697.66 1050.53,661.37 1059.63,625.00              1063.59,609.16 1069.55,593.56 1080.30,581.00              1105.09,552.03 1142.93,538.88 1180.00,535.92              1180.00,535.92 1192.00,535.00 1192.00,535.00              1192.00,535.00 1213.00,535.00 1213.00,535.00              1235.14,535.26 1261.53,541.94 1282.00,550.20              1304.63,559.33 1325.78,573.79 1343.00,591.00              1355.60,603.59 1365.13,614.83 1374.58,630.00              1431.90,722.09 1418.01,841.82 1356.42,928.00              1346.48,941.92 1331.61,959.42 1319.00,970.83              1299.60,988.38 1278.38,1004.36 1255.00,1016.24              1228.51,1029.71 1193.00,1042.65 1163.00,1043.00              1082.76,1043.93 1022.00,999.55 947.00,988.43              947.00,988.43 927.00,986.91 927.00,986.91              927.00,986.91 917.00,986.00 917.00,986.00              917.00,986.00 895.00,987.00 895.00,987.00              895.00,987.00 862.00,990.92 862.00,990.92              822.59,997.49 780.60,1014.43 752.01,1043.01              734.33,1060.70 716.50,1092.91 709.42,1117.00              703.06,1138.68 701.74,1152.60 702.00,1175.00              702.20,1191.72 707.46,1213.93 712.28,1230.00              725.38,1273.67 743.73,1312.53 785.00,1336.13              803.15,1346.50 830.01,1354.97 851.00,1355.00              851.00,1355.00 873.00,1355.00 873.00,1355.00              884.09,1354.87 903.32,1350.53 914.00,1347.00              957.58,1332.61 995.59,1301.97 1007.37,1256.00              1009.09,1249.30 1010.92,1239.86 1011.00,1233.00              1011.16,1218.80 1010.77,1199.24 1005.39,1186.00              1001.45,1176.30 985.87,1158.30 977.00,1152.71              968.07,1147.08 957.20,1146.87 947.00,1145.93              943.59,1145.61 938.36,1144.04 936.02,1147.43              932.63,1152.36 938.07,1167.53 939.72,1173.00              945.89,1193.50 953.90,1214.26 954.00,1236.00              954.06,1248.40 951.96,1261.19 945.55,1272.00              933.82,1291.77 909.71,1303.64 888.00,1308.87              883.31,1310.00 868.42,1312.13 864.00,1311.82              847.45,1310.64 833.47,1306.90 819.00,1298.57              779.28,1275.71 750.54,1219.47 750.00,1174.00              749.76,1152.85 750.71,1135.19 758.05,1115.00              761.22,1106.28 766.51,1095.69 771.67,1088.00              800.10,1045.60 848.92,1026.85 898.00,1022.04              898.00,1022.04 907.00,1022.04 907.00,1022.04              907.00,1022.04 917.00,1021.00 917.00,1021.00              917.00,1021.00 923.00,1021.00 923.00,1021.00              923.00,1021.00 936.00,1021.96 936.00,1021.96              1028.28,1025.98 1128.95,1078.07 1161.31,1169.00              1169.55,1192.15 1171.28,1213.71 1171.00,1238.00              1170.73,1260.63 1163.48,1287.57 1156.33,1309.00              1139.73,1358.81 1105.10,1410.58 1063.00,1442.11              1045.05,1455.55 1015.08,1469.57 994.00,1478.00              947.49,1496.60 898.05,1507.86 848.00,1510.04              848.00,1510.04 835.00,1511.00 835.00,1511.00              835.00,1511.00 805.00,1511.00 805.00,1511.00              805.00,1511.00 794.00,1510.04 794.00,1510.04              747.51,1508.01 701.42,1498.83 657.00,1485.02              547.88,1451.12 447.60,1388.64 366.00,1309.01              366.00,1309.01 357.17,1300.91 357.17,1300.91              329.80,1272.73 304.14,1243.11 281.42,1211.00              281.42,1211.00 260.42,1179.00 260.42,1179.00              257.10,1173.63 253.21,1165.20 249.00,1161.00              250.66,1166.83 254.94,1174.37 257.75,1180.00 Z            M 331.00,508.00            C 331.00,508.00 332.00,509.00 332.00,509.00              332.00,509.00 332.00,508.00 332.00,508.00              332.00,508.00 331.00,508.00 331.00,508.00 Z            M 309.74,551.00            C 291.25,589.21 276.47,628.36 264.28,669.00              252.94,706.80 245.76,741.73 241.83,781.00              241.83,781.00 240.00,802.00 240.00,802.00              240.00,802.00 239.00,821.00 239.00,821.00              239.00,821.00 239.00,855.00 239.00,855.00              239.00,855.00 240.00,874.00 240.00,874.00              240.00,874.00 240.91,884.00 240.91,884.00              240.91,884.00 243.85,914.00 243.85,914.00              248.47,952.73 258.34,994.01 270.67,1031.00              315.31,1164.92 404.41,1285.22 523.00,1362.66              542.66,1375.49 563.02,1386.76 584.00,1397.25              631.63,1421.06 682.48,1437.49 735.00,1446.25              735.00,1446.25 786.00,1452.09 786.00,1452.09              786.00,1452.09 796.00,1453.00 796.00,1453.00              830.37,1453.40 859.90,1453.73 894.00,1447.58              967.67,1434.29 1039.38,1393.86 1079.19,1329.00              1096.82,1300.28 1106.78,1271.63 1109.09,1238.00              1109.48,1232.29 1110.24,1230.50 1109.96,1224.00              1107.64,1170.59 1083.67,1126.38 1041.00,1094.13              1030.00,1085.82 1017.70,1077.86 1005.00,1072.43              983.47,1063.22 961.28,1059.73 938.00,1060.00              938.00,1060.00 928.00,1060.91 928.00,1060.91              892.79,1063.48 845.85,1077.16 826.46,1109.00              814.40,1128.81 813.74,1145.72 814.00,1168.00              814.10,1175.90 816.42,1188.08 818.00,1196.00              820.66,1209.30 823.39,1223.02 831.90,1233.99              840.19,1244.66 851.22,1247.80 864.00,1249.37              869.92,1249.80 870.67,1250.41 877.00,1249.37              880.18,1249.16 886.32,1249.30 888.58,1247.40              893.12,1243.59 893.06,1232.49 893.00,1227.00              892.76,1206.90 878.24,1172.38 878.00,1152.00              878.00,1152.00 878.00,1145.00 878.00,1145.00              878.23,1126.08 891.60,1112.82 909.00,1107.44              930.72,1100.71 954.86,1104.01 976.00,1111.34              1016.23,1125.31 1042.11,1162.35 1053.42,1202.00              1056.12,1211.48 1059.88,1225.29 1060.00,1235.00              1060.00,1235.00 1060.00,1243.00 1060.00,1243.00              1059.95,1272.15 1045.16,1303.65 1027.20,1326.00              994.87,1366.21 946.90,1394.90 897.00,1407.37              883.21,1410.82 862.05,1414.83 848.00,1415.00              820.75,1415.32 802.52,1414.14 776.00,1406.57              756.62,1401.04 733.31,1389.57 716.00,1379.20              665.08,1348.70 621.58,1303.08 600.42,1247.00              587.66,1213.17 586.59,1191.40 587.00,1156.00              587.13,1145.63 589.81,1127.56 591.59,1117.00              605.95,1031.44 650.68,970.12 701.88,903.00              726.64,870.56 756.33,834.61 772.42,797.00              779.32,780.87 785.79,760.68 786.00,743.00              786.27,719.49 783.47,702.51 776.72,680.00              758.79,620.23 718.83,574.62 660.00,552.42              596.40,528.44 522.49,538.52 480.16,596.00              473.12,605.56 467.15,615.84 463.05,627.00              455.28,648.20 453.74,660.65 454.00,683.00              454.51,726.36 489.27,762.88 526.00,781.25              540.17,788.33 556.04,793.18 572.00,793.00              580.14,792.90 601.15,789.53 595.91,777.00              592.73,769.39 579.90,761.55 573.00,757.00              557.48,746.77 535.60,733.64 523.28,719.99              512.45,707.97 503.20,693.74 503.00,677.00              502.71,652.08 514.34,626.02 535.00,611.44              551.71,599.64 568.07,596.97 588.00,597.00              636.63,597.08 693.82,632.26 717.57,674.00              727.37,691.22 735.35,718.27 737.72,738.00              737.72,738.00 738.26,751.00 738.26,751.00              738.26,751.00 738.26,759.00 738.26,759.00              736.09,805.40 709.82,842.18 678.00,874.00              648.52,903.48 617.13,925.50 577.00,937.98              562.68,942.43 547.93,945.41 533.00,946.96              533.00,946.96 524.00,946.96 524.00,946.96              524.00,946.96 515.00,947.97 515.00,947.97              515.00,947.97 505.00,947.04 505.00,947.04              431.38,943.83 362.44,901.31 323.58,839.00              303.75,807.21 289.44,767.76 289.00,730.00              289.00,730.00 288.08,719.00 288.08,719.00              288.08,719.00 289.00,704.00 289.00,704.00              289.00,704.00 292.72,672.00 292.72,672.00              297.83,633.19 307.97,597.63 318.15,560.00              318.15,560.00 331.00,510.00 331.00,510.00              324.21,518.44 314.87,540.41 309.74,551.00 Z            M 859.00,805.75            C 841.20,811.43 824.25,826.05 816.32,843.00              800.64,876.52 811.83,915.26 843.00,935.30              852.37,941.32 864.79,945.87 876.00,946.00              876.00,946.00 886.00,946.00 886.00,946.00              901.70,945.93 918.43,938.20 930.00,927.83              956.17,904.36 960.75,863.00 941.25,834.00              931.65,819.72 918.26,810.44 902.00,805.35              894.80,803.09 884.51,801.59 877.00,802.28              870.95,803.17 864.85,803.88 859.00,805.75 Z            M 1518.00,1104.00            C 1518.00,1104.00 1519.00,1105.00 1519.00,1105.00              1519.00,1105.00 1519.00,1104.00 1519.00,1104.00              1519.00,1104.00 1518.00,1104.00 1518.00,1104.00 Z            M 243.00,1149.00            C 243.00,1149.00 244.00,1150.00 244.00,1150.00              244.00,1150.00 244.00,1149.00 244.00,1149.00              244.00,1149.00 243.00,1149.00 243.00,1149.00 Z            M 244.00,1151.00            C 244.00,1151.00 245.00,1152.00 245.00,1152.00              245.00,1152.00 245.00,1151.00 245.00,1151.00              245.00,1151.00 244.00,1151.00 244.00,1151.00 Z            M 245.00,1153.00            C 245.00,1153.00 246.00,1154.00 246.00,1154.00              246.00,1154.00 246.00,1153.00 246.00,1153.00              246.00,1153.00 245.00,1153.00 245.00,1153.00 Z"
     style="fill:#c8c442;fill-opacity:1;stroke:#a29f51;stroke-opacity:1"
     inkscape:export-xdpi="0.68577224"
     inkscape:export-ydpi="0.68577224" />
</svg>
