<?xml version="1.0" encoding="UTF-8" standalone="no"?>
<svg
   xmlns:dc="http://purl.org/dc/elements/1.1/"
   xmlns:cc="http://creativecommons.org/ns#"
   xmlns:rdf="http://www.w3.org/1999/02/22-rdf-syntax-ns#"
   xmlns:svg="http://www.w3.org/2000/svg"
   xmlns="http://www.w3.org/2000/svg"
   xmlns:sodipodi="http://sodipodi.sourceforge.net/DTD/sodipodi-0.dtd"
   xmlns:inkscape="http://www.inkscape.org/namespaces/inkscape"
   width="844.41357mm"
   height="55.392056mm"
   viewBox="0 0 2393.911 157.03641"
   version="1.1"
   id="svg3"
   sodipodi:docname="remainsoftware.svg"
   inkscape:export-filename="C:\Users\jongw\Pictures\Logos\remainsoftwaretext.png"
   inkscape:export-xdpi="11.922287"
   inkscape:export-ydpi="11.922287"
   inkscape:version="0.92.3 (2405546, 2018-03-11)">
  <metadata
     id="metadata9">
    <rdf:RDF>
      <cc:Work
         rdf:about="">
        <dc:format>image/svg+xml</dc:format>
        <dc:type
           rdf:resource="http://purl.org/dc/dcmitype/StillImage" />
        <dc:title></dc:title>
      </cc:Work>
    </rdf:RDF>
  </metadata>
  <defs
     id="defs7" />
  <sodipodi:namedview
     pagecolor="#ffffff"
     bordercolor="#666666"
     borderopacity="1"
     objecttolerance="10"
     gridtolerance="10"
     guidetolerance="10"
     inkscape:pageopacity="0"
     inkscape:pageshadow="2"
     inkscape:window-width="1385"
     inkscape:window-height="630"
     id="namedview5"
     showgrid="false"
     inkscape:zoom="0.19890429"
     inkscape:cx="1271.5958"
     inkscape:cy="109.32233"
     inkscape:window-x="0"
     inkscape:window-y="0"
     inkscape:window-maximized="0"
     inkscape:current-layer="svg3" />
  <path
     id="Selection"
     d="m 0.5,6.0293994 c 0,0 0,145.0000006 0,145.0000006 0,0 52,0 52,0 0,0 0,-52 0,-52 0,0 19,0 19,0 3.55,0.01 6.68,-0.42 9.39,2.31 1.7,1.71 6.43,10.13 7.89,12.69 0,0 13.14,23 13.14,23 6.95,11.97 6.22,13.98 16.58,14 0,0 48,0 48,0 0,0 -10.32,-18 -10.32,-18 0,0 -24.68,-40 -24.68,-40 39.88,-3.6 43.14,-62.53 12,-80.320001 -13.21,-7.5399996 -35.02,-6.6799996 -50,-6.6799996 0,0 -93,0 -93,0 z m 189,0 c 0,0 0,145.0000006 0,145.0000006 0,0 154,0 154,0 0,0 0,-33 0,-33 0,0 -103,0 -103,0 0,0 0,-23 0,-23 0,0 93,0 93,0 0,0 0,-32 0,-32 0,0 -93,0 -93,0 0,0 0,-25 0,-25 0,0 101,0 101,0 0,0 0,-32.0000006 0,-32.0000006 0,0 -152,0 -152,0 z m 180,0 c 0,0 0,145.0000006 0,145.0000006 0,0 50,0 50,0 0,0 0,-91 0,-91 0,0 11.69,30 11.69,30 0,0 14.36,39 14.36,39 0,0 5.26,14 5.26,14 0,0 3.39,7.01 3.39,7.01 0,0 7.3,0.99 7.3,0.99 0,0 24,0 24,0 0,0 7.49,-1.02 7.49,-1.02 0,0 3.32,-5.98 3.32,-5.98 0,0 5.53,-15 5.53,-15 0,0 25.66,-70 25.66,-70 0,0 1,31 1,31 0,0 0,61 0,61 0,0 50,0 50,0 0,0 0,-145.0000006 0,-145.0000006 0,0 -60,0 -60,0 0,0 -7.3,0.99 -7.3,0.99 0,0 -9.12,21.0100006 -9.12,21.0100006 0,0 -27.58,72 -27.58,72 0,0 -11.42,-28 -11.42,-28 0,0 -16.63,-43 -16.63,-43 0,0 -5.76,-15.000001 -5.76,-15.000001 0,0 -3.84,-7.0099996 -3.84,-7.0099996 0,0 -7.35,-0.99 -7.35,-0.99 0,0 -60,0 -60,0 z M 591.5,151.0294 c 0,0 57,0 57,0 0,0 7,-24 7,-24 0,0 47,0 47,0 0,0 8.49,1.6 8.49,1.6 0,0 9.21,21.41 9.21,21.41 0,0 7.3,0.99 7.3,0.99 0,0 48,0 48,0 0,0 -10.14,-24 -10.14,-24 0,0 -13,-30 -13,-30 0,0 -25.09,-58 -25.09,-58 0,0 -9.92,-23 -9.92,-23 0,0 -5.24,-8.9800006 -5.24,-8.9800006 0,0 -7.61,-1.02 -7.61,-1.02 0,0 -43,0 -43,0 0,0 -7.3,0.99 -7.3,0.99 0,0 -5.12,10.0100006 -5.12,10.0100006 0,0 -9.44,22 -9.44,22 0,0 -31.56,73 -31.56,73 0,0 -16.58,39 -16.58,39 z M 788.5,6.0293994 c 0,0 0,145.0000006 0,145.0000006 0,0 51,0 51,0 0,0 0,-145.0000006 0,-145.0000006 0,0 -51,0 -51,0 z m 83,0 c 0,0 0,145.0000006 0,145.0000006 0,0 51,0 51,0 0,0 0,-77 0,-77 0,0 17.16,19 17.16,19 0,0 33.69,38 33.69,38 3.81,4.33 14.57,17.71 19.15,19.4 1.94,0.72 4.91,0.6 7,0.6 0,0 35,0 35,0 0,0 0,-145.0000006 0,-145.0000006 0,0 -51,0 -51,0 0,0 0,76.0000006 0,76.0000006 0,0 -52.98,-58 -52.98,-58 0,0 -17.11,-17.4000006 -17.11,-17.4000006 0,0 -6.91,-0.6 -6.91,-0.6 0,0 -35,0 -35,0 z M 52.5,67.0294 c 0,0 0,-28 0,-28 0,0 45,0 45,0 8.82,0.12 16.62,5.22 15.44,15 -0.99,8.29 -7.06,11.22 -14.44,12.41 0,0 -46,0.59 -46,0.59 z m 631,-20 c 0,0 8,21 8,21 0,0 9,27 9,27 0,0 -33,0 -33,0 0,0 8.67,-28 8.67,-28 0,0 7.33,-20 7.33,-20 z"
     inkscape:connector-curvature="0"
     style="fill:none;stroke:#000000;stroke-width:1" />
  <path
     inkscape:connector-curvature="0"
     style="fill:none;stroke:#000000;stroke-width:0.99999851"
     id="Selection-7"
     d="m 1229.413,33.018605 c -11.61,-21.63996 -45.3799,-28.7299505 -67.9999,-28.9999505 -11.18,-0.13 -24.1099,1.08 -34.9999,3.6499904 -9.71,2.3 -20.1,6.5999901 -26.67,14.3599801 -12.5,14.75998 -10.9,38.85994 5.67,49.88993 9.37,6.22999 21.11,7.09999 32,8.25998 0,0 25.9999,2.67 25.9999,2.67 0,0 24,2.58999 24,2.58999 10.55,1.92 23.05,7.3 23.8999,19.579965 0.92,13.09999 -9.7599,21.71997 -20.8999,25.93996 -18.93,7.16 -50.5399,4.47 -68.9999,-3.36999 -5.12,-2.16999 -9.65,-4.52999 -14,-8.03999 -4.1,-3.28999 -6.28,-7.05998 -12,-5.40999 -2.52,0.73 -10.47,3.81999 -11.37,6.26999 -0.82,2.23 0.81,4.85999 2.09,6.56999 2.96,3.97 9.95,9.01999 14.28,11.58998 14.87,8.81999 32.2,11.00999 48.9999,12.61999 0,0 9,0.83 9,0.83 17.46,0.2 41.52,-2.42 55.9999,-12.78999 19.1,-13.66998 24,-44.009925 5,-59.879895 -11.5399,-9.62999 -27.6099,-11.36999 -41.9999,-12.41999 0,0 -46.9999,-4.99999 -46.9999,-4.99999 -11.66,-2.21 -23.37,-10.61998 -17.64,-23.90996 3.73,-8.62999 13.02,-12.75998 21.64,-14.86998 16.2999,-3.97999 39.4299,-3.91999 54.9999,2.74 4.47,1.91999 9,4.39999 13,7.16998 2.53,1.75 6.03,4.91 9,5.43 3.5399,0.61 13.5399,-4.27 17.9999,-5.47 z m 88.9999,-28.3699505 c 0,0 -10,0.81 -10,0.81 -19.12,2.9899904 -36.5099,10.1699805 -49.9099,24.5599605 -24.31,26.10996 -24.42,76.009875 1.95,100.829835 16.42,15.45998 41.8399,21.90998 63.9599,22.16997 19.05,0.22 40.7599,-3.67999 56.9999,-14.08998 36.6399,-23.49996 41.3599,-77.369875 12.71,-108.869825 -14.77,-16.24998 -36.59,-22.9499701 -57.7099,-25.4099605 -7,-0.54 -10.81,-1.08 -18,0 z m 110.9998,2.3699904 c 0,0 0,141.9997851 0,141.9997851 0,0 20,0 20,0 0,0 0,-62.999895 0,-62.999895 0,0 101.9998,0 101.9998,0 0,0 0,-15.99998 0,-15.99998 0,0 -101.9998,0 -101.9998,0 0,0 0,-45.99993 0,-45.99993 0,0 105.9998,0 105.9998,0 0,0 0,-16.9999801 0,-16.9999801 0,0 -125.9998,0 -125.9998,0 z m 134.9998,0 c 0,0 0,16.9999801 0,16.9999801 0,0 57.9999,0 57.9999,0 0,0 0,124.999805 0,124.999805 0,0 20,0 20,0 0,0 0,-124.999805 0,-124.999805 0,0 57.9999,0 57.9999,0 0,0 0,-16.9999801 0,-16.9999801 0,0 -135.9998,0 -135.9998,0 z m 142.9998,0 c 0,0 12.67,40.9999401 12.67,40.9999401 0,0 22.66,68.999895 22.66,68.999895 0,0 6.9999,21.99997 6.9999,21.99997 0,0 4.18,8.97998 4.18,8.97998 0,0 7.49,1.02 7.49,1.02 0,0 15,0 15,0 0,0 8.31,-23.99996 8.31,-23.99996 0,0 22.38,-61.999905 22.38,-61.999905 0,0 10.3099,-29.99996 10.3099,-29.99996 0,0 19.05,50.99993 19.05,50.99993 0,0 22.95,64.999895 22.95,64.999895 0,0 23,0 23,0 0,0 12.67,-38.99994 12.67,-38.99994 0,0 20.9999,-63.999895 20.9999,-63.999895 0,0 12.33,-38.9999501 12.33,-38.9999501 0,0 -21,0 -21,0 0,0 -19.2799,62.9999101 -19.2799,62.9999101 0,0 -17.72,54.999915 -17.72,54.999915 0,0 -26.05,-70.999895 -26.05,-70.999895 0,0 -16.95,-46.9999301 -16.95,-46.9999301 0,0 -10,0 -10,0 0,0 -7.4899,1.02 -7.4899,1.02 0,0 -4.09,7.9799901 -4.09,7.9799901 0,0 -6.84,18.99997 -6.84,18.99997 0,0 -19.89,53.99992 -19.89,53.99992 0,0 -13.69,36.999935 -13.69,36.999935 0,0 -11.72,-36.999935 -11.72,-36.999935 0,0 -16.6999,-53.99992 -16.6999,-53.99992 0,0 -5.91,-18.99997 -5.91,-18.99997 0,0 -3.39,-8.0099901 -3.39,-8.0099901 0,0 -7.28,-0.99 -7.28,-0.99 0,0 -13,0 -13,0 z M 1904.412,149.01843 c 0,0 15,0 15,0 0,0 8.04,-1.57 8.04,-1.57 0,0 11.54,-22.42996 11.54,-22.42996 0,0 5.81,-9.97999 5.81,-9.97999 0,0 7.6099,-1.02 7.6099,-1.02 0,0 79.9999,0 79.9999,0 0,0 10.25,22.99996 10.25,22.99996 0,0 5.71,10.42999 5.71,10.42999 0,0 6.04,1.57 6.04,1.57 0,0 16.9999,0 16.9999,0 -2.4199,-8.47999 -13.3199,-27.18996 -17.7499,-35.99995 0,0 -37.94,-73.999875 -37.94,-73.999875 0,0 -11.06,-21.99997 -11.06,-21.99997 -3.2999,-6.58999 -3.3899,-9.8499901 -11.2499,-9.9999901 -3.09,-0.05 -13.17,-0.5400004 -15.37,0.99 -1.98,1.39 -4.66,7.6299901 -5.89,10.0099901 0,0 -11.9899,22.99996 -11.9899,22.99996 0,0 -43,82.999865 -43,82.999865 0,0 -12.75,24.99997 -12.75,24.99997 z M 2083.4117,7.0186449 c 0,0 0,141.9997851 0,141.9997851 0,0 20,0 20,0 0,0 0,-56.999905 0,-56.999905 0,0 59.9999,0 59.9999,0 11.63,0.02 13.11,5.439987 20.2499,13.999975 0,0 24.48,28.99995 24.48,28.99995 2.6001,3.05 9.3601,12.09998 12.56,13.42998 1.7,0.71 4.82,0.57 6.71,0.57 0,0 18,0 18,0 0,0 -13.58,-16.99997 -13.58,-16.99997 0,0 -37.4199,-43.999935 -37.4199,-43.999935 12.5899,-0.28 25.08,-6.19999 32.0299,-16.99997 3.7,-5.73999 5.49,-14.22998 5.88,-20.99997 0.82,-14.43998 -6.31,-29.02996 -18.91,-36.31995 -13.4099,-7.7499905 -31.9799,-6.6799901 -46.9999,-6.6799901 0,0 -82.9999,0 -82.9999,0 z m 173.9998,0 c 0,0 0,141.9997851 0,141.9997851 0,0 135.9998,0 135.9998,0 0,0 0,-16.99997 0,-16.99997 0,0 -115.9999,0 -115.9999,0 0,0 0,-47.999925 0,-47.999925 0,0 107.9999,0 107.9999,0 0,0 0,-16.99998 0,-16.99998 0,0 -107.9999,0 -107.9999,0 0,0 0,-42.99993 0,-42.99993 0,0 110.9999,0 110.9999,0 0,0 0,-16.9999801 0,-16.9999801 0,0 -130.9998,0 -130.9998,0 z M 1317.4129,21.298625 c 18.91,-1.75 40.9699,1.95 55.9999,14.18998 23.8,19.35997 25.95,62.019907 3.96,83.439865 -13.42,13.06998 -33.7599,17.29998 -51.9599,17.08998 -16.9,-0.2 -37.34,-5.42 -49.8299,-17.29997 -22.54,-21.429968 -19.85,-63.809905 3.83,-83.369875 10.9999,-9.08998 24.3199,-12.03998 37.9999,-14.04998 z m 785.9988,54.71992 c 0,0 0,-51.99992 0,-51.99992 0,0 80.9999,0 80.9999,0 7.3399,0.01 14.24,0.81 19.82,6.20999 11.4599,11.10998 9.6499,33.28995 -5.8201,41.38994 -6.1799,3.22999 -19.8599,4.30999 -26.9999,4.39999 0,0 -67.9999,0 -67.9999,0 z m -114.9998,-47.99993 c 0,0 20.25,39.99994 20.25,39.99994 0,0 13.7499,29.999947 13.7499,29.999947 0,0 -69.9999,0 -69.9999,0 0,0 22.75,-45.999917 22.75,-45.999917 3.11,-6.21999 8.81,-19.55997 13.25,-23.99997 z" />
</svg>
