<?xml version="1.0" encoding="UTF-8" standalone="no"?>
<svg
   xmlns:dc="http://purl.org/dc/elements/1.1/"
   xmlns:cc="http://creativecommons.org/ns#"
   xmlns:rdf="http://www.w3.org/1999/02/22-rdf-syntax-ns#"
   xmlns:svg="http://www.w3.org/2000/svg"
   xmlns="http://www.w3.org/2000/svg"
   xmlns:sodipodi="http://sodipodi.sourceforge.net/DTD/sodipodi-0.dtd"
   xmlns:inkscape="http://www.inkscape.org/namespaces/inkscape"
   width="23.876066in"
   height="31.314245in"
   viewBox="0 0 1719.0768 2254.6297"
   version="1.1"
   id="svg3"
   sodipodi:docname="remainlogo with text.svg"
   inkscape:version="0.92.3 (2405546, 2018-03-11)"
   inkscape:export-filename="C:\Users\jongw\Pictures\Logos\remainsoftware\remainlogo with text.png"
   inkscape:export-xdpi="20.940001"
   inkscape:export-ydpi="20.940001">
  <metadata
     id="metadata9">
    <rdf:RDF>
      <cc:Work
         rdf:about="">
        <dc:format>image/svg+xml</dc:format>
        <dc:type
           rdf:resource="http://purl.org/dc/dcmitype/StillImage" />
        <dc:title />
      </cc:Work>
    </rdf:RDF>
  </metadata>
  <defs
     id="defs7" />
  <sodipodi:namedview
     pagecolor="#ffffff"
     bordercolor="#666666"
     borderopacity="1"
     objecttolerance="10"
     gridtolerance="10"
     guidetolerance="10"
     inkscape:pageopacity="0"
     inkscape:pageshadow="2"
     inkscape:window-width="1920"
     inkscape:window-height="1027"
     id="namedview5"
     showgrid="false"
     inkscape:zoom="0.20113672"
     inkscape:cx="1594.3121"
     inkscape:cy="1498.6113"
     inkscape:window-x="-8"
     inkscape:window-y="-8"
     inkscape:window-maximized="1"
     inkscape:current-layer="svg3" />
  <path
     id="Selection"
     d="m 827.07236,26.238316 c 23.05464,-1.090611 46.16298,-0.879065 69.23971,-0.466101 18.6964,0.334577 27.81916,0.819619 55.15859,3.262712 18.39702,1.643985 58.64304,8.644548 85.06774,15.45661 83.3868,21.49639 166.52,48.65 240,90.780003 184.27,105.65 324.98,280.55 388.02,483.42 16.07,51.71 25.94,102.17 31.15,156 l 1.83,26 1,16 v 42 l -1,22 -0.91,10 -1.92,26 c -3.65,37.71 -8.53,74.79 -15.97,111.99996 -26.16,130.82 -79.97,258.63 -161.08,365 -17.88,23.44 -36.95,45.45 -57.03,67 l -24.09,24.96 c -59.96,57.35 -121.56,100.12 -195,138.26 l -36,16.64 c -70.1,30.99 -142.24,50.49 -217.99991,61.41 l -68.00003,6.82 -11,0.91 -23,1 h -48 l -21,-1 -10,-0.91 -49,-4.81 c -57.02,-7.44 -112.87,-21.26 -167,-40.59 -205.1,-73.23 -378.68,-225.22 -480.22001,-417.69 -18.829997,-35.69 -34.57,-73.01 -48.09,-111 -17.28,-48.55 -31.37,-109.74 -36.850001,-160.99996 l -2.929999,-32 -0.91,-11 -1,-19 v -47 l 1,-16 0.91,-15 3.929999,-46 c 4.360001,-40.8 11.840001,-81.2 21.790001,-121 56.96,-227.86 198.85001,-422.5 405.37001,-537.14 66.59,-36.960003 138.19463,-67.021918 213,-81.210003 0,0 39.91197,-8.084484 60,-11.38 12.28707,-2.015739 24.6278,-3.728597 37,-5.13 21.12479,-2.392812 42.29777,-4.588636 63.5339,-5.593221 z m 681.04604,1041.453184 11.4,-33 c 12.84,-41.32996 22.17,-87.75996 24.06,-130.99996 l 0.96,-11 v -47 l -0.91,-12 -3.81,-40 c -7.63,-58.48 -25,-115.46 -49.59,-169 -40.93,-89.14 -108.36,-167.74 -185.69,-227.35 -37.98,-29.27 -75.96,-52.22 -118,-74.96 -55.68,-30.11 -115.08,-54.59 -177,-68.27 -25.97994,-5.73 -52.48994,-9.65 -78.99994,-11.51 l -10,-0.91 -20,-1 h -30 l -20,1 -10,0.91 c -34.79,2.39 -69.16,8.26 -103,16.72 -121.89,30.47 -242.2,101.88 -321,200.37 -47.01,58.76 -82.71,130.72 -86.04,207 l -0.96,13 v 4 l 1.04,10 v 8 c 4.66,47.54 23.09,89.54 58.96,121.83 29.62,26.66 71.52,42.55 111,45.26 l 11,0.89 9,-0.89 c 24.41,-1.68 46.07,-7.88 68,-18.84 18.18,-9.09 35.51,-19.97 48.11,-36.25 12.42,-16.04 22.65,-38.4 22.89,-59 0.41,-35.5 -12.43,-54.47 -37,-79 -17.76,-17.73 -42.19,-32.29 -68,-32 -8.7,0.1 -17.55,2.87 -25,7.35 -3.02,1.82 -6.85,4.63 -6.21,8.65 0.9,5.6 10.65,11.36 15.21,14.19 14.44,8.97 29.78,17.9 42,29.82 19.35,18.88 27.31,33.8 27,60.99 -0.12,9.77 -3.06,22.99 -8.79,31 -14.5,20.26 -44.12,29.71 -68.21,30 -14.88,0.17 -28.75,-1.61 -43,-6.02 -57.3,-17.75 -90.25,-67.26 -101.6,-123.98 -2.16,-10.77 -4.27,-25.09 -4.4,-36 -0.31,-26.67 6.03,-52.73 16.86,-77 6.19,-13.87 17.71,-30.28 27.39,-42 40.05,-48.46 98.96,-77.39 160.75,-85.72 17.74,-2.39 35.13,-2.49 53,-2.28 13.73,0.16 35.55,3.76 49,7.13 46.65,11.66 74.66,28.44 111,59.6 50.87,43.62 82.9,92.62 113.68,151.27 l 11.18,26 24.57,49 c 31.68,55.26 78.09994,108.91 141.56994,126.58 21.36,5.94 30.49,5.52 52,5.42 9.87,-0.05 25.27,-3.19 35,-5.63 33.51,-8.38 70.59,-27.55 93.83,-53.37 10.79,-11.99 19.71,-27.86 27.47,-42 13.08,-23.82 23.02,-47.31 22.7,-75 -0.22,-18.19 -6.69,-38.83 -14.75,-55 -6.7,-13.42 -14.35,-27.81 -24.42,-39 -23.69,-26.33 -58.04,-39.66 -92.83,-42.09 l -13,-0.91 -10,0.91 c -31.85,2.23 -65.98,14.11 -84.07,42.09 -9.38,14.35 -19.94,43.92 0,54.17 10.08,5.12 26.25,3.34 35.07,-3.56 l 19,-18.44 c 8.61,-7.75 20.13,-14.89 31,-18.94 18.61,-6.93 40.74,-5.26 59,1.97 7.14,2.83 14.43,6.28 19.83,11.89 10.13,10.53 14.48,28.6 14.16,42.91 -1.34,58.88 -47.36,123.9 -102.99,143.31 -16.74,5.83 -27.73,5.89 -45,5.69 -20.82,-0.25 -49.84,-10.72 -68,-20.7 -15.72,-8.62 -27.33,-17.63 -40,-30.3 -34.05994,-34.06 -52.27994,-75.22 -56.95994,-123 v -10 l -1.04,-11 0.96,-12 c 0.9,-20.69 3.88,-41.34 10.73,-61 9.97,-28.6 25.71,-53.9 46.39994,-76 l 10.91,-10.05 c 31.82,-28.26 62.62,-40.23 104,-47.03 56.19,-9.24 110.13,-2.43 162,21.39 28.23,12.96 56.03,33.08 79,53.86 38.47,34.8 71.1,82.54 94.25,128.83 33.04,66.08 55.05,140.47 62.91,214 l 3.84,51 1,15 v 23 l -1,17 c -0.04,28.28 -6.26,69.05996 -12.21,96.99996 l -7.22,29 c -1.26,4.44 -3.86,9.38 -2.57,14 z m -1272.82994,104 18.83,35 c 24.44,42.62 53.39,82.49 86.25,119 56.65,62.94 125.98,116.25 203.17,151.69 53.43,24.54 105.89,40.71 164,49.73 l 52,5.67 10,0.95 h 13 l 12,0.96 41,-1 10,-0.91 60,-6.67 c 52.8,-8.19 101.38994,-22.41 149.99994,-44.73 146.23,-67.14 258.88,-192.35 328.26,-335.69 27.02,-55.82 48.3,-118.91 59.32,-179.99996 3.94,-21.89 6.96,-43.83 8.51,-66 l 0.91,-10 1,-20 v -30 l -1,-19 -0.91,-10 -6.67,-51 c -12.29,-68.18 -41.58,-135.59 -86.01,-189 -20.12,-24.2 -44.5,-49.57 -72.41,-64.69 -24.94,-13.52 -62.56,-24.27 -91,-24.31 h -26 c -29.32,0.05 -68.24,10.31 -95,22.14 -15.08,6.67 -34.45,18.11 -45.91,29.9 -11.7,12.03 -20.62,30.35 -26.51,45.96 -14.64991,38.79 -13.52991,81.63 1.82,120 3.2,8 8.38,19.09 13.38,26 6.12,8.44 17.98,19.43 26.22,26 17.26,13.76 39.5,24.74 62,25 39.45,0.44 76.69,-28.43 96.2,-61 6.92,-11.56 14.12,-26.26 13.79,-40 -0.24,-9.71 -5.24,-14.71 -14.99,-14.98 -15.27,-0.43 -25.84,9.82 -36,19.98 -20.96,20.96 -52.18,59.19 -86,45.55 -6.51,-2.63 -12.67,-6.29 -18,-10.85 -30.42,-26.04 -32.47,-62.33 -23.37,-98.7 3.96,-15.84 9.92,-31.44 20.67,-44 24.79,-28.97 62.63,-42.12 99.7,-45.08 l 12,-0.92 h 21 c 22.14,0.26 48.53,6.94 69,15.2 22.63,9.13 43.78,23.59 61,40.8 12.6,12.59 22.13,23.83 31.58,39 57.32,92.09 43.43,211.82 -18.16,298 -9.94,13.92 -24.81,31.42 -37.42,42.83 -19.4,17.55 -40.62,33.53 -64,45.40996 -26.49,13.47 -62,26.41 -92,26.76 -80.24,0.93 -140.99991,-43.44996 -215.99994,-54.56996 l -20,-1.52 -10,-0.91 -22,1 -33,3.92 c -39.41,6.57 -81.4,23.50996 -109.99,52.08996 -17.68,17.69 -35.51,49.9 -42.59,73.99 -6.36,21.68 -7.68,35.6 -7.42,58 0.2,16.72 5.46,38.93 10.28,55 13.1,43.67 31.45,82.53 72.72,106.13 18.15,10.37 45.01,18.84 66,18.87 h 22 c 11.09,-0.13 30.32,-4.47 41,-8 43.58,-14.39 81.59,-45.03 93.37,-91 1.72003,-6.7 3.55003,-16.14 3.63003,-23 0.16,-14.2 -0.23,-33.76 -5.61003,-47 -3.94,-9.7 -19.52,-27.7 -28.39,-33.29 -8.93,-5.63 -19.8,-5.84 -30,-6.78 -3.41,-0.32 -8.64,-1.89 -10.98,1.5 -3.39,4.93 2.05,20.1 3.7,25.57 6.17,20.5 14.18,41.26 14.28,63 0.06,12.4 -2.04,25.19 -8.45,36 -11.73,19.77 -35.84,31.64 -57.55,36.87 -4.69,1.13 -19.58,3.26 -24,2.95 -16.55,-1.18 -30.53,-4.92 -45,-13.25 -39.72,-22.86 -68.46,-79.1 -69,-124.57 -0.24,-21.15 0.71,-38.81 8.05,-59 3.17,-8.72 8.46,-19.31 13.62,-27 28.43,-42.4 77.25,-61.15 126.33,-65.96 h 9 l 10,-1.04 h 6 l 13,0.96 c 92.27994,4.02 192.94994,56.11 225.30994,147.04 8.24,23.15 9.97,44.71 9.69,69 -0.27,22.63 -7.52,49.57 -14.67,71 -16.6,49.81 -51.23,101.58 -93.33,133.11 -17.95,13.44 -47.91991,27.46 -68.99994,35.89 -46.51,18.6 -95.95,29.86 -146,32.04 l -13,0.96 h -30 l -11,-0.96 c -46.49,-2.03 -92.58,-11.21 -137,-25.02 -109.12,-33.9 -209.4,-96.38 -291,-176.01 l -8.83,-8.1 c -27.37,-28.18 -53.03,-57.8 -75.75,-89.91 l -21,-32 c -3.32,-5.37 -7.21,-13.8 -11.42,-18 1.66,5.83 5.94,13.37 8.75,19 z m 73.25,-671.99996 1,1 v -1 z m -21.26,43 c -18.49,38.21 -33.27,77.36 -45.46,118 -11.34,37.8 -18.52,72.73 -22.45,112 l -1.83,21 -1,19 v 34 l 1,19 0.91,10 2.94,30 c 4.62,38.73 14.49,80.01 26.82,116.99996 44.64,133.92 133.74,254.22 252.33,331.66 19.66,12.83 40.02,24.1 61,34.59 47.63,23.81 98.48,40.24 151,49 l 51,5.84 10,0.91 c 34.37,0.4 63.9,0.73 98,-5.42 73.67,-13.29 145.37994,-53.72 185.18994,-118.58 17.63,-28.72 27.59,-57.37 29.9,-91 0.39,-5.71 1.15,-7.5 0.87,-14 -2.32,-53.41 -26.29,-97.62 -68.96,-129.87 -11,-8.31 -23.29991,-16.27 -35.99994,-21.7 -21.53,-9.21 -43.72,-12.7 -67,-12.43 l -10,0.91 c -35.21,2.57 -82.15,16.25 -101.54,48.09 -12.06,19.81 -12.72,36.72 -12.46,59 0.1,7.9 2.42,20.08 4,28 2.66,13.3 5.39,27.02 13.9,37.99 8.29,10.67 19.32,13.81 32.1,15.38 5.92,0.43 6.67,1.04 13,0 3.18,-0.21 9.32,-0.07 11.58,-1.97 4.54,-3.81 4.48,-14.91 4.42,-20.4 -0.24,-20.1 -14.76,-54.62 -15,-75 v -7 c 0.23,-18.92 13.6,-32.18 31,-37.56 21.72,-6.73 45.86,-3.43 67,3.9 40.23003,13.97 66.10994,51.01 77.41994,90.66 2.7,9.48 6.46,23.29 6.58,33 v 8 c -0.05,29.15 -14.84,60.65 -32.8,83 -32.32994,40.21 -80.29994,68.9 -130.19994,81.37 -13.79,3.45 -34.95,7.46 -49,7.63 -27.25,0.32 -45.48,-0.86 -72,-8.43 -19.38,-5.53 -42.69,-17 -60,-27.37 -50.92,-30.5 -94.42,-76.12 -115.58,-132.2 -12.76,-33.83 -13.83,-55.6 -13.42,-91 0.13,-10.37 2.81,-28.44 4.59,-39 14.36,-85.56 59.09,-146.87996 110.29,-213.99996 24.76,-32.44 54.45,-68.39 70.54,-106 6.9,-16.13 13.37,-36.32 13.58,-54 0.27,-23.51 -2.53,-40.49 -9.28,-63 -17.93,-59.77 -57.89,-105.38 -116.72,-127.58 -63.6,-23.98 -137.51,-13.9 -179.84,43.58 -7.04,9.56 -13.01,19.84 -17.11,31 -7.77,21.2 -9.31,33.65 -9.05,56 0.51,43.36 35.27,79.88 72,98.25 14.17,7.08 30.04,11.93 46,11.75 8.14,-0.1 29.15,-3.47 23.91,-16 -3.18,-7.61 -16.01,-15.45 -22.91,-20 -15.52,-10.23 -37.4,-23.36 -49.72,-37.01 -10.83,-12.02 -20.08,-26.25 -20.28,-42.99 -0.29,-24.92 11.34,-50.98 32,-65.56 16.71,-11.8 33.07,-14.47 53,-14.44 48.63,0.08 105.82,35.26 129.57,77 9.8,17.22 17.78,44.27 20.15,64 l 0.54,13 v 8 c -2.17,46.4 -28.44,83.18 -60.26,115 -29.48,29.48 -60.87,51.5 -101,63.98 -14.32,4.45 -29.07,7.43 -44,8.98 h -9 l -9,1.01 -10,-0.93 c -73.62,-3.21 -142.56,-45.73 -181.42,-108.04 -19.83,-31.79 -34.14,-71.24 -34.58,-109 l -0.92,-11 0.92,-15 3.72,-32 c 5.11,-38.81 15.25,-74.37 25.43,-112 l 12.85,-50 c -6.79,8.44 -16.13,30.41 -21.26,41 z m 549.26,254.75 c -17.8,5.68 -34.75,20.3 -42.68,37.25 -15.68,33.52 -4.49,72.26 26.68,92.3 9.37,6.02 21.79,10.57 33,10.7 h 10 c 15.7,-0.07 32.43,-7.8 44,-18.17 26.17,-23.47 30.75,-64.83 11.25,-93.83 -9.6,-14.28 -22.99,-23.56 -39.25,-28.65 -7.2,-2.26 -17.49,-3.76 -25,-3.07 -6.05,0.89 -12.15,1.6 -18,3.47 z m 658.99994,298.24996 1,1 v -1 z m -1274.99994,45 1,1 v -1 z m 1,2 1,1 v -1 z m 1,2 1,1 v -1 z"
     style="fill:#c8c442;fill-opacity:1;stroke:#a29f51;stroke-width:1;stroke-opacity:1"
     inkscape:export-xdpi="0.68577224"
     inkscape:export-ydpi="0.68577224"
     inkscape:connector-curvature="0"
     sodipodi:nodetypes="ssssccccccccccccccccccccccccccccccccccccssssccccccccccccccccccccccccccccccccccccccccccccccccccccccccccccccccccccccccccsccccccccccccccccccccccccccccccccccccccccccccccccccccccccsccccccccccccccccccccccccccccccccccccccccccccccccccccccccccccccccccccccccccccsccccccccccccccccccccccccccccccccccccccccccccccccccccccccsccccccccccccccccccccccccccccccccccccccc" />
  <flowRoot
     xml:space="preserve"
     id="flowRoot7"
     style="font-style:normal;font-variant:normal;font-weight:normal;font-stretch:normal;font-size:40px;line-height:1.25;font-family:'Berthold Akzidenz Grotesk';-inkscape-font-specification:'Berthold Akzidenz Grotesk';letter-spacing:0px;word-spacing:0px;writing-mode:tb-rl;fill:#000000;fill-opacity:1;stroke:none"
     transform="matrix(0.7500013,0,0,0.7500013,-35.045426,534.5983)"><flowRegion
       id="flowRegion9"><rect
         id="rect11"
         width="2108.0188"
         height="755.7049"
         x="-2615.1365"
         y="1740.1099" /></flowRegion><flowPara
       id="flowPara13" /></flowRoot>  <flowRoot
     xml:space="preserve"
     id="flowRoot19"
     style="font-style:normal;font-variant:normal;font-weight:normal;font-stretch:normal;font-size:40px;line-height:1.25;font-family:'Berthold Akzidenz Grotesk';-inkscape-font-specification:'Berthold Akzidenz Grotesk';letter-spacing:0px;word-spacing:0px;writing-mode:tb-rl;fill:#000000;fill-opacity:1;stroke:none"
     transform="matrix(0.7500013,0,0,0.7500013,-35.045426,534.5983)"><flowRegion
       id="flowRegion21"><rect
         id="rect23"
         width="1026.6648"
         height="352.99371"
         x="-2364.0635"
         y="2018.5275" /></flowRegion><flowPara
       id="flowPara25" /></flowRoot>  <text
     xml:space="preserve"
     style="font-style:normal;font-variant:normal;font-weight:normal;font-stretch:normal;font-size:30.0000515px;line-height:1.25;font-family:'Berthold Akzidenz Grotesk';-inkscape-font-specification:'Berthold Akzidenz Grotesk';letter-spacing:0px;word-spacing:0px;writing-mode:tb-rl;fill:#000000;fill-opacity:1;stroke:none;stroke-width:0.75000131"
     x="-1711.1471"
     y="2110.022"
     id="text29"><tspan
       sodipodi:role="line"
       id="tspan27"
       x="1540.3798"
       y="-1160.2549"
       style="stroke-width:0.75000131" /></text>
  <flowRoot
     xml:space="preserve"
     id="flowRoot31"
     style="font-style:normal;font-variant:normal;font-weight:normal;font-stretch:normal;font-size:40px;line-height:1.25;font-family:'Berthold Akzidenz Grotesk';-inkscape-font-specification:'Berthold Akzidenz Grotesk';letter-spacing:0px;word-spacing:0px;writing-mode:tb-rl;fill:#000000;fill-opacity:1;stroke:none"
     transform="matrix(0.7500013,0,0,0.7500013,-35.045426,534.5983)"><flowRegion
       id="flowRegion33"><rect
         id="rect35"
         width="1029.1508"
         height="402.71115"
         x="-2279.5439"
         y="1956.3807" /></flowRegion><flowPara
       id="flowPara37" /></flowRoot>  <flowRoot
     xml:space="preserve"
     id="flowRoot49"
     style="font-style:normal;font-variant:normal;font-weight:normal;font-stretch:normal;font-size:40px;line-height:1;font-family:'Berthold Akzidenz Grotesk';-inkscape-font-specification:'Berthold Akzidenz Grotesk';letter-spacing:0px;word-spacing:0px;writing-mode:tb-rl;fill:#000000;fill-opacity:1;stroke:none"
     transform="matrix(0.7500013,0,0,0.7500013,-35.045426,534.5983)"><flowRegion
       id="flowRegion51"><rect
         id="rect53"
         width="616.49609"
         height="99.434853"
         x="-2525.6453"
         y="2376.4929" /></flowRegion><flowPara
       id="flowPara55" /></flowRoot>  <path
     d="m 52.035412,1742.4502 c 0,0 0,226.4757 0,226.4757 0,0 81.218888,0 81.218888,0 0,0 0,-81.2189 0,-81.2189 0,0 29.6761,0 29.6761,0 5.5447,0.016 10.4334,-0.656 14.6662,3.608 2.6553,2.6709 10.043,15.8221 12.3234,19.8206 0,0 20.5234,35.9237 20.5234,35.9237 10.8553,18.6959 9.7151,21.8354 25.8963,21.8666 0,0 74.9713,0 74.9713,0 0,0 -16.1188,-28.1142 -16.1188,-28.1142 0,0 -38.5477,-62.4761 -38.5477,-62.4761 62.2886,-5.6228 67.3804,-97.6657 18.7427,-125.4519 -20.6326,-11.7767 -54.6978,-10.4335 -78.0949,-10.4335 0,0 -145.256888,0 -145.256888,0 z m 295.199388,0 c 0,0 0,226.4757 0,226.4757 0,0 240.5328,0 240.5328,0 0,0 0,-51.5427 0,-51.5427 0,0 -160.8759,0 -160.8759,0 0,0 0,-35.9238 0,-35.9238 0,0 145.2568,0 145.2568,0 0,0 0,-49.9808 0,-49.9808 0,0 -145.2568,0 -145.2568,0 0,0 0,-39.0475 0,-39.0475 0,0 157.7522,0 157.7522,0 0,0 0,-49.9809 0,-49.9809 0,0 -237.4091,0 -237.4091,0 z m 281.1422,0 c 0,0 0,226.4757 0,226.4757 0,0 78.0951,0 78.0951,0 0,0 0,-142.133 0,-142.133 0,0 18.2587,46.857 18.2587,46.857 0,0 22.4288,60.9142 22.4288,60.9142 0,0 8.2156,21.8666 8.2156,21.8666 0,0 5.2948,10.9489 5.2948,10.9489 0,0 11.4019,1.5463 11.4019,1.5463 0,0 37.4857,0 37.4857,0 0,0 11.6987,-1.5931 11.6987,-1.5931 0,0 5.1855,-9.3402 5.1855,-9.3402 0,0 8.6373,-23.4285 8.6373,-23.4285 0,0 40.0783,-109.3331 40.0783,-109.3331 0,0 1.5619,48.4189 1.5619,48.4189 0,0 0,95.276 0,95.276 0,0 78.0952,0 78.0952,0 0,0 0,-226.4757 0,-226.4757 0,0 -93.7142,0 -93.7142,0 0,0 -11.4019,1.5463 -11.4019,1.5463 0,0 -14.2444,32.8155 -14.2444,32.8155 0,0 -43.0774,112.4569 -43.0774,112.4569 0,0 -17.8369,-43.7332 -17.8369,-43.7332 0,0 -25.9743,-67.1617 -25.9743,-67.1617 0,0 -8.9966,-23.4286 -8.9966,-23.4286 0,0 -5.9976,-10.9489 -5.9976,-10.9489 0,0 -11.48,-1.5463 -11.48,-1.5463 0,0 -93.7142,0 -93.7142,0 z m 346.7422,226.4757 c 0,0 89.0283,0 89.0283,0 0,0 10.9333,-37.4856 10.9333,-37.4856 0,0 73.4095,0 73.4095,0 0,0 13.2604,2.499 13.2604,2.499 0,0 14.3852,33.4403 14.3852,33.4403 0,0 11.4018,1.5463 11.4018,1.5463 0,0 74.9713,0 74.9713,0 0,0 -15.8376,-37.4856 -15.8376,-37.4856 0,0 -20.3047,-46.8571 -20.3047,-46.8571 0,0 -39.1882,-90.5902 -39.1882,-90.5902 0,0 -15.494,-35.9237 -15.494,-35.9237 0,0 -8.1844,-14.0259 -8.1844,-14.0259 0,0 -11.8861,-1.5932 -11.8861,-1.5932 0,0 -67.1618,0 -67.1618,0 0,0 -11.4018,1.5463 -11.4018,1.5463 0,0 -7.997,15.6347 -7.997,15.6347 0,0 -14.7443,34.3618 -14.7443,34.3618 0,0 -49.2936,114.0188 -49.2936,114.0188 0,0 -25.8963,60.9141 -25.8963,60.9141 z m 307.6945,-226.4757 c 0,0 0,226.4757 0,226.4757 0,0 79.6571,0 79.6571,0 0,0 0,-226.4757 0,-226.4757 0,0 -79.6571,0 -79.6571,0 z m 129.6379,0 c 0,0 0,226.4757 0,226.4757 0,0 79.657,0 79.657,0 0,0 0,-120.2664 0,-120.2664 0,0 26.8022,29.6761 26.8022,29.6761 0,0 52.6205,59.3523 52.6205,59.3523 5.9508,6.763 22.7567,27.6613 29.9103,30.3009 3.03,1.1245 7.669,0.9371 10.9333,0.9371 0,0 54.6665,0 54.6665,0 0,0 0,-226.4757 0,-226.4757 0,0 -79.6569,0 -79.6569,0 0,0 0,118.7045 0,118.7045 0,0 -82.7495,-90.5903 -82.7495,-90.5903 0,0 -26.7242,-27.1771 -26.7242,-27.1771 0,0 -10.7926,-0.9371 -10.7926,-0.9371 0,0 -54.6666,0 -54.6666,0 z m -1279.1973,95.276 c 0,0 0,-43.7332 0,-43.7332 0,0 70.2856,0 70.2856,0 13.7759,0.1873 25.9587,8.1531 24.1157,23.4285 -1.5463,12.9481 -11.027,17.5245 -22.5538,19.3832 0,0 -71.8475,0.9215 -71.8475,0.9215 z m 985.5598,-31.238 c 0,0 12.4952,32.7999 12.4952,32.7999 0,0 14.0571,42.1713 14.0571,42.1713 0,0 -51.5427,0 -51.5427,0 0,0 13.5416,-43.7332 13.5416,-43.7332 0,0 11.4488,-31.238 11.4488,-31.238 z"
     id="Selection-5"
     inkscape:connector-curvature="0"
     style="fill:#c8c442;fill-opacity:1;stroke:#a29f51;stroke-width:1.56190145;stroke-opacity:1" />
  <path
     d="m 350.39751,2076.3561 c -11.6085,-21.6373 -45.3743,-28.7265 -67.9915,-28.9964 -11.1786,-0.13 -24.107,1.0798 -34.9957,3.6495 -9.7088,2.2997 -20.0975,6.5992 -26.6667,14.3582 -12.4984,14.7582 -10.8986,38.8552 5.6693,49.8838 9.3689,6.2292 21.1074,7.0991 31.9961,8.259 0,0 25.9967,2.6697 25.9967,2.6697 0,0 23.9971,2.5896 23.9971,2.5896 10.5486,1.9198 23.0471,7.2991 23.897,19.5776 0.9199,13.0984 -9.7588,21.7173 -20.8974,25.9368 -18.9277,7.1591 -50.5337,4.4694 -68.9915,-3.3696 -5.1193,-2.1697 -9.6488,-4.5294 -13.9982,-8.039 -4.0995,-3.2896 -6.2792,-7.0591 -11.9985,-5.4093 -2.5197,0.7299 -10.4687,3.8195 -11.3686,6.2692 -0.8199,2.2297 0.8099,4.8594 2.0897,6.5692 2.9597,3.9695 9.9488,9.0189 14.2783,11.5885 14.8681,8.8189 32.196,11.0087 48.9939,12.6185 0,0 8.9989,0.8299 8.9989,0.8299 17.4578,0.1999 41.5148,-2.4197 55.993,-12.7884 19.0976,-13.6683 23.997,-44.0046 4.9994,-59.8726 -11.5386,-9.6288 -27.6066,-11.3686 -41.9948,-12.4184 0,0 -46.9942,-4.9994 -46.9942,-4.9994 -11.6585,-2.2097 -23.3671,-10.6187 -17.6378,-23.9071 3.7296,-8.6289 13.0184,-12.7584 21.6373,-14.8681 16.298,-3.9795 39.4251,-3.9195 54.9932,2.7397 4.4695,1.9197 8.9989,4.3994 12.9984,7.1691 2.5297,1.7497 6.0292,4.9094 8.9989,5.4293 3.5395,0.6099 13.5383,-4.2695 17.9977,-5.4693 z m 88.989,-28.3665 c 0,0 -9.9988,0.8099 -9.9988,0.8099 -19.1176,2.9896 -36.5054,10.1687 -49.9038,24.5569 -24.307,26.1068 -24.4169,76.0006 1.9498,100.8175 16.4179,15.4581 41.8348,21.9073 63.952,22.1672 19.0477,0.22 40.755,-3.6795 56.993,-14.0882 36.6354,-23.4971 41.3548,-77.3604 12.7084,-108.8565 -14.7682,-16.2479 -36.5855,-22.9471 -57.7028,-25.4068 -6.9992,-0.5399 -10.8087,-1.0799 -17.9978,0 z m 110.9862,2.3697 c 0,0 0,141.9823 0,141.9823 0,0 19.9975,0 19.9975,0 0,0 0,-62.9921 0,-62.9921 0,0 101.9874,0 101.9874,0 0,0 0,-15.998 0,-15.998 0,0 -101.9874,0 -101.9874,0 0,0 0,-45.9943 0,-45.9943 0,0 105.9869,0 105.9869,0 0,0 0,-16.9979 0,-16.9979 0,0 -125.9844,0 -125.9844,0 z m 134.9833,0 c 0,0 0,16.9979 0,16.9979 0,0 57.9928,0 57.9928,0 0,0 0,124.9844 0,124.9844 0,0 19.9975,0 19.9975,0 0,0 0,-124.9844 0,-124.9844 0,0 57.9928,0 57.9928,0 0,0 0,-16.9979 0,-16.9979 0,0 -135.9831,0 -135.9831,0 z m 142.9822,0 c 0,0 12.6684,40.9949 12.6684,40.9949 0,0 22.6572,68.9914 22.6572,68.9914 0,0 6.9991,21.9973 6.9991,21.9973 0,0 4.1795,8.9789 4.1795,8.9789 0,0 7.4891,1.0198 7.4891,1.0198 0,0 14.9981,0 14.9981,0 0,0 8.309,-23.997 8.309,-23.997 0,0 22.3772,-61.9923 22.3772,-61.9923 0,0 10.3087,-29.9962 10.3087,-29.9962 0,0 19.0477,50.9936 19.0477,50.9936 0,0 22.9471,64.9919 22.9471,64.9919 0,0 22.99719,0 22.99719,0 0,0 12.6684,-38.9951 12.6684,-38.9951 0,0 20.9974,-63.992 20.9974,-63.992 0,0 12.3285,-38.9952 12.3285,-38.9952 0,0 -20.9974,0 -20.9974,0 0,0 -19.2776,62.9922 -19.2776,62.9922 0,0 -17.71777,54.9931 -17.71777,54.9931 0,0 -26.04682,-70.9911 -26.04682,-70.9911 0,0 -16.9479,-46.9942 -16.9479,-46.9942 0,0 -9.9988,0 -9.9988,0 0,0 -7.489,1.0199 -7.489,1.0199 0,0 -4.0895,7.979 -4.0895,7.979 0,0 -6.8392,18.9976 -6.8392,18.9976 0,0 -19.8875,53.9933 -19.8875,53.9933 0,0 -13.6883,36.9954 -13.6883,36.9954 0,0 -11.7185,-36.9954 -11.7185,-36.9954 0,0 -16.698,-53.9933 -16.698,-53.9933 0,0 -5.9092,-18.9976 -5.9092,-18.9976 0,0 -3.3896,-8.009 -3.3896,-8.009 0,0 -7.2791,-0.9899 -7.2791,-0.9899 0,0 -12.9984,0 -12.9984,0 z m 196.97549,141.9823 c 0,0 14.9982,0 14.9982,0 0,0 8.039,-1.5698 8.039,-1.5698 0,0 11.5386,-22.4272 11.5386,-22.4272 0,0 5.8092,-9.9787 5.8092,-9.9787 0,0 7.6091,-1.0199 7.6091,-1.0199 0,0 79.9901,0 79.9901,0 0,0 10.2487,22.9971 10.2487,22.9971 0,0 5.7093,10.4287 5.7093,10.4287 0,0 6.0392,1.5698 6.0392,1.5698 0,0 16.9979,0 16.9979,0 -2.4197,-8.4789 -13.3183,-27.1866 -17.7478,-35.9955 0,0 -37.9353,-73.9908 -37.9353,-73.9908 0,0 -11.0586,-21.9972 -11.0586,-21.9972 -3.2996,-6.5892 -3.3896,-9.8488 -11.2486,-9.9988 -3.0896,-0.05 -13.1684,-0.5399 -15.3681,0.9899 -1.9797,1.3898 -4.6594,7.629 -5.8893,10.0087 0,0 -11.9885,22.9972 -11.9885,22.9972 0,0 -42.9946,82.9896 -42.9946,82.9896 0,0 -12.7485,24.9969 -12.7485,24.9969 z m 178.9778,-141.9823 c 0,0 0,141.9823 0,141.9823 0,0 19.9975,0 19.9975,0 0,0 0,-56.9929 0,-56.9929 0,0 59.9926,0 59.9926,0 11.6285,0.02 13.1084,5.4393 20.2475,13.9983 0,0 24.4769,28.9964 24.4769,28.9964 2.5997,3.0496 9.3589,12.0985 12.5585,13.4283 1.6998,0.7099 4.8194,0.5699 6.7091,0.5699 0,0 17.9978,0 17.9978,0 0,0 -13.5783,-16.9978 -13.5783,-16.9978 0,0 -37.4154,-43.9946 -37.4154,-43.9946 12.5885,-0.28 25.0769,-6.1992 32.0261,-16.9978 3.6995,-5.7393 5.4893,-14.2283 5.8792,-20.9974 0.8199,-14.4382 -6.3092,-29.0264 -18.9076,-36.3155 -13.4084,-7.7491 -31.976,-6.6792 -46.9942,-6.6792 0,0 -82.9897,0 -82.9897,0 z m 173.9784,0 c 0,0 0,141.9823 0,141.9823 0,0 135.9831,0 135.9831,0 0,0 0,-16.9978 0,-16.9978 0,0 -115.9856,0 -115.9856,0 0,0 0,-47.9941 0,-47.9941 0,0 107.9866,0 107.9866,0 0,0 0,-16.9978 0,-16.9978 0,0 -107.9866,0 -107.9866,0 0,0 0,-42.9947 0,-42.9947 0,0 110.9863,0 110.9863,0 0,0 0,-16.9979 0,-16.9979 0,0 -130.9838,0 -130.9838,0 z m -939.88329,14.2782 c 18.9077,-1.7498 40.9649,1.9498 55.9931,14.1883 23.797,19.3576 25.9467,62.0122 3.9595,83.4296 -13.4184,13.0684 -33.7558,17.2978 -51.9536,17.0879 -16.8979,-0.2 -37.3353,-5.4194 -49.8238,-17.2979 -22.5372,-21.4273 -19.8475,-63.802 3.8295,-83.3596 10.9987,-9.0889 24.317,-12.0385 37.9953,-14.0483 z m 785.90239,54.7132 c 0,0 0,-51.9935 0,-51.9935 0,0 80.99,0 80.99,0 7.3391,0.01 14.2382,0.8099 19.8175,6.2092 11.4586,11.1086 9.6488,33.2859 -5.8193,41.3849 -6.1792,3.2296 -19.8575,4.3094 -26.9966,4.3994 0,0 -67.9916,0 -67.9916,0 z m -114.9857,-47.994 c 0,0 20.2475,39.995 20.2475,39.995 0,0 13.7483,29.9963 13.7483,29.9963 0,0 -69.9913,0 -69.9913,0 0,0 22.7472,-45.9943 22.7472,-45.9943 3.1096,-6.2192 8.8089,-19.5576 13.2483,-23.997 z"
     id="Selection-55"
     inkscape:connector-curvature="0"
     style="fill:#c8c442;stroke:#a29f51;stroke-width:0.99987584;fill-opacity:1;stroke-opacity:1" />
</svg>
