<?xml version="1.0" encoding="UTF-8" standalone="no"?>
<svg
   id="Layer_1"
   version="1.1"
   viewBox="0 0 13173.43 2222.68"
   sodipodi:docname="Remain Logo Horizontal.svg"
   inkscape:version="1.3.2 (091e20e, 2023-11-25, custom)"
   xmlns:inkscape="http://www.inkscape.org/namespaces/inkscape"
   xmlns:sodipodi="http://sodipodi.sourceforge.net/DTD/sodipodi-0.dtd"
   xmlns="http://www.w3.org/2000/svg"
   xmlns:svg="http://www.w3.org/2000/svg">
  <!-- Generator: Adobe Illustrator 29.2.1, SVG Export Plug-In . SVG Version: 2.1.0 Build 116)  -->
  <defs
     id="defs1">
    <style
       id="style1">
      .st0 {
        fill: #c9c441;
        stroke: #a29f50;
      }

      .st1 {
        fill: #fff;
      }

      .st2 {
        stroke-miterlimit: 4;
        stroke-width: 1px;
      }

      .st2, .st3 {
        fill: #c8c440;
        stroke: #010101;
      }

      .st3 {
        stroke-miterlimit: 4;
        stroke-width: 1px;
      }
    </style>
  </defs>
  <g
     id="g1">
    <sodipodi:namedview
       id="namedview5"
       bordercolor="#666666"
       borderopacity="1"
       gridtolerance="10"
       guidetolerance="10"
       objecttolerance="10"
       pagecolor="#ffffff"
       showgrid="false"
       showguides="false"
       inkscape:showpageshadow="2"
       inkscape:pageopacity="0.0"
       inkscape:pagecheckerboard="0"
       inkscape:deskcolor="#d1d1d1"
       inkscape:zoom="0.10896379"
       inkscape:cx="4868.59"
       inkscape:cy="1197.6456"
       inkscape:window-width="1920"
       inkscape:window-height="1009"
       inkscape:window-x="-8"
       inkscape:window-y="-8"
       inkscape:window-maximized="1"
       inkscape:current-layer="Layer_1">
      <inkscape:grid
         id="grid812"
         type="xygrid"
         originx="0"
         originy="0"
         spacingy="1"
         spacingx="1"
         units="px"
         visible="false" />
    </sodipodi:namedview>
    <ellipse
       id="path852"
       class="st1"
       cx="1010.25"
       cy="1070.82"
       rx="726"
       ry="753" />
    <path
       id="Selection"
       class="st0"
       d="M160.39,1123.82v-123c-.11-18.47,8.72-66.28,12.66-86,16.62-83.13,48.65-166.52,90.78-240,105.65-184.27,280.55-324.98,483.42-388.02,51.71-16.07,102.17-25.94,156-31.15l26-1.83,16-1h42l22,1,10,.91,26,1.92c37.71,3.65,74.79,8.53,112,15.97,130.82,26.16,258.63,79.97,365,161.08,23.44,17.88,45.45,36.95,67,57.03l24.96,24.09c57.35,59.96,100.12,121.56,138.26,195l16.64,36c30.99,70.1,50.49,142.24,61.41,218l6.82,68,.91,11,1,23v48l-1,21-.91,10-4.81,49c-7.44,57.02-21.26,112.87-40.59,167-73.23,205.1-225.22,378.68-417.69,480.22-35.69,18.83-73.01,34.57-111,48.09-48.55,17.28-109.74,31.37-161,36.85l-32,2.93-11,.91-19,1h-47l-16-1-15-.91-46-3.93c-40.8-4.36-81.2-11.84-121-21.79-227.86-56.96-422.5-198.85-537.14-405.37-36.96-66.59-64.18-138.79-81.21-213l-11.38-60-5.13-37v-64ZM1196.25,443.24l-33-11.4c-41.33-12.84-87.76-22.17-131-24.06l-11-.96h-47l-12,.91-40,3.81c-58.48,7.63-115.46,25-169,49.59-89.14,40.93-167.74,108.36-227.35,185.69-29.27,37.98-52.22,75.96-74.96,118-30.11,55.68-54.59,115.08-68.27,177-5.73,25.98-9.65,52.49-11.51,79l-.91,10-1,20v30l1,20,.91,10c2.39,34.79,8.26,69.16,16.72,103,30.47,121.89,101.88,242.2,200.37,321,58.76,47.01,130.72,82.71,207,86.04l13,.96h4l10-1.04h8c47.54-4.66,89.54-23.09,121.83-58.96,26.66-29.62,42.55-71.52,45.26-111l.89-11-.89-9c-1.68-24.41-7.88-46.07-18.84-68-9.09-18.18-19.97-35.51-36.25-48.11-16.04-12.42-38.4-22.65-59-22.89-35.5-.41-54.47,12.43-79,37-17.73,17.76-32.29,42.19-32,68,.1,8.7,2.87,17.55,7.35,25,1.82,3.02,4.63,6.85,8.65,6.21,5.6-.9,11.36-10.65,14.19-15.21,8.97-14.44,17.9-29.78,29.82-42,18.88-19.35,33.8-27.31,60.99-27,9.77.12,22.99,3.06,31,8.79,20.26,14.5,29.71,44.12,30,68.21.17,14.88-1.61,28.75-6.02,43-17.75,57.3-67.26,90.25-123.98,101.6-10.77,2.16-25.09,4.27-36,4.4-26.67.31-52.73-6.03-77-16.86-13.87-6.19-30.28-17.71-42-27.39-48.46-40.05-77.39-98.96-85.72-160.75-2.39-17.74-2.49-35.13-2.28-53,.16-13.73,3.76-35.55,7.13-49,11.66-46.65,28.44-74.66,59.6-111,43.62-50.87,92.62-82.9,151.27-113.68l26-11.18,49-24.57c55.26-31.68,108.91-78.1,126.58-141.57,5.94-21.36,5.52-30.49,5.42-52-.05-9.87-3.19-25.27-5.63-35-8.38-33.51-27.55-70.59-53.37-93.83-11.99-10.79-27.86-19.71-42-27.47-23.82-13.08-47.31-23.02-75-22.7-18.19.22-38.83,6.69-55,14.75-13.42,6.7-27.81,14.35-39,24.42-26.33,23.69-39.66,58.04-42.09,92.83l-.91,13,.91,10c2.23,31.85,14.11,65.98,42.09,84.07,14.35,9.38,43.92,19.94,54.17,0,5.12-10.08,3.34-26.25-3.56-35.07l-18.44-19c-7.75-8.61-14.89-20.13-18.94-31-6.93-18.61-5.26-40.74,1.97-59,2.83-7.14,6.28-14.43,11.89-19.83,10.53-10.13,28.6-14.48,42.91-14.16,58.88,1.34,123.9,47.36,143.31,102.99,5.83,16.74,5.89,27.73,5.69,45-.25,20.82-10.72,49.84-20.7,68-8.62,15.72-17.63,27.33-30.3,40-34.06,34.06-75.22,52.28-123,56.96h-10l-11,1.04-12-.96c-20.69-.9-41.34-3.88-61-10.73-28.6-9.97-53.9-25.71-76-46.4l-10.05-10.91c-28.26-31.82-40.23-62.62-47.03-104-9.24-56.19-2.43-110.13,21.39-162,12.96-28.23,33.08-56.03,53.86-79,34.8-38.47,82.54-71.1,128.83-94.25,66.08-33.04,140.47-55.05,214-62.91l51-3.84,15-1h23l17,1c28.28.04,69.06,6.26,97,12.21l29,7.22c4.44,1.26,9.38,3.86,14,2.57l-22-8.58ZM1300.25,1716.07l35-18.83c42.62-24.44,82.49-53.39,119-86.25,62.94-56.65,116.25-125.98,151.69-203.17,24.54-53.43,40.71-105.89,49.73-164l5.67-52,.95-10v-13l.96-12-1-41-.91-10-6.67-60c-8.19-52.8-22.41-101.39-44.73-150-67.14-146.23-192.35-258.88-335.69-328.26-55.82-27.02-118.91-48.3-180-59.32-21.89-3.94-43.83-6.96-66-8.51l-10-.91-20-1h-30l-19,1-10,.91-51,6.67c-68.18,12.29-135.59,41.58-189,86.01-24.2,20.12-49.57,44.5-64.69,72.41-13.52,24.94-24.27,62.56-24.31,91v26c.05,29.32,10.31,68.24,22.14,95,6.67,15.08,18.11,34.45,29.9,45.91,12.03,11.7,30.35,20.62,45.96,26.51,38.79,14.65,81.63,13.53,120-1.82,8-3.2,19.09-8.38,26-13.38,8.44-6.12,19.43-17.98,26-26.22,13.76-17.26,24.74-39.5,25-62,.44-39.45-28.43-76.69-61-96.2-11.56-6.92-26.26-14.12-40-13.79-9.71.24-14.71,5.24-14.98,14.99-.43,15.27,9.82,25.84,19.98,36,20.96,20.96,59.19,52.18,45.55,86-2.63,6.51-6.29,12.67-10.85,18-26.04,30.42-62.33,32.47-98.7,23.37-15.84-3.96-31.44-9.92-44-20.67-28.97-24.79-42.12-62.63-45.08-99.7l-.92-12v-21c.26-22.14,6.94-48.53,15.2-69,9.13-22.63,23.59-43.78,40.8-61,12.59-12.6,23.83-22.13,39-31.58,92.09-57.32,211.82-43.43,298,18.16,13.92,9.94,31.42,24.81,42.83,37.42,17.55,19.4,33.53,40.62,45.41,64,13.47,26.49,26.41,62,26.76,92,.93,80.24-43.45,141-54.57,216l-1.52,20-.91,10,1,22,3.92,33c6.57,39.41,23.51,81.4,52.09,109.99,17.69,17.68,49.9,35.51,73.99,42.59,21.68,6.36,35.6,7.68,58,7.42,16.72-.2,38.93-5.46,55-10.28,43.67-13.1,82.53-31.45,106.13-72.72,10.37-18.15,18.84-45.01,18.87-66v-22c-.13-11.09-4.47-30.32-8-41-14.39-43.58-45.03-81.59-91-93.37-6.7-1.72-16.14-3.55-23-3.63-14.2-.16-33.76.23-47,5.61-9.7,3.94-27.7,19.52-33.29,28.39-5.63,8.93-5.84,19.8-6.78,30-.32,3.41-1.89,8.64,1.5,10.98,4.93,3.39,20.1-2.05,25.57-3.7,20.5-6.17,41.26-14.18,63-14.28,12.4-.06,25.19,2.04,36,8.45,19.77,11.73,31.64,35.84,36.87,57.55,1.13,4.69,3.26,19.58,2.95,24-1.18,16.55-4.92,30.53-13.25,45-22.86,39.72-79.1,68.46-124.57,69-21.15.24-38.81-.71-59-8.05-8.72-3.17-19.31-8.46-27-13.62-42.4-28.43-61.15-77.25-65.96-126.33v-9l-1.04-10v-6l.96-13c4.02-92.28,56.11-192.95,147.04-225.31,23.15-8.24,44.71-9.97,69-9.69,22.63.27,49.57,7.52,71,14.67,49.81,16.6,101.58,51.23,133.11,93.33,13.44,17.95,27.46,47.92,35.89,69,18.6,46.51,29.86,95.95,32.04,146l.96,13v30l-.96,11c-2.03,46.49-11.21,92.58-25.02,137-33.9,109.12-96.38,209.4-176.01,291l-8.1,8.83c-28.18,27.37-57.8,53.03-89.91,75.75l-32,21c-5.37,3.32-13.8,7.21-18,11.42,5.83-1.66,13.37-5.94,19-8.75ZM628.25,1642.82l1-1h-1v1ZM671.25,1664.08c38.21,18.49,77.36,33.27,118,45.46,37.8,11.34,72.73,18.52,112,22.45l21,1.83,19,1h34l19-1,10-.91,30-2.94c38.73-4.62,80.01-14.49,117-26.82,133.92-44.64,254.22-133.74,331.66-252.33,12.83-19.66,24.1-40.02,34.59-61,23.81-47.63,40.24-98.48,49-151l5.84-51,.91-10c.4-34.37.73-63.9-5.42-98-13.29-73.67-53.72-145.38-118.58-185.19-28.72-17.63-57.37-27.59-91-29.9-5.71-.39-7.5-1.15-14-.87-53.41,2.32-97.62,26.29-129.87,68.96-8.31,11-16.27,23.3-21.7,36-9.21,21.53-12.7,43.72-12.43,67l.91,10c2.57,35.21,16.25,82.15,48.09,101.54,19.81,12.06,36.72,12.72,59,12.46,7.9-.1,20.08-2.42,28-4,13.3-2.66,27.02-5.39,37.99-13.9,10.67-8.29,13.81-19.32,15.38-32.1.43-5.92,1.04-6.67,0-13-.21-3.18-.07-9.32-1.97-11.58-3.81-4.54-14.91-4.48-20.4-4.42-20.1.24-54.62,14.76-75,15h-7c-18.92-.23-32.18-13.6-37.56-31-6.73-21.72-3.43-45.86,3.9-67,13.97-40.23,51.01-66.11,90.66-77.42,9.48-2.7,23.29-6.46,33-6.58h8c29.15.05,60.65,14.84,83,32.8,40.21,32.33,68.9,80.3,81.37,130.2,3.45,13.79,7.46,34.95,7.63,49,.32,27.25-.86,45.48-8.43,72-5.53,19.38-17,42.69-27.37,60-30.5,50.92-76.12,94.42-132.2,115.58-33.83,12.76-55.6,13.83-91,13.42-10.37-.13-28.44-2.81-39-4.59-85.56-14.36-146.88-59.09-214-110.29-32.44-24.76-68.39-54.45-106-70.54-16.13-6.9-36.32-13.37-54-13.58-23.51-.27-40.49,2.53-63,9.28-59.77,17.93-105.38,57.89-127.58,116.72-23.98,63.6-13.9,137.51,43.58,179.84,9.56,7.04,19.84,13.01,31,17.11,21.2,7.77,33.65,9.31,56,9.05,43.36-.51,79.88-35.27,98.25-72,7.08-14.17,11.93-30.04,11.75-46-.1-8.14-3.47-29.15-16-23.91-7.61,3.18-15.45,16.01-20,22.91-10.23,15.52-23.36,37.4-37.01,49.72-12.02,10.83-26.25,20.08-42.99,20.28-24.92.29-50.98-11.34-65.56-32-11.8-16.71-14.47-33.07-14.44-53,.08-48.63,35.26-105.82,77-129.57,17.22-9.8,44.27-17.78,64-20.15l13-.54h8c46.4,2.17,83.18,28.44,115,60.26,29.48,29.48,51.5,60.87,63.98,101,4.45,14.32,7.43,29.07,8.98,44v9l1.01,9-.93,10c-3.21,73.62-45.73,142.56-108.04,181.42-31.79,19.83-71.24,34.14-109,34.58l-11,.92-15-.92-32-3.72c-38.81-5.11-74.37-15.25-112-25.43l-50-12.85c8.44,6.79,30.41,16.13,41,21.26ZM926,1114.82c5.68,17.8,20.3,34.75,37.25,42.68,33.52,15.68,72.26,4.49,92.3-26.68,6.02-9.37,10.57-21.79,10.7-33v-10c-.07-15.7-7.8-32.43-18.17-44-23.47-26.17-64.83-30.75-93.83-11.25-14.28,9.6-23.56,22.99-28.65,39.25-2.26,7.2-3.76,17.49-3.07,25,.89,6.05,1.6,12.15,3.47,18ZM1224.25,455.82l1-1h-1v1ZM1269.25,1730.82l1-1h-1v1ZM1271.25,1729.82l1-1h-1v1ZM1273.25,1728.82l1-1h-1v1Z" />
  </g>
  <g
     id="g2">
    <sodipodi:namedview
       id="namedview1"
       bordercolor="#666666"
       borderopacity="1"
       gridtolerance="10"
       guidetolerance="10"
       objecttolerance="10"
       pagecolor="#ffffff"
       showgrid="false" />
    <path
       id="Selection1"
       data-name="Selection"
       class="st3"
       d="M2294.61,795.66l-1.85,656.03,235.26.66.66-235.26,85.96.24c16.06.09,30.23-1.82,42.45,10.57,7.67,7.76,28.96,45.91,35.54,57.51l59.16,104.23c31.29,54.24,27.96,63.33,74.83,63.55l217.17.61-46.46-81.57-111.15-181.29c180.48-15.78,195.98-282.36,55.32-363.24-59.67-34.28-158.36-30.67-226.13-30.86l-420.76-1.19ZM3149.71,798.07l-1.85,656.03,696.75,1.96.42-149.3-466.01-1.31.29-104.06,420.76,1.19.41-144.78-420.76-1.19.32-113.11,456.96,1.29.41-144.78-687.7-1.94ZM3964.08,800.37l-1.85,656.03,226.22.64,1.16-411.71,52.51,135.88,64.47,176.63,23.62,63.41,15.25,31.76,33.01,4.57,108.58.31,33.9-4.52,15.1-27.01,25.21-67.79,116.99-316.38,4.13,140.27-.78,275.98,226.22.64,1.85-656.03-271.46-.77-33.04,4.39-41.53,94.94-125.7,325.4-51.31-126.83-74.69-194.76-25.87-67.94-17.28-31.76-33.24-4.57-271.46-.77ZM4966.63,1459.23l257.89.73,31.98-108.49,212.64.6,38.39,7.35,41.4,96.98,33.01,4.57,217.17.61-45.57-108.71-58.43-135.9-112.78-262.73-44.59-104.19-23.59-40.7-34.42-4.71-194.55-.55-33.04,4.39-23.29,45.22-42.99,99.41-143.72,329.87-75.51,176.24ZM5859.78,805.71l-1.85,656.03,230.74.65,1.85-656.03-230.74-.65ZM6235.29,806.77l-1.85,656.03,230.74.65.98-348.37,77.39,86.18,151.94,172.35c17.18,19.64,65.69,80.31,86.39,88.02,8.77,3.28,22.21,2.78,31.66,2.8l158.35.45,1.85-656.03-230.74-.65-.97,343.85-238.96-263.09-77.19-78.94-31.26-2.8-158.35-.45ZM2529.09,1072.31l.36-126.68,203.59.57c39.9.66,75.13,23.83,69.66,68.06-4.58,37.49-32.08,50.67-65.49,55.96l-208.13,2.08ZM5384.2,989.87l35.93,95.11,40.37,122.27-149.3-.42,39.58-126.57,33.42-90.39Z" />
  </g>
  <path
     id="Selection2"
     data-name="Selection"
     class="st2"
     d="M7697.68,925.13c-52.32-97.57-204.55-129.58-306.53-130.82-50.4-.6-108.7,4.84-157.79,16.41-43.78,10.36-90.62,29.73-120.25,64.71-56.37,66.53-49.19,175.18,25.5,224.93,42.24,28.1,95.16,32.03,144.26,37.28l117.21,12.07,108.2,11.7c47.56,8.67,103.91,32.94,107.72,88.3,4.13,59.06-44.03,97.91-94.25,116.92-85.35,32.26-227.85,20.09-311.07-15.27-23.08-9.79-43.5-20.43-63.11-36.26-18.48-14.84-28.3-31.84-54.09-24.4-11.36,3.29-47.21,17.21-51.27,28.25-3.7,10.05,3.65,21.91,9.41,29.62,13.34,17.9,44.85,40.68,64.36,52.27,67.03,39.78,145.15,49.67,220.89,56.95l40.57,3.75c78.71.92,187.19-10.86,252.48-57.59,86.12-61.61,108.25-198.38,22.61-269.95-52.01-43.43-124.46-51.29-189.33-56.04l-211.88-22.6c-52.56-9.98-105.35-47.91-79.5-107.81,16.83-38.9,58.71-57.51,97.58-67.01,73.49-17.92,177.77-17.63,247.95,12.42,20.15,8.66,40.57,19.85,58.6,32.34,11.4,7.89,27.18,22.14,40.57,24.49,15.96,2.75,61.05-19.23,81.16-24.64ZM8098.95,797.33l-45.08,3.64c-86.2,13.46-164.61,45.81-225.04,110.66-109.63,117.68-110.18,342.65,8.67,454.57,74.01,69.72,188.6,98.83,288.32,100.02,85.88,1.01,183.76-16.54,256.99-63.45,165.21-105.9,186.55-348.76,57.43-490.8-66.57-73.28-164.93-103.51-260.14-114.62-31.56-2.44-48.73-4.88-81.15-.02ZM8599.37,808.15l-.17,640.18,90.17.02.07-284.02,459.85.12.02-72.13-459.85-.12.05-207.38,477.88.13.02-76.64-568.04-.15ZM9207.99,808.31l-.02,76.64,261.48.07-.15,563.54,90.17.02.15-563.54,261.48.07.02-76.64-613.13-.16ZM9852.67,808.48l57.07,184.85,102.08,311.1,31.53,99.19,18.83,40.49,33.77,4.61,67.62.02,37.49-108.19,100.97-279.49,46.52-135.24,85.82,229.95,103.39,293.07,103.69.03,57.17-175.81,94.75-288.51,55.63-175.81-94.67-.02-86.99,284-79.95,247.93-117.36-320.12-76.36-211.91h-45.08s-33.77,4.58-33.77,4.58l-18.45,35.97-30.86,85.65-89.73,243.42-61.76,166.79-52.79-166.82-75.22-243.47-26.62-85.66-15.27-36.12-32.82-4.47-58.61-.02ZM10740.64,1448.89l67.62.02,36.25-7.07,52.05-101.11,26.2-44.99,34.31-4.59,360.66.1,46.18,103.7,25.73,47.03,27.23,7.09,76.64.02c-10.9-38.23-60.02-122.6-79.98-162.32l-170.96-333.66-49.84-99.2c-14.87-29.71-15.27-44.41-50.71-45.1-13.93-.23-59.37-2.45-69.29,4.44-8.93,6.26-21.02,34.39-26.57,45.12l-54.08,103.68-193.95,374.14-57.51,112.69ZM11547.79,808.93l-.17,640.18,90.17.02.07-256.97,270.5.07c52.43.1,59.1,24.54,91.28,63.14l110.33,130.77c11.72,13.75,42.18,54.56,56.61,60.56,7.66,3.2,21.73,2.58,30.25,2.58l81.15.02-61.2-76.66-168.65-198.41c56.76-1.25,113.07-27.92,144.42-76.6,16.69-25.87,24.77-64.15,26.53-94.67,3.71-65.1-28.41-130.88-85.21-163.76-60.45-34.96-144.17-30.15-211.88-30.17l-374.19-.1ZM12332.23,809.13l-.17,640.18,613.13.16.02-76.64-522.96-.14.06-216.4,486.89.13.02-76.64-486.89-.13.05-193.86,500.42.13.02-76.64-590.59-.16ZM8094.42,872.4c85.25-7.87,184.7,8.84,252.45,64.04,107.27,87.31,116.92,279.63,17.75,376.18-60.52,58.91-152.22,77.95-234.27,76.98-76.19-.92-168.33-24.48-224.63-78.05-101.59-96.64-89.41-287.7,17.37-375.85,49.6-40.97,109.66-54.25,171.33-63.3ZM11637.87,1120.02l.06-234.43,365.17.1c33.09.05,64.2,3.67,89.35,28.02,51.65,50.1,43.47,150.09-26.29,186.59-27.87,14.55-89.54,19.41-121.73,19.8l-306.56-.08ZM11119.47,903.49l91.25,180.36,61.95,135.26-315.58-.08,102.62-207.35c14.03-28.04,39.74-88.17,59.76-108.18Z" />
</svg>
