<?xml version="1.0" encoding="UTF-8" standalone="no"?>
<!DOCTYPE svg PUBLIC "-//W3C//DTD SVG 20010904//EN"
              "http://www.w3.org/TR/2001/REC-SVG-20010904/DTD/svg10.dtd">

<svg xmlns="http://www.w3.org/2000/svg"
     width="465.608mm" height="82.5397mm"
     viewBox="0 0 1320 234">
  <path id="Selection"
        fill="none" stroke="black" stroke-width="1"
        d="M 146.00,73.00
           C 134.39,51.36 100.62,44.27 78.00,44.00
             66.82,43.87 53.89,45.08 43.00,47.65
             33.29,49.95 22.90,54.25 16.33,62.01
             3.83,76.77 5.43,100.87 22.00,111.90
             31.37,118.13 43.11,119.00 54.00,120.16
             54.00,120.16 80.00,122.83 80.00,122.83
             80.00,122.83 104.00,125.42 104.00,125.42
             114.55,127.34 127.05,132.72 127.90,145.00
             128.82,158.10 118.14,166.72 107.00,170.94
             88.07,178.10 56.46,175.41 38.00,167.57
             32.88,165.40 28.35,163.04 24.00,159.53
             19.90,156.24 17.72,152.47 12.00,154.12
             9.48,154.85 1.53,157.94 0.63,160.39
             -0.19,162.62 1.44,165.25 2.72,166.96
             5.68,170.93 12.67,175.98 17.00,178.55
             31.87,187.37 49.20,189.56 66.00,191.17
             66.00,191.17 75.00,192.00 75.00,192.00
             92.46,192.20 116.52,189.58 131.00,179.21
             150.10,165.54 155.00,135.20 136.00,119.33
             124.46,109.70 108.39,107.96 94.00,106.91
             94.00,106.91 47.00,101.91 47.00,101.91
             35.34,99.70 23.63,91.29 29.36,78.00
             33.09,69.37 42.38,65.24 51.00,63.13
             67.30,59.15 90.43,59.21 106.00,65.87
             110.47,67.79 115.00,70.27 119.00,73.04
             121.53,74.79 125.03,77.95 128.00,78.47
             131.54,79.08 141.54,74.20 146.00,73.00 Z
           M 235.00,44.63
           C 235.00,44.63 225.00,45.44 225.00,45.44
             205.88,48.43 188.49,55.61 175.09,70.00
             150.78,96.11 150.67,146.01 177.04,170.83
             193.46,186.29 218.88,192.74 241.00,193.00
             260.05,193.22 281.76,189.32 298.00,178.91
             334.64,155.41 339.36,101.54 310.71,70.04
             295.94,53.79 274.12,47.09 253.00,44.63
             246.00,44.09 242.19,43.55 235.00,44.63 Z
           M 346.00,47.00
           C 346.00,47.00 346.00,189.00 346.00,189.00
             346.00,189.00 366.00,189.00 366.00,189.00
             366.00,189.00 366.00,126.00 366.00,126.00
             366.00,126.00 468.00,126.00 468.00,126.00
             468.00,126.00 468.00,110.00 468.00,110.00
             468.00,110.00 366.00,110.00 366.00,110.00
             366.00,110.00 366.00,64.00 366.00,64.00
             366.00,64.00 472.00,64.00 472.00,64.00
             472.00,64.00 472.00,47.00 472.00,47.00
             472.00,47.00 346.00,47.00 346.00,47.00 Z
           M 481.00,47.00
           C 481.00,47.00 481.00,64.00 481.00,64.00
             481.00,64.00 539.00,64.00 539.00,64.00
             539.00,64.00 539.00,189.00 539.00,189.00
             539.00,189.00 559.00,189.00 559.00,189.00
             559.00,189.00 559.00,64.00 559.00,64.00
             559.00,64.00 617.00,64.00 617.00,64.00
             617.00,64.00 617.00,47.00 617.00,47.00
             617.00,47.00 481.00,47.00 481.00,47.00 Z
           M 624.00,47.00
           C 624.00,47.00 636.67,88.00 636.67,88.00
             636.67,88.00 659.33,157.00 659.33,157.00
             659.33,157.00 666.33,179.00 666.33,179.00
             666.33,179.00 670.51,187.98 670.51,187.98
             670.51,187.98 678.00,189.00 678.00,189.00
             678.00,189.00 693.00,189.00 693.00,189.00
             693.00,189.00 701.31,165.00 701.31,165.00
             701.31,165.00 723.69,103.00 723.69,103.00
             723.69,103.00 734.00,73.00 734.00,73.00
             734.00,73.00 753.05,124.00 753.05,124.00
             753.05,124.00 776.00,189.00 776.00,189.00
             776.00,189.00 799.00,189.00 799.00,189.00
             799.00,189.00 811.67,150.00 811.67,150.00
             811.67,150.00 832.67,86.00 832.67,86.00
             832.67,86.00 845.00,47.00 845.00,47.00
             845.00,47.00 824.00,47.00 824.00,47.00
             824.00,47.00 804.72,110.00 804.72,110.00
             804.72,110.00 787.00,165.00 787.00,165.00
             787.00,165.00 760.95,94.00 760.95,94.00
             760.95,94.00 744.00,47.00 744.00,47.00
             744.00,47.00 734.00,47.00 734.00,47.00
             734.00,47.00 726.51,48.02 726.51,48.02
             726.51,48.02 722.42,56.00 722.42,56.00
             722.42,56.00 715.58,75.00 715.58,75.00
             715.58,75.00 695.69,129.00 695.69,129.00
             695.69,129.00 682.00,166.00 682.00,166.00
             682.00,166.00 670.28,129.00 670.28,129.00
             670.28,129.00 653.58,75.00 653.58,75.00
             653.58,75.00 647.67,56.00 647.67,56.00
             647.67,56.00 644.28,47.99 644.28,47.99
             644.28,47.99 637.00,47.00 637.00,47.00
             637.00,47.00 624.00,47.00 624.00,47.00 Z
           M 821.00,189.00
           C 821.00,189.00 836.00,189.00 836.00,189.00
             836.00,189.00 844.04,187.43 844.04,187.43
             844.04,187.43 855.58,165.00 855.58,165.00
             855.58,165.00 861.39,155.02 861.39,155.02
             861.39,155.02 869.00,154.00 869.00,154.00
             869.00,154.00 949.00,154.00 949.00,154.00
             949.00,154.00 959.25,177.00 959.25,177.00
             959.25,177.00 964.96,187.43 964.96,187.43
             964.96,187.43 971.00,189.00 971.00,189.00
             971.00,189.00 988.00,189.00 988.00,189.00
             985.58,180.52 974.68,161.81 970.25,153.00
             970.25,153.00 932.31,79.00 932.31,79.00
             932.31,79.00 921.25,57.00 921.25,57.00
             917.95,50.41 917.86,47.15 910.00,47.00
             906.91,46.95 896.83,46.46 894.63,47.99
             892.65,49.38 889.97,55.62 888.74,58.00
             888.74,58.00 876.75,81.00 876.75,81.00
             876.75,81.00 833.75,164.00 833.75,164.00
             833.75,164.00 821.00,189.00 821.00,189.00 Z
           M 1000.00,47.00
           C 1000.00,47.00 1000.00,189.00 1000.00,189.00
             1000.00,189.00 1020.00,189.00 1020.00,189.00
             1020.00,189.00 1020.00,132.00 1020.00,132.00
             1020.00,132.00 1080.00,132.00 1080.00,132.00
             1091.63,132.02 1093.11,137.44 1100.25,146.00
             1100.25,146.00 1124.73,175.00 1124.73,175.00
             1127.33,178.05 1134.09,187.10 1137.29,188.43
             1138.99,189.14 1142.11,189.00 1144.00,189.00
             1144.00,189.00 1162.00,189.00 1162.00,189.00
             1162.00,189.00 1148.42,172.00 1148.42,172.00
             1148.42,172.00 1111.00,128.00 1111.00,128.00
             1123.59,127.72 1136.08,121.80 1143.03,111.00
             1146.73,105.26 1148.52,96.77 1148.91,90.00
             1149.73,75.56 1142.60,60.97 1130.00,53.68
             1116.59,45.93 1098.02,47.00 1083.00,47.00
             1083.00,47.00 1000.00,47.00 1000.00,47.00 Z
           M 1174.00,47.00
           C 1174.00,47.00 1174.00,189.00 1174.00,189.00
             1174.00,189.00 1310.00,189.00 1310.00,189.00
             1310.00,189.00 1310.00,172.00 1310.00,172.00
             1310.00,172.00 1194.00,172.00 1194.00,172.00
             1194.00,172.00 1194.00,124.00 1194.00,124.00
             1194.00,124.00 1302.00,124.00 1302.00,124.00
             1302.00,124.00 1302.00,107.00 1302.00,107.00
             1302.00,107.00 1194.00,107.00 1194.00,107.00
             1194.00,107.00 1194.00,64.00 1194.00,64.00
             1194.00,64.00 1305.00,64.00 1305.00,64.00
             1305.00,64.00 1305.00,47.00 1305.00,47.00
             1305.00,47.00 1174.00,47.00 1174.00,47.00 Z
           M 234.00,61.28
           C 252.91,59.53 274.97,63.23 290.00,75.47
             313.80,94.83 315.95,137.49 293.96,158.91
             280.54,171.98 260.20,176.21 242.00,176.00
             225.10,175.80 204.66,170.58 192.17,158.70
             169.63,137.27 172.32,94.89 196.00,75.33
             207.00,66.24 220.32,63.29 234.00,61.28 Z
           M 1020.00,116.00
           C 1020.00,116.00 1020.00,64.00 1020.00,64.00
             1020.00,64.00 1101.00,64.00 1101.00,64.00
             1108.34,64.01 1115.24,64.81 1120.82,70.21
             1132.28,81.32 1130.47,103.50 1115.00,111.60
             1108.82,114.83 1095.14,115.91 1088.00,116.00
             1088.00,116.00 1020.00,116.00 1020.00,116.00 Z
           M 905.00,68.00
           C 905.00,68.00 925.25,108.00 925.25,108.00
             925.25,108.00 939.00,138.00 939.00,138.00
             939.00,138.00 869.00,138.00 869.00,138.00
             869.00,138.00 891.75,92.00 891.75,92.00
             894.86,85.78 900.56,72.44 905.00,68.00 Z" />
</svg>
