<?xml version="1.0" encoding="UTF-8" standalone="no"?>
<!-- Created with Inkscape (http://www.inkscape.org/) -->

<svg
   xmlns:dc="http://purl.org/dc/elements/1.1/"
   xmlns:cc="http://creativecommons.org/ns#"
   xmlns:rdf="http://www.w3.org/1999/02/22-rdf-syntax-ns#"
   xmlns:svg="http://www.w3.org/2000/svg"
   xmlns="http://www.w3.org/2000/svg"
   xmlns:sodipodi="http://sodipodi.sourceforge.net/DTD/sodipodi-0.dtd"
   xmlns:inkscape="http://www.inkscape.org/namespaces/inkscape"
   width="210mm"
   height="297mm"
   viewBox="0 0 210 297"
   version="1.1"
   id="svg8"
   inkscape:version="0.92.4 (5da689c313, 2019-01-14)"
   sodipodi:docname="TDLogo.svg">
  <defs
     id="defs2" />
  <sodipodi:namedview
     id="base"
     pagecolor="#ffffff"
     bordercolor="#666666"
     borderopacity="1.0"
     inkscape:pageopacity="0.0"
     inkscape:pageshadow="2"
     inkscape:zoom="0.35"
     inkscape:cx="890.50796"
     inkscape:cy="1007.6595"
     inkscape:document-units="mm"
     inkscape:current-layer="layer1"
     showgrid="false"
     inkscape:window-width="1600"
     inkscape:window-height="847"
     inkscape:window-x="-8"
     inkscape:window-y="-8"
     inkscape:window-maximized="1" />
  <metadata
     id="metadata5">
    <rdf:RDF>
      <cc:Work
         rdf:about="">
        <dc:format>image/svg+xml</dc:format>
        <dc:type
           rdf:resource="http://purl.org/dc/dcmitype/StillImage" />
        <dc:title />
      </cc:Work>
    </rdf:RDF>
  </metadata>
  <g
     inkscape:label="Laag 1"
     inkscape:groupmode="layer"
     id="layer1">
    <g
       aria-label="TD/OMS"
       style="font-style:normal;font-variant:normal;font-weight:normal;font-stretch:normal;font-size:43.93732834px;line-height:1.25;font-family:'Berthold Akzidenz Grotesk';-inkscape-font-specification:'Berthold Akzidenz Grotesk';letter-spacing:2.46101499px;word-spacing:0px;writing-mode:lr-tb;fill:#000000;fill-opacity:1;stroke:none;stroke-width:1.7200079"
       id="text1380"
       transform="matrix(0.32183461,0,0,0.32183461,7.3733749,59.995273)">
      <path
         d="m 122.19517,94.67912 h 71.17847 v 10.67677 h -30.25085 v 60.5017 h -10.67677 v -60.5017 h -30.25085 z"
         style="font-style:normal;font-variant:normal;font-weight:500;font-stretch:normal;font-size:98.8589859px;font-family:Orbitron;-inkscape-font-specification:'Orbitron Medium';font-variant-ligatures:normal;font-variant-caps:normal;font-variant-numeric:normal;font-feature-settings:normal;text-align:start;letter-spacing:2.46101499px;writing-mode:lr-tb;text-anchor:start;stroke-width:1.7200079"
         id="path1389"
         inkscape:connector-curvature="0" />
      <path
         d="m 203.52248,94.67912 h 58.3268 q 5.33839,0 9.09503,3.756641 3.75664,3.756639 3.75664,9.095029 v 45.47513 q 0,5.33839 -3.75664,9.09503 -3.75664,3.75664 -9.09503,3.75664 h -58.3268 z m 60.5017,58.3268 v -45.47513 q 0,-0.88973 -0.69201,-1.48289 -0.59316,-0.69201 -1.48289,-0.69201 h -45.47513 q -0.88973,0 -1.58175,0.69201 -0.59315,0.59316 -0.59315,1.48289 v 45.47513 q 0,0.88973 0.59315,1.58175 0.69202,0.59315 1.58175,0.59315 h 45.47513 q 0.88973,0 1.48289,-0.59315 0.69201,-0.69202 0.69201,-1.58175 z"
         style="font-style:normal;font-variant:normal;font-weight:500;font-stretch:normal;font-size:98.8589859px;font-family:Orbitron;-inkscape-font-specification:'Orbitron Medium';font-variant-ligatures:normal;font-variant-caps:normal;font-variant-numeric:normal;font-feature-settings:normal;text-align:start;letter-spacing:2.46101499px;writing-mode:lr-tb;text-anchor:start;stroke-width:1.7200079"
         id="path1391"
         inkscape:connector-curvature="0" />
      <path
         d="m 283.28967,153.20364 48.9352,-58.52452 h 1.48288 v 12.65395 l -48.93519,58.52452 h -1.48289 z"
         style="font-style:normal;font-variant:normal;font-weight:500;font-stretch:normal;font-size:98.8589859px;font-family:Orbitron;-inkscape-font-specification:'Orbitron Medium';font-variant-ligatures:normal;font-variant-caps:normal;font-variant-numeric:normal;font-feature-settings:normal;text-align:start;letter-spacing:2.46101499px;writing-mode:lr-tb;text-anchor:start;stroke-width:1.7200079"
         id="path1393"
         inkscape:connector-curvature="0" />
      <path
         d="m 354.90101,94.67912 h 45.47513 q 5.33838,0 9.09503,3.756641 3.75664,3.756639 3.75664,9.095029 v 45.47513 q 0,5.33839 -3.75664,9.09503 -3.75665,3.75664 -9.09503,3.75664 h -45.47513 q -5.33839,0 -9.09503,-3.75664 -3.75664,-3.75664 -3.75664,-9.09503 v -45.47513 q 0,-5.33839 3.75664,-9.095029 3.75664,-3.756641 9.09503,-3.756641 z m 0,60.5017 h 45.47513 q 0.88973,0 1.48288,-0.59315 0.69202,-0.69202 0.69202,-1.58175 v -45.47513 q 0,-0.88973 -0.69202,-1.48289 -0.59315,-0.69201 -1.48288,-0.69201 h -45.47513 q -0.88973,0 -1.58175,0.69201 -0.59315,0.59316 -0.59315,1.48289 v 45.47513 q 0,0.88973 0.59315,1.58175 0.69202,0.59315 1.58175,0.59315 z"
         style="font-style:normal;font-variant:normal;font-weight:500;font-stretch:normal;font-size:98.8589859px;font-family:Orbitron;-inkscape-font-specification:'Orbitron Medium';font-variant-ligatures:normal;font-variant-caps:normal;font-variant-numeric:normal;font-feature-settings:normal;text-align:start;letter-spacing:2.46101499px;writing-mode:lr-tb;text-anchor:start;stroke-width:1.7200079"
         id="path1395"
         inkscape:connector-curvature="0" />
      <path
         d="m 466.91015,127.59916 27.58166,-32.92004 h 12.75281 v 71.17847 h -10.67677 v -56.94278 l -29.6577,35.29266 -29.6577,-35.29266 v 56.94278 H 426.57568 V 94.67912 h 12.65395 z"
         style="font-style:normal;font-variant:normal;font-weight:500;font-stretch:normal;font-size:98.8589859px;font-family:Orbitron;-inkscape-font-specification:'Orbitron Medium';font-variant-ligatures:normal;font-variant-caps:normal;font-variant-numeric:normal;font-feature-settings:normal;text-align:start;letter-spacing:2.46101499px;writing-mode:lr-tb;text-anchor:start;stroke-width:1.7200079"
         id="path1397"
         inkscape:connector-curvature="0" />
      <path
         d="m 591.43573,107.53079 v 4.15208 h -10.67677 v -4.15208 q 0,-0.88973 -0.69201,-1.48289 -0.59316,-0.69201 -1.48289,-0.69201 h -45.47513 q -0.88973,0 -1.58174,0.69201 -0.59316,0.59316 -0.59316,1.48289 v 15.22428 q 0,0.88973 0.59316,1.58175 0.69201,0.59315 1.58174,0.59315 h 45.47513 q 5.33839,0 9.09503,3.75664 3.75664,3.75664 3.75664,9.09503 v 15.22428 q 0,5.33839 -3.75664,9.09503 -3.75664,3.75664 -9.09503,3.75664 h -45.47513 q -5.33838,0 -9.09503,-3.75664 -3.75664,-3.75664 -3.75664,-9.09503 v -4.15208 h 10.67677 v 4.15208 q 0,0.88973 0.59316,1.58175 0.69201,0.59315 1.58174,0.59315 h 45.47513 q 0.88973,0 1.48289,-0.59315 0.69201,-0.69202 0.69201,-1.58175 v -15.22428 q 0,-0.88973 -0.69201,-1.48289 -0.59316,-0.69201 -1.48289,-0.69201 h -45.47513 q -5.33838,0 -9.09503,-3.75664 -3.75664,-3.75664 -3.75664,-9.09503 v -15.22428 q 0,-5.33839 3.75664,-9.095029 3.75665,-3.756641 9.09503,-3.756641 h 45.47513 q 5.33839,0 9.09503,3.756641 3.75664,3.756639 3.75664,9.095029 z"
         style="font-style:normal;font-variant:normal;font-weight:500;font-stretch:normal;font-size:98.8589859px;font-family:Orbitron;-inkscape-font-specification:'Orbitron Medium';font-variant-ligatures:normal;font-variant-caps:normal;font-variant-numeric:normal;font-feature-settings:normal;text-align:start;letter-spacing:2.46101499px;writing-mode:lr-tb;text-anchor:start;stroke-width:1.7200079"
         id="path1399"
         inkscape:connector-curvature="0" />
    </g>
    <path
       style="opacity:1;vector-effect:none;fill:#c8c442;fill-opacity:1;fill-rule:nonzero;stroke:none;stroke-width:0.5;stroke-linecap:butt;stroke-linejoin:miter;stroke-miterlimit:4;stroke-dasharray:none;stroke-dashoffset:0;stroke-opacity:1"
       d="M 10.872532,88.467023 V 115.37325 H 37.77889 V 88.467023 Z m 2.890474,3.473877 21.125543,7.241316 v 5.386124 l -21.125543,7.33103 v -5.62541 l 15.021175,-4.33889 -15.021175,-4.36876 z"
       id="rect1382"
       inkscape:connector-curvature="0"
       inkscape:export-xdpi="24.305449"
       inkscape:export-ydpi="24.305449" />
  </g>
</svg>
