<?xml version="1.0" encoding="UTF-8" standalone="no"?>
<svg
   xmlns:dc="http://purl.org/dc/elements/1.1/"
   xmlns:cc="http://creativecommons.org/ns#"
   xmlns:rdf="http://www.w3.org/1999/02/22-rdf-syntax-ns#"
   xmlns:svg="http://www.w3.org/2000/svg"
   xmlns="http://www.w3.org/2000/svg"
   xmlns:sodipodi="http://sodipodi.sourceforge.net/DTD/sodipodi-0.dtd"
   xmlns:inkscape="http://www.inkscape.org/namespaces/inkscape"
   version="1.1"
   id="svg4160"
   xml:space="preserve"
   width="1600"
   height="1600"
   viewBox="0 0 1600 1600"
   sodipodi:docname="octo_icon1.svg"
   inkscape:version="1.0.2 (e86c870879, 2021-01-15, custom)"><metadata
     id="metadata4166"><rdf:RDF><cc:Work
         rdf:about=""><dc:format>image/svg+xml</dc:format><dc:type
           rdf:resource="http://purl.org/dc/dcmitype/StillImage" /><dc:title></dc:title></cc:Work></rdf:RDF></metadata><defs
     id="defs4164"><clipPath
       clipPathUnits="userSpaceOnUse"
       id="clipPath4176"><path
         d="M 0,1200 H 1200 V 0 H 0 Z"
         id="path4174" /></clipPath><clipPath
       clipPathUnits="userSpaceOnUse"
       id="clipPath4216"><path
         d="m 424.182,549.884 h 424.6 V 391.958 h -424.6 z"
         id="path4214" /></clipPath><clipPath
       clipPathUnits="userSpaceOnUse"
       id="clipPath4240"><path
         d="M 658.761,737.292 H 1019.05 V 209.163 H 658.761 Z"
         id="path4238" /></clipPath><clipPath
       clipPathUnits="userSpaceOnUse"
       id="clipPath4256"><path
         d="M 519.535,1048.17 H 853.17 V 686.242 H 519.535 Z"
         id="path4254" /></clipPath><clipPath
       clipPathUnits="userSpaceOnUse"
       id="clipPath4272"><path
         d="M 375.155,624.813 H 606.757 V 153.082 H 375.155 Z"
         id="path4270" /></clipPath><clipPath
       clipPathUnits="userSpaceOnUse"
       id="clipPath4288"><path
         d="M 161.725,647.971 H 454.384 V 309.531 H 161.725 Z"
         id="path4286" /></clipPath><clipPath
       clipPathUnits="userSpaceOnUse"
       id="clipPath4304"><path
         d="M 692.667,725.493 H 999.809 V 521.385 H 692.667 Z"
         id="path4302" /></clipPath></defs><sodipodi:namedview
     pagecolor="#ffffff"
     bordercolor="#666666"
     borderopacity="1"
     objecttolerance="10"
     gridtolerance="10"
     guidetolerance="10"
     inkscape:pageopacity="0"
     inkscape:pageshadow="2"
     inkscape:window-width="689"
     inkscape:window-height="480"
     id="namedview4162"
     showgrid="false"
     inkscape:zoom="0.459375"
     inkscape:cx="800"
     inkscape:cy="800"
     inkscape:window-x="0"
     inkscape:window-y="0"
     inkscape:window-maximized="0"
     inkscape:current-layer="g4168" /><g
     id="g4168"
     inkscape:groupmode="layer"
     inkscape:label="octo"
     transform="matrix(1.3333333,0,0,-1.3333333,0,1600)"><g
       id="g4170"><g
         id="g4172"
         clip-path="url(#clipPath4176)"><g
           id="g4178"
           transform="translate(265.9279,933.2599)"><path
             d="m 0,0 c 42.518,-2.062 55.402,-48.702 57.979,-83.232 2.576,-34.53 -11.081,-87.612 17.007,-111.834 28.087,-24.222 64.678,-20.357 96.116,3.092 31.437,23.45 36.075,77.305 36.075,77.305 0,0 9.277,-30.407 -19.24,-94.999 -28.517,-64.593 -91.735,-80.397 -141.554,-52.911 -49.819,27.486 -46.899,88.385 -36.849,135.799 10.05,47.413 19.841,90.447 -6.184,105.907 -26.026,15.461 -50.764,-10.049 -50.764,-10.049 0,0 4.896,32.984 47.414,30.922"
             style="fill:#6d4096;fill-opacity:1;fill-rule:nonzero;stroke:none"
             id="path4180" /></g><g
           id="g4182"
           transform="translate(465.8429,790.2579)"><path
             d="m 0,0 c 0,0 -37.188,33.156 -31.562,103.061 9.408,116.893 42.088,134.854 42.088,134.854 H -2.015 c -16.943,-8.203 -28.339,-30.083 -33.802,-42.682 -8.464,-19.522 -20.662,-52.672 -29.072,-96.982 -14.087,-74.213 16.835,-125.406 21.989,-132.965 5.153,-7.558 14.087,-14.413 14.087,-14.413 0,0 12.931,8.424 19.583,20.77 C -2.577,-16.012 0,0 0,0"
             style="fill:#6d4096;fill-opacity:1;fill-rule:nonzero;stroke:none"
             id="path4184" /></g><g
           id="g4186"
           transform="translate(858.0051,676.5294)"><path
             d="m 0,0 c 0,0 14.508,0.569 28.939,9.729 14.43,9.16 17.372,18.5 17.372,18.5 0,0 9.773,1.478 17.653,-11.919 7.879,-13.398 3.443,-27.509 2.247,-31.211 -1.197,-3.703 -3.312,-8.207 -3.312,-8.207 0,0 -17.984,-23.197 -65.14,-41.235 -47.156,-18.038 -87.011,-7.301 -87.011,-7.301 0,0 13.298,2.218 26.641,9.785 13.343,7.566 26.56,19.256 38.682,33.5 C -11.807,-14.116 0,0 0,0"
             style="fill:#6d4096;fill-opacity:1;fill-rule:nonzero;stroke:none"
             id="path4188" /></g><g
           id="g4190"
           transform="translate(1037.9069,968.2433)"><path
             d="m 0,0 c -3.132,19.78 -30.754,32.143 -62.743,19.345 -31.988,-12.799 -49.463,-50.904 -49.463,-50.904 0,0 0.031,-0.156 0.088,-0.437 -1.342,-2.32 -2.565,-4.613 -3.628,-6.853 -13.056,-27.486 -16.148,-60.813 -10.342,-94.14 5.806,-33.327 0,-67.747 0,-67.747 0,0 10.685,-0.582 25.371,-3.809 14.687,-3.226 26.578,-15.309 26.578,-15.309 0,0 1.339,47.697 -10.686,89.957 -11.383,40.006 -11.366,79.692 1.493,101.593 19.966,29.426 44.835,32.062 51.949,32.25 7.122,0.188 18.195,-7.922 16.438,-22.024 -1.757,-14.101 -15.25,-24.207 -15.25,-24.207 0,0 2.061,-3.435 13.448,4.44 C -5.36,-29.97 3.131,-19.78 0,0"
             style="fill:#6d4096;fill-opacity:1;fill-rule:nonzero;stroke:none"
             id="path4192" /></g><g
           id="g4194"
           transform="translate(772.8215,534.6183)"><path
             d="m 0,0 c 1.974,0.612 15.815,4.643 29.097,1.629 14.341,-3.255 21.889,-6.681 24.704,-8.233 2.815,-1.55 16.402,-17.16 16.402,-17.16 l 5.097,-17.19 c 0,0 15.888,39.285 -28.547,57.388 -18.811,7.663 -34.196,6.42 -40.514,5.99 -6.317,-0.43 -9.555,-1.288 -9.555,-1.288 0,0 2.659,-12.985 3.316,-21.136"
             style="fill:#9170b0;fill-opacity:1;fill-rule:nonzero;stroke:none"
             id="path4196" /></g><g
           id="g4198"
           transform="translate(688.4113,531.6007)"><path
             d="m 0,0 c -3.837,-2.086 -27.586,-15.179 -39.422,-26.074 -12.9,-11.874 -44.527,-31.823 -61.989,-38.157 -17.461,-6.335 -28.475,-9.802 -40.779,-10.184 -11.422,-0.355 -17.907,1.856 -18.779,2.176 -6.169,-5.289 -10.173,-12.274 -14.833,-19.264 -10.751,-15.23 -23.143,-27.413 -34.866,-42.515 0.117,-0.207 -0.143,0.182 0,0 0.675,0.949 1.071,1.077 1.071,1.077 0,0 15.358,-7 32.429,-6.736 17.07,0.266 65.491,7.232 103.985,36.39 36.381,27.558 73.463,57.803 77.424,61.04 C 6.565,-27.787 3.124,-13.86 0,0"
             style="fill:#9170b0;fill-opacity:1;fill-rule:nonzero;stroke:none"
             id="path4200" /></g><g
           id="g4202"
           transform="translate(999.8093,561.0792)"><path
             d="M 0,0 C 0,0 -3.55,-4.729 -6.187,-7.378 -6.21,-7.401 -6.231,-7.427 -6.255,-7.451 -10.794,-12.272 -28.18,-18.146 -33.5,-18.42 l -13.656,-20.232 c 0,0 23.105,-2.748 35.857,10.185 C 1.454,-15.532 0,0 0,0"
             style="fill:#9170b0;fill-opacity:1;fill-rule:nonzero;stroke:none"
             id="path4204" /></g><g
           id="g4206"
           transform="translate(1009.6872,271.4513)"><path
             d="m 0,0 c -11.167,14.344 -26.099,23.193 -64.2,30.45 -38.1,7.257 -78.642,-2.628 -110.08,-4.3 -31.437,-1.671 -63.354,-1.679 -84.588,14.645 -21.234,16.324 -24.502,38.199 -18.399,57.382 6.102,19.183 28.688,72.667 34.873,108.742 4.291,25.034 5.003,42.573 5.038,50.97 -0.015,-0.106 -0.026,-0.209 -0.037,-0.314 -0.011,-0.104 -0.023,-0.209 -0.041,-0.314 0.036,0.211 0.048,0.418 0.078,0.628 0.014,3.704 -0.102,5.635 -0.102,5.635 0,0 0.092,0.031 0.249,0.08 -0.657,8.151 -7.109,40.249 -9.737,46.731 -3.574,8.813 -9.84,21.18 -9.84,21.18 0,0 9.884,-0.201 26.118,5.144 16.234,5.346 29.71,15.321 37.043,22.093 7.334,6.772 32.921,37.294 44.647,50.176 11.726,12.882 31.74,28.444 48.963,23.922 17.223,-4.522 20.023,-30.193 10.638,-50.95 -9.385,-20.755 -20.55,-37.853 -24.843,-56.239 -4.293,-18.386 -2.147,-49.265 17.399,-62.139 14.695,-9.676 30.77,-11.908 39.926,-12.34 l -0.139,-0.206 c 0,0 6.565,-0.78 14.627,0.45 3.152,0.11 5.744,0.198 5.744,0.198 v 1.003 c 5.479,1.488 11.097,4.082 15.486,8.534 12.753,12.935 11.299,28.467 11.299,28.467 0,0 -3.55,-4.73 -6.186,-7.378 -0.024,-0.023 -0.045,-0.049 -0.069,-0.073 -4.536,-4.819 -21.903,-10.688 -27.235,-10.968 -6.151,-0.145 -15.567,0.197 -24.069,2.844 -14.119,4.393 -21.59,14.503 -18.367,30.023 3.223,15.52 23.657,31.443 33.227,44.436 9.57,12.992 33.767,43.028 29.854,81.266 -3.913,38.239 -32.358,63.794 -66.312,65.551 -33.954,1.758 -46.664,-4.829 -67.231,-21.393 -20.566,-16.565 -47.885,-46.544 -93.092,-56.327 -45.207,-9.782 -53.389,33.295 -38.636,56.265 14.752,22.971 52.448,40.844 62.153,47.897 9.705,7.053 52.261,40.494 63.183,84.939 10.922,44.446 13.542,99.962 -49.198,141.197 -62.742,41.236 -136.038,30.793 -171.907,15.736 -35.869,-15.058 -84.46,-52.244 -106.397,-96.064 -21.937,-43.821 -39.176,-96.109 -45.769,-120.217 -5.8,-21.208 -12.766,-58.963 -28.598,-86.246 -2.164,-3.728 -4.493,-7.261 -7.007,-10.53 -20.913,-27.186 -32.156,-45.488 -82.144,-68.873 -49.989,-23.386 -109.673,-44.431 -122.742,-62.779 -13.07,-18.35 -33.163,-46.481 -24.648,-88.77 8.515,-42.289 38.716,-75.81 46.832,-90.441 8.115,-14.631 21.194,-38.546 13.682,-53.93 -7.511,-15.384 -28.194,-20.789 -44.258,-20.423 -16.064,0.366 -31.657,12.526 -39.637,25.885 -7.981,13.359 -23.226,50.932 -23.226,50.932 0,0 -2.397,-8.083 1.734,-30.717 4.129,-22.633 17.699,-52.725 38.56,-62.634 20.862,-9.908 52.894,-19.799 90.425,-0.844 37.531,18.955 21.587,83.07 14.56,96.468 -7.028,13.397 -33.983,55.6 -37.075,70.683 -3.091,15.082 -4.501,34.301 14.248,49.671 18.75,15.369 32.483,15.895 57.983,16.906 25.5,1.009 40.365,5.575 52.81,9.403 12.446,3.827 37.682,14.972 37.682,14.972 0,0 -13.14,-54.084 -10.511,-86.436 2.628,-32.351 4.68,-33.292 4.68,-33.292 0,0 -26.245,-44.63 -31.547,-55.644 -5.302,-11.015 -21.957,-44.339 -19.991,-75.012 1.968,-30.674 9.338,-51.237 23.071,-65.466 13.734,-14.227 31.345,-24.231 50.501,-24.168 19.156,0.064 34.094,0.744 49.016,-1.609 14.923,-2.353 26.405,-4.99 33.427,-8.342 7.023,-3.352 21.597,-13.36 22.013,-13.125 0.048,0.027 0.356,0.191 0.847,0.453 4.601,-3.89 17.776,-15.155 24.997,-22.656 8.847,-9.191 28.949,-39.933 28.949,-39.933 0.003,-0.023 -1.463,31.945 -12.457,48.179 -10.995,16.234 -20.41,23.216 -25.781,27.069 -0.001,10e-4 -0.003,0.002 -0.004,0.003 -5.317,3.949 -16.495,11.8 -29.922,18.62 -18.834,9.567 -59.638,18.181 -73.635,20.913 -13.997,2.733 -27.153,12.367 -30.624,27.733 -3.471,15.366 2.714,36.716 5.806,44.225 3.092,7.509 24.724,45.752 30.199,52.015 2.718,3.109 4.339,5.465 4.077,5.57 1.166,-0.469 4.614,4.848 4.614,5.446 0,-0.863 20.851,23.215 31.602,38.445 4.66,6.99 41.183,51.716 51.173,75.355 9.99,23.638 26.204,70.384 58.439,72.228 38.734,2.217 44.274,-11.569 54.453,-24.712 10.178,-13.141 12.281,-31.073 12.281,-31.073 0,0 -0.199,-0.108 -0.545,-0.295 3.124,-13.86 6.566,-27.787 4.242,-42.247 0.23,0.188 0.355,0.29 0.355,0.29 0,0 0.305,-3.993 -3.762,-24.644 -4.068,-20.65 -11.205,-42.371 -14.766,-58.309 -3.56,-15.94 -8.707,-53.046 -2.459,-72.805 6.248,-19.759 15.432,-40.647 32.364,-52.983 16.934,-12.336 39.288,-19.938 65.056,-23.373 25.768,-3.437 65.655,0.136 94.999,2.748 6.216,0.553 12.6,1.221 19.047,1.878 23.984,2.443 48.847,4.73 69.274,0.379 25.918,-5.521 40.01,-24.826 35.069,-43.733 -4.942,-18.908 -23.742,-29.03 -23.153,-28.977 0.591,0.051 36.53,4.378 47.126,25.691 C 12.368,-34.187 11.166,-14.345 0,0"
             style="fill:#9170b0;fill-opacity:1;fill-rule:nonzero;stroke:none"
             id="path4208" /></g><g
           id="g4210"><g
             id="g4212" /><g
             id="g4232"><g
               clip-path="url(#clipPath4216)"
               opacity="0.5"
               id="g4230"><g
                 transform="translate(424.1823,467.0099)"
                 id="g4220"><path
                   d="M 0,0 C 0.5,-2.99 1.139,-5.962 1.928,-8.911 2.128,-8.538 2.33,-8.17 2.53,-7.796 1.545,-5.336 0.689,-2.749 0,0"
                   style="fill:#9170b0;fill-opacity:1;fill-rule:nonzero;stroke:none"
                   id="path4218" /></g><g
                 transform="translate(691.9772,510.8214)"
                 id="g4224"><path
                   d="m 0,0 c -10.549,-6.95 -14.488,-9.878 -24.681,-16.653 -35.661,-23.707 -69.988,-65.709 -145.232,-71.894 -8.093,-0.665 -16.018,-0.926 -23.658,-0.724 -1.935,-2.555 -4.628,-4.294 -6.573,-6.916 -2.384,-3.211 -4.198,-6.797 -6.653,-9.959 -1.738,-2.239 -3.829,-4.567 -6.147,-6.698 45.185,-17.743 104.079,6.276 147.908,38.985 30.91,23.066 40.012,33.484 65.036,51.84 C -0.577,-19.228 1.808,-0.523 0,0"
                   style="fill:#9170b0;fill-opacity:1;fill-rule:nonzero;stroke:none"
                   id="path4222" /></g><g
                 transform="translate(771.3879,541.215)"
                 id="g4228"><path
                   d="m 0,0 c 0.185,-2.243 0.331,-4.528 0.437,-6.856 18.941,4.65 35.427,1.619 47.316,-2.682 11.643,-4.211 20.902,-13.233 25.407,-24.765 l 4.234,-10.838 c 0,34.943 -37.276,55.743 -69.81,53.668 C 4.792,8.349 1.997,8.006 -0.8,7.545 -0.635,6.245 -0.48,4.936 -0.343,3.607 -0.22,2.414 -0.101,1.217 0,0"
                   style="fill:#9170b0;fill-opacity:1;fill-rule:nonzero;stroke:none"
                   id="path4226" /></g></g></g></g><g
           id="g4234"><g
             id="g4236" /><g
             id="g4248"><g
               clip-path="url(#clipPath4240)"
               opacity="0.600006"
               id="g4246"><g
                 transform="translate(1019.0495,243.9581)"
                 id="g4244"><path
                   d="m 0,0 c -0.344,50.162 -75.416,63.39 -127.467,60.297 -52.053,-3.092 -120.596,-23.192 -152.549,19.584 -31.952,42.775 34.34,100.501 32.984,203.57 -1.031,78.335 -47.6,116.215 -51.752,119.45 -16.599,12.935 -51.479,63.308 -54.894,75.987 -0.97,3.603 -1.742,10.323 -2.053,14.446 -4.939,-15.59 -6.728,-34.071 -0.945,-51.028 14.504,-42.528 56.819,-56.555 76.145,-109.896 19.326,-53.34 9.823,-99.074 -7.972,-159.309 -17.796,-60.237 -19.099,-79.047 6.419,-109.196 25.518,-30.149 85.558,-21.989 125.069,-15.804 39.512,6.184 76.961,7.816 114.583,-8.676 C -4.811,22.934 -4.939,3.221 -4.037,-4.51 -3.211,-11.595 -6.378,-26.525 -12.572,-34.795 -5.214,-26.875 0.107,-15.714 0,0"
                   style="fill:#6d4096;fill-opacity:1;fill-rule:nonzero;stroke:none"
                   id="path4242" /></g></g></g></g><g
           id="g4250"><g
             id="g4252" /><g
             id="g4264"><g
               clip-path="url(#clipPath4256)"
               opacity="0.600006"
               id="g4262"><g
                 transform="translate(519.5349,940.7325)"
                 id="g4260"><path
                   d="M 0,0 C 19.537,33.499 93.191,92.25 179.021,70.605 264.851,48.96 285.552,-9.5 278.594,-46.04 c -7.839,-41.168 -38.412,-68.398 -65.967,-90.017 -44.435,-34.862 -54.134,-62.449 -44.085,-85.357 10.05,-22.908 30.219,-33.565 51.859,-33.059 -11.531,7.419 -14.538,8.452 -19.67,17.212 -5.132,8.761 -9.354,22.625 1.572,41.73 10.926,19.104 37.379,33.853 56.32,44.259 18.94,10.405 45.164,35.656 55.85,57.991 10.686,22.334 27.039,59.987 14.82,106.955 -12.218,46.968 -52.76,64.346 -79.817,80.137 -27.057,15.79 -90.08,18.633 -131.085,4.414 C 77.387,84.005 55.037,64.2 37.802,48.205 20.568,32.21 0,0 0,0"
                   style="fill:#6d4096;fill-opacity:1;fill-rule:nonzero;stroke:none"
                   id="path4258" /></g></g></g></g><g
           id="g4266"><g
             id="g4268" /><g
             id="g4280"><g
               clip-path="url(#clipPath4272)"
               opacity="0.600006"
               id="g4278"><g
                 transform="translate(581.9328,199.0353)"
                 id="g4276"><path
                   d="m 0,0 c -25.21,28.56 -51.966,41.658 -76.36,44.751 -24.394,3.092 -62.101,3.521 -80.139,13.571 -18.038,10.049 -38.223,34.701 -29.634,84.864 8.59,50.162 42.003,85.98 61.587,148.854 17.28,55.481 22.491,88.784 21.387,116.387 -0.451,11.274 -0.773,14.302 -1.03,17.351 -6.056,-25.768 -23.542,-102.308 -36.248,-134.168 -23.02,-57.72 -61.844,-94.483 -65.967,-149.112 -4.122,-54.629 26.112,-103.416 76.962,-102.386 49.463,1.003 65.116,-2.059 79.689,-9.659 0,0 4.598,-2.513 28.674,-20.325 24.076,-17.814 45.903,-56.082 45.903,-56.082 0,0 -6.999,25.761 -24.824,45.954"
                   style="fill:#6d4096;fill-opacity:1;fill-rule:nonzero;stroke:none"
                   id="path4274" /></g></g></g></g><g
           id="g4282"><g
             id="g4284" /><g
             id="g4296"><g
               clip-path="url(#clipPath4288)"
               opacity="0.600006"
               id="g4294"><g
                 transform="translate(161.7721,414.6495)"
                 id="g4292"><path
                   d="m 0,0 c 0,0 5.721,-76.896 58.803,-87.976 53.083,-11.08 83.232,24.222 72.925,58.752 -10.308,34.53 -62.961,91.821 -46.125,142.67 16.834,50.85 66.31,57.034 115.785,62.188 49.475,5.154 91.224,57.687 91.224,57.687 0,0 -12.425,-34.991 -16.127,-47.975 -3.701,-12.985 -5.694,-21.103 -5.694,-21.103 0,0 -37.278,-17.727 -60.212,-21.077 -22.934,-3.35 -61.586,-1.288 -78.078,-12.369 -16.492,-11.08 -27.781,-24.549 -25.873,-48.35 1.908,-23.801 29.333,-61.296 35.857,-75.706 6.523,-14.41 18.475,-47.086 8.368,-76.699 -10.106,-29.613 -40.006,-31.808 -57.782,-34.704 C 75.295,-107.56 34.037,-96.408 21.854,-78.32 9.672,-60.231 1.873,-36.633 0.771,-24.984 -0.332,-13.336 0,0 0,0"
                   style="fill:#6d4096;fill-opacity:1;fill-rule:nonzero;stroke:none"
                   id="path4290" /></g></g></g></g><g
           id="g4298"><g
             id="g4300" /><g
             id="g4312"><g
               clip-path="url(#clipPath4304)"
               opacity="0.600006"
               id="g4310"><g
                 transform="translate(999.8093,560.5646)"
                 id="g4308"><path
                   d="m 0,0 c 0,0 -7.902,-27.521 -36.763,-28.964 -28.861,-1.443 -61.844,11.613 -55.659,53.186 6.184,41.573 43.977,50.162 42.603,93.453 -1.374,43.291 -39.512,54.972 -70.433,42.603 -30.922,-12.368 -62.875,-69.402 -99.638,-75.243 -36.762,-5.841 -87.253,31.468 -87.253,31.468 0,0 33.655,-37.652 40.183,-46.07 6.528,-8.417 20.443,-28.689 20.443,-28.689 0,0 33.499,3.093 56.003,21.646 22.504,18.552 53.447,60.239 62.134,66.689 8.686,6.449 26.982,17.53 38.319,12.892 11.338,-4.639 21.775,-15.203 12.885,-45.353 -8.89,-30.148 -21.462,-32.649 -27.674,-65.671 -6.212,-33.021 10.881,-60.802 37.337,-67.848 26.455,-7.046 45.635,-1.736 54.684,6.517 C -3.779,-21.131 0,-8.59 0,0"
                   style="fill:#6d4096;fill-opacity:1;fill-rule:nonzero;stroke:none"
                   id="path4306" /></g></g></g></g><g
           id="g4314"
           transform="translate(1035.6178,950.7662)"><path
             d="m 0,0 c -2.822,-8.758 -10.549,-19.319 -23.432,-22.619 3.728,3.72 9.274,10.388 11.553,18.909 1.776,6.644 0.356,13.4 -3.897,18.536 -4.591,5.541 -11.883,8.509 -19.536,7.946 -15.975,-1.185 -31.796,-11.576 -44.55,-29.259 -14.913,-20.676 -16.477,-62.403 -3.985,-106.306 10.139,-35.631 10.727,-75.255 10.682,-86.137 -11.334,9.451 -25.608,15.266 -41.477,16.096 -2.686,0.139 -5.229,0.219 -7.671,0.251 0.85,5.649 5.119,37.099 -0.143,67.305 -5.74,32.947 -2.104,66.097 10.24,93.343 10.415,22.99 33.952,51.768 61.018,60.628 13.343,4.37 25.877,3.337 37.255,-3.067 C 0.338,27.589 5.028,15.603 0,0 m -49.738,-249.935 c 3.655,-35.677 -17.669,-64.34 -27.919,-78.115 -0.591,-0.796 -1.148,-1.543 -1.661,-2.242 -3.063,-4.162 -7.263,-8.634 -11.71,-13.371 -9.137,-9.732 -19.494,-20.763 -21.746,-31.617 -3.217,-15.509 3.638,-26.737 19.303,-31.617 8.049,-2.508 39.505,-7.092 55.863,12.42 -3.612,-26.47 -22.646,-32.46 -38.419,-32.69 l -0.114,-0.002 c -21.914,-0.314 -36.856,6.427 -45.544,12.148 -19.567,12.881 -20.698,44.05 -16.814,60.67 2.856,12.226 8.893,24.069 15.283,36.608 3.148,6.18 6.405,12.57 9.479,19.367 0.087,0.193 0.163,0.39 0.248,0.584 0.003,0.005 0.004,0.011 0.007,0.016 6.153,13.997 6.882,29.804 1.813,40.441 -2.924,6.137 -7.626,10.21 -13.597,11.776 -1.845,0.484 -3.703,0.74 -5.562,0.821 -0.021,0.008 -0.039,0.02 -0.06,0.027 -0.281,0.089 -0.568,0.081 -0.829,-0.003 -19.092,0.222 -38.051,-18.79 -43.863,-25.177 -4.468,-4.91 -10.866,-12.285 -17.639,-20.094 -11.028,-12.713 -22.431,-25.859 -26.92,-30.006 -3.856,-3.561 -17.886,-15.658 -36.544,-21.803 -13.402,-4.414 -22.488,-4.998 -24.974,-5.07 -1.495,2.639 -3.098,5.217 -4.769,7.724 -3.196,4.802 -6.605,9.436 -10.114,13.986 -7.09,9.041 -14.525,17.787 -22.256,26.263 -3.865,4.233 -7.825,8.401 -11.807,12.509 -3.936,4.076 -7.634,8.408 -11.165,12.874 -7.046,8.947 -13.495,18.399 -19.334,28.203 -1.46,2.449 -2.905,4.912 -4.24,7.43 -1.338,2.516 -2.631,5.052 -3.631,7.712 -1.014,2.656 -1.801,5.399 -2.379,8.19 -0.562,2.791 -0.958,5.636 -0.948,8.499 -0.237,-5.73 0.808,-11.484 2.651,-16.933 0.92,-2.735 2.14,-5.355 3.396,-7.935 1.254,-2.586 2.618,-5.112 4,-7.627 5.634,-10 11.921,-19.627 18.833,-28.818 3.46,-4.591 7.11,-9.057 11.095,-13.244 3.937,-4.152 7.815,-8.326 11.618,-12.588 7.628,-8.493 15.022,-17.204 22.014,-26.207 5.439,-7.062 10.733,-14.246 15.08,-21.951 0.019,-0.043 0.029,-0.089 0.053,-0.13 0.022,-0.041 0.8,-1.42 1.93,-3.562 0.485,-0.948 0.968,-1.897 1.42,-2.863 3.149,-6.576 5.866,-13.377 8.177,-20.311 1.953,-6.626 3.45,-13.007 4.577,-19.151 -0.03,-0.184 -0.025,-0.375 0.026,-0.566 0.029,-0.11 0.074,-0.211 0.127,-0.307 5.683,-31.872 1.345,-57.296 -2.023,-76.935 -4.47,-26.08 -17.359,-60.774 -26.77,-86.108 -3.422,-9.214 -6.379,-17.171 -8.058,-22.452 -7.207,-22.657 -0.33,-44.117 18.868,-58.876 11.434,-8.791 26.74,-13.837 45.493,-14.999 15.584,-0.965 43.094,1.64 69.701,4.159 6.997,0.663 13.607,1.289 19.991,1.849 31.789,2.792 57.3,1.973 93.665,-10.481 16.014,-5.486 23.774,-13.373 29.773,-21.079 11.216,-14.409 11.794,-33.606 1.627,-54.054 -7.682,-15.451 -29.697,-21.756 -40.25,-23.941 9.797,7.501 16.265,16.507 18.816,26.274 2.183,8.35 0.8,17.139 -3.893,24.749 -6.319,10.246 -17.758,17.584 -32.21,20.663 -21.416,4.562 -48.187,1.836 -69.696,-0.356 l -2.895,-0.295 c -5.338,-0.547 -10.859,-1.112 -16.135,-1.581 l -0.328,-0.03 c -29.056,-2.587 -68.849,-6.129 -94.37,-2.726 -26.552,3.541 -48.23,11.321 -64.433,23.124 -18.448,13.44 -27.502,35.822 -31.848,52.23 -5.233,19.751 -0.972,56.743 2.471,72.158 1.392,6.231 3.42,13.39 5.568,20.97 3.287,11.602 7.014,24.752 9.21,37.404 0.835,4.807 2.098,13.384 2.69,23.898 0.064,0.207 0.073,0.426 0.036,0.64 1.174,22.069 -0.67,52.394 -15.509,74.426 -7.931,11.776 -22.344,27.214 -55.661,25.312 -30.302,-1.728 -46.296,-40.679 -56.881,-66.453 -0.963,-2.346 -1.873,-4.563 -2.737,-6.607 -9.799,-23.184 -35.988,-55.394 -36.252,-55.717 -0.027,-0.033 -0.051,-0.067 -0.075,-0.102 -0.079,-0.117 -8.043,-11.921 -21.325,-27.712 l -2.686,-3.189 c -20.253,-24.047 -47.991,-56.979 -62.107,-88.111 -3.742,-8.253 -9.313,-29.953 -5.892,-45.091 3.934,-17.42 18.951,-26.286 31.694,-28.774 8.773,-1.714 53.538,-10.77 73.282,-20.8 7.628,-3.876 14.55,-7.927 20.019,-11.715 7.286,-5.045 25.338,-18.554 35.592,-34.998 7.055,-11.312 10.369,-31.762 11.656,-42.127 -5.415,9.12 -16.841,27.142 -28.637,38.175 -16.949,15.858 -26.407,23.274 -38.923,30.521 l -1.005,0.583 c -2.264,1.315 -4.402,2.556 -6.133,3.383 -6.679,3.185 -17.419,5.871 -33.799,8.45 -9.258,1.458 -18.593,1.758 -28.777,1.758 -3.431,0 -6.958,-0.035 -10.611,-0.07 -3.162,-0.03 -6.435,-0.061 -9.84,-0.074 h -0.184 c -17.032,0 -34.544,8.425 -49.325,23.737 -13.553,14.038 -20.761,34.561 -22.684,64.584 -1.876,29.319 13.524,61.179 19.321,73.173 l 0.548,1.134 c 5.219,10.834 31.241,55.077 31.504,55.522 0.075,0.128 0.121,0.267 0.151,0.409 1.188,2.062 2.298,4.192 3.341,6.303 0.656,1.315 1.275,2.644 1.915,3.965 l 1.838,3.995 c 2.405,5.345 4.65,10.754 6.795,16.201 4.241,10.914 8.057,21.988 11.394,33.205 0.836,2.804 1.656,5.612 2.417,8.437 l 1.164,4.231 1.092,4.25 c 1.492,5.662 2.735,11.354 4.087,17.036 l 7.97,34.098 c 2.561,11.39 5.211,22.756 7.691,34.161 -3.078,-11.263 -5.985,-22.566 -8.982,-33.846 l -8.705,-33.907 c -5.548,-22.67 -12.099,-45.015 -20.666,-66.671 -2.117,-5.416 -4.323,-10.798 -6.689,-16.105 -1.799,-3.996 -3.643,-7.977 -5.69,-11.819 -0.78,3.382 -2.094,11.389 -3.615,30.137 -2.575,31.747 10.361,85.43 10.492,85.968 0.041,0.168 0.038,0.336 0.016,0.501 0.322,1.409 0.655,2.815 1.022,4.206 1.085,4.106 2.337,8.225 3.511,12.355 l 3.452,12.417 c 1.163,4.09 2.455,8.16 3.81,12.22 2.684,8.129 5.614,16.191 8.519,24.262 l 17.856,48.308 c -6.955,-15.707 -13.597,-31.551 -19.841,-47.56 -3.146,-7.997 -6.134,-16.055 -8.975,-24.183 -1.425,-4.062 -2.721,-8.178 -3.935,-12.337 l -3.508,-12.379 c -1.156,-4.133 -2.379,-8.236 -3.468,-12.436 -0.349,-1.36 -0.667,-2.722 -0.975,-4.086 -3.983,-1.746 -25.75,-11.222 -36.885,-14.652 -12.081,-3.722 -27.117,-8.354 -52.541,-9.372 -25.545,-1.024 -39.616,-1.588 -58.693,-17.241 -19.097,-15.669 -17.891,-35.501 -14.707,-51.029 2.287,-11.151 17.039,-36.297 27.81,-54.657 4.017,-6.847 7.487,-12.76 9.409,-16.427 5.025,-9.58 14.186,-44.496 5.995,-70.088 -3.677,-11.49 -10.384,-19.766 -19.934,-24.597 -28.503,-14.416 -57.68,-14.153 -89.203,0.802 -19.971,9.476 -33.585,38.574 -37.784,61.599 -2.277,12.487 -2.534,20.492 -2.331,25.077 4.412,-10.644 15.022,-35.722 21.333,-46.29 7.726,-12.936 23.335,-26.174 40.789,-26.582 16.03,-0.388 37.601,4.937 45.53,21.153 7.915,16.188 -5.615,40.577 -13.699,55.148 -1.992,3.591 -5.326,8.349 -9.188,13.858 -12.375,17.657 -31.076,44.338 -37.472,76.122 -8.35,41.5 9.924,69.853 24.395,87.57 12.559,15.377 45.03,29.073 79.408,43.574 14.092,5.945 28.665,12.092 42.894,18.735 2.816,1.315 5.505,2.614 8.085,3.899 0.086,0.003 0.171,0.002 0.257,0.005 0.492,0.018 0.91,0.298 1.135,0.697 38.887,19.613 51.526,36.177 68.525,58.484 1.516,1.991 3.068,4.027 4.677,6.116 2.46,3.194 4.852,6.783 7.108,10.668 7.83,13.474 13.528,29.576 17.968,44.883 0.005,0.014 0.011,0.028 0.017,0.041 0.037,0.094 0.062,0.189 0.078,0.284 2.74,9.476 4.999,18.639 6.977,26.67 1.312,5.328 2.551,10.361 3.72,14.629 5.996,21.886 23.265,75.104 45.709,119.877 21.253,42.396 69.284,80.041 105.746,95.316 33.298,13.949 106.72,26.333 170.681,-15.74 64.039,-42.125 58.446,-99.987 48.668,-139.845 -10.987,-44.784 -54.103,-78.021 -62.635,-84.229 -2.216,-1.613 -5.933,-3.807 -10.639,-6.587 -15.098,-8.916 -40.368,-23.839 -51.841,-41.721 -8.976,-13.992 -9.199,-33.978 -0.52,-46.49 8.043,-11.596 22.471,-15.825 40.618,-11.909 37.68,8.132 63.466,30.526 82.294,46.877 4.024,3.494 7.824,6.795 11.389,9.662 19.899,16.011 32.19,22.842 66.319,21.06 34.6,-1.807 61.348,-28.279 65.046,-64.377 m -124.531,-22.571 c 0.239,0.265 0.477,0.527 0.706,0.779 10.799,11.867 26.178,23.381 40.089,24.221 -1.645,-3.104 -5.973,-9.53 -15.931,-15.85 -9.841,-6.247 -19.808,-8.413 -24.864,-9.15 m -6.072,-64.8 c -35.911,-13.736 -67.616,-10.618 -80.113,-8.506 1.479,0.427 3.019,0.898 4.625,1.428 18.656,6.144 32.467,17.705 37.54,22.389 4.6,4.25 16.054,17.453 27.13,30.223 5.17,5.96 10.117,11.663 14.149,16.204 2.84,0.2 15.896,1.549 29.066,9.909 11.998,7.617 16.283,15.364 17.518,18.161 1.515,-0.087 3.008,-0.315 4.468,-0.699 5.169,-1.356 9.259,-4.922 11.828,-10.311 4.719,-9.905 4.005,-24.727 -1.765,-37.979 -1.476,-1.819 -19.981,-23.811 -64.446,-40.819 m -76.124,-57.778 c 7.084,0.484 21.693,0.354 39.98,-5.92 3.203,-1.1 14.267,-5.473 22.109,-15.588 7.156,-9.233 9.538,-20.471 7.149,-33.48 -1.597,7.519 -6.519,18.642 -21.004,28.45 -1.418,0.96 -7.423,4.406 -25.167,8.432 -12.219,2.773 -24.683,-0.191 -28.817,-1.364 -0.401,5.908 -1.119,12.076 -2.235,18.505 1.468,0.28 4.15,0.704 7.985,0.965 m -249.512,-95.577 c 5.369,6.755 26.689,34.208 35.398,54.816 0.867,2.052 1.781,4.277 2.748,6.632 10.324,25.141 25.926,63.137 54.513,64.766 31.6,1.799 45.047,-11.94 53.244,-24.112 5.936,-8.814 9.729,-19.022 12.06,-29.493 -4.878,-2.656 -27.814,-15.392 -39.539,-26.185 -12.294,-11.317 -43.728,-31.42 -61.529,-37.879 -18.445,-6.691 -28.65,-9.738 -40.357,-10.101 -8.372,-0.262 -13.955,0.863 -16.538,1.556 m 160.504,29.226 c -26.712,-21.884 -53.61,-43.167 -75.74,-59.931 -36.789,-27.868 -83.581,-35.807 -103.183,-36.112 -13.399,-0.211 -25.892,4.217 -30.229,5.94 8.071,10.213 16.144,19.801 23.282,28.277 l 2.686,3.191 c 11.326,13.464 18.823,24.066 20.91,27.081 2.034,-0.639 7.344,-1.995 15.837,-1.995 0.822,0 1.675,0.013 2.557,0.04 12.078,0.376 22.472,3.471 41.202,10.265 18.072,6.556 49.974,26.956 62.445,38.436 10.997,10.123 32.242,22.089 38.279,25.403 2.769,-14.009 3.043,-28.305 2.42,-40.214 z m -377.176,182.543 c -38.403,21.188 -50.573,66.381 -36.173,134.322 l 0.662,3.119 c 4.927,23.211 9.58,45.134 9.827,63.304 0.282,20.748 -5.218,33.757 -17.31,40.94 -20.938,12.438 -41.194,-0.852 -49.032,-7.243 2.88,8.584 12.82,27.132 44.919,25.582 45.807,-2.221 54.901,-58.065 56.684,-81.972 0.704,-9.429 0.189,-20.199 -0.356,-31.602 -1.416,-29.614 -3.02,-63.18 17.833,-81.163 13.704,-11.818 30.217,-17.582 47.763,-16.66 16.465,0.863 33.575,7.542 49.525,19.307 0.161,0.034 0.319,0.086 0.462,0.18 0.453,0.294 9.47,6.236 16.349,15.504 -2.942,-7.617 -6.303,-14.996 -10.195,-21.692 -2.198,-3.784 -4.523,-7.274 -6.911,-10.374 -1.612,-2.093 -3.167,-4.132 -4.685,-6.126 -16.895,-22.172 -29.416,-38.594 -68.421,-58.126 -17.374,-0.487 -34.974,3.891 -50.941,12.7 m 111.1,84.438 c -3.809,5.587 -36.781,56.754 -21.779,131.93 8.906,44.627 19.55,79.35 31.637,103.205 8.801,17.37 18.149,28.682 27.784,33.621 4.002,2.052 7.323,2.602 9.732,2.602 0.904,0 1.679,-0.077 2.315,-0.182 -11.536,-11.809 -20.204,-26.255 -25.134,-41.92 -6.422,-20.411 -14.36,-52.976 -15.706,-92.203 -1.251,-36.483 7.473,-62.8 15.014,-78.452 7.151,-14.848 14.459,-23.031 16.447,-25.111 -0.311,-1.708 -1.249,-6.485 -2.954,-12.186 -6.276,-15.318 -14.508,-26.973 -24.483,-34.67 -2.374,1.934 -8.848,7.464 -12.873,13.366 M -12.606,38.003 c -12.071,6.794 -25.342,7.897 -39.441,3.282 -27.848,-9.117 -51.999,-38.579 -62.653,-62.094 -12.567,-27.74 -16.276,-61.457 -10.442,-94.937 5.337,-30.638 0.723,-62.629 0.072,-66.825 -27.371,-0.115 -39.865,-7.537 -57.743,-21.922 -3.604,-2.9 -7.424,-6.216 -11.467,-9.728 -19.641,-17.058 -44.086,-38.285 -81.081,-46.27 -21.793,-4.702 -32.585,3.277 -37.802,10.798 -8.088,11.659 -7.841,30.344 0.575,43.462 11.123,17.337 36.043,32.053 50.932,40.846 4.768,2.816 8.534,5.041 10.857,6.73 8.666,6.306 52.466,40.077 63.678,85.784 9.975,40.662 15.663,99.699 -49.818,142.773 -64.92,42.704 -139.438,30.136 -173.232,15.977 -36.926,-15.469 -85.58,-53.62 -107.13,-96.609 -22.54,-44.963 -39.882,-98.403 -45.901,-120.378 -1.179,-4.303 -2.423,-9.352 -3.739,-14.698 -0.961,-3.901 -1.988,-8.07 -3.104,-12.412 -6.007,6.76 -32.023,39.698 -29.929,100.724 1.335,38.92 9.21,71.228 15.581,91.477 5.03,15.98 14.053,30.658 26.098,42.449 0.319,0.313 0.464,0.761 0.391,1.202 -0.075,0.44 -0.361,0.816 -0.764,1.007 -0.269,0.125 -6.679,3.032 -16.292,-1.815 -16.911,-8.526 -41.228,-39.53 -61.041,-138.817 -15.221,-76.267 18.324,-128.315 22.199,-133.999 3.988,-5.849 10.055,-11.184 12.864,-13.506 -32.487,-23.464 -67.093,-24.279 -92.876,-2.044 -19.846,17.116 -18.276,49.976 -16.89,78.968 0.549,11.489 1.068,22.34 0.352,31.936 -1.837,24.629 -11.292,82.165 -59.273,84.491 -43.243,2.112 -48.776,-31.741 -48.827,-32.083 -0.087,-0.585 0.214,-1.16 0.744,-1.422 0.531,-0.262 1.171,-0.152 1.583,0.272 0.239,0.248 24.309,24.549 49.088,9.827 24.615,-14.622 16.085,-54.805 6.209,-101.333 l -0.662,-3.12 c -6.353,-29.976 -7.673,-54.798 -4.036,-75.886 4.865,-28.204 18.848,-48.859 41.56,-61.39 14.665,-8.09 30.674,-12.545 46.675,-13.038 -0.984,-0.471 -1.966,-0.94 -2.983,-1.416 -14.183,-6.622 -28.731,-12.759 -42.8,-18.693 -36.205,-15.272 -67.473,-28.46 -80.461,-44.363 -8.54,-10.454 -34.525,-42.269 -24.956,-89.832 6.508,-32.343 25.408,-59.307 37.912,-77.149 3.818,-5.447 7.115,-10.15 9.038,-13.615 7.312,-13.182 20.923,-37.717 13.632,-52.629 -7.362,-15.057 -27.764,-19.985 -43.015,-19.624 -16.325,0.383 -31.407,13.359 -38.511,25.254 -7.84,13.127 -22.995,50.406 -23.147,50.781 -0.218,0.536 -0.718,0.884 -1.329,0.849 -0.579,-0.028 -1.077,-0.418 -1.241,-0.973 -0.102,-0.343 -2.445,-8.652 1.69,-31.331 4.319,-23.689 18.46,-53.687 39.298,-63.573 32.334,-15.342 62.299,-15.595 91.602,-0.772 10.227,5.172 17.394,13.987 21.302,26.199 8.552,26.72 -0.827,61.983 -6.178,72.186 -1.953,3.724 -5.437,9.663 -9.471,16.54 -10.675,18.195 -25.295,43.116 -27.491,53.825 -3.219,15.694 -4.1,33.714 13.764,48.372 18.37,15.074 32.117,15.624 57.16,16.628 25.691,1.029 40.915,5.719 53.148,9.487 10.069,3.103 28.625,11.042 35.328,13.956 -2.581,-11.317 -12.218,-56.088 -9.94,-84.172 1.882,-23.202 3.471,-30.627 4.491,-33.103 -3.326,-5.66 -26.253,-44.739 -31.242,-55.097 l -0.546,-1.13 c -5.883,-12.171 -21.509,-44.499 -19.587,-74.534 1.966,-30.706 9.415,-51.774 23.443,-66.304 15.3,-15.85 33.507,-24.571 51.287,-24.571 0.065,0 0.129,10e-4 0.193,10e-4 3.412,0.012 6.69,0.043 9.858,0.075 14.375,0.139 26.783,0.258 38.937,-1.657 16.112,-2.536 26.614,-5.148 33.049,-8.217 1.631,-0.778 3.723,-1.993 5.937,-3.28 l 1.008,-0.584 c 12.312,-7.13 21.65,-14.456 38.428,-30.152 15.63,-14.622 31.19,-42.839 31.345,-43.122 0.244,-0.445 0.709,-0.708 1.196,-0.708 0.129,0 0.26,0.018 0.39,0.057 0.615,0.183 1.019,0.771 0.969,1.412 -0.106,1.367 -2.718,33.672 -12.743,49.748 -10.524,16.875 -28.929,30.655 -36.353,35.797 -5.569,3.856 -12.6,7.972 -20.336,11.904 -19.563,9.938 -61.583,18.62 -73.996,21.044 -11.898,2.324 -25.911,10.558 -29.557,26.699 -3.277,14.507 2.107,35.401 5.717,43.364 8.655,19.09 22.553,38.938 36.668,56.968 3.609,-1.508 16.52,-6.439 31.045,-6.439 0.327,0 0.657,0.002 0.985,0.006 19.912,0.311 67.436,8.373 104.787,36.666 21.746,16.472 48.087,37.303 74.333,58.779 -0.636,-9.086 -1.734,-16.467 -2.481,-20.772 -2.173,-12.512 -5.879,-25.59 -9.147,-37.127 -2.159,-7.618 -4.198,-14.813 -5.606,-21.119 -3.139,-14.053 -8.114,-52.058 -2.447,-73.451 4.46,-16.836 13.784,-39.824 32.88,-53.736 16.574,-12.074 38.67,-20.022 65.677,-23.623 25.822,-3.443 65.79,0.116 94.973,2.713 l 0.327,0.029 c 5.295,0.472 10.825,1.037 16.171,1.585 l 2.894,0.295 c 21.32,2.172 47.855,4.873 68.852,0.401 13.715,-2.922 24.533,-9.82 30.456,-19.427 4.361,-7.071 5.599,-14.895 3.578,-22.627 -2.733,-10.455 -10.315,-20.036 -21.927,-27.707 -0.805,-0.532 -1.566,-1.034 -1.206,-2.061 0.206,-0.59 0.803,-0.968 1.42,-0.912 0.367,0.032 37.179,4.224 48.225,26.442 10.505,21.129 9.807,41.884 -1.916,56.943 -5.959,7.655 -14.307,16.252 -31.042,21.985 -36.82,12.611 -62.637,13.442 -94.786,10.618 -6.394,-0.562 -13.008,-1.188 -20.011,-1.851 -26.5,-2.509 -53.905,-5.102 -69.274,-4.152 -18.201,1.128 -33.005,5.986 -44,14.44 -24.964,19.192 -21.95,43.252 -17.931,55.887 1.659,5.217 4.605,13.147 8.016,22.328 9.448,25.434 22.388,60.267 26.901,86.597 2.587,15.089 5.744,33.554 4.588,55.716 2.625,0.778 15.687,4.304 28.049,1.498 13.73,-3.116 21.524,-6.192 24.241,-8.031 22.684,-15.359 20.541,-33.821 20.439,-34.596 -0.001,-0.008 0,-0.015 -0.001,-0.023 -0.006,-0.046 -0.004,-0.092 -0.005,-0.138 -0.001,-0.045 -0.004,-0.09 -0.001,-0.135 0.003,-0.039 0.013,-0.077 0.019,-0.116 0.009,-0.049 0.015,-0.099 0.029,-0.147 0.01,-0.033 0.025,-0.064 0.037,-0.097 0.018,-0.049 0.035,-0.099 0.058,-0.146 0.017,-0.033 0.04,-0.062 0.059,-0.094 0.026,-0.043 0.05,-0.086 0.081,-0.125 0.025,-0.032 0.054,-0.059 0.082,-0.088 0.032,-0.035 0.062,-0.071 0.097,-0.102 0.03,-0.025 0.065,-0.047 0.097,-0.07 0.04,-0.03 0.078,-0.06 0.121,-0.084 0.031,-0.019 0.067,-0.032 0.102,-0.048 0.048,-0.023 0.095,-0.046 0.146,-0.063 0.007,-0.003 0.012,-0.006 0.019,-0.008 0.013,-0.004 0.028,-0.002 0.042,-0.006 0.06,-0.018 0.121,-0.036 0.185,-0.045 0.059,-0.008 0.118,-0.012 0.177,-0.012 0.002,0 0.004,-10e-4 0.007,-10e-4 0.157,0 0.308,0.032 0.452,0.083 0.05,0.018 0.092,0.047 0.138,0.07 0.09,0.043 0.176,0.089 0.255,0.152 0.047,0.038 0.085,0.082 0.127,0.126 0.063,0.065 0.121,0.133 0.17,0.211 0.037,0.056 0.063,0.116 0.09,0.177 0.02,0.046 0.052,0.084 0.068,0.133 14.07,44.47 -24.488,59.122 -28.93,60.647 -18.741,6.43 -33.765,6.559 -41.049,6.061 -3.948,-0.268 -6.715,-0.7 -8.283,-0.999 -1.465,7.746 -3.515,15.866 -6.307,24.372 -2.292,6.987 -6.795,15.639 -8.866,19.465 2.577,0.159 7.249,0.654 13.63,2.141 2.067,-0.505 13.219,-3.021 29.647,-3.021 15.518,0 35.745,2.246 57.462,10.553 32.521,12.439 51.154,27.236 59.793,35.487 -2.017,-4.157 -4.065,-8.198 -6.073,-12.138 -6.468,-12.691 -12.577,-24.679 -15.509,-37.226 -4.051,-17.337 -2.754,-49.926 17.97,-63.569 9.007,-5.93 24.454,-12.93 47.084,-12.597 l 0.113,0.002 c 14.534,0.212 39.256,5.64 41.541,39.601 0.008,0.119 0,0.236 -0.022,0.348 0.103,0.537 -0.124,1.106 -0.614,1.413 -0.637,0.399 -1.479,0.209 -1.881,-0.43 -16.15,-25.731 -55.312,-15.452 -55.696,-15.331 -10.004,3.116 -21.151,10.584 -17.443,28.459 2.094,10.101 12.172,20.834 21.064,30.305 4.503,4.797 8.757,9.327 11.917,13.62 0.511,0.696 1.065,1.439 1.654,2.231 10.453,14.051 32.206,43.29 28.443,80.02 -2.008,19.595 -10.579,36.448 -23.438,48.345 0.097,5.585 0.463,49.821 -10.762,89.267 -12.272,43.131 -10.868,83.939 3.576,103.963 12.273,17.019 27.381,27.011 42.54,28.135 6.763,0.504 13.204,-2.103 17.232,-6.967 3.736,-4.51 4.932,-10.225 3.362,-16.091 -3.256,-12.182 -14.113,-20.636 -14.221,-20.72 -0.486,-0.373 -0.663,-1.022 -0.436,-1.589 0.228,-0.567 0.806,-0.914 1.412,-0.848 16.973,1.835 26.959,14.79 30.356,25.327 6.828,21.187 -4.498,32.815 -15.202,38.839"
             style="fill:#000000;fill-opacity:1;fill-rule:nonzero;stroke:none"
             id="path4316" /></g><g
           id="g4318"
           transform="translate(522.5412,882.651)"><path
             d="m 0,0 c 0.752,-0.449 2.304,-1.917 4.021,-4.27 l 2.132,-3.012 c 1.441,-2.079 2.951,-4.19 4.543,-6.293 0.051,-0.066 0.102,-0.131 0.152,-0.197 -2.615,-1.927 -4.384,-5.579 -4.384,-9.776 0,-6.201 3.855,-11.228 8.61,-11.228 3.884,0 7.164,3.356 8.237,7.964 1.616,-1.232 6.274,-4.106 10.088,-4.761 1.531,-0.262 3.243,0.053 4.413,0.917 -1.429,0.271 -2.447,1.007 -3.347,1.785 -0.891,0.807 -1.678,1.712 -2.42,2.693 -1.488,1.933 -2.867,4.011 -4.251,6.129 -2.779,4.224 -5.587,8.568 -8.804,12.779 -1.608,2.107 -3.304,4.2 -5.2,6.224 -0.968,1.007 -1.924,2.027 -3.042,2.995 C 9.699,2.907 8.319,3.965 6.86,4.815 6.477,5.022 6.093,5.225 5.704,5.41 L 5.123,5.685 4.484,5.905 3.217,6.314 C 2.8,6.45 2.321,6.478 1.882,6.553 1.003,6.716 0.083,6.69 -0.8,6.64 -1.241,6.612 -1.678,6.495 -2.105,6.419 -2.535,6.343 -2.951,6.242 -3.347,6.072 -4.963,5.52 -6.325,4.605 -7.401,3.524 -8.484,2.456 -9.326,1.216 -9.841,-0.134 -7.208,0.929 -4.638,1.442 -2.606,1.032 -1.597,0.851 -0.747,0.514 0,0"
             style="fill:#000000;fill-opacity:1;fill-rule:nonzero;stroke:none"
             id="path4320" /></g><g
           id="g4322"
           transform="translate(655.6232,886.8009)"><path
             d="m 0,0 c 1.936,1.912 3.977,3.623 6.087,5.155 4.249,3.059 8.944,4.795 14.144,6.129 3.754,0.962 9.282,1.84 16.466,1.041 5.464,-0.608 11.071,-2.121 15.872,-5.68 -1.53,2.595 -3.84,4.746 -6.378,6.506 -2.553,1.773 -5.413,3.106 -8.384,4.147 -5.984,1.938 -12.383,2.493 -18.603,2.086 C 16.049,19.223 12.69,18.626 9.561,17.582 6.395,16.571 3.398,15.085 0.622,13.361 -2.161,11.637 -4.674,9.602 -7.025,7.498 -9.357,5.366 -11.485,3.109 -13.52,0.845 c -8.037,-9.14 -14.339,-18.719 -22.477,-26.148 -4.117,-3.655 -8.543,-7.137 -13.518,-9.471 -2.47,-1.237 -5.094,-2.143 -7.842,-2.675 -0.686,-0.133 -1.381,-0.198 -2.085,-0.307 -0.696,-0.033 -1.417,-0.134 -2.125,-0.105 -1.438,-0.038 -2.884,0.111 -4.329,0.495 1.185,-0.935 2.616,-1.552 4.074,-2.05 0.635,-0.238 2.691,-0.732 4.572,-0.936 3.121,-0.337 6.326,-0.003 9.388,0.73 l 1.16,0.264 1.125,0.348 c 0.749,0.236 1.511,0.462 2.26,0.714 l 2.18,0.886 c 0.733,0.295 1.462,0.598 2.15,0.964 1.392,0.7 2.828,1.379 4.13,2.217 1.326,0.814 2.693,1.578 3.96,2.513 5.165,3.597 9.607,7.969 13.674,12.401 2.037,2.22 3.953,4.493 5.873,6.705 1.887,2.239 3.746,4.444 5.634,6.555 C -3.859,-3.917 -1.957,-1.887 0,0"
             style="fill:#000000;fill-opacity:1;fill-rule:nonzero;stroke:none"
             id="path4324" /></g><g
           id="g4326"
           transform="translate(590.9411,760.1544)"><path
             d="m 0,0 c -3.864,-0.984 -7.861,-1.783 -11.663,-2.203 -3.858,-0.374 -7.749,-0.464 -11.675,-0.176 -7.868,0.566 -15.786,2.404 -23.979,5.413 2.703,-3.523 6.312,-6.248 10.171,-8.497 3.887,-2.23 8.167,-3.856 12.627,-4.825 2.227,-0.504 4.504,-0.801 6.794,-0.973 2.292,-0.121 4.598,-0.135 6.891,0.061 2.282,0.187 4.6,0.56 6.755,1.035 1.098,0.211 2.187,0.467 3.27,0.753 1.087,0.266 2.159,0.591 3.23,0.918 2.147,0.635 4.255,1.407 6.323,2.27 1.043,0.408 2.051,0.903 3.076,1.351 1.009,0.486 2.001,1.008 2.994,1.52 3.941,2.12 18.603,12.755 23.336,20.727 C 23.575,8.53 7.747,1.999 0,0"
             style="fill:#000000;fill-opacity:1;fill-rule:nonzero;stroke:none"
             id="path4328" /></g><g
           id="g4330"
           transform="translate(655.2624,883.2047)"><path
             d="m 0,0 c -10.264,0 -18.585,-9.168 -18.585,-20.479 0,-11.311 8.321,-20.479 18.585,-20.479 10.264,0 18.585,9.168 18.585,20.479 C 18.585,-9.168 10.264,0 0,0"
             style="fill:#000000;fill-opacity:1;fill-rule:nonzero;stroke:none"
             id="path4332" /></g></g></g></g></svg>
