<?xml version="1.0" encoding="UTF-8" standalone="no"?>
<svg
   xmlns:dc="http://purl.org/dc/elements/1.1/"
   xmlns:cc="http://creativecommons.org/ns#"
   xmlns:rdf="http://www.w3.org/1999/02/22-rdf-syntax-ns#"
   xmlns:svg="http://www.w3.org/2000/svg"
   xmlns="http://www.w3.org/2000/svg"
   xmlns:sodipodi="http://sodipodi.sourceforge.net/DTD/sodipodi-0.dtd"
   xmlns:inkscape="http://www.inkscape.org/namespaces/inkscape"
   version="1.1"
   id="svg4442"
   xml:space="preserve"
   width="1600"
   height="1600"
   viewBox="0 0 1600 1600"
   sodipodi:docname="octo_icon4.svg"
   inkscape:version="1.0.2 (e86c870879, 2021-01-15, custom)"><metadata
     id="metadata4448"><rdf:RDF><cc:Work
         rdf:about=""><dc:format>image/svg+xml</dc:format><dc:type
           rdf:resource="http://purl.org/dc/dcmitype/StillImage" /><dc:title></dc:title></cc:Work></rdf:RDF></metadata><defs
     id="defs4446"><clipPath
       clipPathUnits="userSpaceOnUse"
       id="clipPath4458"><path
         d="M 0,1200 H 1200 V 0 H 0 Z"
         id="path4456" /></clipPath></defs><sodipodi:namedview
     pagecolor="#ffffff"
     bordercolor="#666666"
     borderopacity="1"
     objecttolerance="10"
     gridtolerance="10"
     guidetolerance="10"
     inkscape:pageopacity="0"
     inkscape:pageshadow="2"
     inkscape:window-width="691"
     inkscape:window-height="480"
     id="namedview4444"
     showgrid="false"
     inkscape:zoom="0.459375"
     inkscape:cx="800"
     inkscape:cy="800"
     inkscape:window-x="0"
     inkscape:window-y="0"
     inkscape:window-maximized="0"
     inkscape:current-layer="g4450" /><g
     id="g4450"
     inkscape:groupmode="layer"
     inkscape:label="octo"
     transform="matrix(1.3333333,0,0,-1.3333333,0,1600)"><g
       id="g4452"><g
         id="g4454"
         clip-path="url(#clipPath4458)"><g
           id="g4460"
           transform="translate(1018.8846,271.6964)"><path
             d="m 0,0 c -11.146,14.318 -26.05,23.151 -64.081,30.395 -38.031,7.244 -78.499,-2.624 -109.879,-4.291 -31.38,-1.668 -63.238,-1.677 -84.433,14.617 -21.195,16.294 -24.457,38.129 -18.365,57.276 6.091,19.149 30.061,72.318 34.809,108.543 4.143,31.609 9.81,62.15 -4.543,103.227 -3.132,8.961 -9.822,21.139 -9.822,21.139 0,0 9.865,-0.2 26.07,5.136 16.204,5.336 29.654,15.292 36.974,22.053 7.321,6.76 32.862,37.225 44.566,50.084 11.704,12.858 31.682,28.391 48.873,23.878 17.192,-4.514 19.986,-30.138 10.618,-50.856 -9.367,-20.719 -20.512,-37.784 -24.797,-56.137 -4.285,-18.352 -2.142,-49.175 17.367,-62.024 14.667,-9.66 55.146,-19.39 75.506,-2.357 13.906,11.633 11.278,28.415 11.278,28.415 0,0 -14.22,-25.914 -57.453,-15.548 -14.353,3.442 -21.551,14.477 -18.334,29.969 3.217,15.491 23.614,31.384 33.167,44.354 9.551,12.969 33.705,42.949 29.798,81.117 -3.905,38.169 -32.298,63.678 -66.19,65.432 -33.893,1.754 -46.578,-4.821 -67.108,-21.356 -20.528,-16.534 -47.796,-46.458 -92.921,-56.222 -45.124,-9.765 -53.29,33.234 -38.565,56.162 14.726,22.928 52.352,40.768 62.038,47.808 9.688,7.04 52.166,40.419 63.068,84.784 10.902,44.365 13.517,99.778 -49.109,140.939 -62.626,41.159 -135.787,30.736 -171.591,15.706 -35.803,-15.03 -80.973,-53.981 -106.202,-95.888 -30.229,-50.216 -39.104,-95.933 -45.684,-119.996 -5.789,-21.17 -13.139,-68.212 -26.607,-96.672 -12.184,-25.75 -33.625,-48.625 -83.521,-71.968 -49.898,-23.342 -115.301,-42.287 -129.923,-59.37 -17.471,-20.41 -33.103,-46.395 -24.603,-88.606 8.5,-42.212 38.646,-75.673 46.746,-90.276 8.101,-14.605 21.155,-38.475 13.658,-53.831 -7.498,-15.356 -28.142,-20.751 -44.177,-20.386 -16.035,0.366 -31.599,12.504 -39.565,25.838 -7.965,13.335 -23.183,50.839 -23.183,50.839 0,0 -2.393,-8.07 1.73,-30.661 4.122,-22.592 17.667,-52.628 38.491,-62.519 20.823,-9.891 52.796,-19.764 90.258,-0.843 37.462,18.921 26.615,77.524 14.534,96.291 -8.175,12.699 -33.921,55.498 -37.007,70.553 -3.086,15.055 -4.493,34.239 14.221,49.58 18.716,15.341 32.423,15.867 57.877,16.875 25.454,1.008 71.502,0.562 124.456,9.757 -11.669,-67.287 -39.457,-105.205 -39.457,-105.205 0,0 -26.69,-44.277 -31.982,-55.272 -5.293,-10.995 -21.918,-44.256 -19.954,-74.875 1.963,-30.617 9.32,-51.142 23.028,-65.344 13.708,-14.202 31.287,-24.188 50.408,-24.124 19.121,0.062 34.033,0.742 48.927,-1.607 14.895,-2.348 26.198,-5.335 33.366,-8.326 15.402,-6.429 37.048,-23.944 47.768,-35.264 8.757,-9.245 28.896,-39.859 28.896,-39.859 0.002,-0.023 -1.46,31.886 -12.434,48.091 -10.975,16.204 -20.372,23.173 -25.734,27.019 -10e-4,10e-4 -10e-4,10e-4 -0.003,0.002 -5.307,3.943 -16.465,11.779 -29.868,18.587 -18.799,9.549 -59.528,18.148 -73.5,20.875 -13.971,2.727 -27.102,12.343 -30.567,27.682 -3.465,15.338 2.709,36.648 5.795,44.143 3.087,7.496 24.678,45.668 30.143,51.92 2.714,3.104 29.489,34.168 40.219,49.37 4.652,6.978 41.108,51.622 51.08,75.217 9.972,23.595 26.142,70.497 58.332,72.096 35.794,1.778 44.193,-11.549 54.353,-24.666 10.16,-13.118 18.976,-58.421 12.548,-97.79 -3.386,-20.734 -11.185,-42.293 -14.739,-58.203 -3.554,-15.909 -8.691,-52.948 -2.455,-72.671 6.237,-19.723 15.405,-40.573 32.306,-52.886 16.901,-12.313 39.215,-19.901 64.936,-23.331 25.72,-3.429 65.535,0.137 94.825,2.744 6.205,0.552 12.576,1.219 19.011,1.874 23.941,2.439 48.758,4.722 69.148,0.378 25.87,-5.51 39.936,-24.779 35.004,-43.652 -4.933,-18.873 -23.698,-28.977 -23.11,-28.924 0.59,0.052 36.462,4.37 47.04,25.645 C 12.347,-34.123 11.146,-14.318 0,0"
             style="fill:#9170b0;fill-opacity:1;fill-rule:nonzero;stroke:none"
             id="path4462" /></g><g
           id="g4464"
           transform="translate(1018.1512,217.5577)"><path
             d="m 0,0 c -6.236,-12.53 -22.301,-18.835 -33.396,-21.81 9.158,8.407 13.047,16.897 14.671,23.12 2.28,8.734 0.833,17.906 -4.052,25.821 -6.512,10.563 -18.262,18.124 -33.07,21.264 -20.034,4.339 -43.536,2.374 -70.027,-0.301 -6.415,-0.682 -12.775,-1.337 -18.956,-1.883 -29.003,-2.594 -68.677,-6.25 -94.212,-2.757 -26.272,3.493 -47.686,11.191 -63.653,22.818 -17.483,12.721 -26.232,35.457 -31.294,51.48 -5.718,18.044 -1.489,53.255 2.511,71.216 1.351,6.032 3.344,12.991 5.459,20.362 3.372,11.764 7.207,25.085 9.307,37.996 6.306,38.596 -1.855,85.434 -13.087,99.956 l -1.42,1.828 c -9.704,12.611 -19.557,25.604 -55.287,23.911 -31.117,-1.555 -47.291,-40.998 -57.99,-67.091 -0.983,-2.376 -1.897,-4.641 -2.784,-6.716 -7.602,-17.986 -30.939,-48.532 -43.483,-64.937 -3.616,-4.749 -6.277,-8.215 -7.287,-9.745 -11.233,-15.885 -39.77,-48.83 -40.043,-49.158 -5.704,-6.496 -27.364,-44.765 -30.626,-52.682 -2.933,-7.123 -9.69,-29.206 -5.95,-45.828 4.081,-18.07 19.599,-27.241 32.769,-29.835 8.72,-1.692 53.239,-10.699 72.77,-20.58 13.061,-6.66 24.074,-14.357 29.506,-18.371 4.559,-3.275 14.043,-10.071 25.043,-26.312 6.539,-9.663 9.568,-25.33 10.92,-35.812 -6.702,9.853 -17.211,24.894 -23.026,31.034 -11.75,12.42 -33.722,29.699 -48.722,35.922 -7.874,3.303 -19.638,6.25 -34.01,8.517 -9.39,1.474 -18.82,1.774 -29.11,1.774 -3.344,0 -6.77,-0.027 -10.319,-0.055 l -9.949,-0.082 h -0.136 c -16.637,0 -33.779,8.271 -48.258,23.285 -13.267,13.756 -20.335,33.954 -22.246,63.598 -1.858,28.878 13.402,60.459 19.147,72.361 l 0.546,1.119 c 5.172,10.755 31.594,54.59 31.718,54.809 0.942,1.301 19.385,27.335 32.423,73.775 0.379,1.326 0.769,2.634 1.131,3.963 2.379,8.922 13.12,46.906 7.517,82.275 -0.064,-17.145 -2.724,-34.03 -6.124,-50.647 -42.986,-7.303 -81.768,-8.355 -107.512,-9.028 -5.488,-0.136 -10.442,-0.273 -14.796,-0.436 -25.862,-1.009 -40.11,-1.582 -59.546,-17.523 -19.651,-16.105 -18.437,-36.413 -15.188,-52.301 3.33,-16.212 30.775,-61.222 37.394,-71.486 7.616,-11.818 14.794,-40.642 8.476,-63.981 -3.603,-13.265 -10.973,-22.792 -21.904,-28.333 -28.007,-14.165 -56.721,-13.866 -87.812,0.874 -19.489,9.28 -32.808,37.887 -36.943,60.513 -1.325,7.317 -1.966,13.048 -2.211,17.443 5.172,-12.229 13.292,-30.789 18.518,-39.523 7.904,-13.266 23.926,-26.833 41.9,-27.216 0.505,-0.027 1.011,-0.027 1.529,-0.027 16.255,0 37.272,5.706 45.228,21.975 8.217,16.814 -5.526,41.598 -13.73,56.42 -2.018,3.631 -5.213,8.188 -9.238,13.947 -12.297,17.551 -30.872,44.056 -37.205,75.5 -8.366,41.571 7.425,66.929 23.979,86.227 8.789,10.264 38.869,22.028 70.709,34.475 19.585,7.67 39.827,15.585 58.278,24.211 45.161,21.127 70.545,43.044 84.861,73.289 9.759,20.608 16.188,50.088 21.346,73.78 2.032,9.335 3.794,17.361 5.431,23.365 0.915,3.358 1.869,7.124 2.934,11.246 6.619,25.958 16.624,65.126 42.445,108.036 23.665,39.333 67.776,79.157 104.883,94.771 32.975,13.838 105.649,26.149 168.988,-15.504 62.439,-40.998 58.413,-95.234 47.918,-137.925 -10.85,-44.165 -53.541,-77.03 -62.002,-83.17 -2.156,-1.584 -6.032,-3.876 -10.509,-6.525 -15.177,-8.952 -40.589,-23.938 -52.216,-42.062 -9.268,-14.412 -9.486,-35.021 -0.519,-47.958 4.845,-6.988 16.746,-17.96 42.008,-12.42 37.981,8.217 63.885,30.735 82.787,47.167 4.014,3.493 7.766,6.77 11.3,9.608 19.585,15.75 31.828,22.327 65.211,20.745 33.819,-1.748 59.955,-27.624 63.558,-62.918 3.589,-35.046 -17.498,-63.352 -27.625,-76.972 l -1.651,-2.211 c -3.002,-4.094 -7.179,-8.544 -11.587,-13.238 -9.252,-9.827 -19.734,-20.992 -22.068,-32.209 -3.452,-16.677 4.381,-29.425 20.431,-33.274 30.789,-7.396 47.481,2.813 55.192,10.29 -0.777,-5.322 -3.222,-12.473 -10.153,-18.26 -18.659,-15.695 -57.335,-7.289 -72.17,2.539 -18.931,12.446 -19.982,42.827 -16.202,59.039 2.812,12.038 8.803,23.776 15.137,36.223 3.153,6.167 6.413,12.582 9.498,19.406 6.551,14.494 7.342,31.062 2.034,42.2 -3.098,6.496 -8.121,10.837 -14.495,12.5 -21.848,5.761 -45.078,-17.441 -51.642,-24.702 -4.477,-4.913 -10.946,-12.365 -17.66,-20.117 -10.468,-12.037 -22.315,-25.712 -26.737,-29.78 -3.794,-3.493 -17.633,-15.422 -35.961,-21.454 -12.478,-4.118 -20.725,-4.853 -23.702,-4.966 -3.161,6.459 -6.742,12.72 -11.202,18.369 l -24.707,32.853 c -3.794,5.611 -7.854,11.218 -10.949,17.2 -2.465,6.309 -3.85,13.098 -4.88,19.863 0.582,-13.765 5.452,-27.268 12.966,-38.921 6.964,-11.983 15.478,-22.889 23.21,-34.066 4.412,-6.195 8.152,-12.713 11.613,-19.415 0.005,-0.01 -0.006,-0.024 0,-0.034 10e-4,-0.005 0.139,-0.263 0.157,-0.297 2.656,-5.167 5.19,-10.409 7.538,-15.863 0.821,-1.734 1.387,-3.571 2.148,-5.329 12.761,-37.054 9.099,-64.891 5.129,-94.298 l -0.915,-6.907 c -3.413,-26.012 -16.718,-60.486 -26.436,-85.653 -3.534,-9.172 -6.592,-17.087 -8.27,-22.383 -7.383,-23.227 -0.342,-45.229 19.325,-60.351 22.191,-17.06 54.755,-16.84 86.281,-15.175 9.417,0.491 19.545,1.719 30.258,3.003 24.661,2.947 52.613,6.304 78.953,1.309 38.813,-7.369 52.27,-16.35 62.396,-29.369 C 9.362,38.486 9.881,19.871 0,0 m 2.947,55.846 c -10.959,14.057 -25.219,23.72 -65.782,31.445 -27.158,5.104 -55.587,1.72 -80.658,-1.284 -10.617,-1.282 -20.65,-2.483 -29.888,-2.975 -30.408,-1.665 -61.908,-1.855 -82.571,14.03 -24.225,18.617 -21.303,41.982 -17.413,54.237 1.637,5.132 4.667,12.965 8.161,22.055 9.825,25.44 23.269,60.268 26.764,86.964 l 0.915,6.879 c 3.901,28.959 7.942,58.905 -5.597,97.636 -2.103,6.005 -5.69,13.294 -7.956,17.688 4.544,0.436 12.282,1.666 22.435,5.021 18.876,6.197 32.866,17.906 38.01,22.656 4.64,4.286 16.091,17.47 27.16,30.218 6.686,7.697 13.129,15.121 17.578,20.007 12.461,13.729 31.198,27.103 46.087,23.064 4.806,-1.255 8.464,-4.449 10.879,-9.498 4.558,-9.582 3.711,-24.649 -2.101,-37.505 -3.03,-6.687 -6.252,-13.047 -9.376,-19.162 -6.497,-12.746 -12.626,-24.785 -15.587,-37.503 -4.135,-17.661 -2.743,-50.933 18.548,-64.965 15.491,-10.235 57.307,-20.198 78.83,-2.184 14.957,12.503 12.365,30.245 12.241,31.01 -0.177,1.174 -1.092,2.1 -2.266,2.318 -1.172,0.246 -2.346,-0.381 -2.933,-1.392 -0.546,-0.982 -13.854,-23.938 -54.347,-14.193 -13.197,3.14 -19.119,12.884 -16.254,26.668 2.007,9.69 11.915,20.227 20.649,29.534 4.546,4.83 8.817,9.39 12.025,13.73 l 1.638,2.211 c 10.549,14.167 32.508,43.644 28.702,80.848 -3.904,38.133 -32.209,66.058 -68.828,67.941 -35.429,1.966 -48.762,-5.652 -69.017,-21.947 -3.589,-2.892 -7.383,-6.195 -11.449,-9.744 -19.491,-16.924 -43.73,-38.022 -80.306,-45.938 -16.621,-3.467 -29.124,-0.055 -36.233,10.154 -7.753,11.191 -7.493,29.124 0.614,41.762 10.917,16.977 35.606,31.553 50.36,40.262 4.803,2.838 8.599,5.075 10.959,6.795 8.734,6.332 52.831,40.317 64.145,86.391 10.071,40.972 15.832,100.502 -50.292,143.931 -65.277,42.908 -140.231,30.216 -174.202,15.94 -38.09,-15.995 -83.291,-56.803 -107.503,-97.009 -26.259,-43.618 -36.385,-83.278 -43.087,-109.537 -1.05,-4.094 -2.007,-7.835 -2.92,-11.165 -1.665,-6.14 -3.439,-14.248 -5.486,-23.637 -5.105,-23.42 -11.465,-52.544 -20.936,-72.58 -13.718,-28.961 -38.296,-50.086 -82.187,-70.614 -18.287,-8.571 -38.446,-16.459 -57.935,-24.074 -33.929,-13.266 -63.231,-24.703 -72.935,-36.029 -17.427,-20.363 -34.051,-47.06 -25.206,-90.978 6.577,-32.619 25.547,-59.695 38.104,-77.629 3.78,-5.405 7.056,-10.045 8.938,-13.456 7.18,-12.938 20.528,-37.041 13.594,-51.234 -7.043,-14.412 -26.886,-19.243 -41.598,-18.834 -15.764,0.354 -30.353,12.937 -37.232,24.511 -7.765,12.965 -22.846,50.06 -22.997,50.443 -0.45,1.064 -1.624,1.747 -2.729,1.72 -1.187,-0.055 -2.211,-0.847 -2.538,-1.994 -0.11,-0.355 -2.539,-8.979 1.666,-31.935 4.367,-24.021 18.764,-54.454 40.028,-64.583 32.754,-15.502 63.094,-15.803 92.722,-0.791 12.42,6.279 20.746,16.979 24.785,31.855 7.056,26.039 -1.296,56.228 -9.17,68.429 -8.748,13.595 -33.684,55.329 -36.604,69.632 -3.126,15.231 -4,32.701 13.252,46.839 17.987,14.741 30.762,15.259 56.214,16.268 4.328,0.165 9.269,0.274 14.728,0.438 25.493,0.627 63.626,1.61 106.165,8.68 -0.046,-0.247 -0.11,-0.454 -0.157,-0.7 -3.985,-17.332 -8.973,-34.429 -15.61,-50.921 -6.206,-17.303 -14.66,-33.678 -23.332,-49.9 -3.655,-6.086 -26.441,-43.999 -31.418,-54.338 l -0.534,-1.092 c -5.922,-12.257 -21.631,-44.792 -19.679,-75.172 1.98,-31.007 9.553,-52.326 23.801,-67.092 15.546,-16.133 34.094,-24.977 52.272,-24.977 h 0.163 l 9.963,0.055 c 14.248,0.11 26.546,0.273 38.515,-1.638 13.743,-2.183 25.371,-5.05 32.727,-8.16 14.331,-5.951 35.457,-22.601 46.812,-34.585 8.488,-8.98 28.388,-39.17 28.592,-39.468 0.532,-0.819 1.406,-1.257 2.335,-1.257 0.286,0 0.587,0.028 0.873,0.138 1.186,0.381 1.979,1.527 1.925,2.784 -0.069,1.365 -1.762,33.028 -12.911,49.514 -11.574,17.087 -21.605,24.266 -26.396,27.704 -5.54,4.095 -16.827,12.012 -30.258,18.835 -19.692,9.989 -61.809,18.697 -74.243,21.099 -11.424,2.239 -24.881,10.154 -28.374,25.603 -3.412,15.095 3.099,36.248 5.649,42.445 2.922,7.069 24.472,45.202 29.672,51.152 0.286,0.301 29.014,33.466 40.439,49.651 1.022,1.528 3.616,4.913 7.124,9.498 12.692,16.624 36.33,47.523 44.204,66.165 0.874,2.103 1.816,4.367 2.798,6.798 10.168,24.784 25.522,62.234 53.092,63.625 32.726,1.611 41.365,-9.744 50.578,-21.727 l 1.433,-1.883 c 9.075,-11.738 18.493,-55.847 11.995,-95.617 -2.059,-12.583 -5.827,-25.74 -9.158,-37.368 -2.141,-7.424 -4.162,-14.465 -5.553,-20.69 -2.976,-13.319 -9.185,-52.599 -2.375,-74.108 5.295,-16.759 14.506,-40.616 33.314,-54.317 16.731,-12.175 39.007,-20.2 66.22,-23.858 26.053,-3.41 66.15,0.137 95.438,2.758 6.211,0.545 12.597,1.201 19.053,1.882 25.973,2.649 49.092,4.504 68.266,0.411 13.308,-2.839 23.776,-9.5 29.48,-18.725 4.148,-6.716 5.323,-14.14 3.412,-21.482 -1.829,-6.989 -7.002,-17.333 -21.25,-26.805 -0.873,-0.573 -2.497,-1.665 -1.829,-3.711 0.41,-1.23 1.625,-1.83 2.935,-1.911 0.368,0.028 37.982,4.503 49.268,27.186 C 15.75,19.105 15,40.369 2.947,55.846"
             style="fill:#000000;fill-opacity:1;fill-rule:nonzero;stroke:none"
             id="path4466" /></g><g
           id="g4468"
           transform="translate(556.2147,850.2941)"><path
             d="M 0,0 C 1.526,-0.262 3.233,0.052 4.399,0.913 2.976,1.183 1.961,1.917 1.063,2.692 0.175,3.497 -0.609,4.4 -1.35,5.377 c -1.483,1.928 -2.858,4 -4.237,6.11 -2.77,4.212 -5.569,8.542 -8.777,12.74 -1.603,2.1 -3.295,4.188 -5.185,6.205 -0.964,1.004 -1.918,2.021 -3.032,2.985 -1.045,0.955 -2.422,2.01 -3.876,2.857 -0.381,0.207 -0.764,0.409 -1.151,0.593 l -0.58,0.275 -0.637,0.219 -1.264,0.409 c -0.415,0.135 -0.893,0.163 -1.329,0.238 -0.878,0.161 -1.795,0.136 -2.675,0.086 -0.439,-0.028 -0.875,-0.144 -1.301,-0.22 -0.428,-0.077 -0.842,-0.177 -1.238,-0.346 -1.611,-0.551 -2.969,-1.463 -4.041,-2.54 -1.079,-1.065 -1.921,-2.301 -2.433,-3.647 2.626,1.06 5.187,1.571 7.212,1.162 1.007,-0.181 1.854,-0.516 2.599,-1.028 0.749,-0.448 2.297,-1.912 4.008,-4.257 l 2.126,-3.004 c 1.436,-2.071 2.942,-4.175 4.528,-6.272 0.051,-0.066 0.103,-0.13 0.152,-0.197 -2.606,-1.92 -4.37,-5.562 -4.37,-9.746 0,-6.182 3.843,-11.193 8.583,-11.193 3.872,0 7.142,3.345 8.211,7.939 C -8.445,3.518 -3.802,0.652 0,0"
             style="fill:#000000;fill-opacity:1;fill-rule:nonzero;stroke:none"
             id="path4470" /></g><g
           id="g4472"
           transform="translate(701.6376,899.0157)"><path
             d="m 0,0 c -2.545,1.767 -5.397,3.097 -8.358,4.134 -5.965,1.933 -12.344,2.486 -18.546,2.079 -3.145,-0.16 -6.493,-0.755 -9.613,-1.796 -3.155,-1.008 -6.143,-2.488 -8.911,-4.208 -2.774,-1.718 -5.28,-3.746 -7.624,-5.845 -2.325,-2.124 -4.445,-4.374 -6.474,-6.632 -8.012,-9.112 -14.295,-18.661 -22.408,-26.067 -4.104,-3.644 -8.517,-7.115 -13.475,-9.441 -2.463,-1.233 -5.079,-2.136 -7.818,-2.667 -0.684,-0.133 -1.377,-0.198 -2.08,-0.307 -0.693,-0.032 -1.412,-0.132 -2.118,-0.104 -1.433,-0.038 -2.875,0.11 -4.314,0.493 1.179,-0.931 2.607,-1.547 4.06,-2.042 0.633,-0.239 2.683,-0.731 4.557,-0.933 3.113,-0.336 6.308,-0.003 9.36,0.728 l 1.157,0.262 1.121,0.346 c 0.747,0.235 1.505,0.46 2.254,0.712 l 2.172,0.884 c 0.731,0.294 1.458,0.596 2.143,0.96 1.388,0.699 2.819,1.376 4.118,2.211 1.322,0.813 2.686,1.572 3.947,2.505 4.732,3.295 8.81,7.263 12.591,11.308 -0.214,-1.241 -0.676,-2.381 -0.676,-3.691 0,-11.276 8.294,-20.416 18.527,-20.416 10.233,0 18.528,9.14 18.528,20.416 0,11.275 -8.295,20.417 -18.528,20.417 -1.358,0 -2.552,-0.546 -3.827,-0.852 1.379,1.522 2.754,3.053 4.187,4.436 1.93,1.905 3.965,3.611 6.068,5.138 4.237,3.051 8.917,4.782 14.101,6.11 3.741,0.961 9.252,1.835 16.413,1.039 C -4.019,-1.429 1.572,-2.938 6.358,-6.486 4.833,-3.899 2.53,-1.754 0,0"
             style="fill:#000000;fill-opacity:1;fill-rule:nonzero;stroke:none"
             id="path4474" /></g><g
           id="g4476"
           transform="translate(579.4813,757.4552)"><path
             d="m 0,0 c -3.847,-0.373 -7.726,-0.463 -11.639,-0.176 -7.843,0.565 -15.738,2.398 -23.906,5.398 2.695,-3.514 6.292,-6.23 10.14,-8.473 3.875,-2.222 8.142,-3.844 12.589,-4.81 2.219,-0.502 4.489,-0.797 6.772,-0.968 2.285,-0.122 4.583,-0.136 6.87,0.06 2.275,0.187 4.585,0.558 6.735,1.032 1.092,0.209 2.18,0.464 3.259,0.75 1.082,0.265 2.153,0.589 3.22,0.916 2.141,0.632 4.243,1.402 6.304,2.263 1.039,0.406 2.045,0.9 3.066,1.346 1.006,0.485 1.994,1.005 2.985,1.516 3.928,2.113 18.544,12.714 23.263,20.663 C 35.129,10.7 19.35,4.188 11.627,2.197 7.773,1.215 3.789,0.419 0,0"
             style="fill:#000000;fill-opacity:1;fill-rule:nonzero;stroke:none"
             id="path4478" /></g></g></g></g></svg>
