<?xml version="1.0" encoding="UTF-8" standalone="no"?>
<svg
   xmlns:dc="http://purl.org/dc/elements/1.1/"
   xmlns:cc="http://creativecommons.org/ns#"
   xmlns:rdf="http://www.w3.org/1999/02/22-rdf-syntax-ns#"
   xmlns:svg="http://www.w3.org/2000/svg"
   xmlns="http://www.w3.org/2000/svg"
   xmlns:sodipodi="http://sodipodi.sourceforge.net/DTD/sodipodi-0.dtd"
   xmlns:inkscape="http://www.inkscape.org/namespaces/inkscape"
   version="1.1"
   id="svg4480"
   xml:space="preserve"
   width="1600"
   height="1600"
   viewBox="0 0 1600 1600"
   sodipodi:docname="octo_icon5.svg"
   inkscape:version="1.0.2 (e86c870879, 2021-01-15, custom)"><metadata
     id="metadata4486"><rdf:RDF><cc:Work
         rdf:about=""><dc:format>image/svg+xml</dc:format><dc:type
           rdf:resource="http://purl.org/dc/dcmitype/StillImage" /><dc:title></dc:title></cc:Work></rdf:RDF></metadata><defs
     id="defs4484"><clipPath
       clipPathUnits="userSpaceOnUse"
       id="clipPath4496"><path
         d="M 0,1200 H 1200 V 0 H 0 Z"
         id="path4494" /></clipPath></defs><sodipodi:namedview
     pagecolor="#ffffff"
     bordercolor="#666666"
     borderopacity="1"
     objecttolerance="10"
     gridtolerance="10"
     guidetolerance="10"
     inkscape:pageopacity="0"
     inkscape:pageshadow="2"
     inkscape:window-width="691"
     inkscape:window-height="480"
     id="namedview4482"
     showgrid="false"
     inkscape:zoom="0.459375"
     inkscape:cx="800"
     inkscape:cy="800"
     inkscape:window-x="0"
     inkscape:window-y="0"
     inkscape:window-maximized="0"
     inkscape:current-layer="g4488" /><g
     id="g4488"
     inkscape:groupmode="layer"
     inkscape:label="octo"
     transform="matrix(1.3333333,0,0,-1.3333333,0,1600)"><g
       id="g4490"><g
         id="g4492"
         clip-path="url(#clipPath4496)"><g
           id="g4498"
           transform="translate(1020.849,272.0382)"><path
             d="m 0,0 c -44.253,78.728 -197.25,-3.494 -259.081,40.824 -72.441,51.926 73.464,188.532 2.084,290.962 45.699,-0.323 78.31,42.818 107.894,77.48 27.144,38.231 89.635,27.122 59.652,-27.058 -19.95,-36.049 -48.383,-98.949 -6.947,-121.906 46.886,-25.978 76.899,13.811 83.347,27.234 -15.427,-8.346 -81.527,-30.349 -72.829,16.794 8.957,48.549 66.098,57.909 63.138,125.802 -4.487,68.973 -95.664,85.904 -133.653,44.189 -100.47,-110.328 -187.493,-33.844 -123.188,5.16 162.143,98.351 152.824,278.798 -3.188,294.745 -63.754,6.517 -127.149,-19.08 -172.655,-64.206 -135.141,-134.013 11.333,-246.7 -317.806,-382.02 -98.124,-40.343 62.078,-186.128 32.092,-242.133 -28.125,-52.53 -99.941,16.892 -107.23,56.438 -7.889,-161.571 241.944,-160.722 119.823,80.68 -21.35,42.204 10.25,56.152 49.993,66.434 63.518,16.432 112.239,45.044 141.163,34.819 67.988,-24.034 -240.784,-337.475 26.81,-363.905 60.326,-5.958 89.681,-45.815 108.955,-79.568 4.719,33.28 -31.237,85.679 -68.224,93.945 -167.837,37.509 -98.25,88.137 -27.976,194.519 37.476,56.733 103.299,172.172 164.198,122.962 50.004,-40.406 -57.826,-215.119 27.731,-282.295 68.322,-72.406 279.163,48.001 283.693,-62.13 0.806,-19.567 -23.777,-29.075 -23.187,-29.023 C -17.996,-86.358 23.412,-41.652 0,0"
             style="fill:#9170b0;fill-opacity:1;fill-rule:nonzero;stroke:none"
             id="path4500" /></g><g
           id="g4502"
           transform="translate(1014.2699,214.5519)"><path
             d="m 0,0 c -7.566,-10.551 -17.873,-17.983 -27.575,-20.497 9.867,7.158 15.14,16.232 14.735,25.852 -0.686,16.779 -5.932,29.077 -15.992,37.66 -23.778,20.276 -70.429,14.481 -119.751,8.469 -58.042,-7.213 -118.192,-14.54 -149.022,18.093 -47.09,37 -33.777,108.164 -22.055,170.965 9.324,49.737 17.358,92.752 -5.631,111.336 -12.62,10.166 -26.34,14.155 -40.718,11.862 -44.543,-7.107 -86.572,-72.149 -117.238,-119.59 -3.639,-5.63 -7.107,-10.986 -10.327,-15.906 -10.28,-15.521 -20.338,-29.567 -30.033,-43.18 -31.463,-44.051 -54.191,-75.805 -43.974,-102.533 8.666,-22.629 40.636,-38.97 103.711,-53.074 31.236,-6.994 64.195,-49.082 66.35,-81.546 -19.836,32.464 -50.062,67.171 -106.196,72.692 -51.024,5.029 -84.388,21.261 -99.172,48.209 -28.784,52.415 14.235,137.353 48.807,205.62 23.311,46.073 41.734,82.421 34.565,100.295 -1.853,4.589 -5.328,7.868 -10.354,9.619 -4.532,1.637 -9.483,2.348 -14.811,2.348 -17.791,0 -40.039,-7.923 -66.57,-17.379 -18.313,-6.505 -39.084,-13.883 -61.435,-19.679 -24.595,-6.393 -48.456,-14.646 -56.27,-31.974 -4.752,-10.491 -3.282,-23.064 4.505,-38.421 55.123,-108.988 28.454,-155.718 14.432,-170.748 -17.433,-18.639 -46.018,-23.558 -72.66,-12.137 -26.106,10.987 -52.968,39.191 -56.195,86.36 12.874,-26.782 43.019,-56.404 69.722,-60.559 16.067,-2.351 28.77,4.426 37.051,19.893 13.087,24.489 -7.155,63.239 -28.633,104.342 -21.162,40.499 -43.018,82.367 -32.719,110.626 4.182,11.421 13.287,19.891 27.878,25.907 208.569,85.755 227.095,161.454 246.719,241.582 11.069,45.202 22.522,91.931 71.988,141.013 46.238,45.857 109.829,69.633 170.411,63.401 61.901,-6.338 103.986,-39.187 115.467,-90.129 12.895,-57.17 -17.194,-141.013 -113.469,-199.442 -16.342,-9.892 -24.815,-23.336 -23.228,-36.839 1.475,-12.57 11.37,-22.954 26.401,-27.765 27.376,-8.909 74.274,1.096 123.548,55.203 18.553,20.331 52.336,27.274 82.315,16.781 27.713,-9.674 44.659,-31.317 46.486,-59.195 1.634,-37.931 -16.068,-57.115 -33.207,-75.644 -12.757,-13.829 -25.955,-28.149 -29.923,-49.573 -2.322,-12.682 0.274,-21.862 7.731,-27.273 14.735,-10.767 44.385,-2.952 60.864,3.715 -6.179,-8.744 -17.001,-19.896 -31.62,-24.541 -13.664,-4.481 -28.227,-2.404 -43.368,6.011 -29.079,16.072 -26.374,55.863 8.033,118.114 12.107,21.863 10.905,40.23 -3.219,49.085 -15.451,9.89 -44.468,4.425 -61.002,-18.859 l -6.97,-8.199 c -27.054,-32.028 -57.685,-68.321 -98.273,-68.321 h -0.514 c -1.044,0 -1.998,-0.546 -2.486,-1.476 -0.467,-0.928 -0.412,-2.077 0.185,-2.894 36.372,-52.2 14.866,-114.014 -4.099,-168.617 -18.114,-51.978 -33.721,-96.906 2.651,-123.033 28.07,-20.06 72.31,-15.195 119.153,-10.055 C -78.428,92.367 -19.844,98.708 4.154,56.13 14.049,38.476 12.518,17.488 0,0 m 9.023,58.862 c -25.75,45.748 -86.174,39.136 -144.649,32.685 -45.724,-4.917 -89.017,-9.781 -115.246,9.074 -33.014,23.613 -18.011,66.734 -0.659,116.637 18.91,54.386 40.285,115.819 6.261,169.327 40.829,2.567 71.11,38.424 97.944,70.178 l 7.079,8.363 c 14.839,20.987 40.23,26.072 53.62,17.6 11.474,-7.214 11.941,-22.41 1.277,-41.65 -36.179,-65.533 -38.15,-107.837 -5.843,-125.762 16.528,-9.128 32.547,-11.151 47.797,-6.451 21.176,6.778 35.061,25.852 39.434,34.981 0.543,1.092 0.296,2.403 -0.569,3.224 -0.879,0.766 -2.191,0.986 -3.282,0.44 -12.085,-6.616 -48.642,-18.64 -63.241,-7.983 -5.575,4.044 -7.402,11.371 -5.493,21.808 3.667,19.786 15.711,32.904 28.503,46.733 17.928,19.402 36.427,39.461 34.683,79.744 -1.937,29.896 -20.717,53.891 -50.236,64.221 -31.915,11.097 -68.294,3.664 -88.289,-18.364 -47.529,-52.144 -92.079,-61.708 -117.676,-53.62 -12.903,4.154 -21.348,12.793 -22.55,23.12 -1.339,11.261 6.179,22.683 20.551,31.376 98.651,59.848 129.343,146.369 116.037,205.506 -11.893,52.635 -56.869,87.946 -120.383,94.448 -61.977,6.176 -127.51,-17.983 -174.903,-65.042 -50.605,-50.174 -62.223,-97.672 -73.485,-143.636 -19.267,-78.707 -37.463,-153.04 -243.415,-237.758 -15.903,-6.502 -26.312,-16.342 -30.988,-29.131 -11.152,-30.608 11.288,-73.568 33.013,-115.11 20.744,-39.732 40.369,-77.281 28.667,-99.144 -7.188,-13.393 -17.873,-18.859 -31.262,-16.998 -29.876,4.645 -65.753,45.473 -70.759,72.582 -0.24,1.422 -1.634,2.132 -2.945,2.297 -1.422,-0.111 -2.548,-1.257 -2.603,-2.678 -2.946,-60.288 28.921,-95.65 59.718,-108.713 28.832,-12.188 59.848,-6.942 78.95,13.554 14.811,15.851 43.183,64.878 -13.555,177.034 -6.941,13.774 -8.39,24.761 -4.374,33.615 6.832,15.137 29.327,22.79 52.584,28.801 22.57,5.905 43.451,13.283 61.867,19.841 33.536,11.917 60.012,21.317 77.673,15.086 3.467,-1.257 5.768,-3.334 7.018,-6.448 6.207,-15.525 -12.594,-52.69 -34.374,-95.65 -35.143,-69.468 -78.896,-155.882 -48.704,-210.92 15.718,-28.64 50.53,-45.803 103.526,-51.049 58.07,-5.74 86.544,-42.743 106.767,-78.161 0.494,-0.93 1.448,-1.421 2.437,-1.421 0.164,0 0.35,0 0.515,0.055 1.174,0.22 2.08,1.146 2.245,2.351 5.137,36.128 -33.014,88.708 -70.374,97.069 -60.205,13.447 -91.88,29.188 -99.667,49.575 -9.159,23.94 12.841,54.712 43.259,97.287 9.758,13.665 19.844,27.769 30.143,43.4 3.255,4.917 6.723,10.276 10.383,15.903 28.4,44 71.328,110.409 113.447,117.131 12.813,1.968 24.843,-1.421 36.317,-10.711 20.359,-16.507 12.628,-57.94 3.633,-105.981 -12.024,-64.332 -25.688,-137.243 23.805,-176.048 32.411,-34.436 93.954,-26.838 153.445,-19.57 47.99,5.904 93.466,11.481 115.439,-7.158 8.83,-7.488 13.417,-18.475 14.049,-33.615 0.597,-14.265 -14.571,-23.01 -21.101,-26.127 -1.229,-0.601 -2.355,-2.238 -1.998,-3.498 0.275,-1.037 1.154,-1.858 2.191,-2.023 14.041,-2.894 32.169,6.943 43.855,23.284 13.829,19.295 15.505,42.525 4.491,62.09"
             style="fill:#000000;fill-opacity:1;fill-rule:nonzero;stroke:none"
             id="path4504" /></g></g></g></g></svg>
