<?xml version="1.0" encoding="UTF-8" standalone="no"?>
<svg
   xmlns:dc="http://purl.org/dc/elements/1.1/"
   xmlns:cc="http://creativecommons.org/ns#"
   xmlns:rdf="http://www.w3.org/1999/02/22-rdf-syntax-ns#"
   xmlns:svg="http://www.w3.org/2000/svg"
   xmlns="http://www.w3.org/2000/svg"
   xmlns:sodipodi="http://sodipodi.sourceforge.net/DTD/sodipodi-0.dtd"
   xmlns:inkscape="http://www.inkscape.org/namespaces/inkscape"
   version="1.1"
   id="svg4404"
   xml:space="preserve"
   width="1600"
   height="1600"
   viewBox="0 0 1600 1600"
   sodipodi:docname="octo_icon3.svg"
   inkscape:version="1.0.2 (e86c870879, 2021-01-15, custom)"><metadata
     id="metadata4410"><rdf:RDF><cc:Work
         rdf:about=""><dc:format>image/svg+xml</dc:format><dc:type
           rdf:resource="http://purl.org/dc/dcmitype/StillImage" /><dc:title></dc:title></cc:Work></rdf:RDF></metadata><defs
     id="defs4408"><clipPath
       clipPathUnits="userSpaceOnUse"
       id="clipPath4420"><path
         d="M 0,1200 H 1200 V 0 H 0 Z"
         id="path4418" /></clipPath></defs><sodipodi:namedview
     pagecolor="#ffffff"
     bordercolor="#666666"
     borderopacity="1"
     objecttolerance="10"
     gridtolerance="10"
     guidetolerance="10"
     inkscape:pageopacity="0"
     inkscape:pageshadow="2"
     inkscape:window-width="689"
     inkscape:window-height="480"
     id="namedview4406"
     showgrid="false"
     inkscape:zoom="0.459375"
     inkscape:cx="800"
     inkscape:cy="800"
     inkscape:window-x="0"
     inkscape:window-y="0"
     inkscape:window-maximized="0"
     inkscape:current-layer="g4412" /><g
     id="g4412"
     inkscape:groupmode="layer"
     inkscape:label="octo"
     transform="matrix(1.3333333,0,0,-1.3333333,0,1600)"><g
       id="g4414"><g
         id="g4416"
         clip-path="url(#clipPath4420)"><g
           id="g4422"
           transform="translate(696.4371,530.1427)"><path
             d="m 0,0 c -6.901,-3.828 -26.885,-15.259 -37.459,-24.993 -12.903,-11.877 -44.537,-31.831 -62.002,-38.166 -17.465,-6.337 -28.481,-9.804 -40.787,-10.186 -11.425,-0.354 -18.535,2.316 -19.407,2.635 -0.009,-0.007 -0.032,-0.033 -0.04,-0.042 12.85,17.01 30.229,40.888 36.668,56.122 9.993,23.644 26.196,70.643 58.452,72.244 35.868,1.782 44.284,-11.572 54.463,-24.717 C -4.421,25.549 0.744,7.999 3.16,-12.833 1.888,-8.619 0.724,-4.363 0,0 m -197.966,-119.986 c -0.626,-0.811 -1.315,-1.564 -1.971,-2.352 0.665,0.793 1.29,1.534 1.971,2.352 m 521.282,-139.133 c -11.17,14.347 -26.104,23.198 -64.213,30.456 -38.11,7.259 -78.661,-2.629 -110.104,-4.3 -31.444,-1.672 -63.368,-1.681 -84.606,14.648 -21.239,16.327 -24.507,38.206 -18.404,57.393 6.105,19.189 30.123,72.466 34.881,108.766 2.398,18.287 5.184,36.278 4.444,56.088 3.093,0.902 17.552,4.67 30.189,1.8 14.343,-3.255 22.106,-6.345 24.709,-8.232 23.179,-16.813 21.504,-34.358 21.504,-34.358 0,0 15.891,39.293 -28.552,57.398 -18.815,7.665 -34.205,6.424 -40.524,5.993 -4.197,-0.286 -7.558,-0.793 -9.443,-1.112 1.21,-5.002 1.733,-10.191 1.852,-15.49 -0.956,12.764 -3.488,26.343 -8.732,41.351 -3.137,8.98 -9.841,21.184 -9.841,21.184 0,0 9.884,-0.2 26.123,5.146 16.238,5.347 29.715,15.324 37.051,22.097 7.334,6.774 32.928,37.303 44.657,50.187 11.727,12.885 31.745,28.451 48.973,23.927 17.227,-4.523 20.028,-30.199 10.64,-50.96 -9.387,-20.76 -20.554,-37.862 -24.848,-56.251 -4.294,-18.39 -2.148,-49.277 17.403,-62.152 14.697,-9.68 55.258,-19.43 75.661,-2.362 13.934,11.657 11.3,28.473 11.3,28.473 0,0 -14.249,-25.967 -57.57,-15.58 -14.383,3.449 -21.596,14.508 -18.372,30.03 3.224,15.523 23.661,31.45 33.234,44.446 9.573,12.995 33.774,43.038 29.861,81.284 -3.914,38.246 -32.365,63.808 -66.327,65.565 -33.961,1.757 -46.674,-4.831 -67.244,-21.399 -20.572,-16.567 -47.896,-46.554 -93.113,-56.338 -45.217,-9.785 -53.4,33.302 -38.644,56.277 14.756,22.975 52.458,40.852 62.166,47.907 9.707,7.054 52.272,40.503 63.197,84.958 10.924,44.455 13.545,99.983 -49.21,141.227 -62.755,41.245 -136.065,30.8 -171.943,15.738 -35.877,-15.061 -81.14,-54.09 -106.419,-96.083 -30.292,-50.32 -39.185,-96.131 -45.78,-120.243 -5.8,-21.214 -13.227,-58.714 -28.604,-86.265 -9.556,-17.121 -39.171,-56.031 -89.17,-79.419 -49.999,-23.391 -108.116,-45.675 -122.769,-62.794 -17.505,-20.452 -33.169,-46.489 -24.652,-88.787 8.518,-42.299 38.724,-75.828 46.841,-90.462 8.119,-14.634 21.199,-38.554 13.686,-53.941 -7.513,-15.387 -28.199,-20.794 -44.268,-20.427 -16.067,0.366 -31.663,12.528 -39.646,25.89 -7.982,13.363 -23.23,50.944 -23.23,50.944 0,0 -2.397,-8.086 1.733,-30.724 4.132,-22.639 17.703,-52.736 38.57,-62.647 20.866,-9.911 52.905,-19.804 90.445,-0.845 37.539,18.96 26.668,77.682 14.563,96.489 -8.192,12.724 -33.991,55.611 -37.083,70.696 -3.092,15.086 -4.503,34.31 14.25,49.683 18.754,15.372 32.49,15.899 57.996,16.908 25.504,1.011 40.372,5.578 52.821,9.406 12.447,3.83 37.689,14.976 37.689,14.976 0,0 -13.141,-54.096 -10.513,-86.454 2.629,-32.359 5.176,-33.57 5.176,-33.57 0,0 -26.745,-44.369 -32.047,-55.386 -5.304,-11.018 -21.963,-44.347 -19.996,-75.028 1.967,-30.68 9.339,-51.248 23.076,-65.479 13.736,-14.231 31.351,-24.236 50.512,-24.174 19.16,0.064 34.101,0.744 49.027,-1.609 14.925,-2.354 26.251,-5.345 33.433,-8.344 15.434,-6.441 37.125,-23.992 47.867,-35.336 8.774,-9.264 28.956,-39.94 28.956,-39.94 0.002,-0.025 -1.463,31.951 -12.461,48.188 -10.996,16.238 -20.412,23.222 -25.786,27.075 -0.001,0.002 -0.002,0.002 -0.003,0.003 -5.319,3.951 -16.499,11.802 -29.929,18.624 -18.838,9.569 -59.65,18.185 -73.651,20.917 -14.001,2.734 -27.158,12.37 -30.629,27.74 -3.473,15.37 2.713,36.723 5.806,44.234 3.093,7.512 24.729,45.763 30.205,52.027 0.724,0.827 3.215,3.713 6.593,7.679 2.322,-1.003 17.003,-7.072 32.686,-6.829 17.073,0.266 65.505,7.233 104.007,36.397 33.221,25.166 66.451,52.104 75.069,59.122 0.132,2.739 0.367,5.46 0.705,8.177 -0.632,5.174 -0.69,10.398 -0.651,15.618 1.235,-14.713 1.036,-30.672 -1.433,-45.786 -3.394,-20.776 -11.208,-42.38 -14.77,-58.322 -3.56,-15.942 -8.709,-53.057 -2.46,-72.82 6.25,-19.763 15.437,-40.657 32.372,-52.995 16.937,-12.338 39.295,-19.942 65.07,-23.378 25.773,-3.437 65.669,0.137 95.018,2.75 6.219,0.552 12.604,1.221 19.052,1.878 23.988,2.443 48.858,4.731 69.289,0.378 25.923,-5.521 40.019,-24.831 35.076,-43.742 -4.942,-18.912 -23.748,-29.035 -23.157,-28.983 0.591,0.053 36.536,4.379 47.136,25.697 10.598,21.318 9.395,41.163 -1.773,55.511"
             style="fill:#9170b0;fill-opacity:1;fill-rule:nonzero;stroke:none"
             id="path4424" /></g><g
           id="g4426"
           transform="translate(1019.8522,216.3526)"><path
             d="m 0,0 c -7.184,-14.457 -26.797,-20.79 -37.831,-23.273 8.953,7.3 14.903,15.935 17.332,25.245 2.218,8.488 0.82,17.415 -3.953,25.154 -6.397,10.367 -17.952,17.778 -32.536,20.882 -21.404,4.564 -48.291,1.862 -69.877,-0.328 l -3.442,-0.347 c -5.264,-0.548 -10.476,-1.077 -16.035,-1.57 -29.013,-2.592 -68.735,-6.079 -94.154,-2.739 -26.468,3.542 -48.07,11.282 -64.207,23.055 -17.742,12.924 -26.587,35.888 -31.697,52.042 -5.787,18.29 -1.534,53.776 2.5,71.848 1.36,6.096 3.368,13.088 5.495,20.48 3.377,11.755 7.2,25.063 9.3,37.949 6.27,38.462 -1.807,85.046 -12.942,99.448 l -1.405,1.826 c -9.574,12.468 -19.596,25.5 -54.625,23.602 -30.594,-1.514 -46.658,-40.688 -57.281,-66.609 -0.996,-2.409 -1.926,-4.69 -2.811,-6.771 -7.648,-18.108 -31.06,-48.739 -43.637,-65.204 -3.65,-4.783 -6.298,-8.232 -7.346,-9.82 -11.272,-15.973 -39.904,-48.993 -40.177,-49.322 -5.695,-6.516 -27.29,-44.686 -30.53,-52.535 -2.711,-6.572 -9.602,-29.024 -5.905,-45.378 3.989,-17.671 19.194,-26.633 32.1,-29.134 8.77,-1.716 53.511,-10.788 73.151,-20.755 13.317,-6.772 24.305,-14.475 29.7,-18.491 4.609,-3.304 14.21,-10.186 25.318,-26.596 7.512,-11.098 10.46,-29.863 11.555,-40.085 -6.372,9.455 -18.674,27.344 -25.136,34.153 -11.682,12.358 -33.551,29.535 -48.509,35.795 -7.877,3.268 -19.578,6.207 -33.862,8.452 -9.318,1.478 -18.71,1.77 -28.95,1.77 -3.459,0 -7.01,-0.035 -10.679,-0.072 -3.121,-0.019 -6.343,-0.055 -9.693,-0.073 h -0.145 c -16.922,0 -34.327,8.396 -49.021,23.621 -13.472,13.945 -20.636,34.372 -22.553,64.307 -1.871,29.152 13.48,60.951 19.259,72.908 l 0.565,1.185 c 5.202,10.788 31.688,54.78 31.953,55.219 0.098,0.163 0.023,0.361 0.068,0.542 9.217,15.541 17.528,31.69 24.053,48.598 13.048,35.144 21.502,73.015 17.698,110.504 0.36,-18.72 -2.338,-37.293 -6.077,-55.477 -3.888,-18.182 -9.127,-36.066 -15.972,-53.343 -5.681,-15.607 -13.21,-30.441 -21.097,-45.061 -0.895,3.954 -2.218,12.134 -3.583,28.918 -2.573,31.689 10.341,85.319 10.468,85.866 0.165,0.695 -0.074,1.425 -0.62,1.881 -0.548,0.438 -1.279,0.566 -1.954,0.274 -0.246,-0.109 -25.281,-11.135 -37.484,-14.895 -12.047,-3.707 -27.034,-8.324 -52.453,-9.329 -25.655,-1.021 -39.793,-1.587 -58.996,-17.34 -19.321,-15.827 -18.117,-35.832 -14.903,-51.495 3.293,-16.045 30.729,-61.041 37.346,-71.317 7.731,-12.03 15.024,-41.272 8.589,-64.911 -3.679,-13.526 -11.226,-23.255 -22.416,-28.914 -28.366,-14.329 -57.408,-14.038 -88.805,0.858 -19.814,9.418 -33.35,38.388 -37.539,61.295 -1.917,10.533 -2.391,17.854 -2.383,22.617 4.838,-11.59 14.522,-34.225 20.446,-44.119 7.794,-13.052 23.547,-26.395 41.198,-26.798 0.511,-0.016 1.023,-0.016 1.543,-0.016 16.017,0 36.671,5.566 44.447,21.483 8.023,16.43 -5.594,40.999 -13.726,55.675 -2.008,3.614 -5.194,8.159 -9.228,13.928 -12.357,17.633 -31.031,44.301 -37.411,75.99 -8.461,42.003 7.512,67.65 24.241,87.2 10.697,12.522 46.192,28.293 83.777,44.978 12.685,5.639 25.801,11.463 38.36,17.34 59.507,27.837 87.062,74.932 90.01,80.208 12.576,22.525 19.906,51.732 25.263,73.052 1.26,5.001 2.411,9.619 3.514,13.636 0.912,3.34 1.87,7.101 2.93,11.226 6.644,26.048 16.683,65.421 42.641,108.537 23.829,39.575 68.215,79.651 105.544,95.321 33.221,13.929 106.42,26.341 170.2,-15.569 63.76,-41.912 58.174,-99.538 48.418,-139.242 -10.944,-44.539 -53.977,-77.688 -62.484,-83.876 -2.199,-1.588 -5.895,-3.779 -10.587,-6.535 -15.15,-8.944 -40.505,-23.893 -52.051,-41.875 -9.089,-14.145 -9.319,-34.353 -0.53,-47.021 8.16,-11.774 22.736,-16.064 41.136,-12.084 37.822,8.178 63.67,30.647 82.535,47.058 4.034,3.504 7.795,6.773 11.354,9.639 19.795,15.954 32.026,22.78 65.978,20.991 34.345,-1.77 60.896,-28.038 64.565,-63.87 3.641,-35.521 -17.643,-64.071 -27.865,-77.799 l -1.643,-2.19 c -3.049,-4.144 -7.238,-8.614 -11.682,-13.344 -9.182,-9.764 -19.596,-20.863 -21.878,-31.834 -3.349,-16.154 4.227,-28.494 19.769,-32.236 32.839,-7.868 49.724,4.929 56.304,12.12 -0.319,-5.549 -2.272,-14.639 -10.796,-21.759 -19.057,-15.971 -58.368,-7.465 -73.427,2.502 -19.358,12.74 -20.462,43.645 -16.62,60.146 2.848,12.175 8.871,24.004 15.242,36.526 3.157,6.188 6.407,12.577 9.491,19.386 6.454,14.274 7.266,30.557 2.064,41.472 -2.994,6.28 -7.804,10.46 -13.929,12.066 -21.394,5.604 -44.32,-17.323 -50.827,-24.478 -4.463,-4.911 -10.843,-12.267 -17.606,-20.043 -11.044,-12.722 -22.462,-25.884 -26.943,-30.027 -3.843,-3.542 -17.825,-15.589 -36.37,-21.704 -13.601,-4.464 -22.412,-4.937 -24.575,-5.014 -3.244,6.602 -6.899,13.006 -11.418,18.825 -8.063,11.239 -16.703,21.884 -24.509,33.122 -3.773,5.674 -7.668,11.391 -10.682,17.474 -2.418,6.376 -3.735,13.186 -4.703,19.977 0.706,-6.835 1.744,-13.673 3.949,-20.263 2.662,-6.434 5.863,-12.552 9.523,-18.428 7.143,-11.856 15.695,-22.726 23.506,-33.935 8.026,-11.073 13.932,-23.217 19.349,-35.888 1.306,-2.845 2.235,-5.837 3.376,-8.747 11.473,-35.653 7.973,-62.899 4.1,-91.578 l -0.913,-6.845 c -3.433,-26.177 -16.775,-60.767 -26.523,-86.031 -3.541,-9.182 -6.599,-17.104 -8.279,-22.398 -7.274,-22.872 -0.338,-44.557 19.04,-59.453 22.014,-16.921 54.46,-16.738 85.848,-15.022 9.418,0.493 19.558,1.716 30.301,3.012 24.788,2.957 52.89,6.388 79.358,1.314 39.182,-7.467 52.8,-16.575 63.077,-29.773 C 9.519,39.265 10.076,20.262 0,0 m -479.991,244.081 c 12.77,16.981 29.012,39.544 35.271,54.353 0.886,2.098 1.825,4.399 2.821,6.807 10.267,25.045 25.793,62.904 54.003,64.31 2.126,0.09 4.154,0.145 6.098,0.145 28.256,0 36.589,-10.842 45.379,-22.305 l 1.415,-1.844 c 3.904,-5.05 7.799,-16.187 10.574,-30.188 -8.059,-4.472 -27.2,-15.526 -37.71,-25.195 -12.256,-11.28 -43.616,-31.342 -61.378,-37.786 -18.39,-6.661 -28.568,-9.71 -40.204,-10.075 -7.482,-0.203 -13.104,0.911 -16.269,1.778 m 84.22,-31.021 c -36.664,-27.783 -83.348,-35.705 -102.907,-36.034 h -0.84 c -12.069,0 -23.546,3.8 -28.702,5.764 9.456,11.13 24.565,29.224 32.144,39.963 1.021,1.533 3.769,5.11 7.246,9.675 1.911,2.501 4.117,5.4 6.434,8.459 3.002,-0.967 9.535,-2.827 18.784,-2.308 12.157,0.364 22.589,3.469 41.372,10.295 18.126,6.571 50.125,27.034 62.638,38.552 9.753,8.971 27.991,19.617 35.909,24.057 2.075,-11.848 3.195,-25.422 2.843,-39.432 -11.841,-9.631 -43.461,-35.172 -74.921,-58.991 m 165.561,125.422 c 6.398,0.42 21.267,1.424 39.256,-5.878 30.018,-12.23 31.552,-34.135 29.717,-46.31 -2.172,6.992 -7.584,16.867 -20.864,26.506 -3.478,2.537 -12.969,5.73 -25.391,8.541 -3.496,0.785 -7.119,1.096 -10.623,1.096 -7.614,0 -14.53,-1.423 -18.244,-2.333 -0.292,5.678 -0.798,11.473 -1.788,17.52 2.005,0.3 4.62,0.639 7.937,0.858 M 1.378,55.821 c -10.833,13.909 -24.989,23.456 -65.341,31.158 -27.023,5.112 -55.435,1.717 -80.498,-1.294 -10.679,-1.279 -20.765,-2.502 -30.056,-2.995 -30.702,-1.587 -62.354,-1.879 -83.365,14.256 -24.724,19.022 -21.74,42.843 -17.761,55.365 1.652,5.184 4.691,13.069 8.205,22.178 9.821,25.447 23.255,60.292 26.742,86.907 l 0.912,6.827 c 2.073,15.344 4.097,31.014 3.607,48.066 4.566,1.174 16.93,3.854 27.854,1.401 14.074,-3.175 21.631,-6.169 24.022,-7.921 21.923,-15.899 20.755,-32.51 20.738,-32.675 -0.083,-0.912 0.528,-1.771 1.422,-1.971 0.146,-0.036 0.292,-0.055 0.439,-0.055 0.749,0 1.442,0.439 1.734,1.168 0.163,0.403 16.072,41.236 -29.581,59.836 -18.792,7.631 -34.271,6.573 -41.354,6.115 -3.423,-0.235 -6,-0.581 -7.972,-0.882 -1.46,7.78 -3.471,15.843 -6.457,24.393 -2.3,6.572 -6.398,14.695 -8.562,18.821 4.18,0.309 12.414,1.405 23.658,5.11 18.728,6.17 32.629,17.798 37.739,22.508 4.628,4.27 16.118,17.506 27.235,30.319 6.736,7.758 13.107,15.097 17.533,19.971 12.695,13.964 31.625,27.416 47.123,23.382 5.092,-1.332 8.962,-4.728 11.5,-10.057 4.754,-9.967 3.924,-25.027 -2.1,-38.333 -3.039,-6.718 -6.279,-13.089 -9.409,-19.222 -6.481,-12.742 -12.605,-24.753 -15.544,-37.385 -4.08,-17.468 -2.746,-50.325 18.19,-64.107 15.306,-10.113 56.651,-19.988 77.88,-2.264 14.585,12.212 12.075,29.481 11.956,30.21 -0.118,0.786 -0.729,1.406 -1.514,1.552 -0.777,0.11 -1.58,-0.255 -1.963,-0.932 -0.575,-1.002 -14.265,-24.624 -55.5,-14.657 -13.573,3.249 -19.925,13.655 -16.977,27.82 2.063,9.948 12.084,20.627 20.928,30.045 4.527,4.819 8.798,9.365 11.975,13.672 l 1.623,2.191 c 10.506,14.092 32.375,43.426 28.596,80.39 -3.861,37.713 -31.862,65.368 -68.087,67.23 -35.074,1.843 -48.409,-5.605 -68.516,-21.796 -3.596,-2.902 -7.401,-6.206 -11.462,-9.748 -19.606,-17.03 -44.002,-38.241 -80.875,-46.218 -21.513,-4.638 -32.155,3.194 -37.283,10.569 -7.968,11.481 -7.712,29.918 0.601,42.878 11.071,17.213 35.952,31.889 50.811,40.651 4.773,2.811 8.542,5.039 10.879,6.736 8.707,6.334 52.662,40.213 63.925,86.031 10.021,40.797 15.743,100.03 -50.007,143.238 -65.075,42.768 -139.796,30.136 -173.685,15.899 -37.986,-15.945 -83.11,-56.678 -107.296,-96.837 -26.249,-43.609 -36.372,-83.274 -43.071,-109.542 -1.049,-4.106 -2.007,-7.848 -2.92,-11.171 -1.105,-4.052 -2.264,-8.671 -3.532,-13.709 -5.303,-21.119 -12.559,-50.051 -24.899,-72.139 -2.885,-5.166 -29.881,-51.312 -88.33,-78.638 -12.522,-5.859 -25.619,-11.683 -38.297,-17.323 -37.977,-16.866 -73.846,-32.802 -85.099,-45.945 -17.314,-20.243 -33.833,-46.821 -25.063,-90.375 6.535,-32.473 25.483,-59.506 38.014,-77.396 3.814,-5.458 7.109,-10.167 9.026,-13.617 7.274,-13.107 20.81,-37.531 13.636,-52.206 -7.019,-14.366 -26.149,-19.405 -41.062,-19.405 -0.493,0 -0.996,0.019 -1.478,0.019 -16.138,0.364 -31.051,13.217 -38.078,24.99 -7.823,13.07 -22.964,50.307 -23.11,50.691 -0.301,0.712 -1.059,1.021 -1.825,1.15 -0.794,-0.037 -1.478,-0.565 -1.698,-1.332 -0.109,-0.348 -2.473,-8.781 1.689,-31.58 4.344,-23.84 18.6,-54.031 39.601,-63.998 32.502,-15.461 62.62,-15.735 92.091,-0.821 12.184,6.132 20.372,16.666 24.342,31.25 7.027,25.811 -1.25,55.784 -9.054,67.904 -8.798,13.691 -33.879,55.693 -36.818,70.077 -3.195,15.534 -4.071,33.351 13.608,47.843 18.235,14.951 31.113,15.461 56.88,16.502 25.802,1.005 41.043,5.695 53.292,9.474 9.802,3.031 27.124,10.369 34.48,13.563 -2.902,-12.777 -11.973,-55.602 -9.71,-83.402 1.825,-22.488 3.621,-30.414 4.864,-33.316 -0.112,-0.205 -0.21,-0.416 -0.323,-0.62 -0.013,-0.024 -0.028,-0.049 -0.042,-0.073 -4.624,-7.692 -26.37,-43.986 -31.196,-53.993 l -0.556,-1.169 c -5.896,-12.194 -21.558,-44.63 -19.614,-74.786 1.972,-30.848 9.465,-52.024 23.594,-66.645 15.405,-15.972 33.76,-24.752 51.713,-24.752 h 0.154 c 3.359,0 6.59,0.036 9.712,0.073 14.384,0.127 26.852,0.255 39.008,-1.662 13.792,-2.172 25.51,-5.092 33.003,-8.213 14.512,-6.06 35.814,-22.837 47.232,-34.902 8.561,-9.035 28.559,-39.392 28.759,-39.684 0.347,-0.548 0.94,-0.84 1.56,-0.84 0.193,0 0.384,0.019 0.585,0.092 0.793,0.255 1.324,1.022 1.287,1.862 -0.074,1.332 -1.725,32.802 -12.787,49.139 -11.491,16.976 -21.458,24.114 -26.221,27.528 -5.458,4.07 -16.648,11.919 -30.201,18.8 -19.587,9.949 -61.699,18.656 -74.139,21.102 -11.746,2.263 -25.573,10.386 -29.16,26.304 -3.488,15.388 3.122,36.817 5.705,43.115 3.093,7.503 24.523,45.361 29.889,51.514 0.077,0.084 2.357,2.715 5.719,6.653 4.602,-1.861 17.393,-6.472 31.264,-6.472 0.301,0 0.611,0 0.913,0.019 19.987,0.31 67.676,8.415 105.114,36.762 29.733,22.529 59.278,46.316 72.526,57.081 -0.313,-6.071 -0.832,-12.151 -1.809,-18.144 -2.073,-12.669 -5.859,-25.866 -9.209,-37.513 -2.137,-7.465 -4.163,-14.51 -5.55,-20.717 -2.966,-13.27 -9.172,-52.388 -2.41,-73.782 5.267,-16.648 14.421,-40.36 33.05,-53.941 16.655,-12.139 38.834,-20.115 65.924,-23.731 25.829,-3.393 65.795,0.111 95.43,2.757 5.112,0.457 10.351,0.986 15.634,1.534 l 3.442,0.347 c 21.329,2.172 47.888,4.837 68.708,0.401 13.581,-2.883 24.286,-9.711 30.136,-19.203 4.289,-6.954 5.513,-14.639 3.523,-22.233 -2.7,-10.332 -10.213,-19.823 -21.722,-27.417 -0.803,-0.529 -1.898,-1.26 -1.405,-2.665 0.282,-0.804 1.104,-1.151 1.953,-1.242 0.365,0.037 37.548,4.418 48.628,26.724 10.605,21.321 9.885,42.276 -1.962,57.5"
             style="fill:#000000;fill-opacity:1;fill-rule:nonzero;stroke:none"
             id="path4428" /></g><g
           id="g4430"
           transform="translate(556.0992,850.2941)"><path
             d="M 0,0 C 1.525,-0.262 3.233,0.052 4.399,0.913 2.976,1.183 1.961,1.917 1.063,2.692 0.174,3.497 -0.609,4.4 -1.351,5.377 c -1.482,1.928 -2.857,4 -4.236,6.11 -2.77,4.212 -5.569,8.542 -8.777,12.74 -1.603,2.1 -3.295,4.188 -5.185,6.205 -0.965,1.004 -1.918,2.021 -3.032,2.985 -1.045,0.955 -2.422,2.01 -3.876,2.857 -0.382,0.207 -0.764,0.409 -1.151,0.593 l -0.58,0.275 -0.637,0.219 -1.264,0.409 c -0.415,0.135 -0.893,0.163 -1.329,0.238 -0.878,0.161 -1.795,0.136 -2.675,0.086 -0.439,-0.028 -0.876,-0.144 -1.302,-0.22 -0.427,-0.077 -0.841,-0.177 -1.238,-0.346 -1.611,-0.551 -2.968,-1.463 -4.04,-2.54 -1.079,-1.065 -1.921,-2.301 -2.433,-3.647 2.625,1.06 5.187,1.571 7.211,1.162 1.008,-0.181 1.855,-0.516 2.6,-1.028 0.749,-0.448 2.297,-1.912 4.008,-4.257 l 2.126,-3.004 c 1.436,-2.071 2.942,-4.175 4.528,-6.272 0.051,-0.066 0.102,-0.13 0.152,-0.197 -2.607,-1.92 -4.37,-5.562 -4.37,-9.746 0,-6.182 3.843,-11.193 8.583,-11.193 3.872,0 7.142,3.345 8.211,7.939 C -8.445,3.518 -3.802,0.652 0,0"
             style="fill:#000000;fill-opacity:1;fill-rule:nonzero;stroke:none"
             id="path4432" /></g><g
           id="g4434"
           transform="translate(701.5221,899.0157)"><path
             d="m 0,0 c -2.546,1.767 -5.397,3.097 -8.359,4.134 -5.964,1.933 -12.343,2.486 -18.545,2.079 -3.145,-0.16 -6.493,-0.755 -9.614,-1.796 -3.154,-1.008 -6.142,-2.488 -8.91,-4.208 -2.775,-1.718 -5.28,-3.746 -7.624,-5.845 -2.325,-2.124 -4.446,-4.374 -6.474,-6.632 -8.013,-9.112 -14.295,-18.661 -22.409,-26.067 -4.103,-3.644 -8.516,-7.115 -13.474,-9.441 -2.463,-1.233 -5.079,-2.136 -7.819,-2.667 -0.683,-0.133 -1.376,-0.198 -2.079,-0.307 -0.693,-0.032 -1.412,-0.132 -2.118,-0.104 -1.433,-0.038 -2.875,0.11 -4.314,0.493 1.179,-0.931 2.607,-1.547 4.06,-2.042 0.633,-0.239 2.683,-0.731 4.557,-0.933 3.113,-0.336 6.307,-0.003 9.36,0.728 l 1.157,0.262 1.121,0.346 c 0.747,0.235 1.505,0.46 2.253,0.712 l 2.173,0.884 c 0.731,0.294 1.458,0.596 2.143,0.96 1.388,0.699 2.819,1.376 4.118,2.211 1.322,0.813 2.685,1.572 3.947,2.505 4.732,3.295 8.81,7.263 12.591,11.308 -0.214,-1.241 -0.677,-2.381 -0.677,-3.691 0,-11.276 8.295,-20.416 18.528,-20.416 10.233,0 18.528,9.14 18.528,20.416 0,11.275 -8.295,20.417 -18.528,20.417 -1.358,0 -2.552,-0.546 -3.827,-0.852 1.379,1.522 2.754,3.053 4.187,4.436 1.93,1.905 3.964,3.611 6.068,5.138 4.237,3.051 8.916,4.782 14.101,6.11 3.741,0.961 9.252,1.835 16.413,1.039 C -4.019,-1.429 1.572,-2.938 6.358,-6.486 4.833,-3.899 2.53,-1.754 0,0"
             style="fill:#000000;fill-opacity:1;fill-rule:nonzero;stroke:none"
             id="path4436" /></g><g
           id="g4438"
           transform="translate(579.3649,757.4552)"><path
             d="m 0,0 c -3.846,-0.373 -7.725,-0.463 -11.639,-0.176 -7.843,0.565 -15.737,2.398 -23.905,5.398 2.695,-3.514 6.292,-6.23 10.14,-8.473 3.875,-2.222 8.142,-3.844 12.589,-4.81 2.219,-0.502 4.489,-0.797 6.772,-0.968 2.285,-0.122 4.583,-0.136 6.87,0.06 2.275,0.187 4.585,0.558 6.735,1.032 1.092,0.209 2.179,0.464 3.259,0.75 1.082,0.265 2.153,0.589 3.22,0.916 2.141,0.632 4.242,1.402 6.304,2.263 1.039,0.406 2.045,0.9 3.065,1.346 1.006,0.485 1.995,1.005 2.986,1.516 C 30.324,0.967 44.94,11.568 49.658,19.517 35.129,10.7 19.351,4.188 11.628,2.197 7.774,1.215 3.79,0.419 0,0"
             style="fill:#000000;fill-opacity:1;fill-rule:nonzero;stroke:none"
             id="path4440" /></g></g></g></g></svg>
