<?xml version="1.0" encoding="UTF-8" standalone="no"?>
<svg
   xmlns:dc="http://purl.org/dc/elements/1.1/"
   xmlns:cc="http://creativecommons.org/ns#"
   xmlns:rdf="http://www.w3.org/1999/02/22-rdf-syntax-ns#"
   xmlns:svg="http://www.w3.org/2000/svg"
   xmlns="http://www.w3.org/2000/svg"
   xmlns:sodipodi="http://sodipodi.sourceforge.net/DTD/sodipodi-0.dtd"
   xmlns:inkscape="http://www.inkscape.org/namespaces/inkscape"
   version="1.1"
   id="svg4334"
   xml:space="preserve"
   width="1600"
   height="1600"
   viewBox="0 0 1600 1600"
   sodipodi:docname="octo_icon2.svg"
   inkscape:version="1.0.2 (e86c870879, 2021-01-15, custom)"><metadata
     id="metadata4340"><rdf:RDF><cc:Work
         rdf:about=""><dc:format>image/svg+xml</dc:format><dc:type
           rdf:resource="http://purl.org/dc/dcmitype/StillImage" /><dc:title></dc:title></cc:Work></rdf:RDF></metadata><defs
     id="defs4338"><clipPath
       clipPathUnits="userSpaceOnUse"
       id="clipPath4350"><path
         d="M 0,1200 H 1200 V 0 H 0 Z"
         id="path4348" /></clipPath></defs><sodipodi:namedview
     pagecolor="#ffffff"
     bordercolor="#666666"
     borderopacity="1"
     objecttolerance="10"
     gridtolerance="10"
     guidetolerance="10"
     inkscape:pageopacity="0"
     inkscape:pageshadow="2"
     inkscape:window-width="689"
     inkscape:window-height="480"
     id="namedview4336"
     showgrid="false"
     inkscape:zoom="0.459375"
     inkscape:cx="800"
     inkscape:cy="800"
     inkscape:window-x="0"
     inkscape:window-y="0"
     inkscape:window-maximized="0"
     inkscape:current-layer="g4342" /><g
     id="g4342"
     inkscape:groupmode="layer"
     inkscape:label="octo"
     transform="matrix(1.3333333,0,0,-1.3333333,0,1600)"><g
       id="g4344"><g
         id="g4346"
         clip-path="url(#clipPath4350)"><g
           id="g4352"
           transform="translate(265.9274,933.2599)"><path
             d="m 0,0 c 42.518,-2.062 55.402,-48.702 57.979,-83.232 2.577,-34.53 -11.081,-87.612 17.007,-111.834 28.087,-24.222 64.679,-20.357 96.116,3.092 31.437,23.45 36.076,77.305 36.076,77.305 0,0 9.276,-30.407 -19.241,-94.999 -28.517,-64.593 -91.735,-80.397 -141.554,-52.911 -49.819,27.486 -46.898,88.385 -36.849,135.799 10.05,47.413 19.842,90.447 -6.183,105.907 -26.027,15.461 -50.764,-10.049 -50.764,-10.049 0,0 4.895,32.984 47.413,30.922"
             style="fill:#6d4096;fill-opacity:1;fill-rule:nonzero;stroke:none"
             id="path4354" /></g><g
           id="g4356"
           transform="translate(465.8434,790.2579)"><path
             d="m 0,0 c 0,0 -37.189,33.156 -31.562,103.061 9.408,116.893 42.087,134.854 42.087,134.854 h -12.54 c -16.943,-8.203 -28.339,-30.083 -33.802,-42.682 -8.464,-19.522 -20.662,-52.672 -29.073,-96.982 -14.087,-74.213 16.835,-125.406 21.99,-132.965 5.153,-7.558 14.086,-14.413 14.086,-14.413 0,0 12.931,8.424 19.584,20.77 C -2.578,-16.012 0,0 0,0"
             style="fill:#6d4096;fill-opacity:1;fill-rule:nonzero;stroke:none"
             id="path4358" /></g><g
           id="g4360"
           transform="translate(858.0045,676.5294)"><path
             d="m 0,0 c 0,0 14.509,0.569 28.939,9.729 14.43,9.16 17.373,18.5 17.373,18.5 0,0 9.773,1.478 17.653,-11.919 7.879,-13.398 3.442,-27.509 2.246,-31.211 -1.196,-3.703 -3.311,-8.207 -3.311,-8.207 0,0 -17.984,-23.197 -65.14,-41.235 -47.156,-18.038 -87.011,-7.301 -87.011,-7.301 0,0 13.297,2.218 26.641,9.785 13.342,7.566 26.559,19.256 38.681,33.5 C -11.807,-14.116 0,0 0,0"
             style="fill:#6d4096;fill-opacity:1;fill-rule:nonzero;stroke:none"
             id="path4362" /></g><g
           id="g4364"
           transform="translate(1037.9069,968.2433)"><path
             d="m 0,0 c -3.132,19.78 -30.754,32.143 -62.743,19.345 -31.988,-12.799 -49.463,-50.904 -49.463,-50.904 0,0 0.031,-0.156 0.088,-0.437 -1.342,-2.32 -2.565,-4.613 -3.628,-6.853 -13.057,-27.486 -16.149,-60.813 -10.342,-94.14 5.806,-33.327 0,-67.747 0,-67.747 0,0 10.686,-0.582 25.371,-3.809 14.687,-3.226 26.578,-15.309 26.578,-15.309 0,0 1.34,47.697 -10.685,89.957 -11.384,40.006 -11.366,79.692 1.491,101.593 19.968,29.426 44.836,32.062 51.95,32.25 7.122,0.188 18.195,-7.922 16.438,-22.024 -1.757,-14.101 -15.25,-24.207 -15.25,-24.207 0,0 2.061,-3.435 13.448,4.44 C -5.36,-29.97 3.131,-19.78 0,0"
             style="fill:#6d4096;fill-opacity:1;fill-rule:nonzero;stroke:none"
             id="path4366" /></g><g
           id="g4368"
           transform="translate(772.8219,534.6183)"><path
             d="m 0,0 c 1.974,0.612 15.814,4.643 29.096,1.629 14.341,-3.255 21.889,-6.681 24.705,-8.233 2.814,-1.55 16.402,-17.16 16.402,-17.16 l 5.097,-17.19 c 0,0 15.888,39.285 -28.547,57.388 -18.811,7.663 -34.197,6.42 -40.515,5.99 -6.317,-0.43 -9.555,-1.288 -9.555,-1.288 0,0 2.66,-12.985 3.317,-21.136"
             style="fill:#9170b0;fill-opacity:1;fill-rule:nonzero;stroke:none"
             id="path4370" /></g><g
           id="g4372"
           transform="translate(688.4117,531.6007)"><path
             d="m 0,0 c -3.838,-2.086 -27.587,-15.179 -39.423,-26.074 -12.899,-11.874 -44.527,-31.823 -61.988,-38.157 -17.461,-6.335 -28.476,-9.802 -40.779,-10.184 -11.422,-0.355 -17.908,1.856 -18.78,2.176 -6.168,-5.289 -10.173,-12.274 -14.833,-19.264 -10.75,-15.23 -23.142,-27.413 -34.866,-42.515 0.118,-0.207 -0.142,0.182 0,0 0.676,0.949 1.071,1.077 1.071,1.077 0,0 15.359,-7 32.429,-6.736 17.07,0.266 65.492,7.232 103.985,36.39 36.381,27.558 73.463,57.803 77.424,61.04 C 6.565,-27.787 3.123,-13.86 0,0"
             style="fill:#9170b0;fill-opacity:1;fill-rule:nonzero;stroke:none"
             id="path4374" /></g><g
           id="g4376"
           transform="translate(999.8092,561.0792)"><path
             d="M 0,0 C 0,0 -3.55,-4.729 -6.186,-7.378 -6.21,-7.401 -6.231,-7.427 -6.254,-7.451 -10.794,-12.272 -28.179,-18.146 -33.5,-18.42 l -13.656,-20.232 c 0,0 23.105,-2.748 35.857,10.185 C 1.454,-15.532 0,0 0,0"
             style="fill:#9170b0;fill-opacity:1;fill-rule:nonzero;stroke:none"
             id="path4378" /></g><g
           id="g4380"
           transform="translate(1009.6871,271.4513)"><path
             d="m 0,0 c -11.166,14.344 -26.099,23.193 -64.199,30.45 -38.102,7.257 -78.644,-2.628 -110.081,-4.3 -31.438,-1.671 -63.355,-1.679 -84.588,14.645 -21.234,16.324 -24.501,38.199 -18.4,57.382 6.103,19.183 28.69,72.667 34.873,108.742 4.292,25.034 5.004,42.573 5.039,50.97 -0.015,-0.106 -0.026,-0.209 -0.037,-0.314 -0.011,-0.104 -0.023,-0.209 -0.041,-0.314 0.036,0.211 0.048,0.418 0.078,0.628 0.014,3.704 -0.102,5.635 -0.102,5.635 0,0 0.092,0.031 0.249,0.08 -0.657,8.151 -7.109,40.249 -9.737,46.731 -3.574,8.813 -9.84,21.18 -9.84,21.18 0,0 9.884,-0.201 26.118,5.144 16.234,5.346 29.709,15.321 37.043,22.093 7.334,6.772 32.921,37.294 44.646,50.176 11.726,12.882 31.741,28.444 48.964,23.922 17.223,-4.522 20.023,-30.193 10.638,-50.95 -9.386,-20.755 -20.55,-37.853 -24.843,-56.239 -4.293,-18.386 -2.147,-49.265 17.4,-62.139 14.694,-9.676 30.768,-11.908 39.924,-12.34 l -0.138,-0.206 c 0,0 6.564,-0.78 14.627,0.45 3.152,0.11 5.744,0.198 5.744,0.198 v 1.003 c 5.479,1.488 11.097,4.082 15.486,8.534 12.753,12.935 11.299,28.467 11.299,28.467 0,0 -3.55,-4.73 -6.185,-7.378 -0.025,-0.023 -0.046,-0.049 -0.069,-0.073 -4.537,-4.819 -21.904,-10.688 -27.236,-10.968 -6.151,-0.145 -15.567,0.197 -24.069,2.844 -14.119,4.393 -21.59,14.503 -18.367,30.023 3.224,15.52 23.657,31.443 33.227,44.436 9.57,12.992 33.767,43.028 29.854,81.266 -3.913,38.239 -32.358,63.794 -66.312,65.551 -33.954,1.758 -46.664,-4.829 -67.231,-21.393 -20.566,-16.565 -47.884,-46.544 -93.092,-56.327 -45.207,-9.782 -53.388,33.295 -38.636,56.265 14.753,22.971 52.448,40.844 62.153,47.897 9.705,7.053 52.261,40.494 63.183,84.939 10.922,44.446 13.543,99.962 -49.198,141.197 -62.742,41.236 -136.038,30.793 -171.907,15.736 -35.869,-15.058 -84.461,-52.244 -106.397,-96.064 -21.937,-43.821 -39.176,-96.109 -45.769,-120.217 -5.8,-21.208 -12.766,-58.963 -28.598,-86.246 -2.163,-3.728 -4.493,-7.261 -7.007,-10.53 -20.912,-27.186 -32.156,-45.488 -82.145,-68.873 -49.988,-23.386 -109.672,-44.431 -122.741,-62.779 -13.069,-18.35 -33.163,-46.481 -24.648,-88.77 8.515,-42.289 38.716,-75.81 46.832,-90.441 8.116,-14.631 21.193,-38.546 13.682,-53.93 -7.511,-15.384 -28.193,-20.789 -44.258,-20.423 -16.064,0.366 -31.657,12.526 -39.637,25.885 -7.981,13.359 -23.226,50.932 -23.226,50.932 0,0 -2.396,-8.083 1.734,-30.717 4.129,-22.633 17.699,-52.725 38.56,-62.634 20.861,-9.908 52.895,-19.799 90.425,-0.844 37.531,18.955 21.587,83.07 14.56,96.468 -7.028,13.397 -33.983,55.6 -37.075,70.683 -3.091,15.082 -4.501,34.301 14.248,49.671 18.75,15.369 32.483,15.895 57.983,16.906 25.501,1.009 40.364,5.575 52.809,9.403 12.447,3.827 37.683,14.972 37.683,14.972 0,0 -13.14,-54.084 -10.511,-86.436 2.628,-32.351 4.68,-33.292 4.68,-33.292 0,0 -26.245,-44.63 -31.547,-55.644 -5.302,-11.015 -21.958,-44.339 -19.99,-75.012 1.967,-30.674 9.337,-51.237 23.07,-65.466 13.734,-14.227 31.345,-24.231 50.501,-24.168 19.156,0.064 34.094,0.744 49.017,-1.609 14.922,-2.353 26.404,-4.99 33.426,-8.342 7.023,-3.352 21.597,-13.36 22.013,-13.125 0.048,0.027 0.356,0.191 0.847,0.453 4.601,-3.89 17.776,-15.155 24.997,-22.656 8.848,-9.191 28.949,-39.933 28.949,-39.933 0.002,-0.023 -1.463,31.945 -12.457,48.179 -10.995,16.234 -20.409,23.216 -25.781,27.069 -0.001,10e-4 -0.002,0.002 -0.004,0.003 -5.316,3.949 -16.495,11.8 -29.922,18.62 -18.834,9.567 -59.638,18.181 -73.635,20.913 -13.997,2.733 -27.152,12.367 -30.624,27.733 -3.471,15.366 2.714,36.716 5.806,44.225 3.093,7.509 24.724,45.752 30.199,52.015 2.718,3.109 4.339,5.465 4.077,5.57 1.166,-0.469 4.614,4.848 4.614,5.446 0,-0.863 20.475,24.483 32.768,38.497 6.275,7.152 40.017,51.664 50.007,75.303 9.99,23.638 26.203,70.384 58.439,72.228 38.734,2.217 44.274,-11.569 54.453,-24.712 10.178,-13.141 12.282,-31.073 12.282,-31.073 0,0 -0.2,-0.108 -0.545,-0.295 3.123,-13.86 6.565,-27.787 4.24,-42.247 0.231,0.188 0.356,0.29 0.356,0.29 0,0 0.305,-3.993 -3.762,-24.644 -4.068,-20.65 -11.205,-42.371 -14.766,-58.309 -3.56,-15.94 -8.707,-53.046 -2.459,-72.805 6.248,-19.759 15.432,-40.647 32.364,-52.983 16.933,-12.336 39.288,-19.938 65.056,-23.373 25.768,-3.437 65.655,0.136 94.999,2.748 6.217,0.553 12.6,1.221 19.047,1.878 23.983,2.443 48.847,4.73 69.274,0.379 25.918,-5.521 40.01,-24.826 35.069,-43.733 -4.942,-18.908 -23.742,-29.03 -23.152,-28.977 0.59,0.051 36.529,4.378 47.125,25.691 C 12.368,-34.187 11.166,-14.345 0,0"
             style="fill:#9170b0;fill-opacity:1;fill-rule:nonzero;stroke:none"
             id="path4382" /></g><g
           id="g4384"
           transform="translate(522.5406,882.651)"><path
             d="m 0,0 c 0.753,-0.449 2.305,-1.917 4.021,-4.27 l 2.132,-3.012 c 1.442,-2.079 2.951,-4.19 4.544,-6.293 0.05,-0.066 0.102,-0.131 0.152,-0.197 -2.616,-1.927 -4.384,-5.579 -4.384,-9.776 0,-6.201 3.854,-11.228 8.609,-11.228 3.885,0 7.164,3.356 8.238,7.964 1.616,-1.232 6.274,-4.106 10.088,-4.761 1.531,-0.262 3.243,0.053 4.413,0.917 -1.429,0.271 -2.448,1.007 -3.347,1.785 -0.892,0.807 -1.679,1.712 -2.421,2.693 -1.487,1.933 -2.866,4.011 -4.25,6.129 -2.779,4.224 -5.587,8.568 -8.805,12.779 -1.607,2.107 -3.304,4.2 -5.2,6.224 -0.968,1.007 -1.924,2.027 -3.042,2.995 C 9.699,2.907 8.319,3.965 6.86,4.815 6.478,5.022 6.094,5.225 5.705,5.41 L 5.123,5.685 4.484,5.905 3.218,6.314 C 2.801,6.45 2.321,6.478 1.883,6.553 1.004,6.716 0.083,6.69 -0.8,6.64 -1.24,6.612 -1.678,6.495 -2.104,6.419 -2.534,6.343 -2.95,6.242 -3.347,6.072 -4.963,5.52 -6.324,4.605 -7.4,3.524 -8.483,2.456 -9.326,1.216 -9.841,-0.134 -7.208,0.929 -4.638,1.442 -2.605,1.032 -1.597,0.851 -0.746,0.514 0,0"
             style="fill:#000000;fill-opacity:1;fill-rule:nonzero;stroke:none"
             id="path4386" /></g><g
           id="g4388"
           transform="translate(655.6227,886.8009)"><path
             d="m 0,0 c 1.937,1.912 3.978,3.623 6.087,5.155 4.25,3.059 8.944,4.795 14.145,6.129 3.753,0.962 9.281,1.84 16.465,1.041 5.464,-0.608 11.072,-2.121 15.873,-5.68 -1.53,2.595 -3.841,4.746 -6.379,6.506 -2.553,1.773 -5.413,3.106 -8.384,4.147 -5.984,1.938 -12.382,2.493 -18.603,2.086 C 16.05,19.223 12.69,18.626 9.562,17.582 6.396,16.571 3.398,15.085 0.623,13.361 -2.161,11.637 -4.674,9.602 -7.024,7.498 -9.357,5.366 -11.484,3.109 -13.52,0.845 c -8.037,-9.14 -14.338,-18.719 -22.476,-26.148 -4.117,-3.655 -8.544,-7.137 -13.519,-9.471 -2.47,-1.237 -5.094,-2.143 -7.841,-2.675 -0.687,-0.133 -1.381,-0.198 -2.086,-0.307 -0.696,-0.033 -1.416,-0.134 -2.124,-0.105 -1.439,-0.038 -2.885,0.111 -4.33,0.495 1.185,-0.935 2.616,-1.552 4.074,-2.05 0.635,-0.238 2.692,-0.732 4.572,-0.936 3.122,-0.337 6.326,-0.003 9.389,0.73 l 1.159,0.264 1.125,0.348 c 0.75,0.236 1.511,0.462 2.261,0.714 l 2.18,0.886 c 0.733,0.295 1.462,0.598 2.149,0.964 1.392,0.7 2.829,1.379 4.131,2.217 1.326,0.814 2.693,1.578 3.96,2.513 5.165,3.597 9.607,7.969 13.673,12.401 2.037,2.22 3.953,4.493 5.873,6.705 1.887,2.239 3.747,4.444 5.634,6.555 C -3.858,-3.917 -1.957,-1.887 0,0"
             style="fill:#000000;fill-opacity:1;fill-rule:nonzero;stroke:none"
             id="path4390" /></g><g
           id="g4392"
           transform="translate(590.941,760.1544)"><path
             d="m 0,0 c -3.864,-0.984 -7.861,-1.783 -11.663,-2.203 -3.858,-0.374 -7.749,-0.464 -11.675,-0.176 -7.867,0.566 -15.786,2.404 -23.978,5.413 2.702,-3.523 6.31,-6.248 10.17,-8.497 3.887,-2.23 8.167,-3.856 12.626,-4.825 2.228,-0.504 4.505,-0.801 6.795,-0.973 2.291,-0.121 4.598,-0.135 6.891,0.061 2.282,0.187 4.6,0.56 6.756,1.035 1.097,0.211 2.186,0.467 3.268,0.753 1.087,0.266 2.16,0.591 3.231,0.918 2.147,0.635 4.256,1.407 6.323,2.27 1.042,0.408 2.052,0.903 3.076,1.351 1.008,0.486 2.001,1.008 2.993,1.52 3.942,2.12 18.603,12.755 23.337,20.727 C 23.575,8.53 7.747,1.999 0,0"
             style="fill:#000000;fill-opacity:1;fill-rule:nonzero;stroke:none"
             id="path4394" /></g><g
           id="g4396"
           transform="translate(655.2623,883.2047)"><path
             d="m 0,0 c -10.265,0 -18.585,-9.168 -18.585,-20.479 0,-11.311 8.32,-20.479 18.585,-20.479 10.264,0 18.585,9.168 18.585,20.479 C 18.585,-9.168 10.264,0 0,0"
             style="fill:#000000;fill-opacity:1;fill-rule:nonzero;stroke:none"
             id="path4398" /></g><g
           id="g4400"
           transform="translate(1035.6178,950.7662)"><path
             d="m 0,0 c -2.822,-8.758 -10.549,-19.319 -23.432,-22.619 3.728,3.72 9.274,10.388 11.553,18.909 1.776,6.644 0.356,13.4 -3.897,18.536 -4.591,5.541 -11.883,8.509 -19.537,7.946 -15.974,-1.185 -31.795,-11.576 -44.548,-29.259 -14.914,-20.676 -16.478,-62.403 -3.986,-106.306 10.139,-35.631 10.728,-75.255 10.681,-86.137 -11.333,9.451 -25.607,15.266 -41.476,16.096 -2.685,0.139 -5.229,0.219 -7.671,0.251 0.85,5.649 5.12,37.099 -0.143,67.305 -5.74,32.947 -2.104,66.097 10.24,93.343 10.415,22.99 33.952,51.768 61.018,60.628 13.343,4.37 25.877,3.337 37.255,-3.067 C 0.338,27.589 5.028,15.603 0,0 m -49.738,-249.935 c 3.655,-35.677 -17.669,-64.34 -27.918,-78.115 -0.592,-0.796 -1.149,-1.543 -1.662,-2.242 -3.063,-4.162 -7.263,-8.634 -11.709,-13.371 -9.138,-9.732 -19.495,-20.763 -21.747,-31.617 -3.217,-15.509 3.638,-26.737 19.303,-31.617 8.049,-2.508 39.505,-7.092 55.863,12.42 -3.611,-26.47 -22.646,-32.46 -38.418,-32.69 l -0.115,-0.002 c -21.915,-0.314 -36.856,6.427 -45.545,12.148 -19.566,12.881 -20.697,44.05 -16.813,60.67 2.855,12.226 8.893,24.069 15.282,36.608 3.15,6.18 6.405,12.57 9.48,19.367 0.088,0.193 0.163,0.39 0.249,0.584 0.002,0.005 0.003,0.011 0.006,0.016 6.153,13.997 6.881,29.804 1.813,40.441 -2.924,6.137 -7.626,10.21 -13.597,11.776 -1.845,0.484 -3.703,0.74 -5.562,0.821 -0.021,0.008 -0.039,0.02 -0.061,0.027 -0.28,0.089 -0.567,0.081 -0.829,-0.003 -19.092,0.222 -38.05,-18.79 -43.862,-25.177 -4.468,-4.91 -10.866,-12.285 -17.64,-20.094 -11.027,-12.713 -22.43,-25.859 -26.92,-30.006 -3.855,-3.561 -17.884,-15.658 -36.544,-21.803 -13.402,-4.414 -22.488,-4.998 -24.973,-5.07 -1.495,2.639 -3.099,5.217 -4.769,7.724 -3.196,4.802 -6.605,9.436 -10.114,13.986 -7.09,9.041 -14.525,17.787 -22.256,26.263 -3.865,4.233 -7.824,8.401 -11.807,12.509 -3.937,4.076 -7.633,8.408 -11.166,12.874 -7.045,8.947 -13.494,18.399 -19.333,28.203 -1.46,2.449 -2.906,4.912 -4.24,7.43 -1.338,2.516 -2.631,5.052 -3.631,7.712 -1.014,2.656 -1.801,5.399 -2.38,8.19 -0.562,2.791 -0.957,5.636 -0.947,8.499 -0.237,-5.73 0.809,-11.484 2.651,-16.933 0.92,-2.735 2.139,-5.355 3.396,-7.935 1.254,-2.586 2.618,-5.112 3.999,-7.627 5.636,-10 11.922,-19.627 18.833,-28.818 3.461,-4.591 7.11,-9.057 11.096,-13.244 3.937,-4.152 7.814,-8.326 11.618,-12.588 7.629,-8.493 15.021,-17.204 22.014,-26.207 5.439,-7.062 10.733,-14.246 15.08,-21.951 0.018,-0.043 0.029,-0.089 0.052,-0.13 0.024,-0.041 0.801,-1.42 1.931,-3.562 0.484,-0.948 0.969,-1.897 1.419,-2.863 3.15,-6.576 5.867,-13.377 8.178,-20.311 1.953,-6.626 3.45,-13.007 4.577,-19.151 -0.03,-0.184 -0.024,-0.375 0.025,-0.566 0.03,-0.11 0.075,-0.211 0.127,-0.307 5.684,-31.872 1.346,-57.296 -2.021,-76.935 -4.471,-26.08 -17.36,-60.774 -26.771,-86.108 -3.423,-9.214 -6.379,-17.171 -8.058,-22.452 -7.207,-22.657 -0.329,-44.117 18.868,-58.876 11.433,-8.791 26.74,-13.837 45.493,-14.999 15.584,-0.965 43.094,1.64 69.701,4.159 6.997,0.663 13.607,1.289 19.991,1.849 31.788,2.792 57.3,1.973 93.664,-10.481 16.015,-5.486 23.775,-13.373 29.774,-21.079 11.216,-14.409 11.794,-33.606 1.627,-54.054 -7.682,-15.451 -29.697,-21.756 -40.25,-23.941 9.797,7.501 16.265,16.507 18.816,26.274 2.183,8.35 0.8,17.139 -3.893,24.749 -6.319,10.246 -17.758,17.584 -32.21,20.663 -21.416,4.562 -48.187,1.836 -69.697,-0.356 l -2.894,-0.295 c -5.339,-0.547 -10.859,-1.112 -16.135,-1.581 l -0.328,-0.03 c -29.056,-2.587 -68.849,-6.129 -94.37,-2.726 -26.552,3.541 -48.23,11.321 -64.433,23.124 -18.448,13.44 -27.502,35.822 -31.848,52.23 -5.233,19.751 -0.973,56.743 2.471,72.158 1.392,6.231 3.42,13.39 5.568,20.97 3.287,11.602 7.014,24.752 9.211,37.404 0.834,4.807 2.097,13.384 2.689,23.898 0.064,0.207 0.073,0.426 0.035,0.64 1.175,22.069 -0.669,52.394 -15.508,74.426 -7.931,11.776 -22.344,27.214 -55.661,25.312 -30.302,-1.728 -46.297,-40.679 -56.881,-66.453 -0.963,-2.346 -1.874,-4.563 -2.737,-6.607 -9.799,-23.184 -35.988,-55.394 -36.252,-55.717 -0.026,-0.033 -0.052,-0.067 -0.075,-0.102 -0.079,-0.117 -8.043,-11.921 -21.325,-27.712 l -2.686,-3.189 c -20.253,-24.047 -47.991,-56.979 -62.106,-88.111 -3.743,-8.253 -9.314,-29.953 -5.894,-45.091 3.935,-17.42 18.952,-26.286 31.695,-28.774 8.772,-1.714 53.538,-10.77 73.282,-20.8 7.628,-3.876 14.551,-7.927 20.019,-11.715 7.286,-5.045 25.337,-18.554 35.592,-34.998 7.055,-11.312 10.368,-31.762 11.656,-42.127 -5.416,9.12 -16.841,27.142 -28.636,38.175 -16.95,15.858 -26.408,23.274 -38.924,30.521 l -1.005,0.583 c -2.264,1.315 -4.402,2.556 -6.133,3.383 -6.679,3.185 -17.42,5.871 -33.8,8.45 -9.257,1.458 -18.592,1.758 -28.776,1.758 -3.431,0 -6.958,-0.035 -10.61,-0.07 -3.162,-0.03 -6.436,-0.061 -9.841,-0.074 h -0.184 c -17.032,0 -34.544,8.425 -49.326,23.737 -13.552,14.038 -20.76,34.561 -22.683,64.584 -1.876,29.319 13.524,61.179 19.322,73.173 l 0.548,1.134 c 5.218,10.834 31.24,55.077 31.503,55.522 0.075,0.128 0.121,0.267 0.151,0.409 1.188,2.062 2.298,4.192 3.341,6.303 0.656,1.315 1.275,2.644 1.915,3.965 l 1.838,3.995 c 2.405,5.345 4.65,10.754 6.795,16.201 4.241,10.914 8.057,21.988 11.394,33.205 0.836,2.804 1.656,5.612 2.417,8.437 l 1.164,4.231 1.092,4.25 c 1.491,5.662 2.734,11.354 4.087,17.036 l 7.97,34.098 c 2.561,11.39 5.212,22.756 7.691,34.161 -3.077,-11.263 -5.985,-22.566 -8.982,-33.846 l -8.705,-33.907 c -5.548,-22.67 -12.099,-45.015 -20.667,-66.671 -2.116,-5.416 -4.322,-10.798 -6.688,-16.105 -1.799,-3.996 -3.643,-7.977 -5.69,-11.819 -0.78,3.382 -2.094,11.389 -3.615,30.137 -2.575,31.747 10.362,85.43 10.492,85.968 0.041,0.168 0.038,0.336 0.015,0.501 0.323,1.409 0.656,2.815 1.023,4.206 1.086,4.106 2.337,8.225 3.51,12.355 l 3.453,12.417 c 1.163,4.09 2.455,8.16 3.809,12.22 2.685,8.129 5.615,16.191 8.52,24.262 l 17.856,48.308 c -6.955,-15.707 -13.598,-31.551 -19.841,-47.56 -3.145,-7.997 -6.134,-16.055 -8.975,-24.183 -1.424,-4.062 -2.721,-8.178 -3.935,-12.337 l -3.508,-12.379 c -1.156,-4.133 -2.379,-8.236 -3.468,-12.436 -0.349,-1.36 -0.666,-2.722 -0.974,-4.086 -3.984,-1.746 -25.751,-11.222 -36.886,-14.652 -12.081,-3.722 -27.117,-8.354 -52.541,-9.372 -25.545,-1.024 -39.616,-1.588 -58.693,-17.241 -19.097,-15.669 -17.891,-35.501 -14.707,-51.029 2.288,-11.151 17.039,-36.297 27.81,-54.657 4.017,-6.847 7.487,-12.76 9.409,-16.427 5.025,-9.58 14.185,-44.496 5.996,-70.088 -3.678,-11.49 -10.385,-19.766 -19.935,-24.597 -28.503,-14.416 -57.681,-14.153 -89.203,0.802 -19.971,9.476 -33.585,38.574 -37.784,61.599 -2.278,12.487 -2.533,20.492 -2.331,25.077 4.412,-10.644 15.022,-35.722 21.333,-46.29 7.726,-12.936 23.336,-26.174 40.789,-26.582 16.03,-0.388 37.601,4.937 45.53,21.153 7.915,16.188 -5.615,40.577 -13.699,55.148 -1.992,3.591 -5.326,8.349 -9.188,13.858 -12.376,17.657 -31.077,44.338 -37.471,76.122 -8.351,41.5 9.922,69.853 24.393,87.57 12.561,15.377 45.031,29.073 79.409,43.574 14.092,5.945 28.665,12.092 42.894,18.735 2.816,1.315 5.505,2.614 8.085,3.899 0.086,0.003 0.172,0.002 0.257,0.005 0.492,0.018 0.91,0.298 1.134,0.697 38.888,19.613 51.527,36.177 68.527,58.484 1.515,1.991 3.067,4.027 4.676,6.116 2.46,3.194 4.851,6.783 7.108,10.668 7.83,13.474 13.528,29.576 17.968,44.883 l 0.017,0.041 c 0.037,0.094 0.062,0.189 0.078,0.284 2.74,9.476 4.999,18.639 6.977,26.67 1.312,5.328 2.551,10.361 3.721,14.629 5.995,21.886 23.264,75.104 45.709,119.877 21.252,42.396 69.283,80.041 105.746,95.316 33.297,13.949 106.719,26.333 170.68,-15.74 64.039,-42.125 58.446,-99.987 48.667,-139.845 -10.986,-44.784 -54.102,-78.021 -62.634,-84.229 -2.216,-1.613 -5.933,-3.807 -10.639,-6.587 -15.098,-8.916 -40.367,-23.839 -51.841,-41.721 -8.975,-13.992 -9.199,-33.978 -0.52,-46.49 8.043,-11.596 22.471,-15.825 40.618,-11.909 37.681,8.132 63.467,30.526 82.295,46.877 4.023,3.494 7.823,6.795 11.387,9.662 19.9,16.011 32.191,22.842 66.32,21.06 34.6,-1.807 61.347,-28.279 65.046,-64.377 m -124.532,-22.571 c 0.24,0.265 0.478,0.527 0.707,0.779 10.799,11.867 26.178,23.381 40.088,24.221 -1.643,-3.104 -5.972,-9.53 -15.93,-15.85 -9.84,-6.247 -19.809,-8.413 -24.865,-9.15 m -6.071,-64.8 c -35.911,-13.736 -67.617,-10.618 -80.112,-8.506 1.478,0.427 3.017,0.898 4.624,1.428 18.656,6.144 32.467,17.705 37.54,22.389 4.6,4.25 16.054,17.453 27.13,30.223 5.17,5.96 10.117,11.663 14.149,16.204 2.84,0.2 15.897,1.549 29.067,9.909 11.997,7.617 16.282,15.364 17.517,18.161 1.516,-0.087 3.008,-0.315 4.468,-0.699 5.17,-1.356 9.26,-4.922 11.827,-10.311 4.72,-9.905 4.006,-24.727 -1.765,-37.979 -1.475,-1.819 -19.981,-23.811 -64.445,-40.819 m -76.124,-57.778 c 7.084,0.484 21.693,0.354 39.98,-5.92 3.204,-1.1 14.267,-5.473 22.109,-15.588 7.156,-9.233 9.538,-20.471 7.149,-33.48 -1.597,7.519 -6.518,18.642 -21.004,28.45 -1.417,0.96 -7.422,4.406 -25.166,8.432 -12.219,2.773 -24.683,-0.191 -28.818,-1.364 -0.401,5.908 -1.119,12.076 -2.235,18.505 1.468,0.28 4.15,0.704 7.985,0.965 m -249.512,-95.577 c 5.369,6.755 26.689,34.208 35.398,54.816 0.867,2.052 1.781,4.277 2.748,6.632 10.324,25.141 25.927,63.137 54.513,64.766 31.6,1.799 45.047,-11.94 53.244,-24.112 5.935,-8.814 9.728,-19.022 12.06,-29.493 -4.878,-2.656 -27.814,-15.392 -39.539,-26.185 -12.294,-11.317 -43.728,-31.42 -61.529,-37.879 -18.445,-6.691 -28.65,-9.738 -40.356,-10.101 -8.374,-0.262 -13.957,0.863 -16.539,1.556 m 160.504,29.226 c -26.712,-21.884 -53.61,-43.167 -75.74,-59.931 -36.789,-27.868 -83.581,-35.807 -103.183,-36.112 -13.399,-0.211 -25.892,4.217 -30.228,5.94 8.069,10.213 16.143,19.801 23.281,28.277 l 2.687,3.191 c 11.325,13.464 18.821,24.066 20.908,27.081 2.035,-0.639 7.345,-1.995 15.838,-1.995 0.822,0 1.675,0.013 2.556,0.04 12.08,0.376 22.473,3.471 41.203,10.265 18.072,6.556 49.974,26.956 62.445,38.436 10.996,10.123 32.242,22.089 38.278,25.403 2.77,-14.009 3.044,-28.305 2.421,-40.214 z m -377.175,182.543 c -38.404,21.188 -50.574,66.381 -36.173,134.322 l 0.661,3.119 c 4.927,23.211 9.58,45.134 9.827,63.304 0.282,20.748 -5.218,33.757 -17.31,40.94 -20.938,12.438 -41.194,-0.852 -49.032,-7.243 2.88,8.584 12.821,27.132 44.919,25.582 45.807,-2.221 54.901,-58.065 56.685,-81.972 0.703,-9.429 0.188,-20.199 -0.357,-31.602 -1.416,-29.614 -3.02,-63.18 17.833,-81.163 13.704,-11.818 30.217,-17.582 47.764,-16.66 16.465,0.863 33.574,7.542 49.524,19.307 0.161,0.034 0.319,0.086 0.462,0.18 0.453,0.294 9.47,6.236 16.349,15.504 -2.941,-7.617 -6.304,-14.996 -10.194,-21.692 -2.199,-3.784 -4.524,-7.274 -6.912,-10.374 -1.612,-2.093 -3.167,-4.132 -4.685,-6.126 -16.896,-22.172 -29.416,-38.594 -68.421,-58.126 -17.374,-0.487 -34.974,3.891 -50.94,12.7 m 111.099,84.438 c -3.808,5.587 -36.78,56.754 -21.778,131.93 8.905,44.627 19.55,79.35 31.636,103.205 8.801,17.37 18.149,28.682 27.785,33.621 4.002,2.052 7.322,2.602 9.731,2.602 0.904,0 1.68,-0.077 2.316,-0.182 -11.537,-11.809 -20.205,-26.255 -25.134,-41.92 -6.423,-20.411 -14.361,-52.976 -15.706,-92.203 -1.252,-36.483 7.472,-62.8 15.012,-78.452 7.153,-14.848 14.46,-23.031 16.448,-25.111 -0.311,-1.708 -1.249,-6.485 -2.954,-12.186 -6.277,-15.318 -14.508,-26.973 -24.483,-34.67 -2.374,1.934 -8.848,7.464 -12.873,13.366 M -12.606,38.003 c -12.071,6.794 -25.342,7.897 -39.441,3.282 -27.849,-9.117 -51.999,-38.579 -62.652,-62.094 -12.569,-27.74 -16.277,-61.457 -10.443,-94.937 5.337,-30.638 0.723,-62.629 0.072,-66.825 -27.371,-0.115 -39.865,-7.537 -57.743,-21.922 -3.605,-2.9 -7.423,-6.216 -11.467,-9.728 -19.641,-17.058 -44.085,-38.285 -81.081,-46.27 -21.792,-4.702 -32.585,3.277 -37.802,10.798 -8.088,11.659 -7.841,30.344 0.575,43.462 11.122,17.337 36.042,32.053 50.932,40.846 4.768,2.816 8.534,5.041 10.857,6.73 8.666,6.306 52.465,40.077 63.678,85.784 9.975,40.662 15.663,99.699 -49.817,142.773 -64.92,42.704 -139.44,30.136 -173.233,15.977 -36.926,-15.469 -85.58,-53.62 -107.131,-96.609 -22.539,-44.963 -39.881,-98.403 -45.9,-120.378 -1.179,-4.303 -2.423,-9.352 -3.739,-14.698 -0.96,-3.901 -1.988,-8.07 -3.104,-12.412 -6.007,6.76 -32.022,39.698 -29.93,100.724 1.336,38.92 9.211,71.228 15.582,91.477 5.03,15.98 14.053,30.658 26.097,42.449 0.32,0.313 0.466,0.761 0.392,1.202 -0.075,0.44 -0.361,0.816 -0.764,1.007 -0.269,0.125 -6.679,3.032 -16.292,-1.815 -16.911,-8.526 -41.227,-39.53 -61.041,-138.817 -15.221,-76.267 18.324,-128.315 22.199,-133.999 3.989,-5.849 10.056,-11.184 12.864,-13.506 -32.487,-23.464 -67.092,-24.279 -92.875,-2.044 -19.847,17.116 -18.277,49.976 -16.891,78.968 0.55,11.489 1.068,22.34 0.352,31.936 -1.837,24.629 -11.292,82.165 -59.272,84.491 -43.244,2.112 -48.777,-31.741 -48.828,-32.083 -0.087,-0.585 0.214,-1.16 0.744,-1.422 0.53,-0.262 1.171,-0.152 1.583,0.272 0.239,0.248 24.309,24.549 49.088,9.827 24.615,-14.622 16.085,-54.805 6.209,-101.333 l -0.662,-3.12 c -6.353,-29.976 -7.673,-54.798 -4.035,-75.886 4.864,-28.204 18.847,-48.859 41.559,-61.39 14.665,-8.09 30.675,-12.545 46.676,-13.038 -0.985,-0.471 -1.967,-0.94 -2.984,-1.416 -14.183,-6.622 -28.731,-12.759 -42.8,-18.693 -36.204,-15.272 -67.473,-28.46 -80.461,-44.363 -8.539,-10.454 -34.526,-42.269 -24.955,-89.832 6.508,-32.343 25.406,-59.307 37.911,-77.149 3.818,-5.447 7.114,-10.15 9.037,-13.615 7.313,-13.182 20.924,-37.717 13.634,-52.629 -7.363,-15.057 -27.765,-19.985 -43.016,-19.624 -16.326,0.383 -31.407,13.359 -38.512,25.254 -7.838,13.127 -22.994,50.406 -23.146,50.781 -0.218,0.536 -0.719,0.884 -1.329,0.849 -0.579,-0.028 -1.077,-0.418 -1.241,-0.973 -0.102,-0.343 -2.445,-8.652 1.69,-31.331 4.318,-23.689 18.46,-53.687 39.299,-63.573 32.333,-15.342 62.298,-15.595 91.601,-0.772 10.227,5.172 17.394,13.987 21.301,26.199 8.552,26.72 -0.826,61.983 -6.177,72.186 -1.953,3.724 -5.437,9.663 -9.471,16.54 -10.676,18.195 -25.295,43.116 -27.491,53.825 -3.219,15.694 -4.101,33.714 13.764,48.372 18.37,15.074 32.117,15.624 57.16,16.628 25.692,1.029 40.915,5.719 53.148,9.487 10.069,3.103 28.625,11.042 35.328,13.956 -2.58,-11.317 -12.218,-56.088 -9.939,-84.172 1.881,-23.202 3.47,-30.627 4.491,-33.103 -3.327,-5.66 -26.254,-44.739 -31.243,-55.097 l -0.546,-1.13 c -5.883,-12.171 -21.509,-44.499 -19.587,-74.534 1.967,-30.706 9.415,-51.774 23.442,-66.304 15.302,-15.85 33.508,-24.571 51.288,-24.571 0.065,0 0.129,10e-4 0.193,10e-4 3.412,0.012 6.69,0.043 9.858,0.075 14.374,0.139 26.783,0.258 38.937,-1.657 16.112,-2.536 26.614,-5.148 33.049,-8.217 1.631,-0.778 3.723,-1.993 5.938,-3.28 l 1.007,-0.584 c 12.312,-7.13 21.649,-14.456 38.427,-30.152 15.631,-14.622 31.191,-42.839 31.346,-43.122 0.244,-0.445 0.708,-0.708 1.195,-0.708 0.13,0 0.261,0.018 0.39,0.057 0.615,0.183 1.02,0.771 0.97,1.412 -0.106,1.367 -2.718,33.672 -12.743,49.748 -10.524,16.875 -28.928,30.655 -36.353,35.797 -5.568,3.856 -12.6,7.972 -20.336,11.904 -19.563,9.938 -61.583,18.62 -73.996,21.044 -11.897,2.324 -25.911,10.558 -29.557,26.699 -3.277,14.507 2.107,35.401 5.717,43.364 8.655,19.09 22.553,38.938 36.668,56.968 3.609,-1.508 16.52,-6.439 31.045,-6.439 0.326,0 0.657,0.002 0.985,0.006 19.912,0.311 67.436,8.373 104.787,36.666 21.746,16.472 48.088,37.303 74.334,58.779 -0.636,-9.086 -1.735,-16.467 -2.482,-20.772 -2.174,-12.512 -5.879,-25.59 -9.147,-37.127 -2.159,-7.618 -4.198,-14.813 -5.607,-21.119 -3.138,-14.053 -8.113,-52.058 -2.446,-73.451 4.46,-16.836 13.784,-39.824 32.88,-53.736 16.573,-12.074 38.67,-20.022 65.678,-23.623 25.821,-3.443 65.789,0.116 94.971,2.713 l 0.328,0.029 c 5.294,0.472 10.825,1.037 16.171,1.585 l 2.895,0.295 c 21.319,2.172 47.854,4.873 68.851,0.401 13.715,-2.922 24.533,-9.82 30.456,-19.427 4.361,-7.071 5.599,-14.895 3.578,-22.627 -2.733,-10.455 -10.315,-20.036 -21.927,-27.707 -0.805,-0.532 -1.566,-1.034 -1.206,-2.061 0.207,-0.59 0.802,-0.968 1.42,-0.912 0.367,0.032 37.179,4.224 48.225,26.442 10.505,21.129 9.807,41.884 -1.916,56.943 -5.959,7.655 -14.307,16.252 -31.042,21.985 -36.821,12.611 -62.637,13.442 -94.786,10.618 -6.394,-0.562 -13.008,-1.188 -20.011,-1.851 -26.501,-2.509 -53.905,-5.102 -69.274,-4.152 -18.201,1.128 -33.005,5.986 -44,14.44 -24.964,19.192 -21.95,43.252 -17.931,55.887 1.659,5.217 4.605,13.147 8.015,22.328 9.448,25.434 22.39,60.267 26.902,86.597 2.587,15.089 5.744,33.554 4.588,55.716 2.625,0.778 15.687,4.304 28.049,1.498 13.73,-3.116 21.524,-6.192 24.241,-8.031 22.684,-15.359 20.54,-33.821 20.439,-34.596 -0.001,-0.008 0,-0.015 -0.001,-0.023 -0.005,-0.046 -0.004,-0.092 -0.005,-0.138 -0.001,-0.045 -0.005,-0.09 0,-0.135 0.003,-0.039 0.012,-0.077 0.018,-0.116 0.009,-0.049 0.015,-0.099 0.029,-0.147 0.009,-0.033 0.025,-0.064 0.037,-0.097 0.018,-0.049 0.035,-0.099 0.058,-0.146 0.017,-0.033 0.039,-0.062 0.059,-0.094 0.026,-0.043 0.05,-0.086 0.081,-0.125 0.024,-0.032 0.055,-0.059 0.081,-0.088 0.032,-0.035 0.063,-0.071 0.099,-0.102 0.029,-0.025 0.064,-0.047 0.095,-0.07 0.041,-0.03 0.079,-0.06 0.122,-0.084 0.032,-0.019 0.068,-0.032 0.102,-0.048 0.048,-0.023 0.095,-0.046 0.147,-0.063 0.005,-0.003 0.011,-0.006 0.018,-0.008 0.014,-0.004 0.027,-0.002 0.041,-0.006 0.062,-0.018 0.121,-0.036 0.186,-0.045 0.059,-0.008 0.119,-0.012 0.177,-0.012 0.002,0 0.004,-10e-4 0.007,-10e-4 0.157,0 0.308,0.032 0.452,0.083 0.05,0.018 0.091,0.047 0.138,0.07 0.09,0.043 0.176,0.089 0.254,0.152 0.048,0.038 0.086,0.082 0.127,0.126 0.063,0.065 0.122,0.133 0.171,0.211 0.036,0.056 0.063,0.116 0.09,0.177 0.02,0.046 0.051,0.084 0.067,0.133 14.071,44.47 -24.487,59.122 -28.93,60.647 -18.741,6.43 -33.763,6.559 -41.048,6.061 -3.949,-0.268 -6.714,-0.7 -8.284,-0.999 -1.463,7.746 -3.513,15.866 -6.305,24.372 -2.293,6.987 -6.795,15.639 -8.867,19.465 2.577,0.159 7.249,0.654 13.63,2.141 2.067,-0.505 13.218,-3.021 29.647,-3.021 15.518,0 35.745,2.246 57.462,10.553 32.521,12.439 51.154,27.236 59.794,35.487 -2.018,-4.157 -4.066,-8.198 -6.074,-12.138 -6.468,-12.691 -12.577,-24.679 -15.509,-37.226 -4.051,-17.337 -2.754,-49.926 17.969,-63.569 9.008,-5.93 24.455,-12.93 47.085,-12.597 l 0.114,0.002 c 14.533,0.212 39.255,5.64 41.54,39.601 0.008,0.119 0,0.236 -0.022,0.348 0.103,0.537 -0.124,1.106 -0.614,1.413 -0.637,0.399 -1.48,0.209 -1.881,-0.43 -16.15,-25.731 -55.312,-15.452 -55.695,-15.331 -10.005,3.116 -21.153,10.584 -17.445,28.459 2.095,10.101 12.173,20.834 21.065,30.305 4.503,4.797 8.758,9.327 11.917,13.62 0.511,0.696 1.065,1.439 1.653,2.231 10.454,14.051 32.207,43.29 28.444,80.02 -2.007,19.595 -10.579,36.448 -23.438,48.345 0.097,5.585 0.463,49.821 -10.762,89.267 -12.272,43.131 -10.868,83.939 3.576,103.963 12.273,17.019 27.381,27.011 42.54,28.135 6.763,0.504 13.204,-2.103 17.232,-6.967 3.736,-4.51 4.932,-10.225 3.363,-16.091 -3.257,-12.182 -14.114,-20.636 -14.222,-20.72 -0.486,-0.373 -0.663,-1.022 -0.436,-1.589 0.228,-0.567 0.806,-0.914 1.412,-0.848 16.973,1.835 26.959,14.79 30.356,25.327 6.828,21.187 -4.498,32.815 -15.202,38.839"
             style="fill:#000000;fill-opacity:1;fill-rule:nonzero;stroke:none"
             id="path4402" /></g></g></g></g></svg>
