<?xml version="1.0" encoding="UTF-8" standalone="no"?>
<svg
   xmlns:dc="http://purl.org/dc/elements/1.1/"
   xmlns:cc="http://creativecommons.org/ns#"
   xmlns:rdf="http://www.w3.org/1999/02/22-rdf-syntax-ns#"
   xmlns:svg="http://www.w3.org/2000/svg"
   xmlns="http://www.w3.org/2000/svg"
   xmlns:sodipodi="http://sodipodi.sourceforge.net/DTD/sodipodi-0.dtd"
   xmlns:inkscape="http://www.inkscape.org/namespaces/inkscape"
   inkscape:export-ydpi="3.8399999"
   inkscape:export-xdpi="3.8399999"
   inkscape:export-filename="C:\Users\jongw\git\miworkplace\miworkplace.ui\feature.png"
   width="800"
   height="800"
   viewBox="0 0 211.66666 211.66666"
   version="1.1"
   id="svg8"
   inkscape:version="1.0 (4035a4fb49, 2020-05-01)"
   sodipodi:docname="miwlogo.svg">
  <defs
     id="defs2" />
  <sodipodi:namedview
     width="480px"
     units="px"
     id="base"
     pagecolor="#ffffff"
     bordercolor="#666666"
     borderopacity="1.0"
     inkscape:pageopacity="0.0"
     inkscape:pageshadow="2"
     inkscape:zoom="0.35"
     inkscape:cx="-370.52711"
     inkscape:cy="800.59865"
     inkscape:document-units="mm"
     inkscape:current-layer="layer1"
     inkscape:document-rotation="0"
     showgrid="true"
     inkscape:window-width="1600"
     inkscape:window-height="837"
     inkscape:window-x="-8"
     inkscape:window-y="-8"
     inkscape:window-maximized="1">
    <inkscape:grid
       type="xygrid"
       id="grid989" />
  </sodipodi:namedview>
  <metadata
     id="metadata5">
    <rdf:RDF>
      <cc:Work
         rdf:about="">
        <dc:format>image/svg+xml</dc:format>
        <dc:type
           rdf:resource="http://purl.org/dc/dcmitype/StillImage" />
        <dc:title></dc:title>
      </cc:Work>
    </rdf:RDF>
  </metadata>
  <g
     inkscape:label="Layer 1"
     inkscape:groupmode="layer"
     id="layer1">
    <path
       d="m 185.38376,145.74653 h 17.68343 c 4.32801,0.0795 4.30592,3.0283 -0.44208,3.09462 h -14.14675 v 0.88417 h 11.49423 c 1.13616,0 4.35012,-0.12374 5.23873,0.26525 1.30413,0.56586 1.29088,1.60918 1.39255,2.82934 h -16.35716 c -1.40583,-0.005 -3.15207,0.16799 -4.1556,-1.02122 -1.00353,-1.18921 -0.70735,-4.48274 -0.70735,-6.05216 z"
       id="path910"
       style="fill:#003f70;fill-opacity:1;stroke:#000000;stroke-width:0.264583;stroke-miterlimit:4;stroke-dasharray:none;stroke-opacity:1" />
    <path
       d="M 206.60387,143.97814 H 172.1212 c -1.59593,0.005 -3.40407,-0.10168 -4.76126,0.8886 -1.74624,1.26877 -1.75067,3.74004 0.36692,4.59326 0.77808,0.31388 2.20601,0.26525 3.06808,0.26525 h 9.2838 c 0.85322,0 2.29443,-0.0485 3.06808,0.26526 1.3793,0.56144 1.86559,1.96286 0.71174,2.57736 -0.59238,0.31388 -2.19274,0.25198 -2.89565,0.25198 h -12.82049 c -5.33597,-0.10168 -6.67549,-6.00353 -3.99202,-9.64187 1.70202,-2.31212 4.06719,-2.29003 6.64454,-2.29444 h 27.40931 c 1.79929,0 6.91864,-0.52166 7.9487,1.02123 0.41113,0.62334 0.39346,1.36604 0.45092,2.07337 z"
       id="path906"
       style="fill:#003f70;fill-opacity:1;stroke:#000000;stroke-width:0.264583;stroke-miterlimit:4;stroke-dasharray:none;stroke-opacity:1" />
    <path
       d="m 118.62883,144.42023 c -3.29354,-0.80018 -10.81342,-0.41556 -14.58883,-0.44209 -0.80016,-0.005 -2.56408,0.106 -3.01944,-0.70292 -1.27321,-2.25906 3.30238,-2.39168 4.3457,-2.39168 2.61274,-0.005 11.84791,-0.32272 13.70466,0.44652 3.02386,1.24666 3.44386,4.5579 1.25995,6.43675 -1.19807,1.03008 -2.42264,1.05218 -3.91247,1.07427 H 104.04 c -0.005,1.28205 0.28736,3.47479 -1.38373,3.8152 -0.4686,0.0972 -1.061,0.01 -1.44561,-0.29177 -1.07869,-0.83112 -1.255524,-5.26525 1.52077,-6.35279 0.95491,-0.37575 3.69584,-0.26523 4.84526,-0.26523 3.2626,0 8.01059,0.29619 11.05214,-0.4421 z"
       id="path904"
       style="fill:#003f70;fill-opacity:1;stroke:#000000;stroke-width:0.264583;stroke-miterlimit:4;stroke-dasharray:none;stroke-opacity:1" />
    <path
       d="m 81.051553,148.84108 c -0.0043,0.76039 0.05747,2.29885 -0.26525,2.95756 -0.552608,1.12731 -2.144116,1.15827 -2.820507,0.31388 -0.552608,-0.6985 -0.450926,-2.3961 -0.450926,-3.27144 -0.0043,-1.45446 -0.221043,-5.45533 0.450926,-6.54286 0.742703,-1.22901 2.188324,-1.36605 2.820507,0 0.340405,0.75155 0.26525,2.5862 0.26525,3.44827 3.408482,0 6.03447,0.31387 9.283799,-1.02122 l 6.604759,-3.39521 c 1.40141,-0.11936 1.967288,1.23783 1.078687,2.51546 -0.862067,1.24226 -3.227215,2.55967 -4.588842,3.22724 2.793973,1.54286 5.026517,2.29441 5.305023,5.74709 -4.659577,-0.0618 -4.469489,-1.93191 -8.399627,-3.267 -2.780718,-0.94607 -6.343928,-0.71177 -9.283799,-0.71177 z"
       id="path902"
       style="fill:#003f70;fill-opacity:1;stroke:#000000;stroke-width:0.264583;stroke-miterlimit:4;stroke-dasharray:none;stroke-opacity:1" />
    <path
       d="m 72.651927,145.74649 c -0.994694,-1.76391 -1.582667,-1.72856 -3.536686,-1.76835 H 58.505185 c -0.702915,0 -2.303266,0.0618 -2.895662,-0.25198 -1.153842,-0.61451 -0.667547,-2.01592 0.71176,-2.57736 0.773649,-0.3139 2.214848,-0.26526 3.068073,-0.26526 2.356317,-0.005 11.653379,-0.22103 13.262571,0.28735 2.5862,0.81788 4.045083,3.44386 2.387263,5.86206 -0.512821,0.75155 -1.242262,1.25552 -1.945177,1.80813 2.099906,1.16711 2.457995,1.57825 2.652512,3.97877 -4.659581,-0.0618 -4.469485,-1.93191 -8.399626,-3.267 -2.78072,-0.94607 -6.343929,-0.71177 -9.283799,-0.71177 -0.0043,1.40583 0.291777,3.85056 -1.768342,3.85056 -0.51282,0 -0.990272,-0.16798 -1.317417,-0.57912 -0.716178,-0.90185 -0.888591,-5.01767 1.799289,-6.1008 0.963747,-0.38901 4.076031,-0.26523 5.265241,-0.26523 z"
       id="path900"
       style="fill:#003f70;fill-opacity:1;stroke:#000000;stroke-width:0.264583;stroke-miterlimit:4;stroke-dasharray:none;stroke-opacity:1" />
    <path
       id="path898"
       style="fill:#003f70;fill-opacity:1;stroke:#000000;stroke-width:0.264583;stroke-miterlimit:4;stroke-dasharray:none;stroke-opacity:1"
       d="m 35.516731,141.13112 c 2.374,-0.41556 7.541981,-0.27853 10.167971,-0.24758 1.909809,0.0265 3.704678,0.16799 5.212189,1.51193 2.617148,2.3298 2.58178,7.66135 -0.389034,9.71705 -1.198053,0.8267 -2.559676,0.70291 -3.938984,0.70733 H 36.400902 c -6.330666,-0.11936 -5.98584,-7.31651 -4.173289,-9.64187 0.906277,-1.1627 1.962861,-1.58267 3.289118,-2.04686 z m 1.335099,2.99738 c -3.788674,1.16711 -2.789561,4.63306 -1.233419,5.33156 0.994693,0.45093 8.028275,0.26968 9.624205,0.26526 0.950485,0 2.550834,0.0972 3.346589,-0.45093 1.534036,-1.05658 1.100792,-3.81077 -0.375775,-4.71706 -1.494248,-0.91512 -9.363373,-0.66313 -11.3616,-0.42883 z" />
    <path
       d="m 15.622876,149.72525 c -0.291776,-2.21484 -0.503976,-2.96639 -0.433243,-5.30502 0.03536,-1.22901 0.990272,-4.81873 2.63483,-2.49337 1.193631,1.68877 -1.007954,7.43147 3.987612,7.71441 0.459769,0.0885 1.317416,0.0575 1.759502,0 2.961974,-0.82228 2.011488,-3.85941 2.267899,-6.09637 0.101685,-0.9107 0.481873,-2.36515 1.702031,-2.20601 1.750658,0.22547 1.357201,4.02297 1.343939,5.29176 -0.06191,4.60653 -1.693188,6.18037 -6.189198,6.1892 h -8.841713 c -2.413789,0 -6.0433118,0.58356 -7.7674448,-1.39256 -1.551721,-1.77277 -1.7285562,-5.62774 -1.4677243,-7.88239 0.110519,-0.98142 0.6719701,-2.74093 2.0424359,-2.10874 1.7197113,0.79574 0.4111383,4.29707 1.582665,6.49422 1.3085746,2.45801 4.9778842,1.79487 7.3784092,1.79487 z"
       id="path896"
       style="fill:#003f70;fill-opacity:1;stroke:#000000;stroke-width:0.264583;stroke-miterlimit:4;stroke-dasharray:none;stroke-opacity:1" />
    <path
       d="m 127.02846,149.72525 h 11.93631 c 1.04776,0 2.47568,0.0972 3.39522,-0.45092 2.90008,-1.73296 6.24226,-11.7639 11.15383,-7.81165 0.63217,0.51281 1.37489,1.43236 1.89211,2.07338 l 2.63484,3.5367 c 1.7816,2.41819 2.4801,2.65691 2.5862,5.74709 -0.86207,-0.031 -1.71972,0.0221 -2.48893,-0.45093 -2.07339,-1.27762 -4.24846,-6.62243 -7.67904,-8.39078 -0.73828,1.90097 -4.57117,7.44029 -6.26436,8.39078 -0.80459,0.45093 -1.68433,0.43325 -2.57735,0.45093 h -11.49423 c -1.50752,0 -3.94783,0.25199 -5.15472,-0.70733 -1.57825,-1.25111 -1.47215,-3.23606 -1.47657,-5.03976 0,-1.13175 -0.11503,-3.82849 0.32715,-4.76128 0.57471,-1.21573 1.97612,-1.45003 2.75862,-0.34483 0.7206,1.01238 0.45092,6.25994 0.45092,7.7586 z"
       id="path894"
       style="fill:#003f70;fill-opacity:1;stroke:#000000;stroke-width:0.264583;stroke-miterlimit:4;stroke-dasharray:none;stroke-opacity:1" />
    <path
       d="m 29.958606,72.471624 v 23.43054 16.799266 c -0.0043,2.89565 -0.229885,5.52164 -2.051277,7.93985 -3.337748,4.43411 -10.296176,4.8983 -14.093692,0.80902 -2.396104,-2.57737 -2.860293,-5.83996 -2.864715,-9.19097 V 54.346113 c 0.07515,-6.264353 3.169756,-11.843476 10.16797,-11.476545 4.33244,0.229885 9.447371,5.663119 12.820485,8.381944 8.090167,6.525184 16.268751,13.081317 25.640967,17.70111 10.263435,5.393149 21.472102,5.525485 31.830167,6.153833 10.628839,-0.488795 21.055549,-2.294725 29.177659,-6.379296 7.9487,-4.071609 16.48536,-10.490693 23.41285,-16.144968 l 9.30149,-7.74534 c 5.03535,-3.651628 12.53755,-2.144117 14.36335,4.204235 0.26526,0.915116 0.22547,2.135271 0.22547,3.094597 v 62.776177 c 0,1.12289 0.0575,2.47568 -0.3183,3.53668 -2.06896,5.77805 -9.64189,7.51987 -14.26611,3.80635 -3.28469,-2.63925 -3.53669,-5.19451 -3.5411,-9.1114 V 72.029539 c -8.50131,6.900957 -21.38368,14.924812 -31.83017,18.306766 -8.69133,3.068557 -16.16887,3.788103 -25.198882,4.239603 -11.737373,0.01769 -20.097212,-0.40672 -31.38808,-4.208655 C 54.856869,88.187769 45.71896,83.625446 40.126576,79.735092 Z"
       id="path888"
       style="fill:#c8c442;fill-opacity:1;stroke:none;stroke-width:0.264583;stroke-miterlimit:4;stroke-dasharray:none;stroke-opacity:1"
       sodipodi:nodetypes="cccccccccccccccssccccccccc" />
    <circle
       cy="50.686729"
       cx="195.07571"
       id="path912-2"
       style="fill:#003f70;fill-opacity:1;stroke:none;stroke-width:0.227661;stroke-miterlimit:4;stroke-dasharray:none;stroke-opacity:1"
       r="9.7737999" />
    <path
       id="path888-3"
       style="fill:#c8c442;fill-opacity:1;stroke:none;stroke-width:0.243259;stroke-miterlimit:4;stroke-dasharray:none;stroke-opacity:1"
       d="m 185.81944,60.605639 c 0.15999,18.698553 0.0349,38.151 0.0108,54.290121 0.004,3.35511 0.25289,5.54389 3.49436,7.8046 4.56339,3.1809 12.03698,1.6888 14.07872,-3.26052 0.37091,-0.90882 0.3142,-2.06755 0.3142,-3.02939 0.14321,-18.589645 -0.22763,-37.237592 0.0615,-55.804811 -5.34152,6.768617 -11.9561,6.768617 -17.95958,0 z"
       sodipodi:nodetypes="ccccccc" />
    <circle
       r="9.7737999"
       style="fill:#003f70;fill-opacity:1;stroke:none;stroke-width:0.227661;stroke-miterlimit:4;stroke-dasharray:none;stroke-opacity:1"
       id="path912-2-9"
       cx="89.50425"
       cy="114.32306" />
  </g>
</svg>
